<?xml version="1.0" encoding="utf-8"?>
<!-- Generator: Adobe Illustrator 25.2.3, SVG Export Plug-In . SVG Version: 6.00 Build 0)  -->
<svg version="1.1" xmlns="http://www.w3.org/2000/svg" xmlns:xlink="http://www.w3.org/1999/xlink" x="0px" y="0px"
	 viewBox="0 0 500 500" style="enable-background:new 0 0 500 500;" xml:space="preserve">
<style type="text/css">
	.st0{fill:#3FA9F5;}
	.st1{fill:#FFFFFF;}
	.st2{font-family:'AcuminPro-Bold';}
	.st3{font-size:40.9114px;}
	.st4{fill:#0071BC;}
	.st5{font-family:'AcuminPro-Semibold';}
	.st6{fill:#0071BC;stroke:#3FA9F5;stroke-width:3;stroke-miterlimit:10;}
	.st7{display:none;}
	.st8{display:inline;fill:#3FA9F5;}
	.st9{display:inline;fill:none;stroke:#3FA9F5;stroke-width:3;stroke-linecap:round;stroke-miterlimit:10;}
	.st10{fill:none;stroke:#3FA9F5;stroke-width:3;stroke-linecap:round;stroke-miterlimit:10;}
	.st11{fill:none;stroke:#3FA9F5;stroke-width:2.5;stroke-linecap:round;stroke-miterlimit:10;}
	.st12{display:inline;fill:#0071BC;}
	.st13{fill:#00FB20;}
	.st14{display:inline;fill:none;stroke:#0071BC;stroke-width:3;stroke-miterlimit:10;}
	.st15{display:inline;fill:none;stroke:#3FA9F5;stroke-width:3;stroke-miterlimit:10;}
	.st16{display:inline;fill:#3FA9F5;stroke:#0071BC;stroke-width:3;stroke-miterlimit:10;}
	.st17{fill:none;stroke:#0071BC;stroke-width:7;stroke-miterlimit:10;}
	.st18{fill:none;stroke:#0071BC;stroke-width:5;stroke-miterlimit:10;}
	.st19{display:none;fill:none;stroke:#0071BC;stroke-width:3;stroke-miterlimit:10;}
	.st20{display:none;fill:#0071BC;}
	.st21{display:inline;fill:#0071BC;stroke:#3FA9F5;stroke-width:3;stroke-miterlimit:10;}
	.st22{display:inline;}
	.st23{display:inline;fill:#0071BC;stroke:#3FA9F5;stroke-width:2;stroke-miterlimit:10;}
	.st24{opacity:0.6;}
	.st25{fill:#0071BC;stroke:#3FA9F5;stroke-miterlimit:10;}
	.st26{fill:#0071BC;stroke:#3FA9F5;stroke-linecap:round;stroke-miterlimit:10;}
	.st27{fill:none;stroke:#0071BC;stroke-width:12;stroke-linecap:round;stroke-miterlimit:10;}
	.st28{fill:#0071BC;stroke:#3FA9F5;stroke-width:4;stroke-miterlimit:10;}
	.st29{fill:#0071BC;stroke:#3FA9F5;stroke-width:6;stroke-miterlimit:10;}
	.st30{fill:none;stroke:#3FA9F5;stroke-width:3;stroke-miterlimit:10;}
	.st31{display:inline;fill:#FFFFFF;}
	.st32{fill:#0071BC;stroke:#3FA9F5;stroke-width:5;stroke-miterlimit:10;}
	.st33{fill:none;stroke:#3FA9F5;stroke-width:4;stroke-miterlimit:10;}
	.st34{fill:none;stroke:#3FA9F5;stroke-width:5;stroke-miterlimit:10;}
	.st35{fill:#0071BC;stroke:#3FA9F5;stroke-width:2;stroke-miterlimit:10;}
	.st36{display:inline;fill:#0071BC;stroke:#3FA9F5;stroke-linecap:round;stroke-miterlimit:10;}
	.st37{fill:#3FA9F5;stroke:#0071BC;stroke-width:4;stroke-miterlimit:10;}
	.st38{display:none;fill:#3FA9F5;stroke:#0071BC;stroke-width:5;stroke-miterlimit:10;}
	.st39{fill:#3FA9F5;stroke:#0071BC;stroke-width:3;stroke-miterlimit:10;}
	.st40{fill:#0071BC;stroke:#0071BC;stroke-width:3;stroke-miterlimit:10;}
	.st41{fill:none;stroke:#0071BC;stroke-width:22;stroke-miterlimit:10;}
	.st42{display:none;fill:none;stroke:#0071BC;stroke-width:22;stroke-miterlimit:10;}
	.st43{display:inline;fill:none;stroke:#3FA9F5;stroke-width:2;stroke-miterlimit:10;}
	.st44{fill:none;stroke:#3FA9F5;stroke-width:2;stroke-miterlimit:10;}
</style>
<g id="background">
	<rect class="st0" width="500" height="500"/>
</g>
<g id="Text">
	<text transform="matrix(1 0 0 1 197.6298 431.7672)"><tspan x="0" y="0" class="st1 st2 st3">E</tspan><tspan x="25.28" y="0" class="st4 st5 st3">eek!</tspan></text>
</g>
<g id="Apart">
</g>
<g id="Be_a_good_boy">
	<g id="Layer_12">
	</g>
</g>
<g id="Charlies_Angels">
	<g id="Faces">
	</g>
</g>
<g id="Dog_did_it">
</g>
<g id="Eek">
	<ellipse class="st4" cx="249.83" cy="268.12" rx="46.59" ry="55.24"/>
	<g>
		<g>
			<path class="st4" d="M239.93,214.12c-1.39-1.2-2.72-2.44-4.08-3.66l-3.98-3.73l-3.91-3.79l-1.95-1.9
				c-0.65-0.63-1.32-1.25-1.84-1.98c-0.97-1.51-2.07-2.92-3.14-4.36l-3.22-4.3l-6.44-8.61l-25.77-34.42l-0.39-0.52l-0.18-0.63
				l-11.54-41.23l-0.13-0.46l0-0.49c0-0.89,0.02-1.78-0.05-2.66c-0.12-0.89,0.07-1.78,0.24-2.66l1-5.33
				c0.33-1.78,0.73-3.55,1.09-5.33c0.38-1.78,0.78-3.55,1.22-5.33c0.43,1.78,0.84,3.55,1.22,5.33c0.36,1.78,0.76,3.55,1.09,5.33
				l1,5.33c0.18,0.89,0.36,1.78,0.24,2.66c-0.07,0.89-0.05,1.78-0.05,2.66l-0.13-0.94l11.54,41.23l-0.57-1.15l25.77,34.42l6.44,8.61
				l3.22,4.3c1.08,1.43,2.12,2.89,3.3,4.25c0.56,0.7,0.95,1.53,1.38,2.33l1.27,2.4l2.53,4.82l2.46,4.87
				C238.36,210.82,239.17,212.45,239.93,214.12z"/>
		</g>
		<g>
			<path class="st4" d="M239.93,214.12c-0.93,0.27-1.85,0.47-2.77,0.7l-2.76,0.58c-0.92,0.18-1.83,0.35-2.75,0.51l-1.37,0.23
				c-0.46,0.07-0.92,0.18-1.35,0.1c-0.86-0.25-1.74-0.33-2.62-0.46l-2.63-0.36l-5.26-0.72l-21.03-2.89l-1.4-0.19l-0.87-1.11
				l-33.81-42.88l-0.52-0.66l-0.17-0.85c-0.29-1.44-0.52-2.89-0.87-4.32c-0.39-1.42-0.48-2.9-0.59-4.37l-0.67-8.84l-0.57-8.86
				c-0.18-2.96-0.33-5.92-0.45-8.89c0.98,2.8,1.92,5.61,2.84,8.43l2.73,8.45l2.63,8.47c0.44,1.41,0.9,2.82,1.06,4.28
				c0.19,1.46,0.51,2.89,0.77,4.34l-0.69-1.51l33.81,42.88l-2.27-1.3l21.03,2.89l5.26,0.72l2.63,0.36c0.88,0.11,1.75,0.27,2.64,0.27
				c0.44,0.04,0.86,0.27,1.28,0.46l1.26,0.59c0.84,0.4,1.67,0.8,2.51,1.23l2.5,1.3C238.28,213.16,239.11,213.61,239.93,214.12z"/>
		</g>
		<g>
			<path class="st4" d="M239.84,214.53c-1.03,0.74-2.08,1.41-3.13,2.1l-3.16,1.99c-1.06,0.65-2.12,1.29-3.18,1.92l-1.6,0.93
				c-0.53,0.31-1.06,0.65-1.64,0.81c-1.19,0.24-2.33,0.63-3.48,0.99l-3.45,1.08l-6.89,2.16l-27.57,8.64l1.6-1.04l-27.21,31.33
				l0.86-2.29c0.01,1.44-0.04,2.89,0.04,4.33c0.11,1.44-0.08,2.89-0.25,4.33l-1.02,8.66l-1.12,8.66c-0.38,2.89-0.8,5.78-1.24,8.66
				c-0.43-2.89-0.82-5.78-1.19-8.67l-1.07-8.67l-0.98-8.67c-0.17-1.44-0.35-2.89-0.23-4.33c0.09-1.44,0.05-2.89,0.06-4.33l0.01-1.31
				l0.84-0.97l27.21-31.33l0.65-0.75l0.95-0.3l27.57-8.64l6.89-2.16l3.45-1.08c1.15-0.37,2.31-0.69,3.42-1.17
				c0.57-0.2,1.19-0.21,1.81-0.27l1.85-0.15c1.23-0.09,2.47-0.18,3.71-0.24l3.73-0.17C237.32,214.56,238.57,214.51,239.84,214.53z"
				/>
		</g>
		<g>
			<path class="st4" d="M239.93,214.12c-0.83,0.96-1.69,1.85-2.54,2.78l-2.6,2.67c-0.87,0.88-1.77,1.73-2.65,2.59l-1.33,1.29
				c-0.44,0.43-0.87,0.89-1.4,1.18c-1.1,0.51-2.11,1.16-3.14,1.77l-3.09,1.86l-6.18,3.71l-24.74,14.84l1.53-1.94l-18.96,59.37
				l-0.06-2.3c0.48,1.27,0.94,2.55,1.49,3.8c0.59,1.23,0.9,2.57,1.22,3.9l1.95,7.98c0.65,2.66,1.24,5.34,1.87,8.01
				c0.61,2.68,1.19,5.36,1.75,8.06c-1.37-2.39-2.71-4.79-4.02-7.2c-1.3-2.41-2.64-4.82-3.91-7.24l-3.82-7.27
				c-0.65-1.21-1.3-2.41-1.67-3.73c-0.42-1.3-0.92-2.56-1.4-3.83l-0.43-1.15l0.37-1.16l18.96-59.37l0.4-1.26l1.13-0.68l24.74-14.84
				l6.18-3.71l3.09-1.86c1.03-0.62,2.08-1.21,3.04-1.94c0.5-0.33,1.11-0.49,1.7-0.68l1.76-0.57c1.18-0.37,2.34-0.77,3.53-1.12
				l3.58-1.04C237.5,214.74,238.7,214.4,239.93,214.12z"/>
		</g>
	</g>
	<g>
		<g>
			<path class="st4" d="M260.45,214.94c0.76-1.67,1.57-3.3,2.36-4.95l2.46-4.87l2.53-4.82l1.27-2.4c0.43-0.8,0.82-1.62,1.38-2.33
				c1.18-1.36,2.22-2.81,3.3-4.25l3.22-4.3l6.44-8.61L309.18,144l-0.57,1.15l11.54-41.23l-0.13,0.94c0-0.89,0.02-1.78-0.05-2.66
				c-0.12-0.89,0.07-1.78,0.24-2.66l1-5.33c0.33-1.78,0.73-3.55,1.09-5.33c0.38-1.78,0.78-3.55,1.22-5.33
				c0.43,1.78,0.84,3.55,1.22,5.33c0.36,1.78,0.76,3.55,1.09,5.33l1,5.33c0.18,0.89,0.36,1.78,0.24,2.66
				c-0.07,0.89-0.05,1.78-0.05,2.66l0,0.49l-0.13,0.46l-11.54,41.23l-0.18,0.63l-0.39,0.52l-25.77,34.42l-6.44,8.61l-3.22,4.3
				c-1.07,1.44-2.17,2.85-3.14,4.36c-0.52,0.73-1.2,1.34-1.84,1.98l-1.95,1.9l-3.91,3.79l-3.98,3.73
				C263.18,212.51,261.84,213.74,260.45,214.94z"/>
		</g>
		<g>
			<path class="st4" d="M260.45,214.94c0.82-0.51,1.65-0.95,2.48-1.42l2.5-1.3c0.83-0.43,1.67-0.83,2.51-1.23l1.26-0.59
				c0.42-0.19,0.83-0.42,1.28-0.46c0.89,0.01,1.76-0.15,2.64-0.27l2.63-0.36l5.26-0.72l21.03-2.89l-2.27,1.3l33.81-42.88l-0.69,1.51
				c0.26-1.45,0.58-2.88,0.77-4.34c0.16-1.47,0.62-2.87,1.06-4.28l2.63-8.47l2.73-8.45c0.92-2.82,1.87-5.63,2.84-8.43
				c-0.12,2.97-0.27,5.93-0.45,8.89l-0.57,8.86l-0.67,8.84c-0.11,1.47-0.2,2.95-0.59,4.37c-0.36,1.43-0.59,2.88-0.87,4.32
				l-0.17,0.85l-0.52,0.66l-33.81,42.88l-0.87,1.11l-1.4,0.19l-21.03,2.89l-5.26,0.72l-2.63,0.36c-0.88,0.13-1.76,0.21-2.62,0.46
				c-0.44,0.08-0.9-0.03-1.35-0.1l-1.37-0.23c-0.91-0.16-1.83-0.32-2.75-0.51l-2.76-0.58C262.3,215.42,261.38,215.21,260.45,214.94z
				"/>
		</g>
		<g>
			<path class="st4" d="M260.55,215.35c1.27-0.02,2.51,0.03,3.77,0.06l3.73,0.17c1.24,0.07,2.48,0.15,3.71,0.24l1.85,0.15
				c0.61,0.05,1.24,0.07,1.81,0.27c1.11,0.48,2.27,0.81,3.42,1.17l3.45,1.08l6.89,2.16l27.57,8.64l0.95,0.3l0.65,0.75l27.21,31.33
				l0.84,0.97l0.01,1.31c0.02,1.44-0.02,2.89,0.06,4.33c0.12,1.44-0.06,2.89-0.23,4.33l-0.98,8.67l-1.07,8.67
				c-0.37,2.89-0.77,5.78-1.19,8.67c-0.44-2.89-0.86-5.78-1.24-8.66l-1.12-8.66l-1.02-8.66c-0.17-1.44-0.36-2.89-0.25-4.33
				c0.08-1.44,0.03-2.89,0.04-4.33l0.86,2.29l-27.21-31.33l1.6,1.04l-27.57-8.64l-6.89-2.16l-3.45-1.08
				c-1.15-0.35-2.29-0.75-3.48-0.99c-0.58-0.16-1.1-0.5-1.64-0.81l-1.6-0.93c-1.06-0.63-2.13-1.26-3.18-1.92l-3.16-1.99
				C262.63,216.76,261.58,216.09,260.55,215.35z"/>
		</g>
		<g>
			<path class="st4" d="M260.45,214.94c1.23,0.28,2.43,0.62,3.64,0.93l3.58,1.04c1.19,0.35,2.35,0.75,3.53,1.12l1.76,0.57
				c0.59,0.19,1.19,0.35,1.7,0.68c0.96,0.73,2.01,1.32,3.04,1.94l3.09,1.86l6.18,3.71l24.74,14.84l1.13,0.68l0.4,1.26l18.96,59.37
				l0.37,1.16l-0.43,1.15c-0.48,1.27-0.98,2.54-1.4,3.83c-0.37,1.31-1.02,2.52-1.67,3.73l-3.82,7.27c-1.27,2.43-2.61,4.83-3.91,7.24
				c-1.31,2.41-2.65,4.81-4.02,7.2c0.56-2.7,1.14-5.38,1.75-8.06c0.62-2.67,1.21-5.35,1.87-8.01l1.95-7.98
				c0.32-1.33,0.62-2.67,1.22-3.9c0.55-1.25,1.01-2.53,1.49-3.8l-0.06,2.3l-18.96-59.37l1.53,1.94l-24.74-14.84l-6.18-3.71
				l-3.09-1.86c-1.03-0.61-2.04-1.26-3.14-1.77c-0.53-0.29-0.95-0.75-1.4-1.18l-1.33-1.29c-0.88-0.86-1.78-1.71-2.65-2.59l-2.6-2.67
				C262.14,216.8,261.28,215.9,260.45,214.94z"/>
		</g>
	</g>
	<ellipse class="st4" cx="250.41" cy="190.36" rx="15.83" ry="18.77"/>
	<circle class="st1" cx="250.24" cy="208.76" r="25.56"/>
</g>
<g id="did_I_Fail_it">
</g>
<g id="Great_Gatsby">
</g>
<g id="hippity_hop">
	<g id="Layer_33" class="st7">
	</g>
	<g id="Layer_34" class="st24">
	</g>
	<g id="Layer_35">
	</g>
</g>
<g id="Aye_Aye">
</g>
<g id="Lets_Jump">
</g>
<g id="Kangaroo">
</g>
<g id="Ladybug">
</g>
<g id="Like_Mike">
</g>
<g id="Navy">
</g>
<g id="OMG">
</g>
<g id="A_poopy_smell">
</g>
<g id="God_save_the_Queen">
</g>
<g id="Rabbit">
</g>
<g id="SS_SS_SS">
</g>
<g id="Tall">
</g>
<g id="Under_where">
</g>
<g id="Beethoven_x27_s_V">
</g>
<g id="a_WHITE_WHALE">
</g>
<g id="X_marks_the_spot">
</g>
<g id="You_x27_re_a_cool_Dude">
</g>
<g id="Zinc_Zoo_keeper">
</g>
<g id="guides" class="st7">
</g>
</svg>
