<?xml version="1.0" encoding="utf-8"?>
<!-- Generator: Adobe Illustrator 25.2.3, SVG Export Plug-In . SVG Version: 6.00 Build 0)  -->
<svg version="1.1" xmlns="http://www.w3.org/2000/svg" xmlns:xlink="http://www.w3.org/1999/xlink" x="0px" y="0px"
	 viewBox="0 0 500 500" style="enable-background:new 0 0 500 500;" xml:space="preserve">
<style type="text/css">
	.st0{fill:#3FA9F5;}
	.st1{fill:#FFFFFF;}
	.st2{font-family:'AcuminPro-Bold';}
	.st3{font-size:40.9114px;}
	.st4{fill:#0071BC;}
	.st5{font-family:'AcuminPro-Semibold';}
	.st6{fill:#0071BC;stroke:#3FA9F5;stroke-width:3;stroke-miterlimit:10;}
	.st7{display:none;}
	.st8{display:inline;fill:#3FA9F5;}
	.st9{display:inline;fill:none;stroke:#3FA9F5;stroke-width:3;stroke-linecap:round;stroke-miterlimit:10;}
	.st10{fill:none;stroke:#3FA9F5;stroke-width:3;stroke-linecap:round;stroke-miterlimit:10;}
	.st11{fill:none;stroke:#3FA9F5;stroke-width:2.5;stroke-linecap:round;stroke-miterlimit:10;}
	.st12{display:inline;fill:#0071BC;}
	.st13{fill:#00FB20;}
	.st14{display:inline;fill:none;stroke:#0071BC;stroke-width:3;stroke-miterlimit:10;}
	.st15{display:inline;fill:none;stroke:#3FA9F5;stroke-width:3;stroke-miterlimit:10;}
	.st16{display:inline;fill:#3FA9F5;stroke:#0071BC;stroke-width:3;stroke-miterlimit:10;}
	.st17{fill:none;stroke:#0071BC;stroke-width:7;stroke-miterlimit:10;}
	.st18{fill:none;stroke:#0071BC;stroke-width:5;stroke-miterlimit:10;}
	.st19{display:none;fill:none;stroke:#0071BC;stroke-width:3;stroke-miterlimit:10;}
	.st20{display:none;fill:#0071BC;}
	.st21{display:inline;fill:#0071BC;stroke:#3FA9F5;stroke-width:3;stroke-miterlimit:10;}
	.st22{display:inline;}
	.st23{display:inline;fill:#0071BC;stroke:#3FA9F5;stroke-width:2;stroke-miterlimit:10;}
	.st24{opacity:0.6;}
	.st25{fill:#0071BC;stroke:#3FA9F5;stroke-miterlimit:10;}
	.st26{fill:#0071BC;stroke:#3FA9F5;stroke-linecap:round;stroke-miterlimit:10;}
	.st27{fill:none;stroke:#0071BC;stroke-width:12;stroke-linecap:round;stroke-miterlimit:10;}
	.st28{fill:#0071BC;stroke:#3FA9F5;stroke-width:4;stroke-miterlimit:10;}
	.st29{fill:#0071BC;stroke:#3FA9F5;stroke-width:6;stroke-miterlimit:10;}
	.st30{fill:none;stroke:#3FA9F5;stroke-width:3;stroke-miterlimit:10;}
	.st31{display:inline;fill:#FFFFFF;}
	.st32{fill:#0071BC;stroke:#3FA9F5;stroke-width:5;stroke-miterlimit:10;}
	.st33{fill:none;stroke:#3FA9F5;stroke-width:4;stroke-miterlimit:10;}
	.st34{fill:none;stroke:#3FA9F5;stroke-width:5;stroke-miterlimit:10;}
	.st35{fill:#0071BC;stroke:#3FA9F5;stroke-width:2;stroke-miterlimit:10;}
	.st36{display:inline;fill:#0071BC;stroke:#3FA9F5;stroke-linecap:round;stroke-miterlimit:10;}
	.st37{fill:#3FA9F5;stroke:#0071BC;stroke-width:4;stroke-miterlimit:10;}
	.st38{display:none;fill:#3FA9F5;stroke:#0071BC;stroke-width:5;stroke-miterlimit:10;}
	.st39{fill:#3FA9F5;stroke:#0071BC;stroke-width:3;stroke-miterlimit:10;}
	.st40{fill:#0071BC;stroke:#0071BC;stroke-width:3;stroke-miterlimit:10;}
	.st41{fill:none;stroke:#0071BC;stroke-width:22;stroke-miterlimit:10;}
	.st42{display:none;fill:none;stroke:#0071BC;stroke-width:22;stroke-miterlimit:10;}
	.st43{display:inline;fill:none;stroke:#3FA9F5;stroke-width:2;stroke-miterlimit:10;}
	.st44{fill:none;stroke:#3FA9F5;stroke-width:2;stroke-miterlimit:10;}
</style>
<g id="background">
	<rect class="st0" width="500" height="500"/>
</g>
<g id="Text">
	<text transform="matrix(1 0 0 1 126.6299 431.7672)"><tspan x="0" y="0" class="st1 st2 st3">G</tspan><tspan x="30.72" y="0" class="st4 st5 st3">reat Gatsby</tspan></text>
</g>
<g id="Apart">
</g>
<g id="Be_a_good_boy">
	<g id="Layer_12">
	</g>
</g>
<g id="Charlies_Angels">
	<g id="Faces">
	</g>
</g>
<g id="Dog_did_it">
</g>
<g id="Eek">
</g>
<g id="did_I_Fail_it">
</g>
<g id="Great_Gatsby">
	<g>
		<path class="st4" d="M102,270.5c-18.14,0-36.5-3.46-36.5-10.09s18.36-10.09,36.5-10.09s36.5,3.46,36.5,10.09
			S120.14,270.5,102,270.5z"/>
		<path class="st0" d="M102,251.83c19.33,0,35,3.84,35,8.59c0,4.74-15.67,8.59-35,8.59s-35-3.84-35-8.59
			C67,255.67,82.67,251.83,102,251.83 M102,248.83c-3.89,0-38,0.33-38,11.59S98.11,272,102,272s38-0.33,38-11.59
			S105.89,248.83,102,248.83L102,248.83z"/>
	</g>
	<g>
		<rect x="260.5" y="145.5" class="st0" width="40" height="189"/>
		<path class="st4" d="M299,147v186h-37V147H299 M302,144h-3h-37h-3v3v186v3h3h37h3v-3V147V144L302,144z"/>
	</g>
	<g>
		<rect x="218" y="308" class="st0" width="121" height="30"/>
	</g>
	<polygon class="st6" points="217.5,89.5 170.5,144.5 199.71,162.72 217.5,112.82 	"/>
	<polygon class="st6" points="342.5,87.47 389.5,142.47 360.29,160.69 342.5,110.79 	"/>
	<g>
		<polygon class="st4" points="167.06,170.43 206.56,133.83 278.22,344.75 		"/>
		<path class="st0" d="M205.89,136.5l66.91,196.96L169,170.68L205.89,136.5 M207.24,131.16l-3.39,3.14l-36.89,34.18l-1.84,1.7
			l1.35,2.11l103.8,162.79l13.37,20.96l-8-23.54l-66.91-196.96L207.24,131.16L207.24,131.16z"/>
	</g>
	<g>
		<polygon class="st4" points="355.79,131.54 395.27,168.12 278.82,344.49 		"/>
		<path class="st0" d="M356.43,134.18l36.89,34.18l-108.8,164.79L356.43,134.18 M355.15,128.9l-1.54,4.26L281.7,332.12l-8.57,23.73
			l13.9-21.05l108.8-164.79l1.4-2.12l-1.87-1.73l-36.89-34.18L355.15,128.9L355.15,128.9z"/>
	</g>
	<g>
		<path class="st4" d="M101.56,260c-4.39,0-10.12-1.36-10.53-3c-0.3-1.19,6.14-1.87,6.14-4c0-21,0-41,0-51
			c0-6.89-0.67-13.97-1.76-16c-9.05-16.95-33.35-11-41.25-21c-4.56-5.77-7.17-20,1.83-40l46.43-0.08L149,125
			c8,21,5.6,34.16,1.05,39.92c-7.9,10-32.2,4.05-41.25,21c-1.09,2.03-1.76,9.11-1.76,16c0,10,0,30,0,51c0,2.13,6.44,2.81,6.14,4
			C112.78,258.56,106.83,260,101.56,260z"/>
	</g>
	<g class="st7">
		<path class="st8" d="M282.08,289.58c-1.52,0-2.82-0.93-3.31-2.36l-30.02-87.48c-0.03-0.08-0.08-0.16-0.15-0.22l-36.9-31.86
			c-0.77-0.67-1.21-1.63-1.21-2.65v-51.65c0-1.93,1.57-3.5,3.5-3.5c0.58,0,1.15,0.15,1.67,0.43l66.09,35.88
			c0.07,0.04,0.16,0.06,0.24,0.06c0.08,0,0.17-0.02,0.24-0.06l66.1-35.76c0.51-0.28,1.09-0.42,1.66-0.42c1.93,0,3.5,1.57,3.5,3.5
			v51.7c0,0.97-0.41,1.9-1.11,2.56l-34.06,31.76c-0.06,0.05-0.1,0.12-0.13,0.19l-32.85,87.61
			C284.84,288.69,283.56,289.58,282.08,289.58C282.08,289.58,282.08,289.58,282.08,289.58z"/>
		<path class="st12" d="M214,111.36c0.32,0,0.64,0.08,0.95,0.25l66.09,35.88c0.3,0.16,0.63,0.24,0.95,0.24
			c0.33,0,0.65-0.08,0.95-0.24l66.1-35.76c0.31-0.17,0.63-0.24,0.95-0.24c1.05,0,2,0.84,2,2v51.7c0,0.55-0.23,1.08-0.64,1.46
			l-34.05,31.76c-0.23,0.21-0.4,0.47-0.51,0.76l-32.85,87.61c-0.33,0.87-1.1,1.3-1.87,1.3c-0.79,0-1.58-0.45-1.89-1.35l-30.02-87.48
			c-0.11-0.33-0.32-0.63-0.58-0.86l-36.9-31.86c-0.44-0.38-0.69-0.93-0.69-1.51v-51.65C212,112.2,212.96,111.36,214,111.36
			 M214,108.36c-2.76,0-5,2.24-5,5v51.65c0,1.45,0.63,2.83,1.73,3.78l36.69,31.68l29.93,87.22c0.7,2.05,2.56,3.38,4.73,3.38
			c2.1,0,3.94-1.27,4.68-3.24l32.76-87.39l33.88-31.6c1.01-0.94,1.59-2.27,1.59-3.66v-51.7c0-2.76-2.24-5-5-5
			c-0.82,0-1.65,0.21-2.38,0.61L282,144.59l-65.62-35.62C215.65,108.57,214.83,108.36,214,108.36L214,108.36z"/>
	</g>
	<g>
		<path class="st0" d="M241.76,163.74c-0.03-0.08-0.08-0.16-0.15-0.22l-31.86-25.83c-0.81-0.7-1.25-1.66-1.25-2.68V83.36
			c0-1.93,1.57-3.5,3.5-3.5c0.58,0,1.15,0.15,1.67,0.43l66.09,35.88c0.07,0.04,0.16,0.06,0.24,0.06c0.08,0,0.17-0.02,0.24-0.06
			l66.1-35.76c0.51-0.28,1.09-0.42,1.66-0.42c1.93,0,3.5,1.57,3.5,3.5v51.7c0,0.97-0.41,1.9-1.11,2.56l-0.1,0.09l-32.98,25.71
			c-0.04,0.05-0.07,0.1-0.1,0.16l-0.49,1.31l-35.13-10.47c-0.64,0.66-1.53,1.04-2.5,1.04c0,0,0,0,0,0c-1,0-1.9-0.4-2.54-1.08
			l-34.31,10.62L241.76,163.74z"/>
		<path class="st4" d="M212,81.36c0.32,0,0.64,0.08,0.95,0.25l66.09,35.88c0.3,0.16,0.63,0.24,0.95,0.24c0.33,0,0.65-0.08,0.95-0.24
			l66.1-35.76c0.31-0.17,0.63-0.24,0.95-0.24c1.05,0,2,0.84,2,2v51.7c0,0.55-0.23,1.08-0.64,1.46l-33.05,25.76
			c-0.23,0.21-0.4,0.47-0.51,0.76l-34.85-10.39c-0.33,0.87-1.1,1.3-1.87,1.3c-0.79,0-1.58-0.45-1.89-1.35l-34.02,10.52
			c-0.11-0.33-0.32-0.63-0.58-0.86l-31.9-25.86c-0.44-0.38-0.69-0.93-0.69-1.51V83.36C210,82.2,210.96,81.36,212,81.36 M212,78.36
			C212,78.36,212,78.36,212,78.36C212,78.36,212,78.36,212,78.36c-1.3,0-2.53,0.5-3.47,1.4c-0.99,0.95-1.53,2.23-1.53,3.6v51.65
			c0,1.45,0.63,2.83,1.73,3.78l0.04,0.03l0.04,0.03l31.63,25.64l0.85,2.48l2.78-0.86l32.13-9.94c0.82,0.58,1.82,0.9,2.89,0.9
			c1.05,0,2.03-0.32,2.84-0.88l33.02,9.84l2.68,0.8l0.88-2.34l32.7-25.49l0.1-0.08l0.1-0.09c1.01-0.94,1.59-2.28,1.59-3.66v-51.7
			c0-2.76-2.24-5-5-5c-0.82,0-1.65,0.21-2.38,0.61L280,114.59l-65.62-35.62C213.65,78.57,212.83,78.36,212,78.36L212,78.36
			L212,78.36z"/>
	</g>
	<g>
		<path class="st4" d="M336.79,176.87c-0.39,0-0.77-0.06-1.14-0.19l-55.12-19.01h-0.27l-55.12,19.01c-0.37,0.13-0.76,0.19-1.14,0.19
			c-1.92,0-3.49-1.56-3.5-3.49l-0.2-52.41c0-0.94,0.36-1.82,1.02-2.48c0.65-0.66,1.56-1.03,2.48-1.03c0.41,0,0.81,0.07,1.2,0.21
			l55.28,20.19h0.24l55.28-20.19c0.39-0.14,0.79-0.21,1.2-0.21c0.92,0,1.83,0.38,2.48,1.03c0.66,0.66,1.02,1.54,1.02,2.48
			l-0.2,52.41C340.28,175.31,338.71,176.87,336.79,176.87L336.79,176.87z"/>
		<path class="st0" d="M336.99,118.96c1.06,0,2,0.86,2,2.01l-0.2,52.41c0,1.14-0.94,1.99-2,1.99c-0.22,0-0.44-0.04-0.65-0.11
			l-55.36-19.09H280l-55.36,19.09c-0.22,0.08-0.44,0.11-0.65,0.11c-1.06,0-1.99-0.85-2-1.99l-0.2-52.41c0-1.15,0.93-2.01,2-2.01
			c0.23,0,0.46,0.04,0.69,0.12L280,139.37h0.77l55.53-20.29C336.53,119,336.76,118.96,336.99,118.96 M336.99,115.96L336.99,115.96
			c-0.59,0-1.16,0.1-1.72,0.31l-54.89,20.05l-54.89-20.05c-0.55-0.2-1.13-0.31-1.72-0.31c-1.32,0-2.61,0.54-3.54,1.48
			c-0.94,0.95-1.46,2.21-1.45,3.55l0.2,52.41c0.01,2.75,2.25,4.98,5,4.98c0.55,0,1.1-0.09,1.63-0.27l54.77-18.89l54.77,18.89
			c0.53,0.18,1.08,0.27,1.63,0.27c2.74,0,4.99-2.23,5-4.98l0.2-52.41c0.01-1.34-0.51-2.6-1.45-3.55
			C339.6,116.5,338.31,115.96,336.99,115.96L336.99,115.96z"/>
	</g>
	<g>
		<path class="st4" d="M272,163.5c-2.48,0-4.5-2.02-4.5-4.5v-23c0-2.48,2.02-4.5,4.5-4.5h16c2.48,0,4.5,2.02,4.5,4.5v23
			c0,2.48-2.02,4.5-4.5,4.5H272z"/>
		<path class="st0" d="M288,132c2.21,0,4,1.79,4,4v23c0,2.21-1.79,4-4,4h-16c-2.21,0-4-1.79-4-4v-23c0-2.21,1.79-4,4-4H288 M288,131
			h-16c-2.76,0-5,2.24-5,5v23c0,2.76,2.24,5,5,5h16c2.76,0,5-2.24,5-5v-23C293,133.24,290.76,131,288,131L288,131z"/>
	</g>
	<g class="st7">
		<path class="st14" d="M461.6,282.08H405.4c-0.67,0-1.23-0.51-1.29-1.17l-0.96-46.15c-0.08-0.76,0.52-1.43,1.29-1.43h58.13
			c0.77,0,1.37,0.66,1.29,1.43l-0.96,46.15C462.83,281.57,462.27,282.08,461.6,282.08z"/>
		<path class="st12" d="M406.24,222.3c-10.44,0,30.5-31.8,30.5-31.8s28.88,32.12,25.31,31.8
			C452.36,221.42,412.73,222.3,406.24,222.3z"/>
		<path class="st15" d="M409.83,225.22c0.64-2.05,0.54-4.43,2.9-7.46c3.47-4.46,7.5-7.51,11.68-11.03c2.6-2.2,6.71-4.49,9.73-10.38"
			/>
		<path class="st16" d="M462,234.63h-57c-1.1,0-2-0.9-2-2v-8.33c0-1.1,0.9-2,2-2h57c1.1,0,2,0.9,2,2v8.33
			C464,233.73,463.1,234.63,462,234.63z"/>
	</g>
	<path class="st17" d="M370.5,219.5c18-1,36-2,57-7c11.72-2.79,18-5,32-11"/>
	<path class="st18" d="M380.53,218.92l21.34-37.31c0.32-0.56,1.08-0.68,1.56-0.23l19.39,18.34l10.57-48.78
		c0.22-1,1.62-1.07,1.93-0.09l17.24,53.58"/>
	<circle class="st1" cx="434.18" cy="147.29" r="11.36"/>
	<path class="st1" d="M316.44,158.66c6.28,0,11.36-5.09,11.36-11.36s-5.09-11.36-11.36-11.36h-72.56c-6.28,0-11.36,5.09-11.36,11.36
		s5.09,11.36,11.36,11.36H316.44z"/>
	<path class="st1" d="M138.54,158.69c6.28,0,11.36-5.09,11.36-11.36c0-6.28-5.09-11.36-11.36-11.36H65.98
		c-6.28,0-11.36,5.09-11.36,11.36c0,6.28,5.09,11.36,11.36,11.36H138.54z"/>
	<g>
		<circle class="st0" cx="279.5" cy="296.5" r="6"/>
		<path class="st4" d="M279.5,292c2.49,0,4.5,2.01,4.5,4.5s-2.01,4.5-4.5,4.5s-4.5-2.01-4.5-4.5S277.01,292,279.5,292 M279.5,289
			c-4.14,0-7.5,3.36-7.5,7.5s3.36,7.5,7.5,7.5s7.5-3.36,7.5-7.5S283.64,289,279.5,289L279.5,289z"/>
	</g>
	<g>
		<circle class="st0" cx="281.5" cy="198.5" r="6"/>
		<path class="st4" d="M281.5,194c2.49,0,4.5,2.01,4.5,4.5s-2.01,4.5-4.5,4.5s-4.5-2.01-4.5-4.5S279.01,194,281.5,194 M281.5,191
			c-4.14,0-7.5,3.36-7.5,7.5s3.36,7.5,7.5,7.5s7.5-3.36,7.5-7.5S285.64,191,281.5,191L281.5,191z"/>
	</g>
	<g>
		<circle class="st0" cx="280.5" cy="247.5" r="6"/>
		<path class="st4" d="M280.5,243c2.49,0,4.5,2.01,4.5,4.5s-2.01,4.5-4.5,4.5s-4.5-2.01-4.5-4.5S278.01,243,280.5,243 M280.5,240
			c-4.14,0-7.5,3.36-7.5,7.5s3.36,7.5,7.5,7.5s7.5-3.36,7.5-7.5S284.64,240,280.5,240L280.5,240z"/>
	</g>
</g>
<g id="hippity_hop">
	<g id="Layer_33" class="st7">
	</g>
	<g id="Layer_34" class="st24">
	</g>
	<g id="Layer_35">
	</g>
</g>
<g id="Aye_Aye">
</g>
<g id="Lets_Jump">
</g>
<g id="Kangaroo">
</g>
<g id="Ladybug">
</g>
<g id="Like_Mike">
</g>
<g id="Navy">
</g>
<g id="OMG">
</g>
<g id="A_poopy_smell">
</g>
<g id="God_save_the_Queen">
</g>
<g id="Rabbit">
</g>
<g id="SS_SS_SS">
</g>
<g id="Tall">
</g>
<g id="Under_where">
</g>
<g id="Beethoven_x27_s_V">
</g>
<g id="a_WHITE_WHALE">
</g>
<g id="X_marks_the_spot">
</g>
<g id="You_x27_re_a_cool_Dude">
</g>
<g id="Zinc_Zoo_keeper">
</g>
<g id="guides" class="st7">
</g>
</svg>
