<?xml version="1.0" encoding="utf-8"?>
<!-- Generator: Adobe Illustrator 25.2.3, SVG Export Plug-In . SVG Version: 6.00 Build 0)  -->
<svg version="1.1" xmlns="http://www.w3.org/2000/svg" xmlns:xlink="http://www.w3.org/1999/xlink" x="0px" y="0px"
	 viewBox="0 0 500 500" style="enable-background:new 0 0 500 500;" xml:space="preserve">
<style type="text/css">
	.st0{fill:#3FA9F5;}
	.st1{fill:#FFFFFF;}
	.st2{font-family:'AcuminPro-Bold';}
	.st3{font-size:40.9114px;}
	.st4{fill:#0071BC;}
	.st5{font-family:'AcuminPro-Semibold';}
	.st6{fill:#0071BC;stroke:#3FA9F5;stroke-width:3;stroke-miterlimit:10;}
	.st7{display:none;}
	.st8{display:inline;fill:#3FA9F5;}
	.st9{display:inline;fill:none;stroke:#3FA9F5;stroke-width:3;stroke-linecap:round;stroke-miterlimit:10;}
	.st10{fill:none;stroke:#3FA9F5;stroke-width:3;stroke-linecap:round;stroke-miterlimit:10;}
	.st11{fill:none;stroke:#3FA9F5;stroke-width:2.5;stroke-linecap:round;stroke-miterlimit:10;}
	.st12{display:inline;fill:#0071BC;}
	.st13{fill:#00FB20;}
	.st14{display:inline;fill:none;stroke:#0071BC;stroke-width:3;stroke-miterlimit:10;}
	.st15{display:inline;fill:none;stroke:#3FA9F5;stroke-width:3;stroke-miterlimit:10;}
	.st16{display:inline;fill:#3FA9F5;stroke:#0071BC;stroke-width:3;stroke-miterlimit:10;}
	.st17{fill:none;stroke:#0071BC;stroke-width:7;stroke-miterlimit:10;}
	.st18{fill:none;stroke:#0071BC;stroke-width:5;stroke-miterlimit:10;}
	.st19{display:none;fill:none;stroke:#0071BC;stroke-width:3;stroke-miterlimit:10;}
	.st20{display:none;fill:#0071BC;}
	.st21{display:inline;fill:#0071BC;stroke:#3FA9F5;stroke-width:3;stroke-miterlimit:10;}
	.st22{display:inline;}
	.st23{display:inline;fill:#0071BC;stroke:#3FA9F5;stroke-width:2;stroke-miterlimit:10;}
	.st24{opacity:0.6;}
	.st25{fill:#0071BC;stroke:#3FA9F5;stroke-miterlimit:10;}
	.st26{fill:#0071BC;stroke:#3FA9F5;stroke-linecap:round;stroke-miterlimit:10;}
	.st27{fill:none;stroke:#0071BC;stroke-width:12;stroke-linecap:round;stroke-miterlimit:10;}
	.st28{fill:#0071BC;stroke:#3FA9F5;stroke-width:4;stroke-miterlimit:10;}
	.st29{fill:#0071BC;stroke:#3FA9F5;stroke-width:6;stroke-miterlimit:10;}
	.st30{fill:none;stroke:#3FA9F5;stroke-width:3;stroke-miterlimit:10;}
	.st31{display:inline;fill:#FFFFFF;}
	.st32{fill:#0071BC;stroke:#3FA9F5;stroke-width:5;stroke-miterlimit:10;}
	.st33{fill:none;stroke:#3FA9F5;stroke-width:4;stroke-miterlimit:10;}
	.st34{fill:none;stroke:#3FA9F5;stroke-width:5;stroke-miterlimit:10;}
	.st35{fill:#0071BC;stroke:#3FA9F5;stroke-width:2;stroke-miterlimit:10;}
	.st36{display:inline;fill:#0071BC;stroke:#3FA9F5;stroke-linecap:round;stroke-miterlimit:10;}
	.st37{fill:#3FA9F5;stroke:#0071BC;stroke-width:4;stroke-miterlimit:10;}
	.st38{display:none;fill:#3FA9F5;stroke:#0071BC;stroke-width:5;stroke-miterlimit:10;}
	.st39{fill:#3FA9F5;stroke:#0071BC;stroke-width:3;stroke-miterlimit:10;}
	.st40{fill:#0071BC;stroke:#0071BC;stroke-width:3;stroke-miterlimit:10;}
	.st41{fill:none;stroke:#0071BC;stroke-width:22;stroke-miterlimit:10;}
	.st42{display:none;fill:none;stroke:#0071BC;stroke-width:22;stroke-miterlimit:10;}
	.st43{display:inline;fill:none;stroke:#3FA9F5;stroke-width:2;stroke-miterlimit:10;}
	.st44{fill:none;stroke:#3FA9F5;stroke-width:2;stroke-miterlimit:10;}
</style>
<g id="background">
	<rect x="1" class="st0" width="500" height="500"/>
</g>
<g id="Text">
	<text transform="matrix(1 0 0 1 133.6299 431.7672)"><tspan x="0" y="0" class="st1 st2 st3">H</tspan><tspan x="30.27" y="0" class="st4 st5 st3">ippity hop</tspan></text>
</g>
<g id="Apart">
</g>
<g id="Be_a_good_boy">
	<g id="Layer_12">
	</g>
</g>
<g id="Charlies_Angels">
	<g id="Faces">
	</g>
</g>
<g id="Dog_did_it">
</g>
<g id="Eek">
</g>
<g id="did_I_Fail_it">
</g>
<g id="Great_Gatsby">
</g>
<g id="hippity_hop">
	<g>
		<path class="st4" d="M88.93,292.5c-0.87-3.86-0.81-7.97,0.05-11.96c0.9-3.98,2.64-7.84,5.18-11.17c2.49-3.37,5.82-6.13,9.58-8.14
			c3.79-1.96,8.07-3.03,12.38-3.09c4.32,0,8.64,1.06,12.42,3.05c3.76,2.02,7.07,4.8,9.56,8.15c5.09,6.63,7.13,15.28,5.62,23.05
			l-0.3-0.02c0.41-7.74-2.14-15.61-7.13-21.52c-2.48-2.96-5.55-5.43-9.01-7.14c-3.45-1.72-7.3-2.63-11.15-2.58
			c-3.85,0.01-7.69,0.93-11.14,2.63c-3.46,1.7-6.54,4.16-9.01,7.12c-2.47,2.96-4.34,6.43-5.48,10.12
			c-1.14,3.69-1.55,7.61-1.27,11.47L88.93,292.5z"/>
	</g>
	<g>
		<path class="st4" d="M145.08,292.51c-2.82-11.73-1.9-24.74,3.4-36.43c2.61-5.86,6.47-11.36,11.73-15.73
			c2.63-2.17,5.63-4.01,8.92-5.36c3.31-1.29,6.91-2.03,10.54-2.09c3.65-0.03,7.3,0.71,10.63,1.99c3.33,1.31,6.33,3.18,8.95,5.36
			c2.62,2.19,4.9,4.65,6.83,7.31c1.96,2.64,3.56,5.47,4.89,8.38c5.35,11.62,6.52,24.57,3.94,36.36l-0.6-0.03
			c0.16-5.89-0.29-11.81-1.57-17.56c-1.23-5.75-3.18-11.36-5.97-16.52c-2.79-5.15-6.44-9.89-11.03-13.48
			c-4.55-3.61-10.22-5.91-16.01-5.82c-2.89,0.03-5.76,0.59-8.47,1.61c-2.71,1.04-5.23,2.53-7.53,4.32
			c-4.61,3.58-8.25,8.33-11.01,13.49c-2.76,5.18-4.64,10.81-5.78,16.58c-1.18,5.76-1.53,11.69-1.25,17.58L145.08,292.51z"/>
	</g>
	<g>
		<path class="st4" d="M214.99,292.5c-0.86-7.04-1.46-14.12-1.8-21.23c-0.18-3.55-0.34-7.11-0.39-10.67
			c-0.04-3.56-0.06-7.12-0.01-10.69c0.03-3.57,0.13-7.13,0.28-10.7c0.19-3.56,0.41-7.13,0.69-10.69c0.58-7.12,1.28-14.26,2.37-21.36
			c1.07-7.1,2.4-14.17,3.98-21.21c0.79-3.52,1.66-7.03,2.6-10.52c0.98-3.48,2.05-6.95,3.19-10.41c2.3-6.9,4.95-13.73,8.1-20.41
			c3.14-6.69,6.88-13.2,11.49-19.32c2.3-3.06,4.83-6.02,7.7-8.78c2.86-2.75,6.03-5.34,9.68-7.47c3.61-2.15,7.72-3.84,12.13-4.67
			c2.19-0.45,4.49-0.59,6.7-0.55c2.18,0.04,4.36,0.32,6.49,0.74c2.13,0.42,4.21,1.04,6.2,1.81c2,0.76,3.91,1.67,5.72,2.7
			c3.63,2.04,6.89,4.51,9.81,7.19c5.83,5.41,10.28,11.69,14.13,18.09c3.86,6.42,6.87,13.18,9.42,20.04
			c1.27,3.43,2.45,6.88,3.49,10.36c1,3.5,1.88,7.01,2.67,10.54c0.77,3.54,1.53,7.06,2.03,10.64c0.53,3.57,0.96,7.15,1.29,10.73
			c0.33,3.58,0.44,7.18,0.49,10.77c0.05,3.59-0.18,7.18-0.48,10.73l-0.8,0.02c-0.25-7.03-1.09-14.05-2.33-20.98
			c-1.24-6.93-2.87-13.8-4.86-20.55c-1.99-6.75-4.35-13.4-7.13-19.87c-2.77-6.47-5.98-12.75-9.73-18.68
			c-3.77-5.91-8.1-11.5-13.3-16.16c-5.17-4.64-11.33-8.33-18.13-9.62c-3.38-0.65-6.87-0.73-10.23-0.12c-3.37,0.62-6.62,1.9-9.6,3.64
			c-3,1.72-5.73,3.91-8.26,6.3c-2.53,2.39-4.83,5.04-6.96,7.82c-4.25,5.56-7.83,11.65-10.96,17.93c-3.13,6.3-5.8,12.82-8.17,19.45
			c-4.71,13.27-8.15,26.99-10.74,40.85c-5.13,27.74-6.87,56.07-5.97,84.26L214.99,292.5z"/>
	</g>
	<circle class="st1" cx="90.85" cy="319.8" r="11.61"/>
	<circle class="st1" cx="145.71" cy="319.63" r="11.61"/>
	<circle class="st1" cx="215.19" cy="319.71" r="11.61"/>
	<circle class="st1" cx="335.83" cy="319.55" r="11.61"/>
	<path class="st20" d="M313,113c-6.33,8.71,16.97,1.8,35,3c2.78,0.19,20.37,0.55,38,11c13.91,8.25,20.94,18.06,21,18
		c0.08-0.09-11.29-19.29-37-30C358,110,321,102,313,113z"/>
	<g class="st7">
		<path class="st12" d="M385.88,325.78c-5.74,0-13.45-2.98-19.18-7.42c-4.44-3.43-5.98-6.47-7.46-9.41
			c-1.33-2.63-2.71-5.35-6.36-8.69c-7.5-6.86-16.89-9.3-25.96-11.67c-2.53-0.66-4.75-1.2-6.7-1.68c-8.48-2.07-12.35-3.02-14.03-6.9
			c-2.76-6.37,5.07-14.15,7.64-16.7l0.39-0.39c4.36-4.45,3.68-5.48,2.65-7.04c-0.48-0.72-1.01-1.54-1.3-2.63
			c-0.99-1.31-8.81-2.71-14.54-3.74c-8.26-1.48-16.8-3.02-20.89-5.74c-6.17-4.11-9.03-7.87-10.18-9.73
			c-2.63,0.82-9.07,2.61-14.96,2.61c-2.93,0-5.38-0.45-7.27-1.35c-4.41-2.09-8.44-6.72-10.03-11.54c-1.29-3.9-1.02-7.74,0.77-11.12
			c2.84-5.34,9.93-11.1,16.44-11.1c0.13,0,0.26,0,0.38,0.01c6.78,0.24,12.14,4.8,15.06,7.96c1.02-8.71,5.35-30.15,23.54-42.04
			c7.4-4.84,18.44-7.61,30.29-7.61c10.09,0,19.97,2.06,27.8,5.8c5.03,2.4,15.8,5.14,20.21,5.14c0.63,0,0.95-0.06,1.09-0.09
			c0.06-0.02,6.21-1.68,9.37-7.03c0.84-1.43,1.18-2.63,1.57-4.02c0.49-1.76,1.06-3.76,2.76-6.34c1.63-2.47,3.11-4.13,4.12-5.14
			c-4-3.24-17.09-12.73-33.08-12.73c-0.64,0-1.28,0.01-1.93,0.05c-9.79,0.47-17.56,1.99-23.8,3.21c-4.99,0.98-8.94,1.75-12.45,1.75
			c-5.65,0-9.44-2.07-12.66-6.93c-1.61-2.43-1.15-4.44-0.47-5.69c3.5-6.52,21.32-8.84,35.52-8.84c14.79,0,28.08,2.38,35.55,6.37
			c9.72,5.19,15.4,9.36,23.09,16.99c2.86,0.04,14.59,0.41,23.87,3.5c18.33,6.11,24.48,32.22,21.57,43.83
			c-0.76,3.04-2.97,7.35-6.71,9.52c-3.87,2.24-8.29,3.38-13.11,3.38c0,0,0,0,0,0c-9.67,0-18.62-4.49-22.86-6.99
			c0.15,5.42-0.24,17.77-5.39,34.5c-4.6,14.94-16.01,25.83-22.4,31c-0.64,0.52-1.41,0.8-2.21,0.8c-1.13,0-2.21-0.55-2.89-1.48
			c-0.67-0.91-0.85-2.06-0.5-3.15c1.51-4.77,3.52-12.56,4.49-22.6c1.84-18.85-10.66-26.8-18.77-29.95
			c5.72,5.55,13.77,15.82,13.19,29.3c-1,22.88-14.22,34.25-21,38.61c5.98,1.27,17.26,4.77,29.02,14.21
			c6.37,5.12,11.28,11.55,14.18,18.62c1.93,4.7,5.53,13.46,1.43,17.89C391.27,324.94,388.9,325.78,385.88,325.78z"/>
		<path class="st8" d="M342.21,120.5c13.15,0,26.87,1.94,34.85,6.19c9.95,5.31,15.44,9.44,23.17,17.16c0,0,0.01,0,0.03,0
			c0.73,0,13.84,0.05,23.99,3.43c18.02,6.01,23.17,31.75,20.59,42.04c-0.61,2.43-2.48,6.54-6.01,8.58
			c-3.98,2.31-8.23,3.18-12.36,3.18c-12.78,0-24.53-8.33-24.53-8.33s1.72,14.59-5.15,36.9c-4.42,14.36-15.25,24.89-21.91,30.27
			c-0.4,0.32-0.84,0.46-1.27,0.46c-1.27,0-2.42-1.23-1.97-2.68c1.59-5.01,3.58-12.86,4.56-22.91c2.8-28.8-26.6-33.46-26.6-33.46
			s18.88,12.87,18.02,32.61c-1.31,30.11-24.02,39.47-24.02,39.47s15.88,1.17,32.61,14.59c3.02,2.42,9.74,8.32,13.73,18.02
			c1.68,4.1,5.16,12.57,1.72,16.3c-1.25,1.35-3.3,1.95-5.76,1.95c-5.41,0-12.84-2.9-18.27-7.1c-8.06-6.24-5.76-10.72-13.73-18.02
			c-7.77-7.11-17.34-9.6-26.6-12.01c-13.07-3.4-18.02-3.76-19.73-7.72c-2.52-5.82,6.18-13.87,7.72-15.44
			c7-7.16,2.57-7.72,1.72-11.15c-1.02-4.08-28.32-5.15-36.04-10.3c-8.31-5.54-10.3-10.3-10.3-10.3s-8.38,2.92-15.68,2.92
			c-2.45,0-4.78-0.33-6.63-1.2c-6.29-2.98-12.94-12.4-8.58-20.59c2.77-5.2,9.46-10.3,15.11-10.3c0.11,0,0.22,0,0.33,0.01
			c9.58,0.34,16.3,10.3,16.3,10.3s0.86-30.03,23.17-44.62c7.32-4.78,18.21-7.37,29.47-7.37c9.43,0,19.11,1.81,27.16,5.65
			c4.99,2.38,16.07,5.29,20.85,5.29c0.59,0,1.08-0.04,1.45-0.14c1.26-0.32,7.14-2.38,10.3-7.72c2.1-3.55,1.43-5.97,4.29-10.3
			c2.85-4.3,5.15-6.01,5.15-6.01s-15.33-14.19-35.36-14.19c-0.66,0-1.33,0.02-2,0.05c-17.48,0.83-28.42,4.96-36.18,4.96
			c-4.73,0-8.27-1.53-11.41-6.26C303.33,125.02,322.11,120.5,342.21,120.5 M342.21,117.5c-5.29,0-31.92,0.46-36.84,9.63
			c-1.22,2.28-1.03,4.85,0.54,7.23c3.48,5.26,7.77,7.61,13.91,7.61c3.66,0,7.87-0.82,12.74-1.78c6.19-1.21,13.9-2.72,23.58-3.18
			c0.61-0.03,1.24-0.04,1.86-0.04c14.11,0,25.93,7.66,30.86,11.39c-0.91,1.03-2,2.4-3.15,4.15c-1.84,2.77-2.43,4.89-2.95,6.76
			c-0.38,1.34-0.67,2.41-1.42,3.67c-2.39,4.05-7.01,5.98-8.44,6.34c-0.01,0-0.2,0.05-0.73,0.05c-4.17,0-14.77-2.71-19.56-4.99
			c-8.03-3.83-18.13-5.94-28.45-5.94c-12.14,0-23.48,2.86-31.12,7.85c-16.86,11.02-22.14,29.97-23.78,40.14
			c-3.28-2.96-8.11-6.1-13.94-6.31c-0.15-0.01-0.29-0.01-0.44-0.01c-7.16,0-14.65,6.05-17.76,11.89c-1.99,3.75-2.29,8-0.87,12.29
			c1.74,5.26,5.99,10.14,10.82,12.42c2.09,0.99,4.76,1.49,7.91,1.49c5.38,0,11.18-1.44,14.32-2.35c1.53,2.18,4.51,5.57,9.99,9.22
			c4.35,2.9,13.05,4.46,21.46,5.97c4.99,0.89,11.72,2.1,13.51,3.17c0.37,1.08,0.92,1.92,1.34,2.56c0.47,0.71,0.58,0.92,0.55,1.05
			c-0.05,0.29-0.4,1.44-3.02,4.11c-0.1,0.1-0.22,0.22-0.37,0.37c-2.75,2.73-11.13,11.06-7.96,18.36c1.98,4.56,6.35,5.63,15.05,7.76
			c1.95,0.48,4.17,1.02,6.68,1.67c8.9,2.32,18.11,4.71,25.33,11.32c3.45,3.15,4.7,5.63,6.03,8.26c1.56,3.09,3.18,6.28,7.88,9.92
			c5.97,4.62,14.05,7.73,20.1,7.73c3.44,0,6.2-1.01,7.96-2.92c4.75-5.13,0.91-14.47-1.14-19.48c-3-7.3-8.05-13.94-14.63-19.22
			c-10.05-8.07-19.78-11.89-26.3-13.68c7.36-5.5,17.93-16.98,18.84-37.9c0.43-9.96-3.64-18.22-8.16-24.24
			c6.22,4.33,12.01,11.84,10.76,24.67c-0.96,9.91-2.94,17.59-4.43,22.3c-0.49,1.55-0.23,3.19,0.72,4.49
			c0.96,1.31,2.49,2.09,4.1,2.09c1.15,0,2.24-0.39,3.16-1.13c6.53-5.27,18.18-16.4,22.9-31.73c4.5-14.61,5.41-25.98,5.47-32.38
			c4.88,2.59,12.84,5.93,21.34,5.93c5.09,0,9.76-1.21,13.86-3.58c4.14-2.4,6.54-6.97,7.41-10.45c1.57-6.26,0.49-16.08-2.68-24.42
			c-4.08-10.76-11.14-18.28-19.87-21.19c-9.02-3.01-19.95-3.49-23.72-3.57c-7.59-7.48-13.32-11.65-23.01-16.82
			C370.67,119.89,357.46,117.5,342.21,117.5L342.21,117.5z"/>
	</g>
	<g id="Layer_33" class="st7">
		<path class="st12" d="M398.07,289.58c1.86-0.62,1.86-0.62,4.64-0.93c2.18-0.24,4.64-0.31,11.15,1.86
			c1.68,0.56,4.33-1.86,2.48-4.33c-1.81-2.42-7.12,2.17-10.84-0.93c-1.86-1.55-8.05-8.05-10.22-13.31c-2.09-5.07-1.2-7.08-2.48-13
			c-1.41-6.55-1.98-7.42-2.48-8.05c-2.93-3.67-8.51-4.96-13-3.72c-2.6,0.72-6.74,2.81-6.81,5.57c-0.04,1.6,1.42,2.94,4.33,5.57
			c2.3,2.08,3.31,2.57,5.57,4.33c3.77,2.93,6.18,4.81,8.05,8.05c1.88,3.25,8.01,12.69,6.81,14.24c-0.5,0.65-3.96,1.64-7.74,3.41
			c-4.64,2.17-6.27-1.18-7.74-0.93c-2.31,0.4-4.3,3.21-3.72,4.33c0.29,0.56,1.85,0.59,4.95,0.62c2.31,0.02,5.66-0.44,8.98-1.55
			c1.86-0.62,4.2,0.3,3.1,0.62c-1.08,0.31-1.24,2.48,0.62,3.1c1.27,0.42,2.44,0.38,4.33,0c3.1-0.62,4.95-3.72,0.62-4.33
			C397.8,290.07,397.17,289.87,398.07,289.58z"/>
		<path class="st21" d="M437.08,220.84c1.66,3.2-7.08,17.56-21.67,22.91c-7.11,2.61-10.05,2.67-12.38,3.1
			c-9.8,1.78-11.46,5.88-19.82,16.72c-7.24,9.39-18.36,18.06-30.34,21.67c-11.12,3.36-25.62,4.63-30.96-1.86
			c-4.48-5.44-0.74-16.38,3.1-22.91c7.22-12.31,19.15-16.45,55.11-27.25C430.72,218.04,435.35,217.52,437.08,220.84z"/>
		<path class="st21" d="M274.22,269.76c-3.28-2.77-9.19-9.09-7.43-13c0.87-1.93,4.34-3.41,13-4.95
			c19.71-3.51,23.16-9.17,25.39-10.53c4.37-2.66,5.07-4.63,7.43-4.33c5.14,0.65,8.34,16.6,6.19,24.77
			c-2.73,10.38-16.46,14.72-25.39,14.86C292.06,276.59,282.33,276.6,274.22,269.76z"/>
		<circle class="st21" cx="411.99" cy="209" r="13.5"/>
		<g class="st22">
			<path class="st4" d="M262.14,265.12c-2.51,0.93-1.87,11.27,0,17.96c0.86,3.09,11.34,19.22,25.39,24.77
				c1.72,0.68,3.16,0.66,19.2,0c33.36-1.38,29.46-1.93,39.63,0.62c3.53,0.88,9.09,2.67,10.53,0.62c0.95-1.36-0.01-4.27-1.86-5.57
				c-3.07-2.16-7.78,0.64-8.05,0c-0.3-0.71,5.09-2.09,9.29-0.62c2.52,0.88,3.1,1.86,5.57,1.24c3.24-0.81,3.1-9.91-3.1-7.43
				c-3.35,1.34-16.26,2.2-19.82,2.48c-8.05,0.62-14.24,0.23-24.15-1.86c-2.74-0.58-20.53-6.13-36.54-25.39
				C276.59,269.94,263.91,264.46,262.14,265.12z"/>
			<path class="st0" d="M262.18,265.21c-0.62,0.26-0.91,0.99-1.12,1.64c-0.2,0.68-0.3,1.38-0.37,2.09
				c-0.13,1.42-0.11,2.85-0.04,4.27c0.17,2.85,0.58,5.69,1.24,8.47c0.17,0.69,0.33,1.4,0.61,2.04c0.3,0.64,0.63,1.27,1,1.88
				c0.72,1.23,1.52,2.41,2.35,3.57c1.67,2.32,3.49,4.52,5.45,6.59c3.91,4.14,8.37,7.82,13.43,10.4c0.62,0.34,1.29,0.58,1.93,0.88
				c0.65,0.28,1.29,0.6,1.93,0.71c1.33,0.23,2.78,0.17,4.2,0.15c2.85-0.07,5.71-0.21,8.57-0.35l17.15-0.81l8.58-0.43
				c2.86-0.13,5.72-0.29,8.62-0.28c1.44-0.01,2.92,0.09,4.37,0.31c1.45,0.22,2.87,0.56,4.26,0.9c2.78,0.64,5.57,1.52,8.29,1.92
				c0.68,0.1,1.36,0.14,1.99,0.11c0.63-0.03,1.23-0.19,1.52-0.49c0.3-0.25,0.41-0.79,0.35-1.37c-0.06-0.58-0.26-1.19-0.57-1.74
				c-0.61-1.12-1.57-1.92-2.77-2.13c-1.21-0.23-2.55,0.01-3.88,0.37l-1.03,0.29c-0.18,0.05-0.37,0.1-0.58,0.14
				c-0.11,0.02-0.23,0.04-0.39,0.05c-0.09,0-0.17,0.01-0.32-0.02c-0.06-0.01-0.14-0.02-0.26-0.09c-0.11-0.06-0.21-0.11-0.32-0.26
				c-0.11-0.14-0.17-0.28-0.19-0.42c-0.03-0.15-0.02-0.29,0.01-0.39c0.07-0.27,0.15-0.35,0.24-0.47c0.15-0.16,0.28-0.25,0.39-0.33
				c0.23-0.14,0.42-0.22,0.62-0.3c0.39-0.15,0.76-0.25,1.14-0.34c1.49-0.34,2.99-0.45,4.5-0.37c1.49,0.08,3.07,0.42,4.44,1.02
				c0.69,0.29,1.35,0.63,1.91,0.82c0.56,0.2,1.07,0.21,1.68,0.1c0.15-0.02,0.31-0.07,0.46-0.1c0.12-0.04,0.19-0.05,0.28-0.11
				c0.17-0.1,0.34-0.25,0.49-0.46c0.3-0.42,0.5-0.99,0.59-1.59c0.18-1.18-0.06-2.53-0.75-3.27c-0.64-0.74-1.77-0.76-2.95-0.3
				c-1.46,0.56-2.93,0.79-4.36,1.05c-5.74,0.87-11.45,1.28-17.17,1.71c-5.77,0.4-11.65,0.08-17.34-0.91
				c-1.42-0.25-2.84-0.53-4.25-0.82c-0.72-0.16-1.38-0.28-2.14-0.49c-0.73-0.2-1.42-0.43-2.11-0.67c-2.76-0.97-5.4-2.18-7.96-3.53
				c-5.1-2.74-9.88-6.04-14.25-9.79c-2.18-1.89-4.28-3.85-6.27-5.93c-0.97-1.06-1.99-2.07-2.91-3.18l-1.39-1.65l-0.7-0.82
				l-0.35-0.41c-0.11-0.12-0.22-0.23-0.35-0.34c-1.07-0.87-2.36-1.54-3.61-2.21c-1.27-0.65-2.56-1.26-3.87-1.84
				c-1.31-0.57-2.63-1.11-3.97-1.59c-0.67-0.24-1.35-0.46-2.03-0.65C263.55,265.31,262.81,265.09,262.18,265.21z M262.11,265.02
				c0.78-0.16,1.47,0.07,2.18,0.22c0.7,0.18,1.38,0.39,2.06,0.62c1.36,0.46,2.7,0.98,4.02,1.53c1.32,0.55,2.63,1.14,3.92,1.78
				c1.28,0.65,2.57,1.29,3.74,2.2c0.14,0.12,0.29,0.25,0.42,0.4l0.36,0.4l0.72,0.79l1.44,1.59c0.95,1.06,2,2.03,2.99,3.05
				c2.04,1.99,4.19,3.86,6.4,5.65c4.44,3.56,9.27,6.61,14.32,9.14c2.53,1.27,5.13,2.4,7.79,3.27c0.66,0.22,1.33,0.42,1.99,0.59
				c0.62,0.16,1.37,0.28,2.05,0.42c1.4,0.26,2.8,0.51,4.2,0.72c5.59,0.94,11.23,1.23,16.88,0.81c5.68-0.42,11.41-0.77,17-1.59
				c1.39-0.23,2.77-0.44,3.99-0.9c0.76-0.28,1.6-0.47,2.52-0.39c0.91,0.06,1.87,0.53,2.49,1.23c0.63,0.7,0.96,1.54,1.13,2.36
				c0.16,0.82,0.17,1.65,0.04,2.47c-0.14,0.81-0.41,1.63-0.95,2.38c-0.27,0.37-0.64,0.72-1.09,0.96c-0.22,0.13-0.5,0.21-0.72,0.27
				c-0.2,0.04-0.38,0.09-0.59,0.12c-0.79,0.14-1.76,0.11-2.55-0.19c-0.79-0.28-1.39-0.62-2.02-0.89c-1.24-0.55-2.51-0.84-3.87-0.93
				c-1.34-0.09-2.73,0-4.03,0.28c-0.32,0.07-0.64,0.16-0.92,0.26c-0.13,0.05-0.27,0.11-0.35,0.16c-0.04,0.02-0.05,0.04-0.02,0.01
				c0.03-0.01,0.29-0.38-0.02-0.8c-0.36-0.34-0.45-0.2-0.41-0.23c0.02,0,0.08-0.01,0.14-0.02c0.14-0.03,0.3-0.06,0.46-0.11
				l1.04-0.28c1.42-0.37,2.97-0.68,4.6-0.36c0.8,0.16,1.61,0.51,2.26,1.05c0.66,0.52,1.16,1.18,1.54,1.89
				c0.38,0.71,0.65,1.48,0.73,2.32c0.08,0.81-0.04,1.86-0.83,2.59c-0.77,0.71-1.68,0.82-2.46,0.87c-0.79,0.03-1.55-0.03-2.28-0.14
				c-2.94-0.47-5.63-1.37-8.42-2.02c-1.39-0.36-2.76-0.69-4.13-0.91c-1.38-0.22-2.76-0.32-4.18-0.33c-2.83-0.04-5.69,0.1-8.55,0.2
				l-8.58,0.36l-17.16,0.66c-2.86,0.09-5.72,0.18-8.6,0.2c-1.44-0.01-2.87,0.04-4.37-0.24c-0.77-0.15-1.42-0.5-2.08-0.79
				c-0.65-0.31-1.33-0.57-1.96-0.93c-5.11-2.72-9.55-6.51-13.42-10.74c-1.95-2.11-3.75-4.35-5.39-6.7
				c-0.82-1.18-1.61-2.38-2.32-3.63c-0.36-0.62-0.69-1.26-0.99-1.92c-0.28-0.68-0.44-1.38-0.61-2.07c-0.66-2.79-1.07-5.64-1.24-8.5
				c-0.07-1.43-0.1-2.87,0.04-4.3c0.07-0.72,0.17-1.43,0.38-2.13C261.08,266.13,261.36,265.35,262.11,265.02z"/>
		</g>
		<g class="st22">
			<path class="st4" d="M322.83,223.63c12.84-0.76,16.19,2.44,32.2,1.24c19.77-1.49,18.39-8.1,42.73-16.72
				c19.84-7.03,43.12-3.38,45.82,3.1c2.8,6.7-16.24,15.27-36.54,24.77c-13.61,6.37-37.15,28.65-47.06,35.92
				c-16.05,11.76-61.75,14.02-72.45,0C282.22,264.97,301.77,224.87,322.83,223.63z"/>
			<path class="st0" d="M322.82,223.48c3.89-0.23,7.81-0.09,11.67,0.38c3.86,0.47,7.71,1.02,11.6,1.09
				c3.88,0.1,7.77-0.12,11.62-0.57c3.84-0.46,7.67-1.23,11.23-2.71c3.56-1.48,6.83-3.58,10.21-5.53c3.37-1.96,6.85-3.75,10.42-5.35
				c1.8-0.75,3.59-1.55,5.42-2.23c1.82-0.7,3.65-1.41,5.53-1.97c3.75-1.16,7.61-1.97,11.51-2.47c3.9-0.49,7.84-0.66,11.77-0.52
				c3.93,0.17,7.87,0.64,11.71,1.69c1.92,0.53,3.82,1.21,5.61,2.27c0.89,0.54,1.76,1.16,2.48,2.03c0.73,0.85,1.24,2.09,1.14,3.32
				c-0.08,1.22-0.61,2.27-1.21,3.15c-0.61,0.89-1.32,1.64-2.06,2.33c-1.49,1.39-3.11,2.55-4.76,3.64
				c-3.31,2.17-6.75,4.03-10.22,5.83c-3.47,1.79-6.98,3.49-10.49,5.17l-5.27,2.51c-1.76,0.83-3.53,1.65-5.18,2.55
				c-3.33,1.83-6.51,4.03-9.63,6.29c-6.21,4.6-12.17,9.57-18.08,14.6l-8.88,7.57c-1.49,1.26-2.98,2.52-4.5,3.75
				c-0.77,0.62-1.51,1.24-2.31,1.84l-1.18,0.91c-0.41,0.3-0.84,0.58-1.26,0.87c-3.43,2.26-7.17,3.77-10.94,5.03
				c-3.79,1.21-7.65,2.13-11.55,2.78c-7.8,1.28-15.71,1.71-23.61,1.2c-3.94-0.3-7.88-0.87-11.75-1.83
				c-3.86-0.95-7.7-2.35-11.15-4.61c-0.83-0.62-1.68-1.21-2.42-1.97c-0.39-0.34-0.74-0.74-1.08-1.15l-0.51-0.61
				c-0.17-0.19-0.33-0.54-0.49-0.8c-0.54-1.15-0.66-2.28-0.64-3.33c-0.01-0.54,0.02-1.06,0.09-1.57c0.04-0.52,0.13-1.02,0.22-1.52
				c0.75-3.99,2.21-7.67,3.88-11.23c1.67-3.56,3.65-6.96,5.83-10.22c2.18-3.25,4.61-6.34,7.29-9.19c2.68-2.84,5.62-5.49,8.95-7.55
				c1.63-1.08,3.42-1.92,5.24-2.63C318.93,224.03,320.86,223.63,322.82,223.48z M322.84,223.78c-1.92,0.17-3.81,0.6-5.62,1.28
				c-1.78,0.73-3.53,1.57-5.13,2.67c-3.25,2.09-6.07,4.8-8.65,7.67c-2.58,2.88-4.83,6.04-6.87,9.32c-2.03,3.29-3.85,6.7-5.35,10.24
				c-1.49,3.53-2.77,7.2-3.31,10.9c-0.07,0.46-0.13,0.92-0.14,1.37c-0.04,0.46-0.05,0.91-0.02,1.35c0.01,0.88,0.19,1.73,0.5,2.32
				c0.11,0.14,0.12,0.26,0.28,0.43l0.45,0.49c0.29,0.33,0.59,0.66,0.95,0.94c0.65,0.61,1.41,1.12,2.15,1.65
				c3.11,1.94,6.72,3.19,10.41,4.01c3.7,0.83,7.5,1.3,11.31,1.5c7.63,0.46,15.35,0,22.89-1.28c3.77-0.65,7.51-1.47,11.13-2.61
				c3.6-1.17,7.15-2.59,10.24-4.6c0.38-0.26,0.76-0.5,1.15-0.77l1.14-0.86c0.77-0.56,1.52-1.17,2.27-1.77
				c1.51-1.2,3.01-2.42,4.5-3.66l8.97-7.46c5.99-4.97,12.05-9.9,18.4-14.49c3.2-2.27,6.45-4.47,9.96-6.36
				c1.78-0.94,3.55-1.74,5.31-2.55l5.29-2.45c3.52-1.64,7.03-3.3,10.48-5.04c3.45-1.75,6.87-3.56,10.09-5.63
				c1.6-1.04,3.17-2.14,4.53-3.39c0.69-0.62,1.32-1.29,1.82-2c0.5-0.71,0.86-1.48,0.91-2.2c0.17-1.45-1.17-2.78-2.71-3.71
				c-1.56-0.94-3.34-1.61-5.16-2.13c-3.65-1.04-7.49-1.53-11.32-1.74c-3.84-0.17-7.7-0.05-11.52,0.39
				c-3.83,0.42-7.62,1.14-11.32,2.21c-1.85,0.51-3.67,1.18-5.49,1.84c-1.83,0.63-3.61,1.39-5.41,2.1
				c-3.56,1.52-7.04,3.22-10.42,5.11c-3.39,1.87-6.73,3.94-10.39,5.38c-3.65,1.46-7.54,2.17-11.42,2.58
				c-3.88,0.41-7.78,0.53-11.68,0.43c-3.9-0.07-7.77-0.62-11.62-1.1C330.6,223.68,326.71,223.55,322.84,223.78z"/>
		</g>
		<g class="st22">
			<path class="st4" d="M301.42,301.99c-8.94-4.67-14.46-11.38-17.61-17.67c-0.62-1.24-2.81-4.56-13.62-9.91
				c-8.82-4.36-10.7-8.49-7.86-11.95c2.93-3.57,12.38-0.09,22.66,3.49c6.89,2.4,26.84,3.51,33.28,4.24
				c10.43,1.19,23.18,16.6,18.27,25.8C334.1,300.56,309.6,306.26,301.42,301.99z"/>
			<path class="st0" d="M301.35,302.12c-6.95-3.71-13.01-9.22-16.99-16.1c-0.53-0.85-0.91-1.78-1.49-2.49
				c-0.58-0.74-1.28-1.4-2.02-2.02c-1.48-1.24-3.13-2.28-4.81-3.27c-1.68-0.99-3.41-1.9-5.17-2.75c-1.75-0.85-3.58-1.73-5.27-2.84
				c-1.68-1.11-3.33-2.42-4.49-4.29c-0.57-0.93-0.95-2.1-0.84-3.3c0.1-1.19,0.65-2.28,1.34-3.12c0.79-0.98,1.96-1.48,3.04-1.71
				c0.55-0.1,1.09-0.17,1.62-0.17c0.54-0.04,1.05,0.01,1.57,0.04c2.07,0.17,4.03,0.63,5.96,1.14c3.86,1.04,7.58,2.34,11.31,3.59
				c3.56,1.13,7.5,1.58,11.36,2.05c3.88,0.43,7.79,0.75,11.71,1.04l5.88,0.43l2.96,0.23l1.5,0.14c0.54,0.08,1.09,0.15,1.62,0.28
				c4.23,1.03,7.78,3.43,10.79,6.24c2.95,2.88,5.45,6.27,6.98,10.22c0.71,1.99,1.21,4.12,1.09,6.34c-0.04,1.1-0.26,2.22-0.66,3.28
				c-0.18,0.54-0.44,1.02-0.72,1.55c-0.2,0.3-0.42,0.62-0.64,0.82c-0.22,0.24-0.45,0.43-0.68,0.6c-1.84,1.35-3.75,2.01-5.66,2.68
				c-1.92,0.63-3.86,1.12-5.8,1.54c-3.9,0.82-7.85,1.32-11.81,1.46c-1.98,0.08-3.97,0.05-5.94-0.15
				C305.13,303.41,303.14,303.04,301.35,302.12z M301.49,301.85c1.75,0.84,3.71,1.15,5.65,1.29c1.95,0.14,3.91,0.04,5.85-0.13
				c3.89-0.39,7.73-1.2,11.46-2.28c1.86-0.55,3.71-1.17,5.48-1.91c1.74-0.74,3.53-1.6,4.8-2.68c0.32-0.26,0.54-0.55,0.65-0.74
				c0.15-0.36,0.35-0.75,0.45-1.16c0.26-0.8,0.36-1.65,0.37-2.51c0.04-1.72-0.42-3.49-1.09-5.17c-1.35-3.39-3.64-6.48-6.33-9.05
				c-2.69-2.55-5.88-4.74-9.32-5.6c-0.43-0.12-0.86-0.18-1.28-0.26l-1.43-0.17l-2.92-0.3l-5.87-0.58c-3.92-0.39-7.85-0.8-11.77-1.34
				c-3.92-0.57-7.85-1.06-11.78-2.38c-3.71-1.32-7.39-2.69-11.11-3.77c-1.86-0.53-3.74-1-5.6-1.18c-0.46-0.03-0.93-0.09-1.37-0.06
				c-0.46-0.02-0.89,0.04-1.31,0.11c-0.83,0.16-1.56,0.48-2.04,1.05c-0.56,0.67-0.93,1.42-1.02,2.19c-0.09,0.78,0.13,1.59,0.57,2.34
				c0.89,1.5,2.36,2.78,3.93,3.85c1.57,1.11,3.27,1.99,5.03,2.91c1.75,0.92,3.48,1.9,5.16,2.96c1.67,1.07,3.31,2.21,4.8,3.56
				c0.74,0.67,1.45,1.4,2.05,2.23c0.3,0.41,0.56,0.89,0.77,1.33c0.22,0.43,0.42,0.88,0.66,1.3c1.85,3.43,4.23,6.6,7.03,9.34
				C294.75,297.79,298.02,300.04,301.49,301.85z"/>
		</g>
		<circle class="st23" cx="410.76" cy="209.38" r="8.05"/>
		<circle class="st8" cx="410.02" cy="207.72" r="2.98"/>
		<g class="st22">
			<path class="st4" d="M392.78,247.12c-3.34-1.12-6.98,1.71-8.6,3.7c-2.05,2.53-0.01,5.52-1.55,8.83
				c-1.92,4.13-4.84,6.97-7.18,10.43c-3.01,4.47-6.91,6.34-9.91,6.81c-1.9,0.3-0.33,0.68-1.71,1.51c-1.7,1.03-2.57,3.69-1.59,5.83
				c1.06,2.31,4.06,3.49,6.04,2.82c1.94-0.65,2.13-1.51,4.57-4.09c4.09-4.32,5.65-5.53,8.79-9.78c3.9-5.28,7.4-8.53,9.57-11.47
				c2.55-3.46,4.27-3.12,5.48-5.59C398.05,253.36,396.14,248.24,392.78,247.12z"/>
			<path class="st0" d="M392.74,247.26c-1.09-0.36-2.29-0.32-3.4,0.05c-1.11,0.34-2.12,0.97-3.04,1.68
				c-0.89,0.73-1.77,1.58-2.31,2.55c-0.54,0.99-0.52,2.16-0.45,3.32c0.1,1.16,0.2,2.4-0.04,3.64c-0.28,1.26-0.85,2.33-1.41,3.39
				c-1.17,2.12-2.64,4.03-4.03,5.92c-0.71,0.94-1.38,1.87-2.03,2.85c-0.68,1.03-1.46,1.99-2.33,2.87c-1.75,1.76-3.91,3.17-6.34,3.93
				c-0.58,0.2-1.28,0.33-1.82,0.44c-0.12,0.02-0.23,0.05-0.3,0.08c-0.1,0.01-0.03,0.09,0.19-0.21c0.04-0.08,0.07-0.14,0.08-0.21
				c0.01,0,0.01-0.08,0.01-0.03c0,0.04,0,0.18-0.04,0.36c-0.06,0.35-0.28,0.7-0.46,0.88c-0.19,0.2-0.37,0.33-0.53,0.44l-0.3,0.21
				c-0.16,0.13-0.31,0.28-0.45,0.46c-0.27,0.35-0.48,0.77-0.61,1.21c-0.27,0.89-0.22,1.87,0.17,2.65c0.38,0.78,1.11,1.44,1.96,1.83
				c0.84,0.4,1.85,0.52,2.56,0.29c0.94-0.3,1.4-0.74,2.18-1.69c0.73-0.89,1.56-1.86,2.36-2.73l2.42-2.61
				c1.65-1.7,3.17-3.37,4.56-5.19l2.15-2.81c0.75-0.94,1.52-1.87,2.31-2.77c1.59-1.8,3.26-3.5,4.87-5.17l1.18-1.26l0.57-0.65
				c0.21-0.24,0.41-0.48,0.63-0.71c0.86-0.93,1.9-1.74,2.92-2.37c1.02-0.61,1.79-1.2,2.28-2.18c0.47-0.9,0.54-2.07,0.36-3.17
				C396.22,250.36,394.91,248.1,392.74,247.26z M392.83,246.97c1.16,0.39,2.16,1.18,2.89,2.15c0.73,0.97,1.31,2.07,1.61,3.27
				c0.29,1.19,0.44,2.5-0.04,3.79c-0.23,0.62-0.55,1.19-0.99,1.71c-0.43,0.52-0.94,0.93-1.39,1.31c-0.91,0.74-1.65,1.49-2.29,2.39
				c-0.17,0.22-0.31,0.46-0.47,0.68l-0.51,0.76c-0.35,0.5-0.7,1-1.08,1.47c-1.48,1.9-3.02,3.67-4.47,5.49
				c-0.74,0.9-1.46,1.81-2.15,2.73l-2.13,2.84c-1.49,1.92-3.23,3.69-4.9,5.35l-2.51,2.48c-0.84,0.83-1.59,1.63-2.39,2.53
				c-0.4,0.44-0.84,0.94-1.46,1.41c-0.64,0.47-1.31,0.76-2.01,0.96c-1.59,0.41-3.06,0.06-4.32-0.56c-1.26-0.64-2.38-1.66-2.99-3.04
				c-0.61-1.38-0.61-2.92-0.16-4.27c0.23-0.68,0.57-1.32,1.05-1.89c0.24-0.28,0.52-0.54,0.82-0.78l0.43-0.29
				c0.08-0.05,0.14-0.1,0.16-0.11c0.03-0.03-0.04,0.05-0.04,0.12c0,0.03,0,0.03,0.01-0.08c0-0.02,0.02-0.17,0.03-0.25
				c0.04-0.14,0.08-0.28,0.16-0.41c0.38-0.55,0.74-0.59,0.92-0.67c0.22-0.07,0.4-0.1,0.56-0.13c0.63-0.1,1.09-0.18,1.64-0.34
				c2.1-0.59,4.06-1.76,5.69-3.29c0.82-0.77,1.55-1.63,2.21-2.55c0.68-0.97,1.43-1.94,2.17-2.86c1.51-1.83,3.03-3.6,4.25-5.57
				c0.6-0.99,1.23-1.99,1.52-3.03c0.29-1.07,0.28-2.23,0.27-3.41c-0.02-1.17,0.02-2.48,0.68-3.57c0.67-1.06,1.59-1.82,2.53-2.56
				c0.95-0.71,2-1.33,3.15-1.69C390.4,246.67,391.66,246.61,392.83,246.97z"/>
		</g>
		<g class="st22">
			<path class="st4" d="M362.46,281.84c-0.42-1.68,0.46-4.28,2.48-4.95c1.86-0.62,6.81,2.48,14.24,13.62
				c2.48,3.72,2.84,7.93,6.19,9.29c3.81,1.54,3.72,1.24,9.91,1.24c3.32,0,10.53,4.33,10.53,4.33s-4.31,1.24-13.62,1.24
				c-3.72,0-4.33,2.48-13-1.86c-1.75-0.88-5.57-3.72-9.29-9.29C366.03,289.67,363.08,284.31,362.46,281.84z"/>
			<path class="st0" d="M362.31,281.87c-0.27-1.27,0.05-2.59,0.74-3.65c0.36-0.52,0.83-0.99,1.4-1.28c0.14-0.08,0.3-0.13,0.44-0.19
				c0.16-0.03,0.33-0.08,0.5-0.08c0.33-0.01,0.65,0.06,0.96,0.14c1.21,0.4,2.27,1.11,3.26,1.87c0.99,0.76,1.9,1.62,2.78,2.5
				c1.76,1.76,3.39,3.66,4.91,5.62c0.76,0.98,1.49,1.99,2.22,3c0.74,1.02,1.4,2.16,1.93,3.29c0.54,1.13,1.02,2.27,1.6,3.28
				c0.57,1.02,1.27,1.87,2.15,2.36c0.42,0.21,1.03,0.44,1.59,0.64c0.56,0.2,1.12,0.39,1.66,0.5c1.06,0.24,2.23,0.2,3.47,0.18
				l1.85-0.04l0.93-0.02c0.31-0.01,0.6-0.02,1,0.01c1.48,0.12,2.69,0.55,3.9,1c2.4,0.93,4.62,2.06,6.84,3.31l2.62,1.47l-2.92,0.77
				c-2.47,0.65-4.77,0.93-7.16,1.17c-2.34,0.24-4.8,0.35-7.05,0.4c-0.95,0.02-1.89,0.37-3.27,0.61c-1.36,0.26-2.82,0.11-4.06-0.19
				c-1.27-0.3-2.44-0.74-3.55-1.23c-0.56-0.25-1.11-0.5-1.65-0.77l-0.81-0.4c-0.29-0.15-0.6-0.33-0.87-0.5
				c-4.27-2.84-7.04-6.92-9.33-11.04c-1.15-2.06-2.26-4.13-3.31-6.23c-0.54-1.04-1.03-2.11-1.52-3.18
				C363.07,284.12,362.6,283.03,362.31,281.87z M362.6,281.8c0.69,2.2,1.89,4.23,3.1,6.21c1.24,1.97,2.58,3.88,3.98,5.74
				c1.39,1.88,2.81,3.64,4.44,5.22c0.79,0.8,1.62,1.56,2.48,2.26c0.85,0.7,1.74,1.36,2.64,1.88c0.23,0.13,0.43,0.23,0.67,0.34
				l0.77,0.36c0.51,0.25,1.03,0.46,1.54,0.67c1.03,0.42,2.07,0.8,3.07,1.03c1.02,0.22,1.93,0.33,2.88,0.19
				c0.92-0.12,2.22-0.55,3.63-0.56l3.51,0c1.15-0.02,2.3-0.04,3.44-0.11c1.14-0.06,2.29-0.16,3.41-0.29
				c1.11-0.13,2.29-0.3,3.28-0.54l-0.29,2.23c-2.04-1.25-4.21-2.42-6.39-3.35c-1.08-0.45-2.23-0.86-3.22-0.96
				c-0.22-0.03-0.54-0.03-0.85-0.04l-0.92-0.01l-1.85-0.01c-1.23-0.02-2.55,0-3.91-0.34c-0.66-0.17-1.28-0.4-1.87-0.63
				c-0.59-0.24-1.14-0.45-1.82-0.81c-0.62-0.38-1.17-0.86-1.62-1.4c-0.43-0.54-0.8-1.12-1.1-1.7c-0.61-1.16-1.05-2.32-1.54-3.43
				c-0.49-1.12-1-2.17-1.67-3.18c-0.66-1.04-1.33-2.06-2.03-3.07c-1.39-2.02-2.84-4.01-4.46-5.85c-0.81-0.92-1.67-1.8-2.6-2.59
				c-0.93-0.79-1.92-1.54-3.05-1.95c-1.16-0.48-2.35,0.29-3,1.27C362.62,279.37,362.34,280.65,362.6,281.8z"/>
		</g>
		<path class="st12" d="M380.32,300.75c-1.15,0.84-1.8,0.83-4.33,0.62c-2.27-0.19-7.43-4.33-8.05,1.24c-0.21,1.85,2.2,4.32,4.33,3.1
			c4.33-2.48,0.41-0.3,2.48-1.24c1.34-0.61,1.28-0.76,2.79-0.93c2.91-0.32,3.78-1.35,6.81-2.48"/>
		<path class="st12" d="M379.18,299.17c-0.01,0.04,3.65,1.57,6.19,0c1.18-0.73,2.22-0.32,1.86-1.24c-0.58-1.46-2.17-0.31-2.17-1.55
			c0-1.28,3.03-2.2,4.95-1.24c3.72,1.86-0.62,1.86-0.31,2.79c0.31,0.93,1.52,1.06,2.48,1.24c1.53,0.28,3.95,0.08,3.72-0.62
			c-0.31-0.93-0.72-0.09-0.93-0.93c-0.62-2.48,5.57-1.86,6.19-0.62c1.14,2.28-0.93,2.17-1.24,2.48c-0.39,0.39-0.2,1.42,1.24,2.48
			c1.15,0.84,1.8,0.83,4.33,0.62c2.27-0.19,7.43-4.33,8.05,1.24c0.21,1.85-2.2,4.32-4.33,3.1c-4.33-2.48-0.41-0.3-2.48-1.24
			c-1.34-0.61-2.2-0.45-3.72-0.62c-2.91-0.32-3.16-0.73-6.19-1.86c-1.88-0.7-4.43,0.78-13.62-0.62
			C380.92,302.23,379.63,296.91,379.18,299.17z"/>
	</g>
	<g id="Layer_34" class="st24">
	</g>
	<g id="Layer_35">
		<path class="st25" d="M391.89,274.83c1.33,3.04,5.62,1.55,10.96,4.87c1.7,1.06,0.78,0.9,8.53,9.74c2.52,2.87,4.48,5.02,6.09,8.53
			c0.41,0.9,1.39,3.18,1.22,6.09c-0.07,1.23-0.18,2.68-1.22,3.65c-1.18,1.11-2.08,1.42-3.65,2.44c-1.25,0.8-4.6,4.76-4.87,4.87
			c-1.52,0.61-2.67-1.26-4.87-1.22c-1.68,0.04-3.6,1.18-3.65,2.44c-0.05,1.07,1.26,2.09,2.44,2.44c1.29,0.38,2.42-0.05,4.87-1.22
			c4.17-1.99,4.83-2.64,7.31-3.65c2.72-1.11,4.23-1.7,6.09-1.22c0.55,0.14,2.49,0.74,3.65,2.44c0.6,0.88,0.45,1.25,1.22,2.44
			c0.59,0.91,1.26,1.95,2.44,2.44c1.74,0.73,3.84,1.04,4.87,0c2.44-2.44,1.22-4.87,0-6.09c-0.44-0.44-1.22-2.44,0-2.44
			c1.26,0,3.82,0.51,6.09,1.22c2.3,0.72,4.08,0.68,4.87,1.22c2.28,1.54,2.38,2.22,3.65,2.44c1.81,0.31,4.17-0.62,4.87-2.44
			c0.39-1,0.13-1.94,0-2.44c-0.47-1.75-2.01-3.64-3.65-3.65c-1.52-0.01-1.81,0.38-3.65,1.22c-2.6,1.18-5.65-0.38-7.31-1.22
			c-3.99-2.03-6.27-3.93-8.53-7.31c-5.89-8.83-8.83-13.24-10.96-19.49c-2.4-7.04-1.69-9.36-4.87-13.4
			c-1.45-1.84-4.68-5.94-9.74-6.09c-5.29-0.16-9.28,4.1-10.96,7.31C392.23,270.42,390.99,272.77,391.89,274.83z"/>
		<path class="st25" d="M388.24,328.42c1.09-0.22,3.54-0.74,6.09-2.44c2.82-1.88,2.77-3.21,4.87-3.65c1.67-0.36,4.26-0.07,4.87,0
			c1.22,0.14,1.72,0.3,2.44,0c1.31-0.54,1.18-1.74,2.44-2.44c1.16-0.65,2.48-0.3,3.65,0c0.96,0.25,3.4,0.89,3.65,2.44
			c0.19,1.16-0.94,2.2-1.22,2.44c-1.97,1.71-4.81,0.82-4.87,1.22c-0.08,0.47,3.65,2.4,7.31,1.22c0.99-0.32,0.93-0.53,2.44-1.22
			c2.42-1.11,5.46-2.5,7.31-1.22c1.37,0.95,1.98,3.29,1.22,4.87c-0.21,0.44-1.09,1.98-6.09,2.44c-5.16,0.47-6.52-0.97-10.96-1.22
			c-7.33-0.42-8.18,3.22-15.83,2.44c-4.39-0.45-7.31-1.22-7.31-1.22c-3.23-0.85-4.82-1.7-7.31-1.22c-1.71,0.33-1.79,0.9-3.65,1.22
			c-2.49,0.43-5.79,0-6.09-1.22c-0.3-1.19,2.22-3.39,4.87-3.65c1.74-0.17,2.14,0.63,4.87,1.22
			C381.55,328.55,384.57,329.16,388.24,328.42z"/>
		<g>
			<path class="st4" d="M238.06,158.94c4.22-4.4,2.45-11.8,9.06-20c1.14-1.41,2.56-2.47,5.42-4.59c3.88-2.89,8.48-5.6,25.26-11.56
				c10.6-3.76,14.2-4.61,18.03-2.96c0.77,0.33,6.78,3.92,7.15,6.4c0.62,4.17-10.06,6.04-11.19,6.6c-2.02,1.01-5.48,2.41-19.23,3.16
				c-9.77,0.53-12.53,0.07-15.63,2.57c-3.4,2.75-4.48,6.87-4.82,8.2c-1.38,5.27,0.14,9.78,0.58,11.01c1.28,3.64,2.62,3.86,3.79,8.02
				c0.76,2.69,1.56,5.54-0.02,7.41c-1.43,1.69-4.51,2.21-6.01,0.99c-1.26-1.03-0.66-3.4,0.21-6.21c0.81-2.6,0.81-2.6,0.41-5.01
				c-0.22-1.36-3.12-5.73-3.39-5.61c-0.28,0.12,0.25,1.53,0.59,3.61c0.23,1.39,0.69,4.27-0.02,7.41c-0.42,1.86-0.91,4.03-2.82,5.4
				c-0.26,0.18-2.79,1.95-4.81,0.79c-1.22-0.7-0.95-2.45-0.59-3.61c0.81-2.6,1.81-4,1.81-4c1-1.4,1.78-2.74,1.81-4
				c0.03-1.13-0.54-4.79-0.79-4.81c-0.43-0.03-0.29,3.8-2.42,7.8c-0.94,1.77-2.02,3.8-4.22,4.4c-1.68,0.45-4.12,0.1-5.2-1.61
				c-1.21-1.92,0.05-4.32,0.41-5.01c1-1.9,2.65-2.74,3.21-3C236.32,159.98,237.34,159.69,238.06,158.94z"/>
			<path class="st0" d="M238.03,158.9c1.98-2.07,2.66-4.95,3.37-7.66c0.69-2.74,1.5-5.48,2.82-8.01c0.65-1.26,1.41-2.47,2.25-3.61
				c0.82-1.16,1.85-2.18,2.96-3.05c2.24-1.74,4.48-3.48,6.94-4.91c4.92-2.84,10.23-4.89,15.51-6.93c2.65-1,5.31-1.97,7.98-2.92
				c2.68-0.93,5.35-1.87,8.13-2.53c1.39-0.31,2.81-0.57,4.27-0.53c1.46,0.04,2.9,0.38,4.2,1.08c1.25,0.71,2.43,1.5,3.56,2.38
				c1.11,0.9,2.24,1.82,2.97,3.16c0.37,0.68,0.38,1.59,0.04,2.29c-0.33,0.72-0.9,1.24-1.47,1.69c-1.18,0.88-2.52,1.45-3.85,1.95
				c-1.34,0.5-2.71,0.9-4.08,1.27c-0.68,0.2-1.39,0.33-1.96,0.64c-0.65,0.32-1.32,0.59-2.01,0.81c-2.74,0.88-5.58,1.25-8.39,1.6
				c-2.82,0.32-5.65,0.53-8.48,0.69l-8.48,0.41c-1.4,0.09-2.8,0.21-4.12,0.56c-1.32,0.35-2.49,1.05-3.5,1.99
				c-2.02,1.86-3.32,4.41-4.05,7.08c-0.76,2.67-0.86,5.49-0.35,8.22c0.25,1.36,0.64,2.7,1.18,3.97c0.51,1.28,1.32,2.38,2.05,3.65
				c0.73,1.27,1.2,2.69,1.57,4.05c0.37,1.37,0.77,2.78,0.75,4.31c-0.01,0.76-0.16,1.56-0.55,2.27c-0.39,0.71-0.98,1.29-1.66,1.68
				c-1.34,0.77-2.95,1.09-4.5,0.6c-0.39-0.12-0.75-0.33-1.09-0.62c-0.34-0.3-0.58-0.72-0.68-1.13c-0.22-0.82-0.13-1.6-0.01-2.32
				c0.25-1.45,0.72-2.81,1.12-4.16c0.2-0.68,0.38-1.31,0.36-1.92c-0.02-0.62-0.16-1.38-0.27-2c-0.16-0.56-0.5-1.21-0.83-1.8
				c-0.34-0.6-0.7-1.2-1.08-1.78c-0.19-0.29-0.39-0.58-0.59-0.86c-0.19-0.26-0.44-0.59-0.59-0.72c-0.01-0.01-0.01-0.01,0.03,0.02
				c-0.08,0,0.27,0.09,0.4-0.01c0.19-0.12,0.18-0.21,0.2-0.24c0-0.02,0,0.05,0.01,0.12c0.01,0.14,0.05,0.31,0.08,0.47l0.23,1.03
				c0.32,1.4,0.55,2.82,0.66,4.27c0.1,1.45,0.04,2.91-0.23,4.35c-0.3,1.41-0.59,2.83-1.3,4.18c-0.68,1.35-1.96,2.4-3.34,2.94
				c-0.7,0.28-1.45,0.48-2.25,0.43c-0.78-0.06-1.61-0.29-2.17-1.02c-0.51-0.74-0.48-1.6-0.39-2.33c0.11-0.75,0.36-1.44,0.6-2.11
				c0.5-1.33,1.17-2.68,2.03-3.8c0.76-1.15,1.46-2.39,1.29-3.74c-0.05-0.69-0.14-1.39-0.24-2.08c-0.05-0.35-0.11-0.69-0.18-1.03
				l-0.11-0.51l-0.07-0.24c-0.01-0.06-0.08-0.18-0.04-0.13c0.24,0.14,0.29-0.01,0.3,0l-0.02,0.05c-0.02,0.06-0.04,0.14-0.06,0.22
				l-0.1,0.51l-0.19,1.05c-0.13,0.7-0.29,1.4-0.48,2.09c-0.38,1.38-0.91,2.72-1.61,3.97c-0.67,1.24-1.4,2.54-2.58,3.44
				c-1.17,0.92-2.75,1.18-4.16,0.92c-0.71-0.13-1.42-0.4-2-0.84c-0.59-0.44-1.04-1.08-1.25-1.78c-0.41-1.45,0.09-2.93,0.74-4.17
				c0.65-1.28,1.73-2.33,3-2.98c0.64-0.32,1.3-0.57,1.95-0.85C236.88,159.7,237.54,159.41,238.03,158.9z M238.1,158.97
				c-0.5,0.53-1.17,0.84-1.81,1.12c-0.65,0.29-1.31,0.55-1.93,0.87c-1.24,0.65-2.27,1.69-2.89,2.94c-0.63,1.23-1.07,2.67-0.67,4
				c0.4,1.33,1.7,2.18,3.05,2.38c1.35,0.23,2.82-0.03,3.88-0.9c1.08-0.85,1.77-2.1,2.43-3.34c0.67-1.23,1.16-2.55,1.52-3.9
				c0.18-0.68,0.32-1.36,0.45-2.05l0.18-1.04l0.1-0.54c0.02-0.09,0.04-0.19,0.08-0.29c0.02-0.06,0.04-0.11,0.1-0.19
				c0.02-0.03,0.08-0.1,0.16-0.13c0.06-0.05,0.26-0.04,0.36,0.06c0.15,0.19,0.13,0.25,0.18,0.35l0.08,0.27l0.12,0.53
				c0.07,0.35,0.14,0.7,0.2,1.06c0.12,0.71,0.21,1.41,0.27,2.13c0.09,0.72-0.03,1.54-0.31,2.22c-0.27,0.69-0.64,1.32-1.03,1.93
				c-0.85,1.14-1.43,2.37-1.9,3.69c-0.23,0.66-0.45,1.32-0.54,1.97c-0.09,0.65-0.05,1.33,0.27,1.76c0.31,0.41,0.97,0.65,1.58,0.67
				c0.63,0.03,1.27-0.14,1.88-0.39c1.25-0.52,2.27-1.39,2.87-2.59c0.61-1.17,0.89-2.57,1.15-3.92c0.23-1.35,0.26-2.74,0.17-4.11
				c-0.1-1.38-0.33-2.76-0.63-4.12l-0.24-1.04c-0.04-0.18-0.08-0.36-0.1-0.57c-0.01-0.11-0.03-0.22,0-0.41
				c0.03-0.11,0.05-0.29,0.33-0.46c0.16-0.12,0.57-0.01,0.52,0.01c0.08,0.04,0.11,0.07,0.14,0.09c0.37,0.35,0.53,0.61,0.76,0.91
				c0.21,0.3,0.42,0.59,0.61,0.89c0.39,0.6,0.77,1.21,1.12,1.84c0.35,0.65,0.7,1.25,0.92,2.05c0.13,0.77,0.26,1.41,0.3,2.21
				c0.03,0.81-0.2,1.56-0.4,2.23c-0.41,1.37-0.87,2.7-1.1,4.04c-0.11,0.66-0.16,1.34-0.01,1.89c0.07,0.28,0.21,0.5,0.39,0.66
				c0.2,0.17,0.46,0.33,0.75,0.42c1.15,0.38,2.58,0.13,3.67-0.51c1.13-0.64,1.74-1.8,1.74-3.12c0.03-1.32-0.32-2.68-0.69-4.03
				c-0.36-1.36-0.78-2.66-1.46-3.85c-0.67-1.18-1.54-2.39-2.08-3.75c-0.56-1.34-0.96-2.74-1.21-4.16c-0.52-2.84-0.4-5.82,0.41-8.6
				c0.77-2.77,2.14-5.46,4.32-7.44c0.54-0.49,1.13-0.93,1.77-1.31c0.65-0.37,1.34-0.64,2.05-0.84c1.42-0.37,2.86-0.48,4.28-0.57
				l8.49-0.37c2.82-0.15,5.64-0.35,8.45-0.65c2.8-0.33,5.61-0.69,8.27-1.53c0.66-0.21,1.31-0.47,1.93-0.77
				c0.69-0.35,1.39-0.47,2.07-0.67c1.36-0.37,2.72-0.76,4.03-1.24c1.31-0.49,2.61-1.04,3.71-1.85c0.53-0.41,1.04-0.88,1.3-1.46
				c0.27-0.57,0.28-1.23-0.03-1.8c-0.62-1.17-1.73-2.11-2.8-2.98c-1.1-0.86-2.27-1.65-3.48-2.35c-1.19-0.65-2.57-0.99-3.95-1.03
				c-1.38-0.05-2.77,0.2-4.14,0.5c-2.74,0.63-5.42,1.55-8.1,2.45c-2.68,0.92-5.34,1.87-8,2.84c-5.29,1.99-10.61,3.99-15.53,6.77
				c-2.45,1.4-4.69,3.15-6.93,4.87c-1.11,0.87-2.12,1.86-2.94,3.01c-0.85,1.13-1.6,2.33-2.25,3.58c-1.32,2.5-2.13,5.23-2.83,7.97
				C240.8,153.98,240.11,156.88,238.1,158.97z"/>
		</g>
		<g>
			<path class="st4" d="M181.17,170.08c4.87-3.65,4.33-11.24,12.18-18.27c1.35-1.21,2.93-2.02,6.09-3.65
				c4.3-2.22,9.27-4.15,26.8-7.31c11.07-2,14.76-2.25,18.27,0c0.71,0.45,3.69,2.36,3.65,4.87c-0.06,4.21-8.55,6.94-9.74,7.31
				c-2.16,0.67-5.8,1.49-19.49,0c-9.73-1.06-12.38-1.96-15.83,0c-3.8,2.16-5.53,6.06-6.09,7.31c-2.21,4.97-1.45,9.67-1.22,10.96
				c0.67,3.8,1.95,4.23,2.44,8.53c0.31,2.78,0.64,5.72-1.22,7.31c-1.69,1.44-4.81,1.45-6.09,0c-1.07-1.22-0.09-3.47,1.22-6.09
				c1.22-2.44,1.22-2.44,1.22-4.87c0-1.38-2.15-6.16-2.44-6.09c-0.3,0.07,0,1.55,0,3.65c0,1.41-0.01,4.33-1.22,7.31
				c-0.72,1.77-1.55,3.83-3.65,4.87c-0.28,0.14-3.07,1.47-4.87,0c-1.09-0.89-0.54-2.57,0-3.65c1.22-2.44,2.44-3.65,2.44-3.65
				c1.22-1.22,2.2-2.42,2.44-3.65c0.21-1.11,0.24-4.82,0-4.87c-0.42-0.1-0.9,3.7-3.65,7.31c-1.22,1.6-2.61,3.42-4.87,3.65
				c-1.73,0.18-4.08-0.57-4.87-2.44c-0.88-2.09,0.75-4.25,1.22-4.87c1.29-1.71,3.05-2.28,3.65-2.44
				C179.28,170.82,180.34,170.7,181.17,170.08z"/>
			<path class="st0" d="M181.14,170.04c2.25-1.7,3.38-4.37,4.51-6.88c1.11-2.55,2.33-5.08,3.97-7.35c0.84-1.12,1.73-2.19,2.74-3.17
				c0.51-0.48,0.99-0.99,1.55-1.41c0.55-0.43,1.15-0.81,1.75-1.16c2.44-1.35,4.89-2.69,7.48-3.73c5.21-2.04,10.68-3.21,16.13-4.36
				c2.73-0.56,5.47-1.08,8.21-1.58c2.74-0.49,5.49-0.98,8.27-1.26c1.39-0.13,2.8-0.2,4.22-0.08c1.41,0.11,2.83,0.51,4.08,1.2
				c1.23,0.7,2.4,1.54,3.31,2.67c0.45,0.56,0.83,1.22,0.99,1.96c0.04,0.18,0.08,0.37,0.08,0.56c0.02,0.19,0.01,0.38-0.02,0.57
				l-0.08,0.56l-0.2,0.53c-0.58,1.4-1.76,2.33-2.91,3.14c-1.18,0.79-2.44,1.43-3.73,1.98c-1.3,0.55-2.61,1.03-3.99,1.39
				c-1.38,0.34-2.8,0.47-4.2,0.54c-2.81,0.12-5.6-0.02-8.38-0.22c-2.78-0.2-5.56-0.48-8.33-0.8c-2.77-0.3-5.54-0.74-8.27-0.86
				c-1.37-0.05-2.71,0.07-3.94,0.58c-1.23,0.51-2.36,1.29-3.33,2.22c-1.96,1.87-3.32,4.33-4.21,6.89c-0.87,2.57-1.1,5.35-0.79,8.06
				c0.16,1.35,0.44,2.68,0.94,3.94c0.5,1.25,1.13,2.58,1.41,4c0.3,1.42,0.42,2.8,0.53,4.22c0.06,1.4,0.07,2.95-0.75,4.34
				c-0.4,0.67-1.02,1.24-1.71,1.58c-0.69,0.35-1.43,0.55-2.19,0.61c-0.75,0.05-1.52-0.02-2.26-0.28c-0.72-0.28-1.47-0.71-1.85-1.57
				c-0.33-0.84-0.18-1.66-0.01-2.37c0.2-0.72,0.47-1.38,0.76-2.03c0.56-1.29,1.31-2.54,1.74-3.73c0.19-0.57,0.2-1.22,0.2-1.92
				l0-0.52c0-0.18-0.01-0.26-0.04-0.43c-0.05-0.3-0.15-0.63-0.24-0.95c-0.41-1.28-0.95-2.57-1.56-3.78
				c-0.08-0.15-0.16-0.3-0.24-0.43c-0.04-0.07-0.08-0.13-0.12-0.18c-0.01-0.02-0.04-0.04-0.01-0.02c0.04,0.01-0.03,0.05,0.29,0.09
				c0.19-0.03,0.21-0.06,0.29-0.13c0.12-0.17,0.05-0.09,0.06-0.04c0,0.06-0.01,0.13-0.01,0.21l0.02,0.49
				c0.04,0.68,0.09,1.39,0.11,2.1c0.03,1.41-0.02,2.84-0.24,4.25c-0.22,1.41-0.62,2.81-1.18,4.11c-0.53,1.29-1.17,2.65-2.27,3.69
				c-1.11,1.05-2.56,1.59-4.03,1.73c-0.74,0.06-1.55-0.04-2.25-0.43c-0.33-0.19-0.68-0.42-0.93-0.79c-0.24-0.36-0.34-0.79-0.35-1.19
				c-0.01-0.8,0.24-1.52,0.53-2.18c0.31-0.66,0.65-1.26,1.03-1.87c0.38-0.6,0.79-1.18,1.25-1.73c0.48-0.57,0.99-1,1.42-1.53
				c0.44-0.51,0.84-1.06,1.1-1.65c0.28-0.58,0.31-1.24,0.36-1.93c0.04-0.69,0.06-1.38,0.06-2.07c0-0.34-0.01-0.69-0.04-1.02
				c-0.01-0.08-0.02-0.16-0.03-0.24c0-0.04-0.01-0.07-0.02-0.09c0,0-0.01-0.05,0-0.02c0.02,0.06,0.1,0.1,0.16,0.09
				c0.16,0,0.14-0.05,0.14-0.03c-0.01,0.01-0.03,0.03-0.04,0.07c-0.03,0.06-0.07,0.14-0.1,0.21c-0.47,1.28-0.92,2.64-1.56,3.89
				c-0.62,1.26-1.4,2.46-2.28,3.55c-0.86,1.09-1.83,2.21-3.17,2.8c-1.33,0.61-2.89,0.5-4.2-0.04c-0.66-0.27-1.28-0.68-1.74-1.24
				c-0.47-0.55-0.75-1.26-0.79-1.99c-0.07-1.47,0.67-2.79,1.51-3.89c0.86-1.13,2.09-1.95,3.43-2.37c0.68-0.2,1.35-0.34,2.03-0.51
				C179.9,170.63,180.59,170.45,181.14,170.04z M181.2,170.12c-0.57,0.43-1.26,0.63-1.93,0.81c-0.67,0.18-1.36,0.33-2.01,0.53
				c-1.31,0.43-2.49,1.24-3.31,2.34c-0.82,1.09-1.5,2.39-1.41,3.75c0.07,1.37,1.14,2.48,2.39,2.95c1.25,0.49,2.71,0.57,3.93-0.01
				c1.23-0.56,2.15-1.63,2.98-2.72c0.86-1.09,1.59-2.25,2.18-3.49c0.61-1.24,1.02-2.54,1.49-3.88c0.03-0.09,0.07-0.17,0.12-0.27
				c0.02-0.05,0.05-0.1,0.1-0.15c0.06-0.04,0.1-0.17,0.36-0.16c0.09,0.01,0.19,0.1,0.24,0.19c0.03,0.07,0.03,0.07,0.04,0.11
				c0.02,0.06,0.03,0.12,0.04,0.16c0.02,0.1,0.03,0.19,0.04,0.28c0.03,0.36,0.05,0.71,0.06,1.07c0.02,0.7,0,1.4-0.03,2.11
				c-0.04,0.68-0.07,1.45-0.39,2.15c-0.3,0.68-0.72,1.28-1.18,1.83c-0.44,0.55-0.99,1.04-1.4,1.54c-0.43,0.52-0.81,1.09-1.17,1.67
				c-0.67,1.16-1.43,2.42-1.4,3.64c0.02,0.61,0.31,1.03,0.89,1.31c0.53,0.28,1.17,0.37,1.8,0.31c1.28-0.13,2.58-0.65,3.48-1.54
				c0.93-0.9,1.5-2.13,2.01-3.41c0.53-1.26,0.87-2.56,1.07-3.91c0.21-1.34,0.25-2.71,0.23-4.08c-0.01-0.68-0.06-1.36-0.11-2.07
				c-0.01-0.18-0.02-0.36-0.02-0.55c0-0.1,0-0.2,0.01-0.31c0.01-0.07,0.01-0.11,0.04-0.21c0.01-0.05,0.02-0.07,0.04-0.14
				c0.03-0.07,0.07-0.14,0.13-0.2c0.12-0.09,0.17-0.16,0.4-0.18c0.37,0.04,0.33,0.12,0.4,0.16c0.09,0.08,0.12,0.13,0.15,0.18
				c0.07,0.1,0.12,0.18,0.17,0.26c0.1,0.16,0.18,0.32,0.27,0.48c0.64,1.28,1.18,2.57,1.62,3.94c0.11,0.35,0.21,0.69,0.27,1.07
				c0.04,0.17,0.06,0.44,0.05,0.6l0,0.52c-0.01,0.69,0,1.46-0.25,2.21c-0.52,1.43-1.24,2.57-1.78,3.84
				c-0.28,0.62-0.53,1.25-0.7,1.88c-0.16,0.62-0.23,1.26-0.04,1.73c0.18,0.44,0.72,0.82,1.27,1.02c0.58,0.2,1.22,0.27,1.85,0.22
				c1.26-0.1,2.52-0.67,3.13-1.71c0.64-1.04,0.69-2.44,0.63-3.77c-0.09-1.35-0.21-2.76-0.48-4.07c-0.25-1.33-0.82-2.54-1.35-3.87
				c-0.52-1.34-0.81-2.76-0.97-4.17c-0.67-5.65,1.22-11.62,5.33-15.63c1.05-0.98,2.24-1.81,3.59-2.36c1.36-0.56,2.85-0.67,4.26-0.61
				c2.83,0.14,5.57,0.59,8.33,0.9c2.76,0.33,5.53,0.62,8.29,0.84c2.77,0.21,5.54,0.36,8.3,0.26c1.38-0.06,2.75-0.18,4.08-0.5
				c1.32-0.33,2.63-0.81,3.9-1.34c1.27-0.54,2.51-1.15,3.64-1.91c1.11-0.76,2.22-1.66,2.71-2.87l0.17-0.45l0.07-0.47
				c0.03-0.16,0.04-0.31,0.02-0.47c0-0.16-0.03-0.32-0.07-0.47c-0.13-0.63-0.46-1.21-0.88-1.74c-0.84-1.04-1.96-1.88-3.14-2.55
				c-2.38-1.37-5.26-1.33-7.99-1.08c-2.76,0.26-5.5,0.72-8.25,1.19c-2.74,0.47-5.48,0.97-8.21,1.51c-5.45,1.09-10.93,2.22-16.12,4.2
				c-2.58,1.02-5.04,2.35-7.47,3.69c-0.6,0.35-1.19,0.72-1.73,1.14c-0.55,0.41-1.03,0.92-1.54,1.39c-1,0.96-1.89,2.03-2.73,3.14
				c-1.64,2.25-2.86,4.76-3.98,7.31C184.63,165.71,183.48,168.4,181.2,170.12z"/>
		</g>
		<path class="st26" d="M288.36,133.53c-1.26,13.91-4.87,53.59-6.09,57.25c-2.44,7.31-1.47,9.24,0,12.18
			c1.22,2.44,3.85,1.47,4.26,1.83c3.59,3.09,7.07-3.4,11.57-4.26c1.99-0.38,6.04-1.15,6.09-2.44c0.07-1.53-5.61-1.55-8.53-6.09
			c-0.41-0.63-1.66-2.63-1.22-4.87c0.38-1.95,1.85-3.15,2.44-3.65c4.09-3.55,5.16-9.25,7.31-14.62c1.9-4.74,4.44-16.22,1.22-35.32
			c-0.21-1.26-1.22-4.87-3.65-9.74"/>
		<path class="st4" d="M338.3,227.32c2.81-3.96-1.64-11.79-4.87-15.83c-3.9-4.89-8.34-6.98-17.05-10.96
			c-15.6-7.13-23.09-6.67-26.8-6.09c-6.01,0.94-7.05,2.98-7.31,3.65c-0.72,1.85,0.27,4.16,3.65,8.53c4.1,5.29,7.01,9.04,13.4,13.4
			c3.99,2.72,15.6,9.96,30.45,9.74C335.92,229.67,337.55,228.38,338.3,227.32z"/>
		<path class="st25" d="M306.63,216.36c1.17-0.94,2.87-1.5,15.83,1.22c7.73,1.62,12.42,2.94,20.71,4.87
			c7.64,1.79,7.92,1.67,10.96,2.44c19.51,4.93,21.5,13.24,34.11,14.62c5.78,0.63,2.87-1.39,24.36-4.87c9.56-1.55,17.6-2.36,26.8,0
			c4.8,1.23,9.94,2.56,10.96,6.09c1.43,4.93-5.64,12.44-12.18,15.83c-2.87,1.49-4.38,1.52-7.31,3.65c-4.15,3.02-5.62,6.23-7.31,8.53
			c-4.7,6.42-11.09,5.88-24.36,10.96c-13.18,5.05-12.42,7.7-19.49,9.74c-27.08,7.83-57.47-25.53-59.68-28.02
			c-2.88-3.24-11.34-13.23-14.62-28.02C304.37,228.72,302.38,219.77,306.63,216.36z"/>
		<path class="st0" d="M386.76,266.31c-6.48,0.19-7.43,1.73-12.93,2.29c-7.5,0.76-15.47-7.56-27.61-12.65
			c-13.08-5.49-18.67-2.79-25.29-10.24c-4.53-5.1-8.82-1.72-8.82-1.72c1.34,1.24,4.51,8.69,11.36,16.45
			c8.19,9.28,23.29,18.84,34.49,23.61c9.78,4.17,14.19,3.36,19.4,1.72c5.82-1.83,5.86-5.87,14.11-9.16
			C392.65,276.14,396.34,266.04,386.76,266.31z"/>
		<g>
			<path class="st4" d="M255.47,224.89c0.91,5.6,8.76,8.42,23.14,13.4c2.37,0.82,9.08,3.08,18.27,4.87
				c15.83,3.09,18.64,0.81,19.49,0c3.45-3.29,2.67-9.17,2.44-10.96c-0.99-7.47-6.64-11.92-8.53-13.4
				c-5.33-4.19-10.76-4.99-18.27-6.09c-7.18-1.05-12.35-0.56-18.27,0c-12.45,1.18-14.94,3.77-15.83,4.87
				C257.42,218.18,254.88,221.29,255.47,224.89z"/>
			<path class="st0" d="M255.52,224.88c0.27,1.62,1.22,3.04,2.41,4.13c1.2,1.1,2.61,1.96,4.05,2.72c2.91,1.49,5.98,2.65,9.05,3.77
				c3.08,1.09,6.19,2.15,9.29,3.17c3.11,1,6.27,1.88,9.45,2.64c3.18,0.78,6.38,1.45,9.6,2c3.22,0.54,6.46,1,9.71,1.06
				c1.62,0.03,3.25-0.03,4.8-0.38c0.76-0.19,1.51-0.47,2.07-0.94c0.55-0.52,1.07-1.13,1.44-1.82c0.78-1.36,1.12-2.96,1.23-4.54
				c0.11-1.6-0.01-3.21-0.27-4.81c-0.48-3.17-1.96-6.13-4.01-8.59c-1.02-1.24-2.18-2.36-3.42-3.39c-1.26-1.03-2.55-1.97-3.96-2.74
				c-2.8-1.57-5.94-2.43-9.13-3.03c-1.6-0.3-3.21-0.55-4.83-0.79c-1.62-0.24-3.22-0.46-4.84-0.59c-3.23-0.3-6.49-0.27-9.75-0.05
				c-3.26,0.22-6.53,0.44-9.75,0.91c-1.61,0.23-3.22,0.53-4.79,0.96c-1.57,0.42-3.13,0.95-4.48,1.84c-0.68,0.44-1.25,1.01-1.73,1.67
				c-0.49,0.65-0.92,1.34-1.28,2.07C255.65,221.61,255.27,223.26,255.52,224.88z M255.42,224.9c-0.28-1.64,0.09-3.33,0.78-4.82
				c0.35-0.75,0.78-1.46,1.27-2.12c0.47-0.67,1.07-1.29,1.76-1.75c1.38-0.94,2.94-1.53,4.52-2c1.58-0.48,3.19-0.83,4.81-1.11
				c3.25-0.57,6.51-0.9,9.78-1.21c3.28-0.27,6.59-0.36,9.89-0.12c1.64,0.13,3.29,0.35,4.91,0.6c1.62,0.24,3.25,0.49,4.87,0.79
				c3.23,0.6,6.5,1.5,9.43,3.14c1.46,0.81,2.82,1.82,4.08,2.88c1.28,1.07,2.46,2.25,3.52,3.55c2.11,2.58,3.64,5.71,4.11,9.04
				c0.26,1.64,0.37,3.31,0.24,4.98c-0.13,1.66-0.5,3.36-1.36,4.85c-0.41,0.76-0.97,1.41-1.61,2c-0.7,0.58-1.55,0.87-2.36,1.07
				c-1.66,0.36-3.32,0.41-4.97,0.36c-3.31-0.09-6.56-0.58-9.8-1.14c-3.23-0.58-6.44-1.28-9.62-2.08c-3.18-0.82-6.33-1.74-9.44-2.79
				c-3.1-1.07-6.18-2.17-9.26-3.31c-3.07-1.14-6.14-2.33-9.05-3.83c-1.44-0.78-2.85-1.65-4.06-2.77
				C256.64,227.99,255.69,226.54,255.42,224.9z"/>
		</g>
		<path class="st4" d="M258.52,229.15c-3.37-1.58-4.54-9.44-5.48-15.23c-1.26-7.78-3.48-15.38-4.87-23.14
			c-1.75-9.72-2.29-19.7-4.87-29.23c-0.7-2.61-2.4-8.53,0-14.62c0.78-1.98,1.77-4.49,3.65-4.87c4.26-0.86,18.27,28.02,19.49,34.11
			c0.93,4.65,1.63,14.13-1.22,23.14c-1.56,4.94-2.6,8.71-1.22,10.96c1.61,2.63,3.59,2.04,8.53,6.09c1.93,1.58,3.98,3.27,3.65,4.87
			c-0.09,0.44-0.53,1.7-8.53,3.65C262.24,226.21,260.15,229.92,258.52,229.15z"/>
		<path class="st4" d="M415.03,238.29c-1.24-2.78,1.44-6.65,3.65-8.53c3.43-2.9,7.56-2.52,8.53-2.44c1.35,0.12,3.96,0.36,6.09,2.44
			c0.33,0.32,3.18,3.17,2.44,6.09c-0.88,3.49-6.23,4.46-8.53,4.87C426.34,240.88,416.92,242.5,415.03,238.29z"/>
		<g>
			<path class="st4" d="M411.38,244.38c-1.25-5.54,3.79-10,4.87-10.96c1.13-1,4.64-4.11,9.74-3.65c0.73,0.07,5.84,0.61,8.53,4.87"/>
			<path class="st0" d="M411.33,244.39c-0.35-1.36-0.31-2.82,0.06-4.19c0.36-1.37,1.01-2.66,1.8-3.83c0.81-1.16,1.77-2.22,2.81-3.17
				c1.03-0.96,2.18-1.83,3.45-2.51c2.51-1.38,5.61-1.89,8.43-1.11c1.39,0.4,2.74,0.97,3.91,1.82c1.16,0.85,2.15,1.94,2.78,3.21
				c0.01,0.02,0,0.05-0.02,0.07c-0.02,0.01-0.05,0-0.06-0.01c-1.73-2.2-4.2-3.56-6.84-4.11c-2.61-0.59-5.38-0.35-7.83,0.85
				c-1.22,0.6-2.34,1.38-3.38,2.29c-1.05,0.89-2.01,1.88-2.84,2.98c-0.82,1.1-1.51,2.31-1.92,3.62c-0.41,1.31-0.53,2.72-0.25,4.09
				c0.01,0.03-0.01,0.05-0.04,0.06C411.36,244.43,411.34,244.41,411.33,244.39z"/>
		</g>
		<path class="st0" d="M418.64,244.24c-1.36-2.98,1.25-6.38,2.17-7.58c1.03-1.35,2.29-2.98,4.33-3.25c2.9-0.37,5.42,2.26,6.5,4.33
			c0.23,0.44,2.27,4.51,0,7.58c-2.27,3.07-6.74,2.31-7.58,2.17C423.04,247.31,419.79,246.76,418.64,244.24z"/>
		<g>
			<ellipse class="st0" cx="427.3" cy="239.54" rx="3.25" ry="3.61"/>
			<path class="st4" d="M430.65,239.54c0.03,0.91-0.08,1.89-0.59,2.83c-0.48,0.93-1.53,1.74-2.76,1.78
				c-1.22,0.07-2.42-0.56-3.11-1.48c-0.69-0.93-0.99-2.05-0.94-3.13c0.05-1.07,0.47-2.13,1.2-2.9c0.72-0.78,1.79-1.26,2.85-1.2
				c1.07,0.05,2,0.7,2.51,1.49C430.35,237.72,430.6,238.63,430.65,239.54z M430.45,239.54c0.04-0.88-0.32-1.78-0.95-2.35
				c-0.63-0.58-1.45-0.83-2.19-0.76c-0.75,0.05-1.43,0.46-1.86,1.05c-0.44,0.59-0.64,1.34-0.59,2.06c0.06,0.72,0.37,1.4,0.85,1.84
				c0.47,0.45,1.01,0.71,1.6,0.77c0.58,0.06,1.27-0.03,1.95-0.47C429.92,241.25,430.42,240.43,430.45,239.54z"/>
		</g>
		<ellipse class="st20" cx="380" cy="256.5" rx="2.5" ry="3"/>
		<ellipse class="st25" cx="444.88" cy="240.72" rx="1.83" ry="1.22"/>
		<g>
			<path class="st0" d="M450.36,244.38c-0.68,0.09-1.37,0.13-2.05,0.2c-0.69,0.06-1.33,0.1-1.97,0.28
				c-1.28,0.33-2.45,1.01-3.59,1.72c-2.27,1.46-4.53,3.05-6.92,4.42c-2.37,1.38-4.95,2.57-7.69,3.11c-2.72,0.57-5.55,0.59-8.23,0.02
				c2.73,0.16,5.46-0.05,8.06-0.76c2.6-0.7,5.03-1.85,7.37-3.23c2.37-1.34,4.6-2.87,7-4.26c1.21-0.66,2.48-1.31,3.88-1.57
				c0.69-0.14,1.42-0.19,2.1-0.11C448.99,244.24,449.67,244.29,450.36,244.38z"/>
		</g>
		<g>
			<path class="st4" d="M373.62,289.44c5.42-5.84,5.26-6.65,7.31-9.74c1.57-2.37,2.4-4.82,3.65-8.53c1.33-3.91,1.21-4.88,2.44-6.09
				c2.32-2.29,6.55-2.56,9.74-1.22c3.36,1.41,6.06,4.8,6.09,8.53c0.02,2.95-1.64,5.07-2.44,6.09c-2.51,3.21-4.3,1.86-8.53,6.09
				c-3.65,3.65-7.31,6.09-9.74,10.96c-1.02,2.04-1.24,11.01,2.44,14.62c2.92,2.86,10.56,12.71,13.4,14.62
				c0.87,0.59,2.49,1.67,4.87,2.44c3.01,0.97,4.7,0.59,4.87,1.22c0.29,1.03-2.68,3.62-7.31,4.87c-2.41,0.65-9.09,2.79-14.62-1.22
				c-2.86-2.08-4.46-3.58-8.53-12.18c-3.95-8.35-6.61-10.87-8.53-18.27c-0.66-2.55,0.03-4.28,1.22-7.31
				C370.33,293.39,370.87,292.41,373.62,289.44z"/>
			<path class="st0" d="M373.58,289.41c1.41-1.55,2.8-3.1,4.06-4.77c1.28-1.65,2.2-3.54,3.36-5.29c1.11-1.76,1.85-3.72,2.52-5.69
				c0.67-1.98,1.32-3.96,1.86-5.98c0.15-0.5,0.29-1.02,0.52-1.52c0.23-0.51,0.57-0.98,0.97-1.35c0.79-0.76,1.77-1.32,2.81-1.65
				c2.08-0.66,4.33-0.62,6.41,0.03c2.09,0.64,3.93,1.99,5.26,3.71c1.34,1.72,2.13,3.93,1.98,6.17c-0.15,2.25-1.3,4.28-2.66,5.9
				c-0.68,0.85-1.57,1.62-2.55,2.11c-0.98,0.5-1.92,0.86-2.78,1.39c-0.86,0.51-1.66,1.14-2.42,1.82l-2.26,2.17
				c-1.54,1.43-3.11,2.8-4.52,4.3c-1.42,1.49-2.63,3.15-3.56,4.97c-0.36,0.81-0.49,1.88-0.57,2.88c-0.08,1.02-0.07,2.05,0,3.07
				c0.13,2.04,0.53,4.09,1.35,5.93c0.41,0.93,0.99,1.71,1.69,2.45c0.75,0.76,1.43,1.55,2.12,2.34c2.75,3.17,5.38,6.42,8.21,9.47
				c0.72,0.75,1.44,1.5,2.21,2.17c0.75,0.62,1.68,1.18,2.57,1.67c1.81,0.97,3.79,1.61,5.83,1.87c0.52,0.1,1,0.07,1.63,0.32
				c0.16,0.06,0.38,0.28,0.41,0.51c0.04,0.21,0,0.39-0.05,0.55c-0.11,0.31-0.28,0.55-0.45,0.77c-0.72,0.87-1.62,1.46-2.53,2.02
				c-1.84,1.09-3.91,1.73-5.93,2.23c-2.04,0.52-4.16,0.86-6.29,0.74c-2.13-0.08-4.24-0.67-6.09-1.73c-1.8-1.13-3.47-2.48-4.73-4.2
				c-1.27-1.7-2.26-3.56-3.21-5.42c-0.95-1.87-1.8-3.78-2.73-5.65c-0.93-1.87-1.93-3.7-2.94-5.54c-1.02-1.83-2.01-3.68-2.81-5.62
				c-0.39-0.97-0.76-1.96-1.06-2.96c-0.29-1-0.63-2-0.76-3.05c-0.27-2.14,0.65-4.16,1.39-6.08c0.36-1,1-1.86,1.65-2.67
				C372.17,290.95,372.87,290.18,373.58,289.41z M373.66,289.48c-0.71,0.77-1.41,1.55-2.06,2.36c-0.65,0.81-1.28,1.66-1.62,2.64
				c-0.73,1.93-1.63,3.93-1.35,6.02c0.13,1.02,0.47,2.03,0.76,3.02c0.3,1,0.68,1.97,1.07,2.94c0.81,1.93,1.8,3.76,2.82,5.59
				c1.03,1.82,2.06,3.64,3.01,5.51c0.96,1.86,1.83,3.77,2.8,5.61c0.97,1.85,1.98,3.68,3.23,5.33c1.24,1.65,2.89,2.96,4.64,4.03
				c1.78,1.01,3.81,1.57,5.87,1.63c2.06,0.1,4.12-0.24,6.12-0.76c2.03-0.51,3.99-1.14,5.76-2.2c0.87-0.53,1.73-1.13,2.35-1.88
				c0.15-0.19,0.27-0.39,0.34-0.57c0.03-0.09,0.04-0.17,0.03-0.22c-0.01-0.03,0.01-0.02-0.07-0.07c-0.35-0.14-0.94-0.17-1.44-0.25
				c-2.11-0.26-4.18-0.91-6.06-1.91c-0.95-0.52-1.83-1.03-2.7-1.73c-0.82-0.7-1.55-1.45-2.28-2.21c-2.87-3.07-5.53-6.3-8.28-9.44
				c-0.69-0.78-1.38-1.56-2.11-2.29c-0.75-0.76-1.44-1.68-1.88-2.67c-0.9-1.98-1.32-4.1-1.48-6.22c-0.08-1.06-0.09-2.13-0.02-3.2
				c0.09-1.07,0.17-2.13,0.64-3.24c0.96-1.91,2.22-3.68,3.68-5.23c1.45-1.55,3.04-2.93,4.56-4.35l2.27-2.17
				c0.79-0.72,1.65-1.39,2.58-1.95c0.93-0.57,1.95-0.96,2.83-1.42c0.89-0.45,1.62-1.08,2.24-1.86c1.3-1.56,2.3-3.37,2.43-5.34
				c0.16-1.95-0.51-3.95-1.71-5.54c-1.2-1.59-2.88-2.86-4.79-3.47c-1.9-0.62-4.02-0.73-5.95-0.16c-0.96,0.28-1.86,0.77-2.59,1.44
				c-0.76,0.65-1.1,1.58-1.4,2.59c-0.59,2.01-1.29,3.99-2.01,5.96c-0.72,1.96-1.53,3.93-2.67,5.7c-1.18,1.72-2.12,3.61-3.43,5.26
				C376.5,286.4,375.08,287.95,373.66,289.48z"/>
		</g>
	</g>
</g>
<g id="Aye_Aye">
</g>
<g id="Lets_Jump">
</g>
<g id="Kangaroo">
</g>
<g id="Ladybug">
</g>
<g id="Like_Mike">
</g>
<g id="Navy">
</g>
<g id="OMG">
</g>
<g id="A_poopy_smell">
</g>
<g id="God_save_the_Queen">
</g>
<g id="Rabbit">
</g>
<g id="SS_SS_SS">
</g>
<g id="Tall">
</g>
<g id="Under_where">
</g>
<g id="Beethoven_x27_s_V">
</g>
<g id="a_WHITE_WHALE">
</g>
<g id="X_marks_the_spot">
</g>
<g id="You_x27_re_a_cool_Dude">
</g>
<g id="Zinc_Zoo_keeper">
</g>
<g id="guides" class="st7">
</g>
</svg>
