<?xml version="1.0" encoding="utf-8"?>
<!-- Generator: Adobe Illustrator 25.2.3, SVG Export Plug-In . SVG Version: 6.00 Build 0)  -->
<svg version="1.1" xmlns="http://www.w3.org/2000/svg" xmlns:xlink="http://www.w3.org/1999/xlink" x="0px" y="0px"
	 viewBox="0 0 500 500" style="enable-background:new 0 0 500 500;" xml:space="preserve">
<style type="text/css">
	.st0{fill:#3FA9F5;}
	.st1{fill:#0071BC;}
	.st2{font-family:'AcuminPro-Semibold';}
	.st3{font-size:40.9114px;}
	.st4{fill:#FFFFFF;}
	.st5{font-family:'AcuminPro-Bold';}
	.st6{fill:#0071BC;stroke:#3FA9F5;stroke-width:3;stroke-miterlimit:10;}
	.st7{display:none;}
	.st8{display:inline;fill:#3FA9F5;}
	.st9{display:inline;fill:none;stroke:#3FA9F5;stroke-width:3;stroke-linecap:round;stroke-miterlimit:10;}
	.st10{fill:none;stroke:#3FA9F5;stroke-width:3;stroke-linecap:round;stroke-miterlimit:10;}
	.st11{fill:none;stroke:#3FA9F5;stroke-width:2.5;stroke-linecap:round;stroke-miterlimit:10;}
	.st12{display:inline;fill:#0071BC;}
	.st13{fill:#00FB20;}
	.st14{display:inline;fill:none;stroke:#0071BC;stroke-width:3;stroke-miterlimit:10;}
	.st15{display:inline;fill:none;stroke:#3FA9F5;stroke-width:3;stroke-miterlimit:10;}
	.st16{display:inline;fill:#3FA9F5;stroke:#0071BC;stroke-width:3;stroke-miterlimit:10;}
	.st17{fill:none;stroke:#0071BC;stroke-width:7;stroke-miterlimit:10;}
	.st18{fill:none;stroke:#0071BC;stroke-width:5;stroke-miterlimit:10;}
	.st19{display:none;fill:none;stroke:#0071BC;stroke-width:3;stroke-miterlimit:10;}
	.st20{display:none;fill:#0071BC;}
	.st21{display:inline;fill:#0071BC;stroke:#3FA9F5;stroke-width:3;stroke-miterlimit:10;}
	.st22{display:inline;}
	.st23{display:inline;fill:#0071BC;stroke:#3FA9F5;stroke-width:2;stroke-miterlimit:10;}
	.st24{opacity:0.6;}
	.st25{fill:#0071BC;stroke:#3FA9F5;stroke-miterlimit:10;}
	.st26{fill:#0071BC;stroke:#3FA9F5;stroke-linecap:round;stroke-miterlimit:10;}
	.st27{fill:none;stroke:#0071BC;stroke-width:12;stroke-linecap:round;stroke-miterlimit:10;}
	.st28{fill:#0071BC;stroke:#3FA9F5;stroke-width:4;stroke-miterlimit:10;}
	.st29{fill:#0071BC;stroke:#3FA9F5;stroke-width:6;stroke-miterlimit:10;}
	.st30{fill:none;stroke:#3FA9F5;stroke-width:3;stroke-miterlimit:10;}
	.st31{display:inline;fill:#FFFFFF;}
	.st32{fill:#0071BC;stroke:#3FA9F5;stroke-width:5;stroke-miterlimit:10;}
	.st33{fill:none;stroke:#3FA9F5;stroke-width:4;stroke-miterlimit:10;}
	.st34{fill:none;stroke:#3FA9F5;stroke-width:5;stroke-miterlimit:10;}
	.st35{fill:#0071BC;stroke:#3FA9F5;stroke-width:2;stroke-miterlimit:10;}
	.st36{display:inline;fill:#0071BC;stroke:#3FA9F5;stroke-linecap:round;stroke-miterlimit:10;}
	.st37{fill:#3FA9F5;stroke:#0071BC;stroke-width:4;stroke-miterlimit:10;}
	.st38{display:none;fill:#3FA9F5;stroke:#0071BC;stroke-width:5;stroke-miterlimit:10;}
	.st39{fill:#3FA9F5;stroke:#0071BC;stroke-width:3;stroke-miterlimit:10;}
	.st40{fill:#0071BC;stroke:#0071BC;stroke-width:3;stroke-miterlimit:10;}
	.st41{fill:none;stroke:#0071BC;stroke-width:22;stroke-miterlimit:10;}
	.st42{display:none;fill:none;stroke:#0071BC;stroke-width:22;stroke-miterlimit:10;}
	.st43{display:inline;fill:none;stroke:#3FA9F5;stroke-width:2;stroke-miterlimit:10;}
	.st44{fill:none;stroke:#3FA9F5;stroke-width:2;stroke-miterlimit:10;}
</style>
<g id="background">
	<rect class="st0" width="500" height="500"/>
</g>
<g id="Text">
	<text transform="matrix(1 0 0 1 151.8115 431.7672)"><tspan x="0" y="0" class="st1 st2 st3">a </tspan><tspan x="32.52" y="0" class="st4 st5 st3">L</tspan><tspan x="56.5" y="0" class="st1 st2 st3">adybug</tspan></text>
</g>
<g id="Apart">
</g>
<g id="Be_a_good_boy">
	<g id="Layer_12">
	</g>
</g>
<g id="Charlies_Angels">
	<g id="Faces">
	</g>
</g>
<g id="Dog_did_it">
</g>
<g id="Eek">
</g>
<g id="did_I_Fail_it">
	<g class="st7">
		<path class="st9" d="M221.37,394.32c5.72,2.57,9.17,2.93,20.12,2.74c11.03-0.19,11.01-0.77,25.61-1.83
			c13.16-0.96,19.21,4.57,32.01,4.57c5.3,0,15.08-3.58,18.29-2.74"/>
		<path class="st9" d="M218.62,416.27c4.05,1.52,11.83,0.91,19.21,0.91c17.38,0,28.35-1.83,40.24-1.83c7.27,0,11.35,2.28,18.29,2.74
			c8.48,0.57,15.51-1.18,20.12-2.74"/>
		<path class="st9" d="M218.62,440.05c10.16-5.84,15.49-4.88,21.03-4.57c7.88,0.44,12.78,2.74,24.69,2.74
			c12.8,0,25.16-1.83,32.92-1.83c6.4,0,17.34,2.05,19.21,3.66"/>
		<path class="st9" d="M216.8,457.42c4.33,1.22,11.09,2.59,19.21,1.83c11.33-1.06,18.53-2.48,29.27-2.74
			c5.2-0.13,28.41,3.3,34.75,2.74c6.06-0.53,12.62-1,15.55-2.74"/>
	</g>
</g>
<g id="Great_Gatsby">
</g>
<g id="hippity_hop">
	<g id="Layer_33" class="st7">
	</g>
	<g id="Layer_34" class="st24">
	</g>
	<g id="Layer_35">
	</g>
</g>
<g id="Aye_Aye">
</g>
<g id="Lets_Jump">
</g>
<g id="Kangaroo">
</g>
<g id="Ladybug">
	<ellipse class="st28" cx="191.07" cy="216.3" rx="44.61" ry="44.46"/>
	<ellipse class="st29" cx="280" cy="216" rx="97" ry="79"/>
	<g>
		<path class="st1" d="M173.83,202.25c-3.89-2.12-7.7-4.37-11.55-6.55l-5.71-3.36l-5.66-3.44c-1.88-1.15-3.83-2.21-5.76-3.3
			c-1.92-1.1-3.74-2.34-5.45-3.75c-1.71-1.4-3.36-2.89-4.93-4.49c-1.56-1.62-3.08-3.3-4.39-5.27l0.34-0.49
			c2.3,0.55,4.41,1.38,6.47,2.27c2.05,0.91,4.02,1.93,5.93,3.05c1.91,1.11,3.71,2.38,5.41,3.79c1.69,1.42,3.37,2.88,5.11,4.24
			l5.2,4.1l5.15,4.18c3.39,2.85,6.83,5.62,10.18,8.53L173.83,202.25z"/>
	</g>
	<g>
		<path class="st1" d="M174.17,228.09c-3.35,2.91-6.79,5.68-10.18,8.53l-5.15,4.18l-5.2,4.1c-1.74,1.36-3.41,2.81-5.11,4.24
			c-1.7,1.41-3.5,2.69-5.41,3.79c-1.91,1.11-3.88,2.13-5.93,3.05c-2.06,0.9-4.17,1.73-6.47,2.27l-0.34-0.49
			c1.32-1.97,2.83-3.65,4.39-5.27c1.57-1.6,3.22-3.09,4.93-4.49c1.71-1.41,3.53-2.64,5.45-3.75c1.93-1.09,3.87-2.15,5.76-3.3
			l5.66-3.44l5.71-3.36c3.85-2.18,7.65-4.43,11.55-6.55L174.17,228.09z"/>
	</g>
	<g>
		<g>
			<polygon class="st1" points="201.24,181.71 193.8,157.7 195.77,159.49 154.78,146.87 154.19,146.68 154.12,146.16 151.58,126.73 
				155.88,145.84 155.22,145.13 197.2,153.97 198.54,154.25 199.17,155.76 208.76,178.99 			"/>
		</g>
		<g>
			<polygon class="st1" points="228.26,155.25 237.86,132.02 238.48,130.51 239.83,130.23 281.8,121.39 281.14,122.1 285.44,102.99 
				282.9,122.42 282.83,122.94 282.25,123.12 241.25,135.75 243.22,133.95 235.79,157.97 			"/>
		</g>
		<g>
			<polygon class="st1" points="272.9,149.05 288.96,129.72 290.01,128.46 291.38,128.59 334.08,132.63 333.24,133.11 
				343.03,116.14 334.83,133.93 334.61,134.42 333.99,134.41 291.1,134.29 293.51,133.16 279.28,153.87 			"/>
		</g>
	</g>
	<g>
		<g>
			<polygon class="st1" points="208.76,254.35 199.17,277.58 198.54,279.09 197.2,279.38 155.22,288.21 155.88,287.5 151.58,306.61 
				154.12,287.19 154.19,286.66 154.78,286.48 195.77,273.85 193.8,275.65 201.24,251.63 			"/>
		</g>
		<g>
			<polygon class="st1" points="235.79,275.38 243.22,299.39 241.25,297.59 282.25,310.22 282.83,310.4 282.9,310.93 285.44,330.35 
				281.14,311.24 281.8,311.95 239.83,303.12 238.48,302.83 237.86,301.32 228.26,278.09 			"/>
		</g>
		<g>
			<polygon class="st1" points="279.28,279.47 293.51,300.18 291.1,299.06 333.99,298.93 334.61,298.93 334.83,299.41 343.03,317.2 
				333.24,300.23 334.08,300.71 291.38,304.75 290.01,304.88 288.96,303.63 272.9,284.29 			"/>
		</g>
	</g>
	<circle class="st4" cx="173.64" cy="215.36" r="21.36"/>
	<path class="st4" d="M286.57,226.49c6.28,0,11.36-5.09,11.36-11.36c0-6.28-5.09-11.36-11.36-11.36h-72.56
		c-6.28,0-11.36,5.09-11.36,11.36c0,6.28,5.09,11.36,11.36,11.36H286.57z"/>
	<circle class="st4" cx="322.97" cy="215.13" r="11.36"/>
	<circle class="st4" cx="355.97" cy="215.13" r="11.36"/>
	
		<ellipse transform="matrix(0.4478 -0.8941 0.8941 0.4478 -20.0209 315.3465)" class="st0" cx="245.3" cy="173.88" rx="13.12" ry="17.7"/>
	
		<ellipse transform="matrix(0.8941 -0.4478 0.4478 0.8941 -88.6812 139.1624)" class="st0" cx="249.97" cy="257.13" rx="17.7" ry="13.12"/>
	
		<ellipse transform="matrix(0.1001 -0.995 0.995 0.1001 28.6807 537.4572)" class="st0" cx="311.47" cy="252.87" rx="8.96" ry="12.09"/>
	<ellipse transform="matrix(0.995 -0.1 0.1 0.995 -16.7366 32.035)" class="st0" cx="311.28" cy="183.02" rx="12.09" ry="8.96"/>
</g>
<g id="Like_Mike">
</g>
<g id="Navy">
</g>
<g id="OMG">
</g>
<g id="A_poopy_smell">
</g>
<g id="God_save_the_Queen">
</g>
<g id="Rabbit">
</g>
<g id="SS_SS_SS">
</g>
<g id="Tall">
</g>
<g id="Under_where">
</g>
<g id="Beethoven_x27_s_V">
</g>
<g id="a_WHITE_WHALE">
</g>
<g id="X_marks_the_spot">
</g>
<g id="You_x27_re_a_cool_Dude">
</g>
<g id="Zinc_Zoo_keeper">
</g>
<g id="guides" class="st7">
</g>
</svg>
