<?xml version="1.0" encoding="utf-8"?>
<!-- Generator: Adobe Illustrator 25.2.3, SVG Export Plug-In . SVG Version: 6.00 Build 0)  -->
<svg version="1.1" xmlns="http://www.w3.org/2000/svg" xmlns:xlink="http://www.w3.org/1999/xlink" x="0px" y="0px"
	 viewBox="0 0 500 500" style="enable-background:new 0 0 500 500;" xml:space="preserve">
<style type="text/css">
	.st0{fill:#3FA9F5;}
	.st1{fill:#0071BC;}
	.st2{font-family:'AcuminPro-Semibold';}
	.st3{font-size:40.9114px;}
	.st4{fill:#FFFFFF;}
	.st5{font-family:'AcuminPro-Bold';}
	.st6{fill:#0071BC;stroke:#3FA9F5;stroke-width:3;stroke-miterlimit:10;}
	.st7{display:none;}
	.st8{display:inline;fill:#3FA9F5;}
	.st9{display:inline;fill:none;stroke:#3FA9F5;stroke-width:3;stroke-linecap:round;stroke-miterlimit:10;}
	.st10{fill:none;stroke:#3FA9F5;stroke-width:3;stroke-linecap:round;stroke-miterlimit:10;}
	.st11{fill:none;stroke:#3FA9F5;stroke-width:2.5;stroke-linecap:round;stroke-miterlimit:10;}
	.st12{display:inline;fill:#0071BC;}
	.st13{fill:#00FB20;}
	.st14{display:inline;fill:none;stroke:#0071BC;stroke-width:3;stroke-miterlimit:10;}
	.st15{display:inline;fill:none;stroke:#3FA9F5;stroke-width:3;stroke-miterlimit:10;}
	.st16{display:inline;fill:#3FA9F5;stroke:#0071BC;stroke-width:3;stroke-miterlimit:10;}
	.st17{fill:none;stroke:#0071BC;stroke-width:7;stroke-miterlimit:10;}
	.st18{fill:none;stroke:#0071BC;stroke-width:5;stroke-miterlimit:10;}
	.st19{display:none;fill:none;stroke:#0071BC;stroke-width:3;stroke-miterlimit:10;}
	.st20{display:none;fill:#0071BC;}
	.st21{display:inline;fill:#0071BC;stroke:#3FA9F5;stroke-width:3;stroke-miterlimit:10;}
	.st22{display:inline;}
	.st23{display:inline;fill:#0071BC;stroke:#3FA9F5;stroke-width:2;stroke-miterlimit:10;}
	.st24{opacity:0.6;}
	.st25{fill:#0071BC;stroke:#3FA9F5;stroke-miterlimit:10;}
	.st26{fill:#0071BC;stroke:#3FA9F5;stroke-linecap:round;stroke-miterlimit:10;}
	.st27{fill:none;stroke:#0071BC;stroke-width:12;stroke-linecap:round;stroke-miterlimit:10;}
	.st28{fill:#0071BC;stroke:#3FA9F5;stroke-width:4;stroke-miterlimit:10;}
	.st29{fill:#0071BC;stroke:#3FA9F5;stroke-width:6;stroke-miterlimit:10;}
	.st30{fill:none;stroke:#3FA9F5;stroke-width:3;stroke-miterlimit:10;}
	.st31{display:inline;fill:#FFFFFF;}
	.st32{fill:#0071BC;stroke:#3FA9F5;stroke-width:5;stroke-miterlimit:10;}
	.st33{fill:none;stroke:#3FA9F5;stroke-width:4;stroke-miterlimit:10;}
	.st34{fill:none;stroke:#3FA9F5;stroke-width:5;stroke-miterlimit:10;}
	.st35{fill:#0071BC;stroke:#3FA9F5;stroke-width:2;stroke-miterlimit:10;}
	.st36{display:inline;fill:#0071BC;stroke:#3FA9F5;stroke-linecap:round;stroke-miterlimit:10;}
	.st37{fill:#3FA9F5;stroke:#0071BC;stroke-width:4;stroke-miterlimit:10;}
	.st38{display:none;fill:#3FA9F5;stroke:#0071BC;stroke-width:5;stroke-miterlimit:10;}
	.st39{fill:#3FA9F5;stroke:#0071BC;stroke-width:3;stroke-miterlimit:10;}
	.st40{fill:#0071BC;stroke:#0071BC;stroke-width:3;stroke-miterlimit:10;}
	.st41{fill:none;stroke:#0071BC;stroke-width:22;stroke-miterlimit:10;}
	.st42{display:none;fill:none;stroke:#0071BC;stroke-width:22;stroke-miterlimit:10;}
	.st43{display:inline;fill:none;stroke:#3FA9F5;stroke-width:2;stroke-miterlimit:10;}
	.st44{fill:none;stroke:#3FA9F5;stroke-width:2;stroke-miterlimit:10;}
</style>
<g id="background">
	<rect class="st0" width="500" height="500"/>
</g>
<g id="Text">
	<text transform="matrix(1 0 0 1 113.8115 431.7672)"><tspan x="0" y="0" class="st1 st2 st3">Beethoven’s </tspan><tspan x="240.92" y="0" class="st4 st5 st3">V</tspan></text>
</g>
<g id="Apart">
</g>
<g id="Be_a_good_boy">
	<g id="Layer_12">
	</g>
</g>
<g id="Charlies_Angels">
	<g id="Faces">
	</g>
</g>
<g id="Dog_did_it">
</g>
<g id="Eek">
</g>
<g id="did_I_Fail_it">
</g>
<g id="Great_Gatsby">
</g>
<g id="hippity_hop">
	<g id="Layer_33" class="st7">
	</g>
	<g id="Layer_34" class="st24">
	</g>
	<g id="Layer_35">
	</g>
</g>
<g id="Aye_Aye">
</g>
<g id="Lets_Jump">
</g>
<g id="Kangaroo">
</g>
<g id="Ladybug">
</g>
<g id="Like_Mike">
</g>
<g id="Navy">
</g>
<g id="OMG">
</g>
<g id="A_poopy_smell">
</g>
<g id="God_save_the_Queen">
</g>
<g id="Rabbit">
</g>
<g id="SS_SS_SS">
</g>
<g id="Tall">
</g>
<g id="Under_where">
</g>
<g id="Beethoven_x27_s_V">
	<circle class="st4" cx="90.71" cy="313.52" r="17.52"/>
	<circle class="st4" cx="156.18" cy="313.52" r="17.52"/>
	<circle class="st4" cx="217.65" cy="313.52" r="17.52"/>
	<g>
		<path class="st1" d="M108.13,104h0.74c1.73,0,3.13,1.4,3.13,3.13v128.74c0,1.73-1.4,3.13-3.13,3.13h-0.74
			c-1.73,0-3.13-1.4-3.13-3.13V107.13C105,105.4,106.4,104,108.13,104z"/>
		<path class="st1" d="M241.15,231.76c3.01,9.19,0.2,18.35-12.14,22.39c-12.33,4.04-24.77-0.14-27.78-9.32
			c-3.01-9.19,4.56-19.9,16.89-23.94C230.46,216.84,238.15,222.57,241.15,231.76z"/>
		<rect x="170" y="104" class="st1" width="7" height="135"/>
		<path class="st1" d="M238.11,104h0.77c1.72,0,3.11,1.39,3.11,3.11v128.77c0,1.72-1.39,3.11-3.11,3.11h-0.77
			c-1.72,0-3.11-1.39-3.11-3.11V107.11C235,105.39,236.39,104,238.11,104z"/>
		<path class="st1" d="M237,122H110c-2.76,0-5-2.24-5-5v-8c0-2.76,2.24-5,5-5h127c2.76,0,5,2.24,5,5v8
			C242,119.76,239.76,122,237,122z"/>
		<path class="st1" d="M176.25,231.41c3.01,9.19,0.2,18.35-12.14,22.39c-12.33,4.04-24.77-0.14-27.78-9.32s4.56-19.9,16.89-23.94
			C165.56,216.49,173.24,222.22,176.25,231.41z"/>
		<path class="st1" d="M111.25,231.41c3.01,9.19,0.2,18.35-12.14,22.39c-12.33,4.04-24.77-0.14-27.78-9.32
			c-3.01-9.19,4.56-19.9,16.89-23.94C100.56,216.49,108.24,222.22,111.25,231.41z"/>
	</g>
	<g>
		<path class="st1" d="M349.11,124h0.77c1.72,0,3.11,1.39,3.11,3.11v128.77c0,1.72-1.39,3.11-3.11,3.11h-0.77
			c-1.72,0-3.11-1.39-3.11-3.11V127.11C346,125.39,347.39,124,349.11,124z"/>
		<g>
			<path class="st0" d="M330.58,271.68c-8.1,0-14.56-3.72-16.44-9.48c-1.25-3.83-0.39-8.13,2.43-12.13
				c2.94-4.17,7.63-7.47,13.19-9.29c2.46-0.81,4.79-1.21,6.93-1.21c8.73,0,12.25,6.77,13.58,10.81c1.42,4.32,1.34,8.35-0.22,11.65
				c-1.76,3.72-5.34,6.49-10.64,8.22C336.47,271.2,333.5,271.68,330.58,271.68z"/>
			<path class="st1" d="M336.68,237.57l0,4h0c7.1,0,10.26,5.13,11.67,9.44c0.87,2.67,1.56,6.6-0.13,10.17
				c-1.52,3.2-4.7,5.62-9.45,7.17c-2.72,0.89-5.48,1.34-8.19,1.34c-7.22,0-12.93-3.18-14.54-8.11c-1.05-3.21-0.28-6.89,2.16-10.35
				c2.7-3.82,7.02-6.86,12.17-8.54c2.26-0.74,4.38-1.12,6.31-1.12L336.68,237.57 M336.68,237.57c-2.29,0-4.8,0.41-7.55,1.31
				c-12.33,4.04-19.9,14.76-16.89,23.94c2.23,6.81,9.63,10.86,18.34,10.86c3.04,0,6.24-0.49,9.44-1.54
				c12.33-4.04,15.15-13.2,12.14-22.39C349.81,242.62,344.65,237.57,336.68,237.57L336.68,237.57z"/>
		</g>
	</g>
	<g>
		<line class="st18" x1="0" y1="102" x2="500" y2="102"/>
		<line class="st18" x1="0" y1="140.62" x2="500" y2="140.62"/>
		<line class="st18" x1="-0.26" y1="179.25" x2="499.74" y2="179.25"/>
		<line class="st18" x1="-0.26" y1="217.88" x2="499.74" y2="217.88"/>
		<line class="st18" x1="0" y1="256.5" x2="500" y2="256.5"/>
	</g>
	<path class="st4" d="M413.58,331.04c8.02,0,14.52-6.5,14.52-14.52c0-8.02-6.5-14.52-14.52-14.52l-92.71,0
		c-8.02,0-14.52,6.5-14.52,14.52c0,8.02,6.5,14.52,14.52,14.52L413.58,331.04z"/>
	<g>
		<circle class="st1" cx="343" cy="86" r="7"/>
		<g>
			<path class="st1" d="M304,94c0.95-9,5.62-17.78,12.7-24.05c7.04-6.31,16.58-10.11,26.25-10.02c9.67,0.01,19.16,3.81,26.22,10.09
				c7.1,6.25,11.8,15,12.83,23.99c-3.47-8.33-8.91-15.38-15.78-20.31c-6.84-4.95-15.04-7.74-23.28-7.77
				c-8.25-0.07-16.45,2.72-23.27,7.68C312.81,78.55,307.38,85.64,304,94z"/>
		</g>
	</g>
	<line class="st18" x1="275.71" y1="255.33" x2="275.71" y2="0"/>
	<line class="st18" x1="409.29" y1="255.18" x2="409.29" y2="-0.15"/>
</g>
<g id="a_WHITE_WHALE">
</g>
<g id="X_marks_the_spot">
</g>
<g id="You_x27_re_a_cool_Dude">
</g>
<g id="Zinc_Zoo_keeper">
</g>
<g id="guides" class="st7">
</g>
</svg>
