<?xml version="1.0" encoding="utf-8"?>
<!-- Generator: Adobe Illustrator 25.2.3, SVG Export Plug-In . SVG Version: 6.00 Build 0)  -->
<svg version="1.1" xmlns="http://www.w3.org/2000/svg" xmlns:xlink="http://www.w3.org/1999/xlink" x="0px" y="0px"
	 viewBox="0 0 500 500" style="enable-background:new 0 0 500 500;" xml:space="preserve">
<style type="text/css">
	.st0{fill:#3FA9F5;}
	.st1{fill:#FFFFFF;}
	.st2{font-family:'AcuminPro-Bold';}
	.st3{font-size:40.9114px;}
	.st4{fill:#0071BC;}
	.st5{font-family:'AcuminPro-Semibold';}
	.st6{fill:#0071BC;stroke:#3FA9F5;stroke-width:3;stroke-miterlimit:10;}
	.st7{display:none;}
	.st8{display:inline;fill:#3FA9F5;}
	.st9{display:inline;fill:none;stroke:#3FA9F5;stroke-width:3;stroke-linecap:round;stroke-miterlimit:10;}
	.st10{fill:none;stroke:#3FA9F5;stroke-width:3;stroke-linecap:round;stroke-miterlimit:10;}
	.st11{fill:none;stroke:#3FA9F5;stroke-width:2.5;stroke-linecap:round;stroke-miterlimit:10;}
	.st12{display:inline;fill:#0071BC;}
	.st13{fill:#00FB20;}
	.st14{display:inline;fill:none;stroke:#0071BC;stroke-width:3;stroke-miterlimit:10;}
	.st15{display:inline;fill:none;stroke:#3FA9F5;stroke-width:3;stroke-miterlimit:10;}
	.st16{display:inline;fill:#3FA9F5;stroke:#0071BC;stroke-width:3;stroke-miterlimit:10;}
	.st17{fill:none;stroke:#0071BC;stroke-width:7;stroke-miterlimit:10;}
	.st18{fill:none;stroke:#0071BC;stroke-width:5;stroke-miterlimit:10;}
	.st19{display:none;fill:none;stroke:#0071BC;stroke-width:3;stroke-miterlimit:10;}
	.st20{display:none;fill:#0071BC;}
	.st21{display:inline;fill:#0071BC;stroke:#3FA9F5;stroke-width:3;stroke-miterlimit:10;}
	.st22{display:inline;}
	.st23{display:inline;fill:#0071BC;stroke:#3FA9F5;stroke-width:2;stroke-miterlimit:10;}
	.st24{opacity:0.6;}
	.st25{fill:#0071BC;stroke:#3FA9F5;stroke-miterlimit:10;}
	.st26{fill:#0071BC;stroke:#3FA9F5;stroke-linecap:round;stroke-miterlimit:10;}
	.st27{fill:none;stroke:#0071BC;stroke-width:12;stroke-linecap:round;stroke-miterlimit:10;}
	.st28{fill:#0071BC;stroke:#3FA9F5;stroke-width:4;stroke-miterlimit:10;}
	.st29{fill:#0071BC;stroke:#3FA9F5;stroke-width:6;stroke-miterlimit:10;}
	.st30{fill:none;stroke:#3FA9F5;stroke-width:3;stroke-miterlimit:10;}
	.st31{display:inline;fill:#FFFFFF;}
	.st32{fill:#0071BC;stroke:#3FA9F5;stroke-width:5;stroke-miterlimit:10;}
	.st33{fill:none;stroke:#3FA9F5;stroke-width:4;stroke-miterlimit:10;}
	.st34{fill:none;stroke:#3FA9F5;stroke-width:5;stroke-miterlimit:10;}
	.st35{fill:#0071BC;stroke:#3FA9F5;stroke-width:2;stroke-miterlimit:10;}
	.st36{display:inline;fill:#0071BC;stroke:#3FA9F5;stroke-linecap:round;stroke-miterlimit:10;}
	.st37{fill:#3FA9F5;stroke:#0071BC;stroke-width:4;stroke-miterlimit:10;}
	.st38{display:none;fill:#3FA9F5;stroke:#0071BC;stroke-width:5;stroke-miterlimit:10;}
	.st39{fill:#3FA9F5;stroke:#0071BC;stroke-width:3;stroke-miterlimit:10;}
	.st40{fill:#0071BC;stroke:#0071BC;stroke-width:3;stroke-miterlimit:10;}
	.st41{fill:none;stroke:#0071BC;stroke-width:22;stroke-miterlimit:10;}
	.st42{display:none;fill:none;stroke:#0071BC;stroke-width:22;stroke-miterlimit:10;}
	.st43{display:inline;fill:none;stroke:#3FA9F5;stroke-width:2;stroke-miterlimit:10;}
	.st44{fill:none;stroke:#3FA9F5;stroke-width:2;stroke-miterlimit:10;}
</style>
<g id="background">
	<rect class="st0" width="500" height="500"/>
</g>
<g id="Text">
	<text transform="matrix(1 0 0 1 95.8115 431.7672)"><tspan x="0" y="0" class="st1 st2 st3">X</tspan><tspan x="25" y="0" class="st4 st5 st3"> marks the spot</tspan></text>
</g>
<g id="Apart">
</g>
<g id="Be_a_good_boy">
	<g id="Layer_12">
	</g>
</g>
<g id="Charlies_Angels">
	<g id="Faces">
	</g>
</g>
<g id="Dog_did_it">
</g>
<g id="Eek">
</g>
<g id="did_I_Fail_it">
</g>
<g id="Great_Gatsby">
</g>
<g id="hippity_hop">
	<g id="Layer_33" class="st7">
	</g>
	<g id="Layer_34" class="st24">
	</g>
	<g id="Layer_35">
	</g>
</g>
<g id="Aye_Aye">
</g>
<g id="Lets_Jump">
</g>
<g id="Kangaroo">
</g>
<g id="Ladybug">
</g>
<g id="Like_Mike">
</g>
<g id="Navy">
</g>
<g id="OMG">
</g>
<g id="A_poopy_smell">
</g>
<g id="God_save_the_Queen">
</g>
<g id="Rabbit">
</g>
<g id="SS_SS_SS">
</g>
<g id="Tall">
</g>
<g id="Under_where">
</g>
<g id="Beethoven_x27_s_V">
</g>
<g id="a_WHITE_WHALE">
</g>
<g id="X_marks_the_spot">
	<path class="st4" d="M81,92.77c0,0,16.56,53.87,27.16,124.77c6.36,42.53,9.54,63.8,3.39,86.11c-3.55,12.88-2.26,26.36-2.26,26.36
		s63.27,0.15,123.35-5.27c116.6-10.51,186.72,5.27,186.72,5.27s-22.63-58.87,0-148.49c9.76-38.64,19.24-99.29,19.24-99.29
		s-65-5.82-260.28,7.91C126.23,93.8,81,92.77,81,92.77z"/>
	<circle class="st0" cx="194.69" cy="228.79" r="4.83"/>
	<circle class="st0" cx="214.38" cy="219.73" r="4.83"/>
	<circle class="st0" cx="339.76" cy="302.32" r="4.83"/>
	<circle class="st0" cx="312.52" cy="289.14" r="4.83"/>
	<circle class="st0" cx="257.17" cy="153.83" r="4.83"/>
	<circle class="st0" cx="235.2" cy="176.68" r="4.83"/>
	<circle class="st0" cx="267.71" cy="261.03" r="4.83"/>
	<circle class="st0" cx="367.87" cy="307.59" r="4.83"/>
	<circle class="st0" cx="371.39" cy="255.76" r="4.83"/>
	<circle class="st0" cx="278.25" cy="177.56" r="4.83"/>
	<circle class="st0" cx="381.05" cy="284.75" r="4.83"/>
	<circle class="st0" cx="339.76" cy="219.73" r="4.83"/>
	<circle class="st0" cx="348.54" cy="241.7" r="4.83"/>
	<circle class="st0" cx="300.22" cy="219.73" r="4.83"/>
	<g class="st7">
		<path class="st8" d="M183.83,149c-2.6,4.13-5.33,7.96-7.95,11.82c-2.64,3.84-5.25,7.62-7.78,11.41
			c-5.09,7.57-9.94,15.15-14.55,22.88c-4.6,7.73-8.98,15.59-13.21,23.67c-2.14,4.03-4.23,8.12-6.35,12.27
			c-2.15,4.14-4.24,8.35-6.65,12.6c-0.62-9.72,0.89-19.35,3.51-28.64c0.66-2.33,1.39-4.63,2.23-6.9c0.79-2.29,1.72-4.52,2.67-6.75
			c1.94-4.44,4.18-8.74,6.65-12.91c4.96-8.32,10.99-16.01,17.9-22.76C167.23,158.98,174.98,153.07,183.83,149z"/>
	</g>
	<g class="st7">
		<path class="st8" d="M98.64,171.15c9.73,0.39,19.15,2.88,28.13,6.43c8.96,3.6,17.48,8.4,25.24,14.2c3.88,2.9,7.59,6.03,11.08,9.39
			c1.73,1.69,3.44,3.41,5.04,5.22c1.64,1.78,3.2,3.62,4.7,5.52c5.97,7.59,11.04,15.91,14.18,25.13c-3.85-3-7.39-6.1-10.96-9.1
			c-3.55-3.02-7.04-6-10.56-8.91c-7-5.85-14.05-11.43-21.25-16.83c-7.21-5.38-14.58-10.54-22.18-15.59
			c-3.79-2.54-7.65-5.03-11.55-7.58C106.6,176.46,102.61,173.98,98.64,171.15z"/>
	</g>
	<g>
		<path class="st0" d="M189.08,250.27c-3.32-2.59-6.46-5.26-9.5-7.84c-1.02-0.87-2.04-1.74-3.07-2.6l-1.46-1.24
			c-3.64-3.09-7.07-6.01-10.6-8.94c-7.93-6.63-16.08-13.09-24.23-19.19c-7.95-5.93-16.22-11.75-25.28-17.77
			c-3.71-2.48-7.56-4.99-11.28-7.41l-1.91-1.24c-1.28-0.84-2.55-1.67-3.83-2.5c-3.2-2.07-6.5-4.22-9.77-6.54l-4.11-2.92l5.04,0.2
			c10.3,0.41,20.97,2.84,32.64,7.45c10.37,4.17,20.19,9.69,29.19,16.42c4.58,3.43,8.89,7.08,12.81,10.85
			c1.9,1.86,3.92,3.88,5.85,6.05c1.79,1.94,3.62,4.09,5.42,6.38c7.73,9.84,13.11,19.38,16.45,29.17l1.62,4.76L189.08,250.27z"/>
		<path class="st4" d="M89,173.78c11.12,0.44,21.88,3.3,32.15,7.35c10.24,4.12,19.98,9.6,28.85,16.23
			c4.43,3.32,8.68,6.89,12.66,10.73c1.98,1.94,3.93,3.9,5.76,5.97c1.87,2.03,3.66,4.14,5.37,6.31c6.82,8.68,12.62,18.19,16.21,28.72
			c-4.4-3.43-8.45-6.97-12.53-10.41c-4.06-3.45-8.05-6.86-12.07-10.18c-8-6.69-16.06-13.07-24.29-19.23
			c-8.24-6.15-16.67-12.04-25.35-17.81c-4.33-2.9-8.74-5.75-13.2-8.66C98.1,179.86,93.55,177.02,89,173.78 M79.05,170.39l8.22,5.84
			c3.3,2.35,6.62,4.5,9.83,6.58c1.28,0.83,2.55,1.66,3.82,2.49l2.01,1.31c3.86,2.51,7.5,4.88,11.17,7.34
			c9.05,6.01,17.3,11.81,25.23,17.73c8.11,6.07,16.24,12.51,24.16,19.13c3.53,2.92,6.95,5.83,10.58,8.92l1.47,1.25
			c1.03,0.87,2.04,1.73,3.06,2.6c3.05,2.59,6.21,5.28,9.56,7.89l7.93,6.18l-3.24-9.51c-3.39-9.95-8.85-19.64-16.69-29.61
			c-1.82-2.31-3.67-4.48-5.5-6.47c-1.95-2.2-3.98-4.23-5.89-6.09c-3.98-3.83-8.34-7.52-12.97-10.99
			c-9.11-6.81-19.04-12.39-29.53-16.61c-11.85-4.68-22.68-7.15-33.15-7.56L79.05,170.39L79.05,170.39z"/>
	</g>
	<g>
		<path class="st0" d="M186.38,148.47c-2.97,4.73-6.09,9.09-9.09,13.51c-3.01,4.39-6,8.71-8.9,13.05
			c-5.82,8.65-11.36,17.31-16.63,26.15c-5.25,8.84-10.27,17.82-15.1,27.05c-2.44,4.61-4.83,9.28-7.26,14.02
			c-2.46,4.73-4.84,9.55-7.6,14.4c-0.71-11.11,1.02-22.11,4.01-32.74c0.75-2.66,1.59-5.29,2.55-7.88c0.91-2.61,1.96-5.17,3.05-7.71
			c2.22-5.07,4.78-9.99,7.61-14.75c5.67-9.52,12.57-18.3,20.46-26.01C167.41,159.87,176.26,153.12,186.38,148.47z"/>
	</g>
	<path class="st1" d="M398.86,205.23c3.51,0,6.36-2.85,6.36-6.36c0-3.51-2.85-6.36-6.36-6.36h-51.62c-3.51,0-6.36,2.85-6.36,6.36
		s2.85,6.36,6.36,6.36L398.86,205.23z"/>
	<path class="st1" d="M172.37,205.23c3.51,0,6.36-2.85,6.36-6.36c0-3.51-2.85-6.36-6.36-6.36h-51.62c-3.51,0-6.36,2.85-6.36,6.36
		s2.85,6.36,6.36,6.36L172.37,205.23z"/>
	<circle class="st1" cx="219.22" cy="198.81" r="6.42"/>
	<circle class="st1" cx="300.39" cy="198.81" r="6.42"/>
	<circle class="st0" cx="282.65" cy="306.72" r="4.83"/>
	<circle class="st0" cx="255.41" cy="289.14" r="4.83"/>
	<circle class="st0" cx="291.43" cy="241.7" r="4.83"/>
	<path class="st0" d="M304.47,258.95c-8.18,2.48-10.49,3.07-13.41,5.52c-3.57,3-8.29,8.99-6.31,12.62c1.41,2.59,6.09,3.75,9.47,2.37
		c4.9-2.01,3.88-8.09,8.68-11.04c4.39-2.7,10.17-0.64,14.2,0.79c11.99,4.26,12.41,11.91,22.09,14.2c6.65,1.57,15.04-0.02,16.57-3.94
		c2.14-5.51-9.68-14.51-13.41-17.35c-5.72-4.35-10.82-8.25-18.14-8.68C321.49,253.27,321.55,253.76,304.47,258.95z"/>
	<path class="st0" d="M228.09,240.95c0.54-5.9,6.37-5.7,12.33-15.42c3.24-5.28,4.95-10.94,7.71-20.04c2.44-8.06,2.8-11.52,5.4-12.33
		c3.95-1.24,9.1,4.91,10.79,6.94c5.45,6.51,6.63,13.72,6.94,16.19c1.32,10.66-3.09,18.82-4.62,21.58
		c-3.79,6.78-14.61,21.32-26.21,18.5C233.61,254.71,227.51,247.3,228.09,240.95z"/>
	<path class="st0" d="M308.65,108.19c-9.48,0.06-20.68,14.51-19.33,27.06c1.01,9.37,9.95,15.52,27.83,27.83
		c11.26,7.75,17,11.61,22.42,10.82c11.46-1.66,12.6-15.67,27.06-19.33c8.97-2.27,11.83,2.3,18.55-0.77
		c11.21-5.12,17.71-24.4,11.6-32.47c-5.1-6.73-18.52-5.04-40.2-2.32c-15.67,1.97-20.39,4.62-28.6,1.55
		C317.02,116.46,315.87,108.14,308.65,108.19z"/>
	<path class="st0" d="M139,291.54c10.53-11.28,6.4-19.41,14.12-25.88c7.76-6.51,20.07-5.11,27.45-2.35
		c11.31,4.23,23.72,16.41,20.39,25.88c-2.9,8.27-17.25,12.92-24.31,8.63c-5.52-3.36-4.35-10.85-8.63-11.76
		c-4.56-0.98-10.17,6.64-15.68,14.12c-7.42,10.06-8.32,14.84-11.76,14.9c-4.44,0.08-9.65-7.75-8.63-14.12
		C132.59,296.94,135.41,295.39,139,291.54z"/>
	<path class="st0" d="M196.58,102.17c-4.94-2.22-16.71,6.49-16.29,14.74c0.29,5.91,6.73,9.44,17.85,15.52
		c9.2,5.04,13.8,7.55,18.62,6.21c12.11-3.39,16.44-27.16,11.64-30.26c-4.82-3.11-18.37,14.93-25.6,10.86
		C197.41,116.22,201.46,104.37,196.58,102.17z"/>
</g>
<g id="You_x27_re_a_cool_Dude">
</g>
<g id="Zinc_Zoo_keeper">
</g>
<g id="guides" class="st7">
</g>
</svg>
