<?xml version="1.0" encoding="utf-8"?>
<!-- Generator: Adobe Illustrator 25.2.3, SVG Export Plug-In . SVG Version: 6.00 Build 0)  -->
<svg version="1.1" xmlns="http://www.w3.org/2000/svg" xmlns:xlink="http://www.w3.org/1999/xlink" x="0px" y="0px"
	 viewBox="0 0 500 500" style="enable-background:new 0 0 500 500;" xml:space="preserve">
<style type="text/css">
	.st0{fill:#3FA9F5;}
	.st1{fill:#FFFFFF;}
	.st2{font-family:'AcuminPro-Bold';}
	.st3{font-size:40.9114px;}
	.st4{fill:#0071BC;}
	.st5{font-family:'AcuminPro-Semibold';}
	.st6{fill:#0071BC;stroke:#3FA9F5;stroke-width:3;stroke-miterlimit:10;}
	.st7{display:none;}
	.st8{display:inline;fill:#3FA9F5;}
	.st9{display:inline;fill:none;stroke:#3FA9F5;stroke-width:3;stroke-linecap:round;stroke-miterlimit:10;}
	.st10{fill:none;stroke:#3FA9F5;stroke-width:3;stroke-linecap:round;stroke-miterlimit:10;}
	.st11{fill:none;stroke:#3FA9F5;stroke-width:2.5;stroke-linecap:round;stroke-miterlimit:10;}
	.st12{display:inline;fill:#0071BC;}
	.st13{fill:#00FB20;}
	.st14{display:inline;fill:none;stroke:#0071BC;stroke-width:3;stroke-miterlimit:10;}
	.st15{display:inline;fill:none;stroke:#3FA9F5;stroke-width:3;stroke-miterlimit:10;}
	.st16{display:inline;fill:#3FA9F5;stroke:#0071BC;stroke-width:3;stroke-miterlimit:10;}
	.st17{fill:none;stroke:#0071BC;stroke-width:7;stroke-miterlimit:10;}
	.st18{fill:none;stroke:#0071BC;stroke-width:5;stroke-miterlimit:10;}
	.st19{display:none;fill:none;stroke:#0071BC;stroke-width:3;stroke-miterlimit:10;}
	.st20{display:none;fill:#0071BC;}
	.st21{display:inline;fill:#0071BC;stroke:#3FA9F5;stroke-width:3;stroke-miterlimit:10;}
	.st22{display:inline;}
	.st23{display:inline;fill:#0071BC;stroke:#3FA9F5;stroke-width:2;stroke-miterlimit:10;}
	.st24{opacity:0.6;}
	.st25{fill:#0071BC;stroke:#3FA9F5;stroke-miterlimit:10;}
	.st26{fill:#0071BC;stroke:#3FA9F5;stroke-linecap:round;stroke-miterlimit:10;}
	.st27{fill:none;stroke:#0071BC;stroke-width:12;stroke-linecap:round;stroke-miterlimit:10;}
	.st28{fill:#0071BC;stroke:#3FA9F5;stroke-width:4;stroke-miterlimit:10;}
	.st29{fill:#0071BC;stroke:#3FA9F5;stroke-width:6;stroke-miterlimit:10;}
	.st30{fill:none;stroke:#3FA9F5;stroke-width:3;stroke-miterlimit:10;}
	.st31{display:inline;fill:#FFFFFF;}
	.st32{font-family:'KelsonSans-Bold';}
	.st33{font-size:192.1477px;}
	.st34{fill:#0071BC;stroke:#3FA9F5;stroke-width:5;stroke-miterlimit:10;}
	.st35{fill:none;stroke:#3FA9F5;stroke-width:4;stroke-miterlimit:10;}
	.st36{fill:none;stroke:#3FA9F5;stroke-width:5;stroke-miterlimit:10;}
	.st37{fill:#0071BC;stroke:#3FA9F5;stroke-width:2;stroke-miterlimit:10;}
	.st38{display:inline;fill:#0071BC;stroke:#3FA9F5;stroke-linecap:round;stroke-miterlimit:10;}
	.st39{fill:#3FA9F5;stroke:#0071BC;stroke-width:4;stroke-miterlimit:10;}
	.st40{display:none;fill:#3FA9F5;stroke:#0071BC;stroke-width:5;stroke-miterlimit:10;}
	.st41{fill:#3FA9F5;stroke:#0071BC;stroke-width:3;stroke-miterlimit:10;}
	.st42{fill:#0071BC;stroke:#0071BC;stroke-width:3;stroke-miterlimit:10;}
	.st43{fill:none;stroke:#0071BC;stroke-width:22;stroke-miterlimit:10;}
	.st44{display:none;fill:none;stroke:#0071BC;stroke-width:22;stroke-miterlimit:10;}
	.st45{display:inline;fill:none;stroke:#3FA9F5;stroke-width:2;stroke-miterlimit:10;}
	.st46{fill:none;stroke:#3FA9F5;stroke-width:2;stroke-miterlimit:10;}
</style>
<g id="background">
	<rect class="st0" width="500" height="500"/>
</g>
<g id="Text">
	<text transform="matrix(1 0 0 1 110.8115 431.7672)"><tspan x="0" y="0" class="st1 st2 st3">U</tspan><tspan x="29.66" y="0" class="st4 st5 st3">nder where?</tspan></text>
</g>
<g id="Apart">
</g>
<g id="Be_a_good_boy">
	<g id="Layer_12">
	</g>
</g>
<g id="Charlies_Angels">
	<g id="Faces">
	</g>
</g>
<g id="Dog_did_it">
</g>
<g id="Eek">
</g>
<g id="did_I_Fail_it">
</g>
<g id="Great_Gatsby">
</g>
<g id="hippity_hop">
	<g id="Layer_33" class="st7">
	</g>
	<g id="Layer_34" class="st24">
	</g>
	<g id="Layer_35">
	</g>
</g>
<g id="Aye_Aye">
</g>
<g id="Lets_Jump">
</g>
<g id="Kangaroo">
</g>
<g id="Ladybug">
</g>
<g id="Like_Mike">
</g>
<g id="Navy">
</g>
<g id="OMG">
	<text transform="matrix(1 0 0 1 59.001 330.6084)" class="st20 st32 st33">OMG</text>
	<path class="st20" d="M81.96,319.96c-7.75-7.04-11.62-18.25-11.62-33.63v-45.6c0-10.63,1.63-19.15,4.9-25.56
		c3.27-6.4,8.52-11.11,15.76-14.12c7.24-3.01,16.81-4.52,28.73-4.52c17.93,0,30.84,3.46,38.72,10.38s11.82,18.19,11.82,33.82v45.6
		c0,15.25-4.04,26.42-12.1,33.53c-8.07,7.11-20.88,10.67-38.43,10.67C102.3,330.53,89.71,327.01,81.96,319.96z M138.55,301.71
		c3.46-3.58,5.19-9.16,5.19-16.72v-42.91c0-5-0.61-9.06-1.83-12.2c-1.22-3.14-3.59-5.57-7.11-7.3c-3.52-1.73-8.55-2.59-15.08-2.59
		c-8.97,0-15.02,1.83-18.16,5.48c-3.14,3.65-4.71,9.19-4.71,16.62v42.91c0,5.12,0.61,9.26,1.83,12.39c1.22,3.14,3.49,5.54,6.82,7.21
		c3.33,1.67,8.07,2.5,14.22,2.5C128.81,307.09,135.09,305.3,138.55,301.71z"/>
	<g class="st7">
		<path class="st12" d="M81.96,319.96c-7.75-7.04-11.62-18.25-11.62-33.63v-45.6c0-10.63,0.03-25.53,4.9-34.74
			c4.76-9,33.85-15,45.76-15c17.93,0,35.12,6.08,43,13s6.25,21.11,6.25,36.74v45.6c0,15.25-4.04,26.42-12.1,33.53
			c-8.07,7.11-20.88,10.67-38.43,10.67C102.3,330.53,89.71,327.01,81.96,319.96z M138.55,301.71c3.46-3.58,5.19-9.16,5.19-16.72
			v-42.91c0-5-0.61-9.06-1.83-12.2c-1.22-3.14-3.59-5.57-7.11-7.3c-3.52-1.73-8.55-2.59-15.08-2.59c-8.97,0-15.02,1.83-18.16,5.48
			c-3.14,3.65-4.71,9.19-4.71,16.62v42.91c0,5.12,0.61,9.26,1.83,12.39c1.22,3.14,3.49,5.54,6.82,7.21c3.33,1.67,8.07,2.5,14.22,2.5
			C128.81,307.09,135.09,305.3,138.55,301.71z"/>
		<path class="st12" d="M219.7,218.05l1.92,26.45c0.01,0.07,0.01,0.14,0.01,0.21v48.43c0,1.63-1.32,2.96-2.96,2.96h-20.22
			c-1.63,0-2.96-1.32-2.96-2.96V153.09c0-1.63,1.32-2.96,2.96-2.96h20.33c1.16,0,2.2,0.67,2.69,1.72l26.26,57.19
			c1.05,2.29,4.31,2.3,5.37,0.01l26.43-57.21c0.48-1.05,1.53-1.72,2.68-1.72h20.33c1.63,0,2.96,1.32,2.96,2.96v140.06
			c0,1.63-1.32,2.96-2.96,2.96h-20.22c-1.63,0-2.96-1.32-2.96-2.96v-48.43c0-0.07,0-0.14,0.01-0.21l1.92-26.45
			c0.24-3.24-4.16-4.43-5.6-1.52L254.25,260c-0.5,1.01-1.53,1.65-2.65,1.65h-2.19c-1.13,0-2.15-0.64-2.65-1.65l-21.46-43.48
			C223.86,213.62,219.46,214.81,219.7,218.05z"/>
		<path class="st12" d="M428.38,199.45c1.66,0,3,1.34,3,3v36.58c0,16.27-4.04,28.09-12.11,35.45c-8.07,7.37-20.88,11.05-38.43,11.05
			c-17.42,0-30.01-3.65-37.76-10.95c-7.75-7.3-11.62-18.96-11.62-34.97v-61.87c0-15.37,3.84-26.58,11.53-33.63
			c7.69-7.04,20.3-10.57,37.85-10.57c12.04,0,21.74,1.47,29.11,4.42c7.36,2.95,12.78,7.66,16.24,14.12
			c3.12,5.83,4.83,13.35,5.14,22.55c0.06,1.69-1.31,3.1-3,3.1h-20.55c-1.61,0-2.9-1.27-2.99-2.87c-0.2-3.67-0.78-6.68-1.75-9.04
			c-1.22-2.95-3.55-5.16-7.01-6.63c-3.46-1.47-8.52-2.21-15.18-2.21c-8.97,0-15.02,1.83-18.16,5.48c-3.14,3.65-4.71,9.19-4.71,16.62
			v60.53c0,5.12,0.61,9.26,1.83,12.39c1.22,3.14,3.49,5.54,6.82,7.21c3.33,1.67,8.07,2.5,14.22,2.5c9.35,0,16.01-1.89,19.98-5.67
			c3.97-3.78,5.96-9.45,5.96-17v-12.56c0-1.66-1.34-3-3-3h-19.17c-1.66,0-3-1.34-3-3v-18.02c0-1.66,1.34-3,3-3H428.38z"/>
		<path class="st31" d="M156.65,223.88c6.27,0,11.35-5.08,11.35-11.35c0-6.27-5.08-11.35-11.35-11.35l-72.45,0
			c-6.27,0-11.35,5.08-11.35,11.35c0,6.27,5.08,11.35,11.35,11.35L156.65,223.88z"/>
		<path class="st31" d="M294.29,223.02c6.27,0,11.35-5.08,11.35-11.35c0-6.27-5.08-11.35-11.35-11.35l-87.45,0
			c-6.27,0-11.35,5.08-11.35,11.35c0,6.27,5.08,11.35,11.35,11.35L294.29,223.02z"/>
		<path class="st31" d="M419.19,223.2c6.52,0,11.81-5.29,11.81-11.81c0-6.52-5.29-11.81-11.81-11.81l-46.39,0
			c-6.52,0-11.81,5.29-11.81,11.81c0,6.52,5.29,11.81,11.81,11.81L419.19,223.2z"/>
	</g>
</g>
<g id="A_poopy_smell">
</g>
<g id="God_save_the_Queen">
</g>
<g id="Rabbit">
</g>
<g id="SS_SS_SS">
</g>
<g id="Tall">
</g>
<g id="Under_where">
	<polygon class="st4" points="41,331 106.74,331 104,312 97.97,309.31 94,296 81,298 76.84,291.9 64,294 60.03,291.9 55.65,291.9 
		47,314 43.52,315.39 	"/>
	<polyline class="st4" points="150.97,331.04 153.55,319.68 157,318 159.48,311.45 164.9,308.31 171,299 178.55,300.68 184,297 
		194.84,297 199,303 203.1,308.31 205,318 208,319.68 211,331 150.97,331.04 	"/>
	<g>
		<polygon class="st4" points="410.82,205.63 397.96,198.61 387.22,199.82 370.58,189.22 357.82,188 325.57,196.61 296.2,194.98 
			283.03,223.61 272.11,239.1 257.97,255.17 258.75,273.56 247.5,282.51 249.96,302.11 247.9,309.43 259.62,330.76 290.54,317.53 
			328.28,289.25 349.5,280.64 366.01,264.65 390.77,248.67 399.03,228.99 412,215.47 		"/>
		<polyline class="st0" points="257.97,255.17 275.21,268.34 287,265.88 297.62,265.88 		"/>
		<polygon class="st0" points="325.57,196.61 329.46,209.32 330.63,217.93 342.43,225.3 354.22,221.61 337.71,215.7 		"/>
		<polygon class="st0" points="283.03,223.61 292.9,232.68 302.33,236.37 317.66,240.06 324.74,251.13 322.38,269.57 316.48,248.67 
			300.58,240.44 289.36,236.37 		"/>
		<polygon class="st0" points="397.85,198.25 377.8,204.4 365.36,220.39 360.11,231.45 360.11,239.03 378.98,226.02 383.7,214.24 
			390.77,210.55 		"/>
		<polyline class="st0" points="249.96,302.11 263.61,302.11 269.32,305.23 274.26,310.18 		"/>
	</g>
	<polygon class="st0" points="159.48,311.45 161.81,319.68 164,323 161.74,315.13 	"/>
	<polygon class="st0" points="178.55,300.68 174,306 174,319 176,307 	"/>
	<polyline class="st0" points="203.1,308.31 202.46,309.5 199,316 196.65,323 199.87,326.74 199.87,319.68 	"/>
	<polygon class="st0" points="194.84,297 189,309 189,316 195,315 191,314 	"/>
	<polygon class="st0" points="151.16,330.18 156.39,326.74 160.13,328.46 165.68,328.46 158.42,330.18 155,329 	"/>
	<polygon class="st0" points="47,314 57,315 62.84,319.68 56,316.84 49,316 	"/>
	<path class="st0" d="M41,331l7.39-4.26c0,0,4.94-0.26,4.77,0c-0.16,0.26,8.39,1.72,8.39,1.72H51.27l-6.11,1.72L41,331z"/>
	<polygon class="st0" points="64,294 71,299 76.26,300.68 68.26,300.68 	"/>
	<polygon class="st0" points="81,298 87,303 88.2,312.42 82,322 84.6,312.42 86,306 	"/>
	<polygon class="st0" points="97.97,309.31 93,319 95.48,323 99,326 95.23,319.68 	"/>
	<polygon class="st0" points="54.92,293.76 59,306 69,307 76.26,322 73.87,326.74 68,314.02 68,309 54.92,309.31 57,304 	"/>
	<circle class="st1" cx="181.55" cy="319.68" r="11.36"/>
	<circle class="st1" cx="76.84" cy="319.68" r="11.36"/>
	<path class="st1" d="M384.47,331.04c6.28,0,11.36-5.09,11.36-11.36c0-6.28-5.09-11.36-11.36-11.36H311.9
		c-6.28,0-11.36,5.09-11.36,11.36c0,6.28,5.09,11.36,11.36,11.36H384.47z"/>
	<g>
		<path class="st4" d="M414.38,240.08l-0.53,0.24c-0.93,0.42-1.35,1.52-0.93,2.45l10.28,22.85c0.42,0.93,1.52,1.35,2.45,0.93
			l0.53-0.24c0.93-0.42,1.35-1.52,0.93-2.45l-10.28-22.85C416.41,240.07,415.31,239.66,414.38,240.08z"/>
		<path class="st4" d="M415.74,241.55L415.74,241.55c0.63-0.81,0.49-1.97-0.31-2.6l-17.35-13.61c-0.81-0.63-1.97-0.49-2.6,0.31v0
			c-0.63,0.81-0.49,1.97,0.31,2.6l17.35,13.61C413.94,242.49,415.1,242.35,415.74,241.55z"/>
		<circle class="st4" cx="434" cy="269" r="31"/>
		<rect x="439" y="287" transform="matrix(-1 -4.495527e-11 4.495527e-11 -1 885 619)" class="st4" width="7" height="45"/>
		<rect x="427" y="287" transform="matrix(-1 -4.469548e-11 4.469548e-11 -1 861 619)" class="st4" width="7" height="45"/>
		<path class="st26" d="M399.54,298.04L399.54,298.04c0.56,0.86,1.7,1.1,2.56,0.55l29.22-18.96c0.86-0.56,1.1-1.7,0.55-2.56l0,0
			c-0.56-0.86-1.7-1.1-2.56-0.55l-29.22,18.96C399.22,296.04,398.98,297.19,399.54,298.04z"/>
		<path class="st4" d="M421.81,326H445v6h-28v-1.19C417,328.15,419.15,326,421.81,326z"/>
		<ellipse class="st0" cx="413" cy="263" rx="4" ry="6"/>
		<g>
			<path class="st0" d="M403.5,281.5c1.24-0.54,2.41-1.04,3.6-1.48c1.19-0.45,2.37-0.85,3.43-1.33l3.4-1.62
				c1.15-0.55,2.33-1.06,3.57-1.57c-0.76,1.13-1.75,2.02-2.77,2.84c-1.03,0.82-2.13,1.54-3.34,2.15c-1.27,0.63-2.58,0.92-3.89,1.11
				C406.19,281.77,404.84,281.85,403.5,281.5z"/>
		</g>
	</g>
	<g>
		<text transform="matrix(1 0 0 1 423.8389 217.6133)" class="st4 st5 st3">?</text>
	</g>
</g>
<g id="Beethoven_x27_s_V">
</g>
<g id="a_WHITE_WHALE">
</g>
<g id="X_marks_the_spot">
</g>
<g id="You_x27_re_a_cool_Dude">
</g>
<g id="Zinc_Zoo_keeper">
</g>
<g id="guides" class="st7">
</g>
</svg>
