<?xml version="1.0" encoding="utf-8"?>
<!-- Generator: Adobe Illustrator 25.2.3, SVG Export Plug-In . SVG Version: 6.00 Build 0)  -->
<svg version="1.1" xmlns="http://www.w3.org/2000/svg" xmlns:xlink="http://www.w3.org/1999/xlink" x="0px" y="0px"
	 viewBox="0 0 500 500" style="enable-background:new 0 0 500 500;" xml:space="preserve">
<style type="text/css">
	.st0{fill:#3FA9F5;}
	.st1{fill:#0071BC;}
	.st2{font-family:'AcuminPro-Semibold';}
	.st3{font-size:40.9114px;}
	.st4{fill:#FFFFFF;}
	.st5{font-family:'AcuminPro-Bold';}
	.st6{fill:#0071BC;stroke:#3FA9F5;stroke-width:3;stroke-miterlimit:10;}
	.st7{display:none;}
	.st8{display:inline;fill:#3FA9F5;}
	.st9{display:inline;fill:none;stroke:#3FA9F5;stroke-width:3;stroke-linecap:round;stroke-miterlimit:10;}
	.st10{fill:none;stroke:#3FA9F5;stroke-width:3;stroke-linecap:round;stroke-miterlimit:10;}
	.st11{fill:none;stroke:#3FA9F5;stroke-width:2.5;stroke-linecap:round;stroke-miterlimit:10;}
	.st12{display:inline;fill:#0071BC;}
	.st13{fill:#00FB20;}
	.st14{display:inline;fill:none;stroke:#0071BC;stroke-width:3;stroke-miterlimit:10;}
	.st15{display:inline;fill:none;stroke:#3FA9F5;stroke-width:3;stroke-miterlimit:10;}
	.st16{display:inline;fill:#3FA9F5;stroke:#0071BC;stroke-width:3;stroke-miterlimit:10;}
	.st17{fill:none;stroke:#0071BC;stroke-width:7;stroke-miterlimit:10;}
	.st18{fill:none;stroke:#0071BC;stroke-width:5;stroke-miterlimit:10;}
	.st19{display:none;fill:none;stroke:#0071BC;stroke-width:3;stroke-miterlimit:10;}
	.st20{display:none;fill:#0071BC;}
	.st21{display:inline;fill:#0071BC;stroke:#3FA9F5;stroke-width:3;stroke-miterlimit:10;}
	.st22{display:inline;}
	.st23{display:inline;fill:#0071BC;stroke:#3FA9F5;stroke-width:2;stroke-miterlimit:10;}
	.st24{opacity:0.6;}
	.st25{fill:#0071BC;stroke:#3FA9F5;stroke-miterlimit:10;}
	.st26{fill:#0071BC;stroke:#3FA9F5;stroke-linecap:round;stroke-miterlimit:10;}
	.st27{fill:none;stroke:#0071BC;stroke-width:12;stroke-linecap:round;stroke-miterlimit:10;}
	.st28{fill:#0071BC;stroke:#3FA9F5;stroke-width:4;stroke-miterlimit:10;}
	.st29{fill:#0071BC;stroke:#3FA9F5;stroke-width:6;stroke-miterlimit:10;}
	.st30{fill:none;stroke:#3FA9F5;stroke-width:3;stroke-miterlimit:10;}
	.st31{display:inline;fill:#FFFFFF;}
	.st32{fill:#0071BC;stroke:#3FA9F5;stroke-width:5;stroke-miterlimit:10;}
	.st33{fill:none;stroke:#3FA9F5;stroke-width:4;stroke-miterlimit:10;}
	.st34{fill:none;stroke:#3FA9F5;stroke-width:5;stroke-miterlimit:10;}
	.st35{fill:#0071BC;stroke:#3FA9F5;stroke-width:2;stroke-miterlimit:10;}
	.st36{display:inline;fill:#0071BC;stroke:#3FA9F5;stroke-linecap:round;stroke-miterlimit:10;}
	.st37{fill:#3FA9F5;stroke:#0071BC;stroke-width:4;stroke-miterlimit:10;}
	.st38{display:none;fill:#3FA9F5;stroke:#0071BC;stroke-width:5;stroke-miterlimit:10;}
	.st39{fill:#3FA9F5;stroke:#0071BC;stroke-width:3;stroke-miterlimit:10;}
	.st40{fill:#0071BC;stroke:#0071BC;stroke-width:3;stroke-miterlimit:10;}
	.st41{fill:none;stroke:#0071BC;stroke-width:22;stroke-miterlimit:10;}
	.st42{display:none;fill:none;stroke:#0071BC;stroke-width:22;stroke-miterlimit:10;}
	.st43{display:inline;fill:none;stroke:#3FA9F5;stroke-width:2;stroke-miterlimit:10;}
	.st44{fill:none;stroke:#3FA9F5;stroke-width:2;stroke-miterlimit:10;}
</style>
<g id="background">
	<rect class="st0" width="500" height="500"/>
</g>
<g id="Text">
	<text transform="matrix(1 0 0 1 151.6298 431.7672)"><tspan x="0" y="0" class="st1 st2 st3">did i</tspan><tspan x="79.69" y="0" class="st4 st5 st3"> F</tspan><tspan x="113.65" y="0" class="st1 st2 st3">ail it?</tspan></text>
</g>
<g id="Apart">
</g>
<g id="Be_a_good_boy">
	<g id="Layer_12">
	</g>
</g>
<g id="Charlies_Angels">
	<g id="Faces">
	</g>
</g>
<g id="Dog_did_it">
</g>
<g id="Eek">
</g>
<g id="did_I_Fail_it">
	<path class="st6" d="M228.27,314.45l-107.57,21.11c-2.17,0.43-4.27-0.99-4.7-3.16L80.98,153.91c-0.43-2.17,0.99-4.27,3.16-4.7
		l107.57-21.11c2.17-0.43,4.27,0.99,4.7,3.16l35.02,178.49C231.85,311.92,230.44,314.02,228.27,314.45z"/>
	<g>
		<g>
			<path class="st0" d="M106.49,180.48c1.93-0.33,3.73-0.67,5.43-1.26c0.85-0.26,1.68-0.58,2.45-0.94c0.77-0.36,1.49-0.73,2.16-1.19
				c1.31-0.93,2.76-2.09,4.38-3.28c1.65-1.13,3.41-2.11,5.22-2.98c1.85-0.79,3.71-1.48,5.63-2c1.93-0.47,3.87-0.9,5.85-1.05
				c3.94-0.39,7.95-0.08,11.67,1.2l0.04,0.01c0.08,0.03,0.12,0.11,0.09,0.19c-0.02,0.06-0.08,0.1-0.15,0.1
				c-7.51-0.41-15.08,1.16-21.89,4.28c-1.7,0.77-3.36,1.65-4.95,2.64c-1.59,0.98-3.1,2.13-4.82,3c-1.71,0.87-3.59,1.34-5.47,1.6
				c-1.89,0.25-3.8,0.24-5.68-0.01c-0.08-0.01-0.14-0.08-0.13-0.16c0.01-0.07,0.06-0.11,0.12-0.13L106.49,180.48z"/>
		</g>
		<g>
			<path class="st0" d="M111.89,205.28c3.73,0.27,7.09-0.37,10.37-1.27c1.61-0.53,3.23-1,4.54-1.75c1.47-0.75,2.8-1.58,4.19-2.64
				c1.43-0.98,2.99-2.15,4.68-3.12c0.86-0.46,1.72-0.91,2.6-1.31c0.85-0.42,1.82-0.78,2.76-1.07c3.78-1.21,7.84-1.34,11.5-0.26
				l0.04,0.01c0.08,0.02,0.12,0.1,0.1,0.18c-0.02,0.06-0.08,0.11-0.14,0.11c-3.63,0.05-7.25,0.74-10.57,2.16
				c-1.66,0.72-3.24,1.61-4.77,2.58c-1.53,0.97-2.97,2.08-4.45,3.16c-1.48,1.07-3.08,2.04-4.76,2.79c-1.7,0.76-3.5,1.21-5.31,1.52
				c-1.82,0.29-3.66,0.43-5.5,0.34c-1.84-0.12-3.67-0.46-5.39-1.15c-0.08-0.03-0.11-0.12-0.08-0.19c0.02-0.06,0.08-0.1,0.15-0.09
				L111.89,205.28z"/>
		</g>
		<g>
			<path class="st0" d="M119.36,229.97c1.73-0.06,3.37-0.18,5-0.39c1.62-0.16,3.21-0.42,4.74-0.7c1.52-0.35,3.01-0.63,4.31-1.19
				c0.31-0.16,0.65-0.25,0.94-0.4c0.3-0.16,0.57-0.26,0.91-0.46c0.66-0.36,1.32-0.78,1.99-1.2c1.38-0.79,2.79-1.74,4.34-2.57
				c1.56-0.79,3.16-1.58,4.85-2.1c1.67-0.57,3.36-0.98,5.13-1.24c0.88-0.09,1.76-0.18,2.65-0.18c0.89,0.01,1.8,0.05,2.68,0.35
				l0.03,0.01c0.08,0.03,0.12,0.11,0.09,0.19c-0.02,0.06-0.08,0.1-0.14,0.1c-0.8-0.02-1.62,0.17-2.42,0.36
				c-0.81,0.2-1.6,0.44-2.39,0.7c-1.58,0.52-3.12,1.16-4.63,1.86c-3.04,1.38-5.78,3.25-8.62,5.06c-1.43,0.87-2.92,1.72-4.56,2.22
				c-1.63,0.51-3.31,0.75-4.99,0.87c-3.36,0.19-6.77-0.03-10.01-1.01c-0.08-0.02-0.12-0.1-0.1-0.18c0.02-0.06,0.07-0.1,0.13-0.1
				L119.36,229.97z"/>
		</g>
		<g class="st7">
			<path class="st8" d="M125.75,254.7c3.21-0.71,6.34-0.98,9.18-1.52c1.41-0.32,2.74-0.58,3.9-1.13c1.15-0.46,2.37-1.15,3.67-1.95
				c1.33-0.72,2.72-1.55,4.21-2.24c1.51-0.66,3.07-1.32,4.72-1.68c1.65-0.43,3.29-0.58,4.91-0.66c1.64-0.02,3.27,0.03,4.9,0.39
				l0.05,0.01c0.08,0.02,0.13,0.1,0.11,0.17c-0.01,0.06-0.06,0.1-0.12,0.11c-1.54,0.22-3.07,0.52-4.57,0.89
				c-1.51,0.36-3.01,0.78-4.45,1.32c-2.91,1.07-5.57,2.69-8.25,4.28c-1.36,0.77-2.75,1.54-4.26,2.04c-1.51,0.5-3.09,0.74-4.66,0.82
				c-3.15,0.17-6.27-0.17-9.37-0.57c-0.08-0.01-0.14-0.08-0.13-0.16c0.01-0.06,0.05-0.11,0.11-0.12L125.75,254.7z"/>
		</g>
	</g>
	<path class="st6" d="M285.28,313.08l-117.16,14.59c-2.19,0.27-4.19-1.28-4.46-3.48l-24.16-194.02c-0.27-2.19,1.28-4.19,3.48-4.46
		l117.16-14.59c2.19-0.27,4.19,1.28,4.46,3.48l24.16,194.02C289.02,310.81,287.47,312.81,285.28,313.08z"/>
	<path class="st6" d="M255.75,314.57l117.16,14.59c2.19,0.27,4.19-1.28,4.46-3.48l24.16-194.02c0.27-2.19-1.28-4.19-3.48-4.46
		L280.9,112.62c-2.19-0.27-4.19,1.28-4.46,3.48l-24.16,194.02C252.01,312.3,253.56,314.3,255.75,314.57z"/>
	<g>
		<g>
			<path class="st0" d="M161.51,160.73c2.01-0.08,3.9-0.22,5.7-0.63c0.9-0.17,1.78-0.41,2.61-0.7c0.83-0.29,1.6-0.6,2.34-1.01
				c1.44-0.83,3.03-1.9,4.81-2.97c1.8-1.02,3.7-1.86,5.64-2.59c1.97-0.64,3.96-1.17,5.98-1.52c2.03-0.3,4.07-0.55,6.12-0.5
				c4.09,0,8.18,0.75,11.85,2.47l0.04,0.02c0.07,0.03,0.11,0.12,0.07,0.2c-0.03,0.06-0.09,0.09-0.16,0.08
				c-7.66-1.32-15.61-0.48-22.9,2.09c-1.82,0.64-3.61,1.39-5.33,2.27c-1.73,0.87-3.38,1.92-5.22,2.65
				c-3.71,1.42-7.82,1.39-11.61,0.44c-0.08-0.02-0.13-0.1-0.11-0.18c0.02-0.06,0.07-0.11,0.14-0.11L161.51,160.73z"/>
		</g>
		<g>
			<path class="st0" d="M164.14,188.06c3.77,0.81,7.31,0.56,10.77-0.01c1.71-0.37,3.42-0.68,4.83-1.34
				c1.59-0.63,3.03-1.37,4.56-2.35c1.57-0.89,3.27-1.95,5.09-2.8c0.92-0.4,1.85-0.79,2.79-1.12c0.91-0.36,1.95-0.64,2.94-0.85
				c4.01-0.9,8.21-0.63,11.85,0.86l0.04,0.02c0.08,0.03,0.11,0.12,0.08,0.19c-0.03,0.06-0.09,0.1-0.15,0.09
				c-3.73-0.41-7.54-0.09-11.1,1.08c-1.77,0.59-3.49,1.37-5.15,2.23c-1.66,0.87-3.24,1.88-4.86,2.87c-1.62,0.97-3.35,1.83-5.16,2.44
				c-1.82,0.63-3.72,0.9-5.61,1.03c-3.77,0.21-7.71-0.24-11.08-2.09c-0.07-0.04-0.1-0.13-0.06-0.2c0.03-0.06,0.1-0.09,0.16-0.07
				L164.14,188.06z"/>
		</g>
		<g>
			<path class="st0" d="M168.89,215.52c1.78,0.18,3.47,0.27,5.17,0.27c1.68,0.04,3.34-0.03,4.94-0.14c1.6-0.18,3.16-0.31,4.54-0.76
				c0.33-0.14,0.7-0.18,1-0.32c0.32-0.13,0.61-0.22,0.99-0.4c0.72-0.31,1.43-0.68,2.16-1.06c1.49-0.69,3.04-1.54,4.7-2.26
				c1.68-0.68,3.4-1.35,5.18-1.73c1.77-0.44,3.55-0.7,5.39-0.81c0.92-0.01,1.82-0.03,2.74,0.07c0.91,0.09,1.85,0.22,2.72,0.63
				l0.03,0.01c0.07,0.03,0.11,0.12,0.07,0.2c-0.03,0.06-0.09,0.09-0.16,0.08c-0.81-0.12-1.69,0-2.53,0.11
				c-0.85,0.12-1.69,0.29-2.53,0.48c-1.67,0.38-3.32,0.89-4.94,1.47c-3.26,1.13-6.25,2.82-9.33,4.43c-1.55,0.76-3.16,1.51-4.9,1.87
				c-1.72,0.37-3.48,0.45-5.22,0.38c-3.48-0.18-6.95-0.81-10.15-2.24c-0.07-0.03-0.11-0.12-0.07-0.19c0.03-0.06,0.09-0.09,0.15-0.09
				L168.89,215.52z"/>
		</g>
	</g>
	<g>
		<g>
			<path class="st0" d="M352.01,157.14c-1.47,1.01-3.23,1.57-5.08,1.82c-0.93,0.1-1.86,0.09-2.83,0c-0.97-0.08-1.95-0.36-2.87-0.71
				c-0.93-0.34-1.77-0.77-2.51-1.2c-0.75-0.42-1.46-0.83-2.15-1.19c-1.35-0.77-2.73-1.46-4.14-2.04c-1.38-0.65-2.85-1.17-4.33-1.65
				c-1.47-0.54-2.98-0.9-4.5-1.32c-3.06-0.76-6.22-1.22-9.69-1.61l-0.04-0.01c-0.08-0.01-0.14-0.08-0.13-0.16
				c0.01-0.06,0.06-0.11,0.11-0.13c3.28-0.71,6.69-0.87,10.03-0.46c3.34,0.39,6.62,1.28,9.73,2.58c1.54,0.69,3.03,1.48,4.45,2.38
				c1.43,0.89,2.76,1.91,4.22,2.66c1.46,0.75,3.09,1.1,4.73,1.22c1.64,0.12,3.3-0.05,4.9-0.48c0.08-0.02,0.16,0.03,0.18,0.1
				c0.02,0.06-0.01,0.12-0.06,0.16L352.01,157.14z"/>
		</g>
		<g>
			<path class="st0" d="M350.14,184.39c-1.09,1.37-2.7,2.32-4.38,2.97c-1.7,0.58-3.51,0.91-5.33,0.9c-0.91,0.02-1.83-0.05-2.75-0.21
				c-0.46-0.08-0.93-0.18-1.4-0.3c-0.48-0.13-0.98-0.29-1.39-0.45c-1.72-0.65-3.34-1.66-4.74-2.62c-1.35-1.04-2.56-1.96-3.79-2.82
				c-1.2-0.91-2.54-1.69-3.76-2.44c-2.56-1.43-5.44-2.38-8.78-3.02l-0.04-0.01c-0.08-0.02-0.13-0.09-0.12-0.17
				c0.01-0.06,0.06-0.11,0.12-0.12c1.62-0.23,3.28-0.27,4.92-0.09c1.64,0.19,3.25,0.6,4.78,1.2c3.07,1.22,5.81,3.11,8.42,5.03
				c1.31,0.95,2.66,1.82,4.14,2.46c1.45,0.67,3.04,1,4.63,1.18c3.18,0.32,6.54-0.06,9.3-1.75c0.07-0.04,0.16-0.02,0.2,0.05
				c0.03,0.05,0.03,0.12-0.01,0.17L350.14,184.39z"/>
		</g>
		<g>
			<path class="st0" d="M346.39,211.78c-1.09,1.22-2.52,2.01-3.97,2.7c-1.47,0.63-3.03,1.13-4.68,1.34
				c-1.65,0.27-3.38,0.18-5.18-0.19c-0.45-0.09-0.89-0.23-1.34-0.42l-0.66-0.27l-0.56-0.27c-0.74-0.36-1.46-0.75-2.14-1.14
				l-3.69-2.45c-1.14-0.84-2.34-1.51-3.53-2.28c-0.6-0.38-1.23-0.7-1.84-1.07c-0.63-0.37-1.24-0.72-1.88-1.04
				c-0.63-0.36-1.29-0.67-1.95-0.99c-0.33-0.16-0.67-0.31-1.01-0.45c-0.34-0.15-0.68-0.29-1.04-0.35l-0.06-0.01
				c-0.08-0.01-0.13-0.09-0.12-0.16c0.01-0.06,0.06-0.11,0.12-0.12c0.79-0.15,1.54-0.03,2.28,0.07c0.74,0.11,1.48,0.27,2.21,0.45
				c1.46,0.39,2.86,0.91,4.24,1.49c2.78,1.15,5.31,2.81,7.83,4.36c1.26,0.77,2.54,1.52,3.93,1.93c1.39,0.41,2.87,0.55,4.34,0.53
				c1.47-0.03,2.94-0.22,4.38-0.53c1.44-0.31,2.88-0.72,4.18-1.38c0.07-0.04,0.16-0.01,0.2,0.06c0.03,0.06,0.02,0.12-0.02,0.16
				L346.39,211.78z"/>
		</g>
	</g>
	<path class="st6" d="M328.94,321.34H204.79c-2.21,0-4-1.79-4-4V112c0-2.21,1.79-4,4-4h124.15c2.21,0,4,1.79,4,4v205.34
		C332.94,319.55,331.15,321.34,328.94,321.34z"/>
	<path class="st4" d="M291.47,303.96c4.21,0,7.63-3.42,7.63-7.63c0-4.21-3.42-7.63-7.63-7.63h-48.72c-4.21,0-7.63,3.42-7.63,7.63
		c0,4.21,3.42,7.63,7.63,7.63H291.47z"/>
	<circle class="st4" cx="140.62" cy="296.33" r="7.63"/>
	<circle class="st4" cx="188.11" cy="296.24" r="7.63"/>
	<circle class="st4" cx="355.14" cy="296.77" r="7.63"/>
	<g>
		<path class="st10" d="M307.08,153.52h-12.29c-1.66,0-3-1.34-3-3v-12.29c0-1.66,1.34-3,3-3h12.29c1.66,0,3,1.34,3,3v12.29
			C310.08,152.18,308.73,153.52,307.08,153.52z"/>
		<path class="st10" d="M307.08,189.65h-12.29c-1.66,0-3-1.34-3-3v-12.29c0-1.66,1.34-3,3-3h12.29c1.66,0,3,1.34,3,3v12.29
			C310.08,188.3,308.73,189.65,307.08,189.65z"/>
		<path class="st10" d="M307.08,225.77h-12.29c-1.66,0-3-1.34-3-3v-12.29c0-1.66,1.34-3,3-3h12.29c1.66,0,3,1.34,3,3v12.29
			C310.08,224.43,308.73,225.77,307.08,225.77z"/>
	</g>
	<g>
		<path class="st11" d="M376.1,162.94l-9.02-1.12c-1.64-0.2-2.81-1.7-2.61-3.35l1.12-9.02c0.2-1.64,1.7-2.81,3.35-2.61l9.02,1.12
			c1.64,0.2,2.81,1.7,2.61,3.35l-1.12,9.02C379.24,161.98,377.74,163.15,376.1,162.94z"/>
		<path class="st11" d="M372.46,192.14l-9.02-1.12c-1.64-0.2-2.81-1.7-2.61-3.35l1.12-9.02c0.2-1.64,1.7-2.81,3.35-2.61l9.02,1.12
			c1.64,0.2,2.81,1.7,2.61,3.35l-1.12,9.02C375.6,191.18,374.11,192.35,372.46,192.14z"/>
		<path class="st11" d="M368.73,222.09l-9.02-1.12c-1.64-0.2-2.81-1.7-2.61-3.35l1.12-9.02c0.2-1.64,1.7-2.81,3.35-2.61l9.02,1.12
			c1.64,0.2,2.81,1.7,2.61,3.35l-1.12,9.02C371.87,221.13,370.38,222.3,368.73,222.09z"/>
	</g>
	<g>
		<g>
			<path class="st0" d="M218.69,141.5c5.32,1.59,10.56,2.64,15.7,2.59c2.56-0.1,5.11-0.26,7.53-0.91c2.45-0.55,4.8-1.44,7.38-2.46
				c2.59-0.93,5.47-1.9,8.43-2.24c2.96-0.31,5.94-0.31,8.82,0.27c5.77,1.05,10.99,3.72,15.24,7.32l0.02,0.02
				c0.06,0.05,0.07,0.15,0.02,0.21c-0.05,0.06-0.13,0.07-0.19,0.03c-4.76-2.66-9.95-4.64-15.36-5.24c-2.7-0.31-5.44-0.25-8.12,0.17
				c-2.69,0.4-5.27,1.28-7.82,2.26c-2.56,0.96-5.16,1.91-7.88,2.43c-2.71,0.55-5.49,0.66-8.23,0.5c-5.51-0.37-10.85-2.12-15.69-4.69
				c-0.07-0.04-0.1-0.13-0.06-0.2c0.03-0.06,0.11-0.09,0.17-0.07L218.69,141.5z"/>
		</g>
		<g>
			<path class="st0" d="M218.63,175.46c5.32,1.59,10.56,2.64,15.7,2.59c2.56-0.1,5.11-0.26,7.53-0.91c2.45-0.55,4.8-1.44,7.38-2.46
				c2.59-0.93,5.47-1.9,8.43-2.24c2.96-0.31,5.94-0.31,8.82,0.27c5.77,1.05,10.99,3.72,15.24,7.32l0.02,0.02
				c0.06,0.05,0.07,0.15,0.02,0.21c-0.05,0.06-0.13,0.07-0.19,0.03c-4.76-2.66-9.95-4.64-15.36-5.24c-2.7-0.31-5.44-0.25-8.12,0.17
				c-2.69,0.4-5.27,1.28-7.82,2.26c-2.56,0.96-5.16,1.91-7.88,2.43c-2.71,0.55-5.49,0.66-8.23,0.5c-5.51-0.37-10.85-2.12-15.69-4.69
				c-0.07-0.04-0.1-0.13-0.06-0.2c0.03-0.06,0.11-0.09,0.17-0.07L218.63,175.46z"/>
		</g>
		<g>
			<path class="st0" d="M218.63,211.13c5.32,1.59,10.56,2.64,15.7,2.59c2.56-0.1,5.11-0.26,7.53-0.91c2.45-0.55,4.8-1.44,7.38-2.46
				c2.59-0.93,5.47-1.9,8.43-2.24c2.96-0.31,5.94-0.31,8.82,0.27c5.77,1.05,10.99,3.72,15.24,7.32l0.02,0.02
				c0.06,0.05,0.07,0.15,0.02,0.21c-0.05,0.06-0.13,0.07-0.19,0.03c-4.76-2.66-9.95-4.64-15.36-5.24c-2.7-0.31-5.44-0.25-8.12,0.17
				c-2.69,0.4-5.27,1.28-7.82,2.26c-2.56,0.96-5.16,1.91-7.88,2.43c-2.71,0.55-5.49,0.66-8.23,0.5c-5.51-0.37-10.85-2.12-15.69-4.69
				c-0.07-0.04-0.1-0.13-0.06-0.2c0.03-0.06,0.11-0.09,0.17-0.07L218.63,211.13z"/>
		</g>
	</g>
	<circle class="st0" cx="300.93" cy="144.38" r="4.12"/>
	<circle class="st0" cx="300.93" cy="180.96" r="4.12"/>
	<circle class="st0" cx="300.93" cy="216.63" r="4.12"/>
	<g>
		<g>
			<path class="st0" d="M243.79,279.48c15.76-13.22,31.51-26.45,47.27-39.67"/>
			<path class="st0" d="M243.6,279.25c3.63-3.67,7.37-7.22,11.05-10.84l5.59-5.34l5.65-5.27c1.89-1.75,3.7-3.59,5.54-5.4
				c1.85-1.8,3.8-3.47,5.89-4.98c2.08-1.52,4.24-2.95,6.47-4.29c2.25-1.32,4.55-2.57,7.08-3.56l0.39,0.46
				c-1.41,2.32-3.05,4.37-4.74,6.35c-1.7,1.97-3.49,3.85-5.34,5.63c-1.85,1.79-3.84,3.43-5.93,4.94c-2.1,1.5-4.22,2.97-6.28,4.52
				l-6.17,4.65l-6.23,4.58c-4.2,3-8.34,6.06-12.59,9L243.6,279.25z"/>
		</g>
		<g>
			<path class="st0" d="M290.49,278.71c-15.76-13.22-31.51-26.45-47.27-39.67"/>
			<path class="st0" d="M290.3,278.94c-4.25-2.94-8.39-6-12.59-9l-6.23-4.58l-6.17-4.65c-2.05-1.55-4.17-3.03-6.28-4.52
				c-2.09-1.51-4.07-3.14-5.93-4.94c-1.86-1.79-3.64-3.66-5.34-5.63c-1.69-1.99-3.32-4.04-4.74-6.35l0.39-0.46
				c2.53,0.99,4.83,2.25,7.08,3.56c2.24,1.33,4.39,2.77,6.47,4.29c2.09,1.51,4.04,3.18,5.89,4.98c1.84,1.81,3.65,3.64,5.54,5.4
				l5.65,5.27l5.59,5.34c3.68,3.62,7.41,7.16,11.05,10.84L290.3,278.94z"/>
		</g>
	</g>
	<circle class="st0" cx="372.76" cy="155.34" r="3.38"/>
	<circle class="st0" cx="369.05" cy="184.2" r="3.38"/>
	<circle class="st0" cx="365.43" cy="214.14" r="3.38"/>
</g>
<g id="Great_Gatsby">
</g>
<g id="hippity_hop">
	<g id="Layer_33" class="st7">
	</g>
	<g id="Layer_34" class="st24">
	</g>
	<g id="Layer_35">
	</g>
</g>
<g id="Aye_Aye">
</g>
<g id="Lets_Jump">
</g>
<g id="Kangaroo">
</g>
<g id="Ladybug">
</g>
<g id="Like_Mike">
</g>
<g id="Navy">
</g>
<g id="OMG">
</g>
<g id="A_poopy_smell">
</g>
<g id="God_save_the_Queen">
</g>
<g id="Rabbit">
</g>
<g id="SS_SS_SS">
</g>
<g id="Tall">
</g>
<g id="Under_where">
</g>
<g id="Beethoven_x27_s_V">
</g>
<g id="a_WHITE_WHALE">
</g>
<g id="X_marks_the_spot">
</g>
<g id="You_x27_re_a_cool_Dude">
</g>
<g id="Zinc_Zoo_keeper">
</g>
<g id="guides" class="st7">
</g>
</svg>
