<?xml version="1.0" encoding="utf-8"?>
<!-- Generator: Adobe Illustrator 25.2.3, SVG Export Plug-In . SVG Version: 6.00 Build 0)  -->
<svg version="1.1" xmlns="http://www.w3.org/2000/svg" xmlns:xlink="http://www.w3.org/1999/xlink" x="0px" y="0px"
	 viewBox="0 0 500 500" style="enable-background:new 0 0 500 500;" xml:space="preserve">
<style type="text/css">
	.st0{fill:#3FA9F5;}
	.st1{fill:#0071BC;}
	.st2{font-family:'AcuminPro-Semibold';}
	.st3{font-size:40.9114px;}
	.st4{fill:#FFFFFF;}
	.st5{font-family:'AcuminPro-Bold';}
	.st6{fill:#0071BC;stroke:#3FA9F5;stroke-width:3;stroke-miterlimit:10;}
	.st7{display:none;}
	.st8{display:inline;fill:#3FA9F5;}
	.st9{display:inline;fill:none;stroke:#3FA9F5;stroke-width:3;stroke-linecap:round;stroke-miterlimit:10;}
	.st10{fill:none;stroke:#3FA9F5;stroke-width:3;stroke-linecap:round;stroke-miterlimit:10;}
	.st11{fill:none;stroke:#3FA9F5;stroke-width:2.5;stroke-linecap:round;stroke-miterlimit:10;}
	.st12{display:inline;fill:#0071BC;}
	.st13{fill:#00FB20;}
	.st14{display:inline;fill:none;stroke:#0071BC;stroke-width:3;stroke-miterlimit:10;}
	.st15{display:inline;fill:none;stroke:#3FA9F5;stroke-width:3;stroke-miterlimit:10;}
	.st16{display:inline;fill:#3FA9F5;stroke:#0071BC;stroke-width:3;stroke-miterlimit:10;}
	.st17{fill:none;stroke:#0071BC;stroke-width:7;stroke-miterlimit:10;}
	.st18{fill:none;stroke:#0071BC;stroke-width:5;stroke-miterlimit:10;}
	.st19{display:none;fill:none;stroke:#0071BC;stroke-width:3;stroke-miterlimit:10;}
	.st20{display:none;fill:#0071BC;}
	.st21{display:inline;fill:#0071BC;stroke:#3FA9F5;stroke-width:3;stroke-miterlimit:10;}
	.st22{display:inline;}
	.st23{display:inline;fill:#0071BC;stroke:#3FA9F5;stroke-width:2;stroke-miterlimit:10;}
	.st24{opacity:0.6;}
	.st25{fill:#0071BC;stroke:#3FA9F5;stroke-miterlimit:10;}
	.st26{fill:#0071BC;stroke:#3FA9F5;stroke-linecap:round;stroke-miterlimit:10;}
	.st27{fill:none;stroke:#0071BC;stroke-width:12;stroke-linecap:round;stroke-miterlimit:10;}
	.st28{fill:#0071BC;stroke:#3FA9F5;stroke-width:4;stroke-miterlimit:10;}
	.st29{fill:#0071BC;stroke:#3FA9F5;stroke-width:6;stroke-miterlimit:10;}
	.st30{fill:none;stroke:#3FA9F5;stroke-width:3;stroke-miterlimit:10;}
	.st31{display:inline;fill:#FFFFFF;}
	.st32{fill:#0071BC;stroke:#3FA9F5;stroke-width:5;stroke-miterlimit:10;}
	.st33{fill:none;stroke:#3FA9F5;stroke-width:4;stroke-miterlimit:10;}
	.st34{fill:none;stroke:#3FA9F5;stroke-width:5;stroke-miterlimit:10;}
	.st35{fill:#0071BC;stroke:#3FA9F5;stroke-width:2;stroke-miterlimit:10;}
	.st36{display:inline;fill:#0071BC;stroke:#3FA9F5;stroke-linecap:round;stroke-miterlimit:10;}
	.st37{fill:#3FA9F5;stroke:#0071BC;stroke-width:4;stroke-miterlimit:10;}
	.st38{display:none;fill:#3FA9F5;stroke:#0071BC;stroke-width:5;stroke-miterlimit:10;}
	.st39{fill:#3FA9F5;stroke:#0071BC;stroke-width:3;stroke-miterlimit:10;}
	.st40{fill:#0071BC;stroke:#0071BC;stroke-width:3;stroke-miterlimit:10;}
	.st41{fill:none;stroke:#0071BC;stroke-width:22;stroke-miterlimit:10;}
	.st42{display:none;fill:none;stroke:#0071BC;stroke-width:22;stroke-miterlimit:10;}
	.st43{display:inline;fill:none;stroke:#3FA9F5;stroke-width:2;stroke-miterlimit:10;}
	.st44{fill:none;stroke:#3FA9F5;stroke-width:2;stroke-miterlimit:10;}
</style>
<g id="background">
	<rect class="st0" width="500" height="500"/>
</g>
<g id="Text">
	<text transform="matrix(1 0 0 1 44.6299 431.7672)"><tspan x="0" y="0" class="st1 st2 st3">Let’s </tspan><tspan x="100.93" y="0" class="st4 st5 st3">J</tspan><tspan x="117.41" y="0" class="st1 st2 st3">ump Jump Jump</tspan></text>
</g>
<g id="Apart">
</g>
<g id="Be_a_good_boy">
	<g id="Layer_12">
	</g>
</g>
<g id="Charlies_Angels">
	<g id="Faces">
	</g>
</g>
<g id="Dog_did_it">
</g>
<g id="Eek">
</g>
<g id="did_I_Fail_it">
</g>
<g id="Great_Gatsby">
</g>
<g id="hippity_hop">
	<g id="Layer_33" class="st7">
	</g>
	<g id="Layer_34" class="st24">
	</g>
	<g id="Layer_35">
	</g>
</g>
<g id="Aye_Aye">
</g>
<g id="Lets_Jump">
	<g>
		<circle class="st1" cx="409.62" cy="163.04" r="14.44"/>
		<path class="st1" d="M408.6,181.12c3.85,0.98,7.93-0.02,10.88-2.67c6.45-5.78,17.81-16.02,23.14-21.11
			c3.15-3.01,8.04,0.64,6.23,4.46c-0.07,0.15-0.16,0.29-0.26,0.43l-16.37,21.24c-0.37,0.53-1.09,1.63-0.75,2.87
			c0.57,2.06,3.36,7.53,5.95,16.48c2.69,9.28,0.43,16.71-0.29,19.51c-0.23,0.9-0.07,1.85,0.46,2.62c2.72,3.94,9.71,18.03,9.71,26.76
			c0,3.77-0.55,8.56-6.37,8.56c-4.36,0-10.4-4.26-9.26-7.08c1.15-2.83,3.99-2.44,3.95-2.61c-0.68-2.84-5.58-11.55-5.58-11.55h-2.72
			c0,0-8.72,26.07-17.31,29.59c-5.01,2.06-21.19-7.35-26.53-10.51c-4.64-2.74-0.44-7.27,2.42-6.42c2.82,0.83,16.47,6.09,18.08,4.79
			c10.81-8.73,2.88-30.6,1.97-32.73c-1.13-2.64,3.05-7.31,1.22-17.4c-1.09-5.97-2.91-11.81-4.66-14.51
			c-0.36-0.55-0.87-0.99-1.48-1.24l-27.02-11.2c-0.32-0.13-0.63-0.31-0.88-0.54c-2.64-2.39-0.3-7.04,3.41-6.02
			C381.52,174.21,399.12,178.71,408.6,181.12z"/>
	</g>
	<g>
		<circle class="st1" cx="298.04" cy="123.04" r="14.44"/>
		<path class="st1" d="M297.02,141.12c3.85,0.98,7.93-0.02,10.88-2.67c6.45-5.78,17.81-16.02,23.14-21.11
			c3.15-3.01,8.04,0.64,6.23,4.46c-0.07,0.15-0.16,0.29-0.26,0.43l-16.37,21.24c-0.37,0.53-1.09,1.63-0.75,2.87
			c0.57,2.06,3.36,7.53,5.95,16.48c2.69,9.28,0.43,16.71-0.29,19.51c-0.23,0.9-0.07,1.85,0.46,2.62c2.72,3.94,9.71,18.03,9.71,26.76
			c0,3.77-0.55,8.56-6.37,8.56c-4.36,0-10.4-4.26-9.26-7.08c1.15-2.83,3.99-2.44,3.95-2.61c-0.68-2.84-5.58-11.55-5.58-11.55h-2.72
			c0,0-8.72,26.07-17.31,29.59c-5.01,2.06-21.19-7.35-26.53-10.51c-4.64-2.74-0.44-7.27,2.42-6.42c2.82,0.83,16.47,6.09,18.08,4.79
			c10.81-8.73,2.88-30.6,1.97-32.73c-1.13-2.64,3.05-7.31,1.21-17.4c-1.09-5.97-2.91-11.81-4.66-14.51
			c-0.36-0.55-0.87-0.99-1.48-1.24l-27.02-11.2c-0.32-0.13-0.63-0.31-0.88-0.54c-2.64-2.39-0.3-7.04,3.41-6.02
			C269.94,134.21,287.54,138.71,297.02,141.12z"/>
	</g>
	<g>
		<circle class="st1" cx="186.46" cy="163.04" r="14.44"/>
		<path class="st1" d="M185.44,181.12c3.85,0.98,7.93-0.02,10.88-2.67c6.45-5.78,17.81-16.02,23.14-21.11
			c3.15-3.01,8.04,0.64,6.23,4.46c-0.07,0.15-0.16,0.29-0.26,0.43l-16.37,21.24c-0.37,0.53-1.09,1.63-0.75,2.87
			c0.57,2.06,3.36,7.53,5.95,16.48c2.69,9.28,0.43,16.71-0.29,19.51c-0.23,0.9-0.07,1.85,0.46,2.62c2.72,3.94,9.71,18.03,9.71,26.76
			c0,3.77-0.55,8.56-6.37,8.56c-4.36,0-10.4-4.26-9.26-7.08c1.15-2.83,3.99-2.44,3.95-2.61c-0.68-2.84-5.58-11.55-5.58-11.55h-2.72
			c0,0-8.72,26.07-17.31,29.59c-5.01,2.06-21.19-7.35-26.53-10.51c-4.64-2.74-0.44-7.27,2.42-6.42c2.82,0.83,16.47,6.09,18.08,4.79
			c10.81-8.73,2.88-30.6,1.97-32.73c-1.13-2.64,3.05-7.31,1.22-17.4c-1.09-5.97-2.91-11.81-4.66-14.51
			c-0.36-0.55-0.87-0.99-1.48-1.24l-27.02-11.2c-0.32-0.13-0.63-0.31-0.88-0.54c-2.64-2.39-0.3-7.04,3.41-6.02
			C158.36,174.21,175.96,178.71,185.44,181.12z"/>
	</g>
	<g>
		<line class="st27" x1="74" y1="200" x2="74" y2="247.39"/>
		<line class="st27" x1="82.58" y1="205.58" x2="82.58" y2="293"/>
		<line class="st27" x1="93.58" y1="206.06" x2="93.58" y2="293.48"/>
		<line class="st27" x1="97.58" y1="200" x2="97.58" y2="244.39"/>
		<rect x="74" y="194" class="st1" width="24" height="24"/>
		<circle class="st1" cx="82.71" cy="175.35" r="14.44"/>
	</g>
	<path class="st4" d="M227.57,333.49c6.28,0,11.36-5.09,11.36-11.36s-5.09-11.36-11.36-11.36h-72.56c-6.28,0-11.36,5.09-11.36,11.36
		s5.09,11.36,11.36,11.36H227.57z"/>
	<circle class="st4" cx="87.97" cy="322.13" r="11.36"/>
	<path class="st4" d="M339.28,333.04c6.28,0,11.36-5.09,11.36-11.36c0-6.28-5.09-11.36-11.36-11.36h-72.56
		c-6.28,0-11.36,5.09-11.36,11.36c0,6.28,5.09,11.36,11.36,11.36H339.28z"/>
	<path class="st4" d="M450.99,333.04c6.28,0,11.36-5.09,11.36-11.36c0-6.28-5.09-11.36-11.36-11.36h-72.56
		c-6.28,0-11.36,5.09-11.36,11.36c0,6.28,5.09,11.36,11.36,11.36H450.99z"/>
</g>
<g id="Kangaroo">
</g>
<g id="Ladybug">
</g>
<g id="Like_Mike">
</g>
<g id="Navy">
</g>
<g id="OMG">
</g>
<g id="A_poopy_smell">
</g>
<g id="God_save_the_Queen">
</g>
<g id="Rabbit">
</g>
<g id="SS_SS_SS">
</g>
<g id="Tall">
</g>
<g id="Under_where">
</g>
<g id="Beethoven_x27_s_V">
</g>
<g id="a_WHITE_WHALE">
</g>
<g id="X_marks_the_spot">
</g>
<g id="You_x27_re_a_cool_Dude">
</g>
<g id="Zinc_Zoo_keeper">
</g>
<g id="guides" class="st7">
</g>
</svg>
