<?xml version="1.0" encoding="utf-8"?>
<!-- Generator: Adobe Illustrator 25.2.3, SVG Export Plug-In . SVG Version: 6.00 Build 0)  -->
<svg version="1.1" xmlns="http://www.w3.org/2000/svg" xmlns:xlink="http://www.w3.org/1999/xlink" x="0px" y="0px"
	 viewBox="0 0 500 500" style="enable-background:new 0 0 500 500;" xml:space="preserve">
<style type="text/css">
	.st0{fill:#3FA9F5;}
	.st1{fill:#FFFFFF;}
	.st2{font-family:'AcuminPro-Bold';}
	.st3{font-size:40.9114px;}
	.st4{fill:#0071BC;}
	.st5{font-family:'AcuminPro-Semibold';}
	.st6{fill:#0071BC;stroke:#3FA9F5;stroke-width:3;stroke-miterlimit:10;}
	.st7{display:none;}
	.st8{display:inline;fill:#3FA9F5;}
	.st9{display:inline;fill:none;stroke:#3FA9F5;stroke-width:3;stroke-linecap:round;stroke-miterlimit:10;}
	.st10{fill:none;stroke:#3FA9F5;stroke-width:3;stroke-linecap:round;stroke-miterlimit:10;}
	.st11{fill:none;stroke:#3FA9F5;stroke-width:2.5;stroke-linecap:round;stroke-miterlimit:10;}
	.st12{display:inline;fill:#0071BC;}
	.st13{fill:#00FB20;}
	.st14{display:inline;fill:none;stroke:#0071BC;stroke-width:3;stroke-miterlimit:10;}
	.st15{display:inline;fill:none;stroke:#3FA9F5;stroke-width:3;stroke-miterlimit:10;}
	.st16{display:inline;fill:#3FA9F5;stroke:#0071BC;stroke-width:3;stroke-miterlimit:10;}
	.st17{fill:none;stroke:#0071BC;stroke-width:7;stroke-miterlimit:10;}
	.st18{fill:none;stroke:#0071BC;stroke-width:5;stroke-miterlimit:10;}
	.st19{display:none;fill:none;stroke:#0071BC;stroke-width:3;stroke-miterlimit:10;}
	.st20{display:none;fill:#0071BC;}
	.st21{display:inline;fill:#0071BC;stroke:#3FA9F5;stroke-width:3;stroke-miterlimit:10;}
	.st22{display:inline;}
	.st23{display:inline;fill:#0071BC;stroke:#3FA9F5;stroke-width:2;stroke-miterlimit:10;}
	.st24{opacity:0.6;}
	.st25{fill:#0071BC;stroke:#3FA9F5;stroke-miterlimit:10;}
	.st26{fill:#0071BC;stroke:#3FA9F5;stroke-linecap:round;stroke-miterlimit:10;}
	.st27{fill:none;stroke:#0071BC;stroke-width:12;stroke-linecap:round;stroke-miterlimit:10;}
	.st28{fill:#0071BC;stroke:#3FA9F5;stroke-width:4;stroke-miterlimit:10;}
	.st29{fill:#0071BC;stroke:#3FA9F5;stroke-width:6;stroke-miterlimit:10;}
	.st30{fill:none;stroke:#3FA9F5;stroke-width:3;stroke-miterlimit:10;}
	.st31{display:inline;fill:#FFFFFF;}
	.st32{fill:#0071BC;stroke:#3FA9F5;stroke-width:5;stroke-miterlimit:10;}
	.st33{fill:none;stroke:#3FA9F5;stroke-width:4;stroke-miterlimit:10;}
	.st34{fill:none;stroke:#3FA9F5;stroke-width:5;stroke-miterlimit:10;}
	.st35{fill:#0071BC;stroke:#3FA9F5;stroke-width:2;stroke-miterlimit:10;}
	.st36{display:inline;fill:#0071BC;stroke:#3FA9F5;stroke-linecap:round;stroke-miterlimit:10;}
	.st37{fill:#3FA9F5;stroke:#0071BC;stroke-width:4;stroke-miterlimit:10;}
	.st38{display:none;fill:#3FA9F5;stroke:#0071BC;stroke-width:5;stroke-miterlimit:10;}
	.st39{fill:#3FA9F5;stroke:#0071BC;stroke-width:3;stroke-miterlimit:10;}
	.st40{fill:#0071BC;stroke:#0071BC;stroke-width:3;stroke-miterlimit:10;}
	.st41{fill:none;stroke:#0071BC;stroke-width:22;stroke-miterlimit:10;}
	.st42{display:none;fill:none;stroke:#0071BC;stroke-width:22;stroke-miterlimit:10;}
	.st43{display:inline;fill:none;stroke:#3FA9F5;stroke-width:2;stroke-miterlimit:10;}
	.st44{fill:none;stroke:#3FA9F5;stroke-width:2;stroke-miterlimit:10;}
</style>
<g id="background">
	<rect class="st0" width="500" height="500"/>
</g>
<g id="Text">
	<text transform="matrix(1 0 0 1 107.8514 431.7672)"><tspan x="0" y="0" class="st1 st2 st3">C</tspan><tspan x="29.13" y="0" class="st4 st5 st3">harlies Angels</tspan></text>
</g>
<g id="Apart">
</g>
<g id="Be_a_good_boy">
	<g id="Layer_12">
	</g>
</g>
<g id="Charlies_Angels">
	<g>
		<path class="st4" d="M75,114l2.69-0.67c0.82-0.2,1.68,0.03,2.28,0.62c1.27,1.26,3.49,3.47,4.85,4.84
			c0.76,0.76,1.18,1.79,1.18,2.86l0,9.65c0,1.11,0.32,2.2,0.93,3.13c2.67,4.11,13.94,19.53,14.07,19.56l31,2
			c0.16,0.03,2.88-0.88,3-1l4.8-4.8c0.12-0.12,0.17-0.3,0.13-0.47l-2.52-10.09c-0.25-1,0.09-2.06,0.89-2.72l4.54-3.78
			c0.11-0.09,0.17-0.22,0.18-0.35l0.84-14.24c0.1-1.66,0.64-3.27,1.56-4.66l4.69-7.04c1.17-1.76,3.19-2.77,5.3-2.65l8.57,0.48
			c3.75,0.21,7.14,2.31,8.99,5.59l8.19,14.49c1.21,2.15,1.95,4.53,2.15,6.99l1.51,18.09c0.12,1.45,0.4,2.88,0.83,4.27l7.49,24.14
			c0.55,1.76,0.32,3.67-0.63,5.25l-10.38,17.3c-0.08,0.14-0.09,0.3-0.03,0.45l33.88,82.71c0.02,0.04,0.04,0.07,0.06,0.11
			l35.38,48.15c0.24,0.33,0.01,0.8-0.4,0.8h-29.75c-0.16,0-0.32-0.08-0.41-0.21L190,289l-20.74-27.65c-0.15-0.2-0.42-0.26-0.64-0.14
			L149,272l-19.96,11.97c-0.03,0.02-0.06,0.04-0.08,0.06l-12.84,11.85c-0.08,0.07-0.18,0.12-0.29,0.13l-10.04,0.91
			c-0.37,0.03-0.57,0.44-0.38,0.76l2.47,4.12c0.07,0.12,0.09,0.28,0.05,0.41l-10.11,30.44c-0.07,0.2-0.25,0.34-0.47,0.34
			l-31.55,0.42c-0.37,0-0.62-0.38-0.46-0.71l27.6-58.59c0.04-0.08,0.09-0.15,0.16-0.2L120,255l17.78-13.83
			c0.13-0.1,0.21-0.27,0.19-0.44l-0.97-10.67c0-0.04,0-0.08,0-0.12l3.9-25.34c0.05-0.31-0.2-0.59-0.52-0.58l-22.17,0.96
			c-0.14,0.01-0.28-0.05-0.38-0.15L109,196c-0.02-0.03-0.96-1.92-2-3l-5-9c-0.09-0.14-1.58-2.19-2.72-3.86
			c-0.84-1.23-0.97-2.81-0.34-4.16l0.22-0.47c0.8-1.71,3.03-2.13,4.41-0.84c0.75,0.7,1.37,1.29,1.43,1.33l11,10
			c0.08,0.05,6.05,0,6.15,0h17.89c0.4,0,0.64-0.46,0.41-0.79l-6.34-9.06c-0.07-0.1-0.18-0.17-0.3-0.2l-42.62-9.91
			c-0.13-0.03-0.23-0.11-0.31-0.21l-16.72-25.58c-0.1-0.16-0.11-0.36-0.02-0.52l3.65-6.39c0.11-0.2,0.08-0.45-0.09-0.61L69,124
			c-1.51-1.42-6.29-7.06-6.83-9.06l-1.99-7.31c-0.09-0.32,0.15-0.63,0.48-0.63h4.2C67,108,74.92,113.95,75,114z"/>
		<path class="st4" d="M230.13,99.48L233,86c0.05-0.2,0.04-4.8,0-5l-0.89-6.44c-0.07-0.36-0.28-0.68-0.59-0.88l-1.24-0.83
			c-0.69-0.46-1.62-0.22-2,0.51L219,94c-0.49,0.95,0,4,0,4c0.47,0.31,0.11,3.45,0,4l-2.78,11.24c-0.13,0.65-0.7,1.12-1.36,1.12h-0.8
			c-0.77,0-1.39,0.62-1.39,1.39v29.48c0,0.32,0.11,0.63,0.31,0.88l3.52,4.31c0.31,0.37,0.78,0.56,1.26,0.5l19.21-2.62
			c0.97-0.13,1.77,0.76,1.53,1.71l-9.25,37.35c-0.15,0.62-0.71,1.05-1.34,1.05h-6.74c-0.64,0-1.19-0.43-1.34-1.05l-0.51-2.06
			c-0.18-0.72-0.89-1.17-1.62-1.02l-2.65,0.53c-0.62,0.12-1.08,0.65-1.11,1.28l-0.86,15.47c-0.04,0.79,0.59,1.46,1.38,1.46h6.64
			c0.35,0,0.68-0.13,0.94-0.37l1.64-1.5c0.89-0.82,2.32-0.19,2.32,1.02v3.49c0,0.23-0.06,0.46-0.17,0.67l-32.68,59.42
			c-0.1,0.18-0.16,0.38-0.17,0.58l-4.02,65.22c-0.05,0.8,0.58,1.47,1.38,1.47h21.36c0.76,0,1.37-0.61,1.39-1.36l0.84-57.35
			c0-0.29,0.1-0.57,0.27-0.8L227,256l13.48-20.22c0.31-0.47,0.88-0.7,1.44-0.59l17.41,3.67c0.42,0.09,0.78,0.37,0.97,0.76L279,279
			l25.43,53.21c0.23,0.48,0.72,0.79,1.25,0.79h14.33c0.97,0,1.64-0.98,1.29-1.88l-21.25-54.97c-0.04-0.1-0.06-0.2-0.08-0.3
			l-1.93-13.51c-0.03-0.22-0.12-0.43-0.24-0.61l-4.61-6.45c-0.13-0.18-0.21-0.39-0.24-0.61l-2.79-19.52
			c-0.09-0.66,0.3-1.3,0.93-1.51l0.78-0.26c0.65-0.22,1.04-0.87,0.93-1.54l-1.8-10.79c-0.01-0.03-0.01-0.06-0.02-0.08l-2.95-12.8
			c-0.02-0.11-0.06-0.21-0.11-0.31l-3.63-7.27c-0.19-0.37-0.19-0.8-0.03-1.18l3.67-8.26c0.04-0.09,0.07-0.19,0.09-0.29L294,161
			l3.98-20.87c0.02-0.09,0.02-0.17,0.02-0.26v-7.38c0-0.31-0.11-0.62-0.3-0.87l-2.52-3.15c-0.76-0.95-1.83-1.62-3.02-1.88l-6.9-1.53
			c-0.17-0.04-0.33-0.1-0.47-0.2l-1.06-0.7c-0.82-0.55-0.82-1.76,0-2.31l0.77-0.51c0.32-0.21,0.54-0.55,0.6-0.94l2.48-15.72
			c0.28-1.76,0.15-3.56-0.39-5.27l-3.84-12.27c-0.23-0.75-0.63-1.44-1.15-2.03l-4.87-5.48c-1.48-1.66-3.63-2.55-5.85-2.42
			l-10.24,0.6c-2.07,0.12-3.99,1.1-5.3,2.71l-4.82,5.9c-1.36,1.66-2.02,3.78-1.84,5.92l1.64,7.29c0.06,0.25,0.08,0.5,0.08,0.76
			c0,1.73-0.01,8.86-0.01,12.49c0,1.39,0.36,2.76,1.06,3.97c1.07,1.86,2.56,4.47,2.56,4.47c0.2,0.87-0.46,1.69-1.35,1.69h-7.22
			c-1.33,0-2.64,0.38-3.77,1.08l-12.15,7.59c-0.92,0.58-2.12-0.09-2.12-1.17v-14.12c0-0.77-0.62-1.39-1.39-1.39l0,0
			c-0.85,0-1.5-0.76-1.37-1.6l1.66-10.8c0.06-0.38,0.28-0.73,0.6-0.94l2.05-1.36C229.84,100.11,230.05,99.81,230.13,99.48z"/>
		<path class="st4" d="M272.25,332.28l11.73-24.24c0.01-0.03,0.03-0.06,0.05-0.08l20.93-27.91c0.03-0.04,0.05-0.08,0.07-0.12
			l7.79-20.45c0.1-0.27-0.04-0.56-0.31-0.65l-2.11-0.7c-0.23-0.08-0.37-0.31-0.34-0.55l0.94-6.55c0-0.02,0.01-0.05,0.01-0.07v-16.94
			c0-0.02,0-0.03,0-0.05l0.98-9.83c0.01-0.09,0.05-0.18,0.1-0.26l6.8-8.74c0.07-0.09,0.11-0.21,0.1-0.33L318,195.1
			c0-0.07-0.02-0.13-0.05-0.19l-7.94-16.87c-0.01-0.03-0.02-0.05-0.03-0.08l-2.62-9.61c-0.24-0.87-0.24-1.78,0.01-2.65
			c0.77-2.74,2.4-8.92,1.62-9.7c-0.83-0.83-2.35-6.49-2.84-8.38c-0.11-0.41-0.16-0.82-0.16-1.25v-6.65c0-1.13,0.3-2.24,0.87-3.22
			l6.1-10.46c0.02-0.03,0.03-0.06,0.04-0.09l3.74-11.22c0.16-0.48,0.4-0.94,0.72-1.34l5.77-7.42c0.5-0.64,1.14-1.16,1.86-1.53
			l1.86-0.93c0.68-0.34,1.43-0.52,2.18-0.52h6.39c0.03,0,0.06,0,0.08,0.01l3.75,0.63c1.42,0.24,2.72,0.97,3.65,2.08l6.21,7.38
			c0.5,0.6,0.86,1.3,1.05,2.06l1.7,6.82c0.01,0.02,0.01,0.04,0.01,0.07l0.99,8.9c0,0.04,0.02,0.09,0.03,0.13l1.6,4.01
			c0.24,0.61,0.37,1.26,0.37,1.92v5.81v0.74c0,1.37-0.61,2.67-1.67,3.54l-2.06,1.7c-0.16,0.13-0.22,0.35-0.16,0.54l0.84,2.53
			c0.03,0.1,0.09,0.18,0.17,0.24l3.76,2.82c0.07,0.06,0.13,0.13,0.16,0.21l1.85,4.63c0.06,0.15,0.19,0.26,0.34,0.3l3.62,0.9
			c0.09,0.02,0.17,0.07,0.23,0.13l3.8,3.8c0.07,0.07,0.16,0.12,0.26,0.14l4.7,0.94c0.1,0.02,0.19,0.07,0.26,0.14l2.75,2.75
			c0.09,0.09,0.22,0.15,0.35,0.15h1.5c0.18,0,0.35-0.1,0.44-0.26l4.85-8.72c0.01-0.01,0.01-0.03,0.02-0.04l6.9-15.76
			c0.06-0.14,0.06-0.29-0.01-0.42l-2.83-5.66c-0.04-0.09-0.06-0.19-0.05-0.29l0.96-7.71c0.01-0.09,0.05-0.18,0.11-0.25l3.84-4.8
			c0.05-0.06,0.1-0.1,0.17-0.13l1.63-0.81c0.17-0.08,0.28-0.26,0.28-0.45v-6.14c0-0.27,0.22-0.49,0.49-0.5l2.02-0.04
			c0.27-0.01,0.49-0.23,0.49-0.5v-1.33c0-0.38,0.4-0.62,0.73-0.44l4.07,2.15c0.13,0.07,0.22,0.18,0.25,0.32l1.92,7.67
			c0.02,0.08,0.02,0.15,0,0.23L398,143l-0.96,3.82c-0.03,0.12-0.02,0.24,0.04,0.34l1.89,3.79c0.02,0.03,0.03,0.07,0.04,0.1
			l0.95,3.79c0.03,0.1,0.02,0.21-0.02,0.31l-1.92,4.81c-0.01,0.03-0.03,0.06-0.04,0.08l-15.81,24.71c-0.1,0.16-0.28,0.24-0.46,0.23
			L369.06,184c-0.04,0-0.08-0.01-0.12-0.02l-8.28-2.76c-0.32-0.11-0.66,0.13-0.66,0.47v5.17c0,0.09-0.02,0.18-0.07,0.26l-2.56,4.27
			c-0.18,0.3-0.01,0.68,0.33,0.75l4.04,0.81c0.16,0.03,0.33-0.02,0.45-0.14l1.59-1.59c0.13-0.13,0.33-0.18,0.51-0.12l2.67,0.89
			c0.02,0.01,0.04,0.01,0.07,0.02l15.54,2.91c0.25,0.05,0.49-0.1,0.57-0.33l0.77-2.31c0.06-0.17,0.2-0.3,0.38-0.33l4.66-0.93
			c0.04-0.01,0.07-0.02,0.11-0.03L398,187l3.88-1.56c0.08-0.03,0.16-0.04,0.25-0.03l4.43,0.54c0.25,0.03,0.44,0.24,0.44,0.5v3.69
			c0,0.18-0.09,0.34-0.24,0.43l-5.51,3.29c-0.15,0.09-0.24,0.25-0.24,0.43v1.41c0,0.19-0.11,0.36-0.28,0.45l-5.57,2.79
			c-0.1,0.05-0.18,0.13-0.22,0.22l-0.84,1.68c-0.05,0.11-0.15,0.2-0.26,0.24l-9.51,3.8c-0.19,0.08-0.31,0.26-0.31,0.46v2.13
			c0,0.29-0.24,0.52-0.53,0.5L366.04,207c-0.02,0-0.05,0-0.07-0.01l-4.92-0.98c-0.03-0.01-0.07-0.01-0.1-0.01h-4.45
			c-0.28,0-0.5,0.22-0.5,0.5v5.39c0,0.07,0.01,0.14,0.04,0.2L360,221l1.96,4.91c0.02,0.06,0.04,0.12,0.04,0.19v3.67
			c0,0.15-0.07,0.29-0.18,0.38l-5.64,4.7c-0.11,0.09-0.18,0.24-0.18,0.38v1.48c0,0.18,0.1,0.35,0.25,0.43l6.68,3.82
			c0.04,0.02,0.08,0.06,0.12,0.09L379,258l12.9,14.89c0.06,0.07,0.1,0.16,0.12,0.26l1.98,13.83c0,0.02,0,0.03,0,0.05l1,23.97
			l0.19,21.5c0,0.28-0.22,0.5-0.5,0.5h-26.11c-0.27,0-0.49-0.22-0.5-0.49l-1.08-40.2c-0.01-0.19,0.1-0.37,0.28-0.46l3.09-1.55
			c0.31-0.15,0.37-0.56,0.13-0.8l-8.48-8.48c-0.02-0.02-0.04-0.04-0.07-0.06l-22.05-15.52c-0.25-0.17-0.59-0.09-0.73,0.17
			l-28.17,52.35c-0.01,0.01-0.02,0.03-0.02,0.05l-6.06,14.67c-0.08,0.19-0.26,0.31-0.46,0.31H272.7
			C272.33,333,272.09,332.61,272.25,332.28z"/>
	</g>
	<g id="Faces">
		<path class="st0" d="M147,118c2-4,6.89-5.68,8-6c1.7-0.49,4.46-1.28,7,0c2.09,1.05,3,2,5,5c2.24,3.36,2,5,3,9
			c0.18,0.7,0.56,1.58,1,2c0.62,0.59,1.88-0.53,3,0c1.22,0.58,1.82,2.94,1,4c-0.87,1.13-2.67-0.1-4,1c-1.25,1.03,0,3-1,7
			c-0.65,2.6-0.43,3.99-1,5c-1.99,3.55-8,5-9,7c-0.74,1.48-1.22,2.89-2,6c-1,4,0,3-2,9c-0.56,1.69-2,5-2,5s-4-22,12-30
			c0.89-0.45-10.27,4.71-12,3c-1.44-1.42-4.15-5.3-5-7c-1-2-1.11-2.15-2-6c-0.35-1.53-0.62-1.71-1-3
			C145.71,127.99,145.59,120.83,147,118z"/>
		<path class="st0" d="M257,145c2.12,0,2.56-9.67,12-18c3.27-2.89,6.27-4.36,7-8c0.13-0.63,0.92-5.02,1-9c0.01-0.59,0.02-2.04,1-3
			c0.67-0.66,1.29-1.29,2-2c1-1,1-2,1-4c0-1-2-1-2-2c0-2.05,0.29-2.86,0-5c-0.3-2.18-0.69-4.63-2-6c-2.71-2.83-5.87-3.7-7-4
			c-1.69-0.44-4.62-1.22-8,0c-2.83,1.02-6.25,4.54-7,8c-0.12,0.56,0.01,8.63,0,9c-0.08,5.11,1.41,9.41,3,11c1.11,1.11,2.2,2.21,4,3
			c0.68,0.3,1.12,0.53,4,1c1.59,0.26,4.98-0.84,6-2c1.43-1.61,3.51-3.35,4-3c0.24,0.17,0.06,0.79,0,1c-0.41,1.42-1.66,2.12-3,3
			c0,0-1.85,1.21-4,3c-2.47,2.06-2.76,2.94-4,3c-0.54,0.02-1.36-0.32-3-1c-1.96-0.82-2.45-1.23-3-1c0,0-1,2.48-1,3
			C257.93,130.78,256,145,257,145z"/>
		<path class="st0" d="M330,120c0.77-1.56,2.07-1.14,3-3c0.6-1.21,0.23-1.72,1-3c0.7-1.16,1.64-1.77,2-2c0.51-0.32,2.13-1.36,4-1
			c0.32,0.06,1.28,0.29,3,2c1.98,1.98,4.51,4.49,4,7c-0.09,0.45-0.65,2.73-1,4c-0.04,0.15-0.16,0.56,0,1c0.21,0.59,0.77,0.84,1,1
			c1.3,0.9,0.32,4.74,0,6c-0.4,1.59-1.07,4.11-3,7c-1.53,2.3-2.37,3.55-4,4c-1.76,0.48-3.4-0.27-5-1c-1.48-0.68-3.05-1.4-4-3
			c-1.02-1.71-0.09-2.33-1-6c-0.55-2.25-1.02-2.52-1-4c0.03-1.79,0.72-1.9,1-4C330.38,122.18,329.25,121.53,330,120z"/>
		<path class="st0" d="M337,144c-0.85,0.18-0.78,1.14-2,2c-1.04,0.73-2,0.67-2,1c0,0.34,1.03,0.22,2,1c0.78,0.63,2.85,4.02,3,4
			c0.49-0.06,1-2.19,1-4c0-3-0.83-3.76-1-4C337.58,143.41,337.74,143.84,337,144z"/>
	</g>
	<path class="st1" d="M175.16,204c4.61,0,8.34-3.74,8.34-8.34c0-4.61-3.74-8.34-8.34-8.34h-53.27c-4.61,0-8.34,3.74-8.34,8.34
		c0,4.61,3.74,8.34,8.34,8.34H175.16z"/>
	<circle class="st1" cx="221.2" cy="195.66" r="8.34"/>
	<circle class="st1" cx="392.13" cy="195.55" r="8.34"/>
	<path class="st1" d="M321.6,203.73c4.61,0,8.34-3.74,8.34-8.34s-3.74-8.34-8.34-8.34h-53.27c-4.61,0-8.34,3.74-8.34,8.34
		s3.74,8.34,8.34,8.34H321.6z"/>
</g>
<g id="Dog_did_it">
</g>
<g id="Eek">
</g>
<g id="did_I_Fail_it">
</g>
<g id="Great_Gatsby">
</g>
<g id="hippity_hop">
	<g id="Layer_33" class="st7">
	</g>
	<g id="Layer_34" class="st24">
	</g>
	<g id="Layer_35">
	</g>
</g>
<g id="Aye_Aye">
</g>
<g id="Lets_Jump">
</g>
<g id="Kangaroo">
</g>
<g id="Ladybug">
</g>
<g id="Like_Mike">
</g>
<g id="Navy">
</g>
<g id="OMG">
</g>
<g id="A_poopy_smell">
</g>
<g id="God_save_the_Queen">
</g>
<g id="Rabbit">
</g>
<g id="SS_SS_SS">
</g>
<g id="Tall">
</g>
<g id="Under_where">
</g>
<g id="Beethoven_x27_s_V">
</g>
<g id="a_WHITE_WHALE">
</g>
<g id="X_marks_the_spot">
</g>
<g id="You_x27_re_a_cool_Dude">
</g>
<g id="Zinc_Zoo_keeper">
</g>
<g id="guides" class="st7">
</g>
</svg>
