<?xml version="1.0" encoding="utf-8"?>
<!-- Generator: Adobe Illustrator 25.2.3, SVG Export Plug-In . SVG Version: 6.00 Build 0)  -->
<svg version="1.1" xmlns="http://www.w3.org/2000/svg" xmlns:xlink="http://www.w3.org/1999/xlink" x="0px" y="0px"
	 viewBox="0 0 500 500" style="enable-background:new 0 0 500 500;" xml:space="preserve">
<style type="text/css">
	.st0{fill:#3FA9F5;}
	.st1{fill:#FFFFFF;}
	.st2{font-family:'AcuminPro-Bold';}
	.st3{font-size:40.9114px;}
	.st4{fill:#0071BC;}
	.st5{font-family:'AcuminPro-Semibold';}
	.st6{fill:#0071BC;stroke:#3FA9F5;stroke-width:3;stroke-miterlimit:10;}
	.st7{display:none;}
	.st8{display:inline;fill:#3FA9F5;}
	.st9{display:inline;fill:none;stroke:#3FA9F5;stroke-width:3;stroke-linecap:round;stroke-miterlimit:10;}
	.st10{fill:none;stroke:#3FA9F5;stroke-width:3;stroke-linecap:round;stroke-miterlimit:10;}
	.st11{fill:none;stroke:#3FA9F5;stroke-width:2.5;stroke-linecap:round;stroke-miterlimit:10;}
	.st12{display:inline;fill:#0071BC;}
	.st13{fill:#00FB20;}
	.st14{display:inline;fill:none;stroke:#0071BC;stroke-width:3;stroke-miterlimit:10;}
	.st15{display:inline;fill:none;stroke:#3FA9F5;stroke-width:3;stroke-miterlimit:10;}
	.st16{display:inline;fill:#3FA9F5;stroke:#0071BC;stroke-width:3;stroke-miterlimit:10;}
	.st17{fill:none;stroke:#0071BC;stroke-width:7;stroke-miterlimit:10;}
	.st18{fill:none;stroke:#0071BC;stroke-width:5;stroke-miterlimit:10;}
	.st19{display:none;fill:none;stroke:#0071BC;stroke-width:3;stroke-miterlimit:10;}
	.st20{display:none;fill:#0071BC;}
	.st21{display:inline;fill:#0071BC;stroke:#3FA9F5;stroke-width:3;stroke-miterlimit:10;}
	.st22{display:inline;}
	.st23{display:inline;fill:#0071BC;stroke:#3FA9F5;stroke-width:2;stroke-miterlimit:10;}
	.st24{opacity:0.6;}
	.st25{fill:#0071BC;stroke:#3FA9F5;stroke-miterlimit:10;}
	.st26{fill:#0071BC;stroke:#3FA9F5;stroke-linecap:round;stroke-miterlimit:10;}
	.st27{fill:none;stroke:#0071BC;stroke-width:12;stroke-linecap:round;stroke-miterlimit:10;}
	.st28{fill:#0071BC;stroke:#3FA9F5;stroke-width:4;stroke-miterlimit:10;}
	.st29{fill:#0071BC;stroke:#3FA9F5;stroke-width:6;stroke-miterlimit:10;}
	.st30{fill:none;stroke:#3FA9F5;stroke-width:3;stroke-miterlimit:10;}
	.st31{display:inline;fill:#FFFFFF;}
	.st32{fill:#0071BC;stroke:#3FA9F5;stroke-width:5;stroke-miterlimit:10;}
	.st33{fill:none;stroke:#3FA9F5;stroke-width:4;stroke-miterlimit:10;}
	.st34{fill:none;stroke:#3FA9F5;stroke-width:5;stroke-miterlimit:10;}
	.st35{fill:#0071BC;stroke:#3FA9F5;stroke-width:2;stroke-miterlimit:10;}
	.st36{display:inline;fill:#0071BC;stroke:#3FA9F5;stroke-linecap:round;stroke-miterlimit:10;}
	.st37{fill:#3FA9F5;stroke:#0071BC;stroke-width:4;stroke-miterlimit:10;}
	.st38{display:none;fill:#3FA9F5;stroke:#0071BC;stroke-width:5;stroke-miterlimit:10;}
	.st39{fill:#3FA9F5;stroke:#0071BC;stroke-width:3;stroke-miterlimit:10;}
	.st40{fill:#0071BC;stroke:#0071BC;stroke-width:3;stroke-miterlimit:10;}
	.st41{fill:none;stroke:#0071BC;stroke-width:22;stroke-miterlimit:10;}
	.st42{display:none;fill:none;stroke:#0071BC;stroke-width:22;stroke-miterlimit:10;}
	.st43{display:inline;fill:none;stroke:#3FA9F5;stroke-width:2;stroke-miterlimit:10;}
	.st44{fill:none;stroke:#3FA9F5;stroke-width:2;stroke-miterlimit:10;}
</style>
<g id="background">
	<rect class="st0" width="500" height="500"/>
</g>
<g id="Text">
	<text transform="matrix(1 0 0 1 78.8115 431.7672)"><tspan x="0" y="0" class="st1 st2 st3">Y</tspan><tspan x="25.32" y="0" class="st4 st5 st3">ou’re a cool dude</tspan></text>
</g>
<g id="Apart">
</g>
<g id="Be_a_good_boy">
	<g id="Layer_12">
	</g>
</g>
<g id="Charlies_Angels">
	<g id="Faces">
	</g>
</g>
<g id="Dog_did_it">
</g>
<g id="Eek">
</g>
<g id="did_I_Fail_it">
</g>
<g id="Great_Gatsby">
</g>
<g id="hippity_hop">
	<g id="Layer_33" class="st7">
	</g>
	<g id="Layer_34" class="st24">
	</g>
	<g id="Layer_35">
	</g>
</g>
<g id="Aye_Aye">
</g>
<g id="Lets_Jump">
</g>
<g id="Kangaroo">
</g>
<g id="Ladybug">
</g>
<g id="Like_Mike">
</g>
<g id="Navy">
</g>
<g id="OMG">
</g>
<g id="A_poopy_smell">
</g>
<g id="God_save_the_Queen">
</g>
<g id="Rabbit">
</g>
<g id="SS_SS_SS">
</g>
<g id="Tall">
</g>
<g id="Under_where">
</g>
<g id="Beethoven_x27_s_V">
</g>
<g id="a_WHITE_WHALE">
</g>
<g id="X_marks_the_spot">
</g>
<g id="You_x27_re_a_cool_Dude">
	<g>
		<circle class="st4" cx="334.5" cy="225.5" r="96.5"/>
		<path class="st0" d="M340,196c2.56,1.28-9.21-6.26,44.39-8.2c19.32-0.7,33,1,41,3l6,16c-5,1-15.17,10.93-20,19
			c-6.01,10.05-51.17,15.51-60,6C346,226,344.61,218.2,341,209c-1.2-3.05-3-5-6-5s-6,2-7,5c-2.97,8.92-4,17-10,23
			c-9.18,9.18-53.99,4.05-60-6c-4.83-8.07-15-18-20-19l6-16c8-2,21.68-3.7,41-3c53.59,1.94,42.28,8.91,45,8C333,195,338,195,340,196
			z"/>
		<g>
			<path class="st0" d="M287,265c1.74,1.45,3.51,2.8,5.3,4.1c1.83,1.26,3.63,2.51,5.51,3.62c3.73,2.27,7.58,4.25,11.54,5.88
				c3.98,1.58,8.04,2.8,12.15,3.69l3.11,0.51l1.55,0.26l1.57,0.12l3.13,0.29l3.15,0.01c2.1,0.13,4.19-0.17,6.29-0.26
				c1.04-0.11,2.08-0.28,3.12-0.41c0.52-0.08,1.04-0.13,1.56-0.22l1.54-0.32c1.03-0.23,2.08-0.37,3.09-0.67l3.06-0.83
				c2-0.67,4.04-1.3,6-2.14c3.96-1.6,7.81-3.57,11.53-5.86c0.94-0.56,1.86-1.15,2.77-1.77c0.93-0.59,1.81-1.25,2.73-1.88
				c1.79-1.3,3.55-2.67,5.28-4.12c-2.31,3.9-5.34,7.38-8.69,10.51c-3.37,3.12-7.16,5.84-11.24,8.09c-4.08,2.26-8.47,4.03-13.05,5.15
				l-1.71,0.45c-0.58,0.13-1.16,0.21-1.74,0.32c-1.16,0.2-2.32,0.42-3.49,0.59l-3.53,0.28c-0.59,0.03-1.18,0.12-1.77,0.11
				l-1.77-0.01l-3.54-0.07l-3.52-0.38l-1.76-0.21l-1.74-0.35c-1.15-0.24-2.31-0.46-3.46-0.74c-4.55-1.25-8.93-2.97-13.03-5.2
				c-4.07-2.27-7.84-4.99-11.23-8.09C292.39,272.34,289.34,268.88,287,265z"/>
		</g>
		<path class="st4" d="M258,198c3.52-3.94,6.5-5.82,34-5c16.76,0.5,24.32,2.9,28,7c4.92,5.49,2.56,12.28-1,19
			c-3.09,5.84-5.09,8.68-8,10c-11,5-31,3-45-3C255.59,221.54,252.07,204.65,258,198z"/>
		<path class="st4" d="M411.14,198.01c-3.52-3.94-6.5-5.82-34-5c-16.76,0.5-24.32,2.9-28,7c-4.92,5.49-2.56,12.28,1,19
			c3.09,5.84,5.09,8.68,8,10c11,5,31,3,45-3C413.55,221.55,417.07,204.65,411.14,198.01z"/>
	</g>
	<path class="st4" d="M6.92,179c0,0,3.95,0.68,9.4,0c0,0,5.1,0.19,8.81-2.35c5.58-3.82,8.12-8.64,13.81-13.22
		c6.82-5.5,17.26-10.71,25.56-10.28c1.05,0.05,4,0.29,7.93-0.29c3.68-0.55,6.01-0.89,8.23-2.35c3.92-2.57,3.04-5.64,8.23-12.34
		c2.37-3.06,3.62-4.62,5.88-5.29c4.91-1.45,9.73,2.71,9.99,2.94c5.14,4.56,5.62,12.92,3.53,18.81c-2.96,8.32-10.64,10.58-9.99,12.34
		c0,0,69.93,0,82.27,0c2.33,0,9.99,3.53,9.99,11.75c0,5.88-4.7,11.17-9.4,11.17c-4.85,0-51.13,0-51.13,0s5.33,2.35,4.7,10.58
		c-0.59,7.64-8.81,9.99-8.81,9.99s4.7,1.76,4.7,11.17s-12.93,9.99-12.93,9.99s5.29,2.35,4.11,11.17c-0.54,4.08-3.96,9.4-15.87,9.4
		c-5.88,0-38.79,0.59-47.01,0c-7.68-0.55-13.5-3.11-20.57-7.05c-5.52-3.08-6.38-5.36-11.17-6.46c-7.64-1.76-19.98-1.18-19.98-1.18
		L6.92,179z"/>
	<rect x="5" y="109" class="st0" width="30" height="158"/>
	<g>
		<path class="st1" d="M168.7,186.07c4.39,0,7.95-3.56,7.95-7.95c0-4.39-3.56-7.95-7.95-7.95h-50.75c-4.39,0-7.95,3.56-7.95,7.95
			c0,4.39,3.56,7.95,7.95,7.95H168.7z"/>
		<path class="st1" d="M314.05,186.3c4.39,0,7.95-3.56,7.95-7.95c0-4.39-3.56-7.95-7.95-7.95H263.3c-4.39,0-7.95,3.56-7.95,7.95
			c0,4.39,3.56,7.95,7.95,7.95H314.05z"/>
		<circle class="st1" cx="209" cy="178" r="8"/>
		<path class="st1" d="M405.41,186.24c4.39,0,7.95-3.56,7.95-7.95c0-4.39-3.56-7.95-7.95-7.95h-50.75c-4.39,0-7.95,3.56-7.95,7.95
			c0,4.39,3.56,7.95,7.95,7.95H405.41z"/>
	</g>
</g>
<g id="Zinc_Zoo_keeper">
</g>
<g id="guides" class="st7">
</g>
</svg>
