<?xml version="1.0" encoding="utf-8"?>
<!-- Generator: Adobe Illustrator 25.2.3, SVG Export Plug-In . SVG Version: 6.00 Build 0)  -->
<svg version="1.1" xmlns="http://www.w3.org/2000/svg" xmlns:xlink="http://www.w3.org/1999/xlink" x="0px" y="0px"
	 viewBox="0 0 500 500" style="enable-background:new 0 0 500 500;" xml:space="preserve">
<style type="text/css">
	.st0{fill:#3FA9F5;}
	.st1{fill:#FFFFFF;}
	.st2{font-family:'AcuminPro-Bold';}
	.st3{font-size:40.9114px;}
	.st4{fill:#0071BC;}
	.st5{font-family:'AcuminPro-Semibold';}
	.st6{fill:#0071BC;stroke:#3FA9F5;stroke-width:3;stroke-miterlimit:10;}
	.st7{display:none;}
	.st8{display:inline;fill:#3FA9F5;}
	.st9{display:inline;fill:none;stroke:#3FA9F5;stroke-width:3;stroke-linecap:round;stroke-miterlimit:10;}
	.st10{fill:none;stroke:#3FA9F5;stroke-width:3;stroke-linecap:round;stroke-miterlimit:10;}
	.st11{fill:none;stroke:#3FA9F5;stroke-width:2.5;stroke-linecap:round;stroke-miterlimit:10;}
	.st12{display:inline;fill:#0071BC;}
	.st13{fill:#00FB20;}
	.st14{display:inline;fill:none;stroke:#0071BC;stroke-width:3;stroke-miterlimit:10;}
	.st15{display:inline;fill:none;stroke:#3FA9F5;stroke-width:3;stroke-miterlimit:10;}
	.st16{display:inline;fill:#3FA9F5;stroke:#0071BC;stroke-width:3;stroke-miterlimit:10;}
	.st17{fill:none;stroke:#0071BC;stroke-width:7;stroke-miterlimit:10;}
	.st18{fill:none;stroke:#0071BC;stroke-width:5;stroke-miterlimit:10;}
	.st19{display:none;fill:none;stroke:#0071BC;stroke-width:3;stroke-miterlimit:10;}
	.st20{display:none;fill:#0071BC;}
	.st21{display:inline;fill:#0071BC;stroke:#3FA9F5;stroke-width:3;stroke-miterlimit:10;}
	.st22{display:inline;}
	.st23{display:inline;fill:#0071BC;stroke:#3FA9F5;stroke-width:2;stroke-miterlimit:10;}
	.st24{opacity:0.6;}
	.st25{fill:#0071BC;stroke:#3FA9F5;stroke-miterlimit:10;}
	.st26{fill:#0071BC;stroke:#3FA9F5;stroke-linecap:round;stroke-miterlimit:10;}
	.st27{fill:none;stroke:#0071BC;stroke-width:12;stroke-linecap:round;stroke-miterlimit:10;}
	.st28{fill:#0071BC;stroke:#3FA9F5;stroke-width:4;stroke-miterlimit:10;}
	.st29{fill:#0071BC;stroke:#3FA9F5;stroke-width:6;stroke-miterlimit:10;}
	.st30{fill:none;stroke:#3FA9F5;stroke-width:3;stroke-miterlimit:10;}
	.st31{display:inline;fill:#FFFFFF;}
	.st32{fill:#0071BC;stroke:#3FA9F5;stroke-width:5;stroke-miterlimit:10;}
	.st33{fill:none;stroke:#3FA9F5;stroke-width:4;stroke-miterlimit:10;}
	.st34{fill:none;stroke:#3FA9F5;stroke-width:5;stroke-miterlimit:10;}
	.st35{fill:#0071BC;stroke:#3FA9F5;stroke-width:2;stroke-miterlimit:10;}
	.st36{display:inline;fill:#0071BC;stroke:#3FA9F5;stroke-linecap:round;stroke-miterlimit:10;}
	.st37{fill:#3FA9F5;stroke:#0071BC;stroke-width:4;stroke-miterlimit:10;}
	.st38{display:none;fill:#3FA9F5;stroke:#0071BC;stroke-width:5;stroke-miterlimit:10;}
	.st39{fill:#3FA9F5;stroke:#0071BC;stroke-width:3;stroke-miterlimit:10;}
	.st40{fill:#0071BC;stroke:#0071BC;stroke-width:3;stroke-miterlimit:10;}
	.st41{fill:none;stroke:#0071BC;stroke-width:22;stroke-miterlimit:10;}
	.st42{display:none;fill:none;stroke:#0071BC;stroke-width:22;stroke-miterlimit:10;}
	.st43{display:inline;fill:none;stroke:#3FA9F5;stroke-width:2;stroke-miterlimit:10;}
	.st44{fill:none;stroke:#3FA9F5;stroke-width:2;stroke-miterlimit:10;}
</style>
<g id="background">
	<rect class="st0" width="500" height="500"/>
</g>
<g id="Text">
	<text transform="matrix(1 0 0 1 151.8115 431.7672)"><tspan x="0" y="0" class="st1 st2 st3">K</tspan><tspan x="27.66" y="0" class="st4 st5 st3">angaroo</tspan></text>
</g>
<g id="Apart">
</g>
<g id="Be_a_good_boy">
	<g id="Layer_12">
	</g>
</g>
<g id="Charlies_Angels">
	<g id="Faces">
	</g>
</g>
<g id="Dog_did_it">
</g>
<g id="Eek">
</g>
<g id="did_I_Fail_it">
</g>
<g id="Great_Gatsby">
</g>
<g id="hippity_hop">
	<g id="Layer_33" class="st7">
	</g>
	<g id="Layer_34" class="st24">
	</g>
	<g id="Layer_35">
	</g>
</g>
<g id="Aye_Aye">
</g>
<g id="Lets_Jump">
</g>
<g id="Kangaroo">
	<path class="st4" d="M340.92,205.25c5.94-0.82,13.5,2.98,14.99,12.38c1.18,7.4-1.91,12.37,0.04,19.08c0.62,2.12,3.24,7.94,7.5,8.82
		c4.54,0.94,9.54-2.04,9.54-4.09c0-6.45-5.42-4.01-9.59-8.82c-1.41-1.63,3.23-8.49,3.32-14.31c0.28-17.4-18.02-30.24-18.02-30.24
		L340.92,205.25z"/>
	<g>
		<path class="st4" d="M264.37,317.5c-2.72,0-5.48-0.35-7.3-2.88c-2.14-2.98-1.09-6.05,0.37-10.29c1.35-3.91,3.19-9.27,3.5-17.23
			c0.29-7.24,0.68-17.16-5.27-22.04c-2.53-2.07-7.67-3.36-13.42-3.36c-4.94,0-9.53,0.99-12.28,2.66c-7.33,4.43-8.46,13-9.66,22.06
			c-1.21,9.14-2.46,18.6-10.5,23.84l-0.51,0.33c-3.88,2.54-4.81,3.02-11.13,3.02c-1.25,0-2.73-0.02-4.51-0.04
			c-2.68-0.03-6.06-0.07-10.38-0.07l-2.3,0c-3.7,0.01-8.2,0.1-13.42,0.2c-6.92,0.14-14.77,0.29-22.52,0.29c0,0,0,0,0,0
			c-24.77,0-37.36-1.65-40.83-5.36c-0.81-0.86-1.2-1.89-1.13-2.96c0.26-4.04,4.71-4.32,12.09-4.8c2.67-0.17,5.7-0.37,9.18-0.75
			c11.56-1.27,17.86-1.69,22.93-2.02c4.59-0.3,8.22-0.54,13.91-1.29c18.78-2.47,26.05-4.11,33.96-12.81
			c6.56-7.21,8.91-17.16,10.09-42.6c1.91-41.32,3.02-59.97,9.42-68.92c16.51-23.12,56.83-23.87,58.54-23.89
			c0.37,0,0.73-0.01,1.09-0.01c7.98,0,14.4,1.1,20.05,2.07c4.72,0.81,9.17,1.58,13.82,1.58c2.57,0,5.03-0.23,7.54-0.7
			c19.84-3.74,35.09-22.59,33.29-41.17c-0.13-1.34-0.94-3.62-1.88-6.24c-2.45-6.86-5.81-16.25-2.09-22.88
			c2.1-3.75,5.3-5.52,7.86-6.94c2.24-1.24,3.51-2.01,3.58-3.21c0.11-2.01-3.25-3.73-7.13-5.73c-5.55-2.85-12.45-6.4-15.2-13.59
			c-2.37-6.22-1.03-13.48,1.22-17.6c1.34-2.46,3.02-3.96,4.86-4.34c0.31-0.06,0.63-0.1,0.95-0.1c5.67,0,11.54,10.07,17.76,20.74
			c3.32,5.69,8.33,14.3,10.2,14.3c0.2-0.26,0.33-1.8,0.43-2.93c0.26-2.98,0.66-7.48,3.85-11.53c4.23-5.38,11.63-7.83,16.72-7.83
			c2.88,0,4.85,0.75,5.69,2.18c1.62,2.74-1.54,6.08-5.53,10.31c-4.02,4.26-9.03,9.57-7.65,13.18c0.81,2.12,3.62,3.07,6.89,4.17
			c4.33,1.46,9.25,3.12,11.37,8.25c1.03,2.48,0.76,4.31,0.54,5.78c-0.18,1.22-0.32,2.1,0.26,3.28c2.27,4.67,11.39,4.85,18.72,5
			c6.93,0.14,11.93,0.24,12.94,3.52c0.34,1.11,0.1,2.39-0.71,3.81c-2.32,4.05-9.62,9.42-17.82,11.38c-2.28,0.55-4.54,0.81-6.92,0.81
			c-2.38,0-4.5-0.26-6.55-0.51c-1.78-0.22-3.45-0.42-5.09-0.42c-2.57,0-4.68,0.51-6.84,1.65c-4.21,2.22-6.32,5.71-8.55,9.42
			c-4.38,7.26-4.6,12.82-4.82,18.71c-0.2,5.23-0.41,10.63-3.39,17.5c-4.73,10.89-3.69,15.67-3.38,16.65
			c2.31,2.16,17.65,17.3,17.32,37.75c-0.04,2.3-0.34,4.44-0.61,6.33c-0.57,4.03-1.02,7.22,1.15,10.21c2.26,3.12,5.99,4.24,8.99,5.14
			c2.72,0.82,5.29,1.59,5.42,3.97c0.05,1.01-0.41,2.07-1.35,3.06c-2.08,2.19-6.02,3.72-9.6,3.72c-0.85,0-1.69-0.08-2.48-0.25
			c-5.98-1.23-8.91-6.73-10.16-9.07c-2.99-5.62-2.73-10.06-2.46-14.77c0.16-2.78,0.33-5.65-0.19-8.96
			c-1.54-9.64-8.57-13.96-14.85-13.96c-0.36,0-0.72,0.01-1.07,0.04c-0.21,0.37-0.51,0.92-0.82,1.49
			c-11.73,21.37-23.94,36.52-36.27,45.03c-9.14,6.3-18.64,7.35-27.03,8.28c-8.48,0.94-15.18,1.68-18.17,7.76
			c-0.78,1.59-0.76,2.37-0.69,4.93c0.08,2.92,0.21,7.8-0.82,17.82c-0.28,2.74-0.56,5-0.81,6.99c-0.82,6.64-0.99,8.62,0.4,10.1
			c1.1,1.17,2.88,1.73,5.42,1.73c4.14,0,9.5-1.51,14.69-2.98c8.03-2.26,12.41-4.63,15.93-6.52c3.6-1.94,6.44-3.47,11.05-3.5l0.15,0
			c11.91,0,22.34,9.52,26.11,15.52c1.35,2.15,2.75,5.18,1.68,7.4c-0.92,1.91-3.11,1.91-4.16,1.91c-1.15,0-2.59-0.12-4.59-0.28
			c-3.71-0.31-9.32-0.77-17.52-0.77c-3.24,0-6.47-0.04-9.71-0.08c-3.23-0.04-6.45-0.08-9.68-0.08c-3.61,0-6.76,0.05-9.64,0.15
			c-9.43,0.33-16.5,1.05-21.66,1.58C269.55,317.2,266.63,317.5,264.37,317.5z"/>
		<path class="st0" d="M341.18,31.22c8.79,0,21.94,35.04,27.96,35.04c0.16,0,0.32-0.03,0.47-0.08c2.61-0.9-0.11-8.48,4.98-14.95
			c3.95-5.02,10.93-7.26,15.54-7.26c2.18,0,3.84,0.5,4.39,1.44c2.4,4.07-16.31,15.31-13.29,23.26c2.29,6.04,14.81,4.12,18.28,12.46
			c1.7,4.09-0.76,5.87,0.83,9.14c4.66,9.57,29.96,3.05,31.57,8.31c1.01,3.31-7.49,10.91-17.45,13.29c-2.4,0.57-4.56,0.77-6.57,0.77
			c-4.38,0-8.01-0.93-11.64-0.93c-2.44,0-4.88,0.42-7.54,1.82c-4.58,2.41-6.84,6.16-9.14,9.97c-8.46,14.03-2.06,21.98-8.31,36.38
			C365.45,173.3,368,178,368,178s17.43,15.65,17.09,36.85c-0.11,7.1-2.84,12.39,0.83,17.45c4.56,6.28,13.96,5.27,14.12,8.31
			c0.11,2.17-4.58,5.2-9.45,5.2c-0.73,0-1.46-0.07-2.18-0.22c-5.19-1.07-7.88-5.94-9.14-8.31c-4.54-8.52-1.06-14.24-2.49-23.26
			c-1.66-10.46-9.48-15.22-16.33-15.22c-0.66,0-1.31,0.04-1.94,0.13c-0.5,0.07-15.38,31.73-37.08,46.69
			c-18.37,12.67-39.24,3.47-45.69,16.62c-1.97,4.02,0.3,4.23-1.66,23.26c-1.23,12-2.52,15.62,0,18.28c1.51,1.6,3.79,2.2,6.51,2.2
			c4.34,0,9.82-1.54,15.09-3.03c16.56-4.67,18.2-9.91,26.58-9.97c0.05,0,0.09,0,0.14,0c14.8,0,28.63,16.21,26.44,20.77
			c-0.38,0.79-1.2,1.06-2.81,1.06c-3.23,0-9.64-1.06-22.11-1.06c-6.46,0-12.93-0.15-19.39-0.15c-3.23,0-6.46,0.04-9.69,0.15
			c-16.17,0.57-25.19,2.26-30.47,2.26c-3.07,0-4.87-0.57-6.08-2.26c-3.38-4.7,3.51-10.22,4.15-26.58c0.3-7.53,0.71-17.91-5.82-23.26
			c-2.98-2.45-8.67-3.7-14.37-3.7c-4.93,0-9.87,0.94-13.06,2.87c-15.71,9.5-5.1,36.08-20.2,45.93c-4.08,2.66-4.47,3.1-10.81,3.1
			c-3.13,0-7.7-0.11-14.88-0.11c-0.74,0-1.51,0-2.31,0c-8.73,0.03-22.49,0.5-35.93,0.5c-20.78,0-40.83-1.12-40.47-6.72
			c0.25-3.79,7.4-2.77,19.94-4.15c21.98-2.42,24.8-1.73,36.88-3.32c18.65-2.46,26.57-4.16,34.88-13.29
			c6.82-7.5,9.27-17.32,10.48-43.54c1.82-39.43,2.86-59.33,9.14-68.12c15.97-22.36,55.56-23.24,57.34-23.26
			c0.36,0,0.72-0.01,1.07-0.01c14.51,0,23.47,3.65,33.87,3.65c2.49,0,5.06-0.21,7.82-0.73c20.95-3.95,36.37-23.51,34.5-42.79
			c-0.5-5.21-8.96-19.7-4.15-28.25c3.71-6.6,11.4-6.53,11.63-10.8c0.36-6.57-17.78-7.75-22.43-19.94
			c-3.09-8.1,0.54-19.01,4.98-19.94C340.75,31.24,340.96,31.22,341.18,31.22 M341.18,28.22L341.18,28.22L341.18,28.22
			c-0.43,0-0.85,0.04-1.26,0.13c-2.28,0.48-4.31,2.24-5.87,5.09c-2.41,4.41-3.85,12.19-1.3,18.85c2.95,7.73,10.14,11.42,15.92,14.39
			c2.38,1.23,6.38,3.28,6.32,4.31c-0.02,0.43-1.7,1.36-2.81,1.98c-2.59,1.44-6.13,3.4-8.44,7.52c-4.06,7.23-0.57,16.99,1.98,24.12
			c0.87,2.43,1.69,4.73,1.8,5.89c1.73,17.84-12.96,35.95-32.07,39.55c-2.41,0.45-4.79,0.68-7.26,0.68c-4.51,0-8.71-0.72-13.56-1.55
			c-5.72-0.98-12.19-2.09-20.31-2.09c-0.37,0-0.73,0-1.11,0.01c-1.74,0.02-42.8,0.8-59.74,24.52c-6.64,9.3-7.77,28.1-9.69,69.73
			c-1.16,25.02-3.42,34.75-9.7,41.66c-7.57,8.33-14.68,9.92-33.05,12.34c-5.65,0.74-9.25,0.98-13.81,1.28
			c-5.08,0.34-11.41,0.76-23,2.03c-3.45,0.38-6.46,0.57-9.12,0.74c-3.51,0.23-6.28,0.4-8.35,0.93c-4.03,1.02-5.02,3.43-5.14,5.27
			c-0.1,1.5,0.43,2.91,1.53,4.09c3.88,4.14,16.03,5.83,41.93,5.83c7.76,0,15.62-0.16,22.55-0.29c5.21-0.1,9.71-0.19,13.4-0.2
			c0.79,0,1.56,0,2.3,0c4.31,0,7.66,0.04,10.35,0.07c1.79,0.02,3.27,0.04,4.52,0.04c6.71,0,7.92-0.62,11.95-3.26l0.5-0.33
			c8.62-5.62,9.91-15.42,11.16-24.9c1.15-8.7,2.23-16.91,8.95-20.98c2.53-1.53,6.83-2.44,11.51-2.44c5.34,0,10.23,1.19,12.47,3.02
			c5.37,4.41,4.99,13.9,4.72,20.82c-0.31,7.74-2.11,12.98-3.42,16.8c-1.48,4.31-2.76,8.04-0.17,11.65c2.22,3.09,5.55,3.51,8.52,3.51
			c2.34,0,5.29-0.3,9.02-0.68c5.14-0.53,12.18-1.24,21.56-1.58c2.86-0.1,6-0.15,9.58-0.15c3.21,0,6.49,0.04,9.66,0.08
			c3.19,0.04,6.48,0.08,9.73,0.08c8.14,0,13.71,0.46,17.4,0.77c2.03,0.17,3.5,0.29,4.71,0.29c1.15,0,4.19,0,5.52-2.76
			c1.09-2.28,0.5-5.25-1.76-8.85c-4.95-7.86-16.23-16.22-27.38-16.22l-0.16,0c-4.99,0.03-7.97,1.64-11.75,3.68
			c-3.46,1.86-7.76,4.18-15.63,6.4c-5.09,1.44-10.35,2.92-14.28,2.92c-2.08,0-3.53-0.43-4.33-1.26c-0.92-0.98-0.72-3.05,0-8.88
			c0.25-2,0.53-4.27,0.81-7.02c1.04-10.11,0.91-15.06,0.83-18.01c-0.07-2.64-0.06-3.02,0.54-4.24c2.5-5.1,7.81-5.92,16.99-6.93
			c8.14-0.9,18.26-2.02,27.71-8.53c18.88-13.02,32.32-37.5,36.73-45.54c0.14-0.25,0.28-0.51,0.41-0.75c0.06,0,0.11,0,0.17,0
			c5.65,0,11.97,3.93,13.37,12.69c0.5,3.15,0.34,5.94,0.18,8.64c-0.28,4.71-0.56,9.57,2.63,15.56c1.23,2.31,4.51,8.46,11.18,9.84
			c0.89,0.18,1.83,0.28,2.78,0.28c4.02,0,8.31-1.68,10.69-4.19c1.55-1.64,1.81-3.17,1.76-4.17c-0.18-3.44-3.53-4.44-6.48-5.33
			c-2.93-0.88-6.24-1.88-8.21-4.58c-1.73-2.39-1.49-4.77-0.88-9.12c0.27-1.93,0.58-4.12,0.62-6.52
			c0.32-20.28-14.25-35.46-17.48-38.57c-0.27-1.27-0.69-5.79,3.42-15.25c3.09-7.12,3.32-12.92,3.52-18.04
			c0.23-5.93,0.43-11.06,4.61-17.99c2.21-3.67,4.12-6.84,7.97-8.86c1.94-1.02,3.83-1.48,6.14-1.48c1.55,0,3.18,0.2,4.91,0.41
			c1.99,0.24,4.26,0.52,6.73,0.52c2.5,0,4.87-0.28,7.27-0.85c8.92-2.13,16.33-7.82,18.77-12.09c1.03-1.79,1.31-3.47,0.85-4.99
			c-1.32-4.32-7.07-4.44-14.34-4.58c-6.55-0.13-15.53-0.32-17.4-4.16c-0.35-0.72-0.3-1.18-0.12-2.4c0.23-1.57,0.56-3.71-0.63-6.58
			c-2.39-5.75-7.87-7.6-12.28-9.09c-2.78-0.94-5.41-1.83-5.96-3.29c-1.04-2.73,4.01-8.08,7.34-11.62c4.25-4.5,7.92-8.39,5.73-12.1
			c-1.13-1.91-3.54-2.92-6.98-2.92c-5.44,0-13.36,2.63-17.9,8.4c-3.46,4.4-3.88,9.17-4.16,12.33c-0.01,0.09-0.02,0.18-0.02,0.27
			c-2.18-2.6-5.47-8.25-7.81-12.27C352.67,36.73,347.26,28.22,341.18,28.22L341.18,28.22L341.18,28.22z"/>
	</g>
	<path class="st1" d="M196.57,333.49c6.28,0,11.36-5.09,11.36-11.36s-5.09-11.36-11.36-11.36h-72.56c-6.28,0-11.36,5.09-11.36,11.36
		s5.09,11.36,11.36,11.36H196.57z"/>
	<circle class="st1" cx="231.97" cy="322.13" r="11.36"/>
	<path class="st1" d="M339.28,333.04c6.28,0,11.36-5.09,11.36-11.36c0-6.28-5.09-11.36-11.36-11.36h-72.56
		c-6.28,0-11.36,5.09-11.36,11.36c0,6.28,5.09,11.36,11.36,11.36H339.28z"/>
</g>
<g id="Ladybug">
</g>
<g id="Like_Mike">
</g>
<g id="Navy">
</g>
<g id="OMG">
</g>
<g id="A_poopy_smell">
</g>
<g id="God_save_the_Queen">
</g>
<g id="Rabbit">
</g>
<g id="SS_SS_SS">
</g>
<g id="Tall">
</g>
<g id="Under_where">
</g>
<g id="Beethoven_x27_s_V">
</g>
<g id="a_WHITE_WHALE">
</g>
<g id="X_marks_the_spot">
</g>
<g id="You_x27_re_a_cool_Dude">
</g>
<g id="Zinc_Zoo_keeper">
</g>
<g id="guides" class="st7">
</g>
</svg>
