<?xml version="1.0" encoding="utf-8"?>
<!-- Generator: Adobe Illustrator 25.2.3, SVG Export Plug-In . SVG Version: 6.00 Build 0)  -->
<svg version="1.1" xmlns="http://www.w3.org/2000/svg" xmlns:xlink="http://www.w3.org/1999/xlink" x="0px" y="0px"
	 viewBox="0 0 500 500" style="enable-background:new 0 0 500 500;" xml:space="preserve">
<style type="text/css">
	.st0{fill:#3FA9F5;}
	.st1{fill:#0071BC;}
	.st2{font-family:'AcuminPro-Semibold';}
	.st3{font-size:40.9114px;}
	.st4{fill:#FFFFFF;}
	.st5{font-family:'AcuminPro-Bold';}
	.st6{fill:#0071BC;stroke:#3FA9F5;stroke-width:3;stroke-miterlimit:10;}
	.st7{display:none;}
	.st8{display:inline;fill:#3FA9F5;}
	.st9{display:inline;fill:none;stroke:#3FA9F5;stroke-width:3;stroke-linecap:round;stroke-miterlimit:10;}
	.st10{fill:none;stroke:#3FA9F5;stroke-width:3;stroke-linecap:round;stroke-miterlimit:10;}
	.st11{fill:none;stroke:#3FA9F5;stroke-width:2.5;stroke-linecap:round;stroke-miterlimit:10;}
	.st12{display:inline;fill:#0071BC;}
	.st13{fill:#00FB20;}
	.st14{display:inline;fill:none;stroke:#0071BC;stroke-width:3;stroke-miterlimit:10;}
	.st15{display:inline;fill:none;stroke:#3FA9F5;stroke-width:3;stroke-miterlimit:10;}
	.st16{display:inline;fill:#3FA9F5;stroke:#0071BC;stroke-width:3;stroke-miterlimit:10;}
	.st17{fill:none;stroke:#0071BC;stroke-width:7;stroke-miterlimit:10;}
	.st18{fill:none;stroke:#0071BC;stroke-width:5;stroke-miterlimit:10;}
	.st19{display:none;fill:none;stroke:#0071BC;stroke-width:3;stroke-miterlimit:10;}
	.st20{display:none;fill:#0071BC;}
	.st21{display:inline;fill:#0071BC;stroke:#3FA9F5;stroke-width:3;stroke-miterlimit:10;}
	.st22{display:inline;}
	.st23{display:inline;fill:#0071BC;stroke:#3FA9F5;stroke-width:2;stroke-miterlimit:10;}
	.st24{opacity:0.6;}
	.st25{fill:#0071BC;stroke:#3FA9F5;stroke-miterlimit:10;}
	.st26{fill:#0071BC;stroke:#3FA9F5;stroke-linecap:round;stroke-miterlimit:10;}
	.st27{fill:none;stroke:#0071BC;stroke-width:12;stroke-linecap:round;stroke-miterlimit:10;}
	.st28{fill:#0071BC;stroke:#3FA9F5;stroke-width:4;stroke-miterlimit:10;}
	.st29{fill:#0071BC;stroke:#3FA9F5;stroke-width:6;stroke-miterlimit:10;}
	.st30{fill:none;stroke:#3FA9F5;stroke-width:3;stroke-miterlimit:10;}
	.st31{display:inline;fill:#FFFFFF;}
	.st32{fill:#0071BC;stroke:#3FA9F5;stroke-width:5;stroke-miterlimit:10;}
	.st33{fill:none;stroke:#3FA9F5;stroke-width:4;stroke-miterlimit:10;}
	.st34{fill:none;stroke:#3FA9F5;stroke-width:5;stroke-miterlimit:10;}
	.st35{fill:#0071BC;stroke:#3FA9F5;stroke-width:2;stroke-miterlimit:10;}
	.st36{display:inline;fill:#0071BC;stroke:#3FA9F5;stroke-linecap:round;stroke-miterlimit:10;}
	.st37{fill:#3FA9F5;stroke:#0071BC;stroke-width:4;stroke-miterlimit:10;}
	.st38{display:none;fill:#3FA9F5;stroke:#0071BC;stroke-width:5;stroke-miterlimit:10;}
	.st39{fill:#3FA9F5;stroke:#0071BC;stroke-width:3;stroke-miterlimit:10;}
	.st40{fill:#0071BC;stroke:#0071BC;stroke-width:3;stroke-miterlimit:10;}
	.st41{fill:none;stroke:#0071BC;stroke-width:22;stroke-miterlimit:10;}
	.st42{display:none;fill:none;stroke:#0071BC;stroke-width:22;stroke-miterlimit:10;}
	.st43{display:inline;fill:none;stroke:#3FA9F5;stroke-width:2;stroke-miterlimit:10;}
	.st44{fill:none;stroke:#3FA9F5;stroke-width:2;stroke-miterlimit:10;}
</style>
<g id="background">
	<rect class="st0" width="500" height="500"/>
</g>
<g id="Text">
	<text transform="matrix(1 0 0 1 151.8115 431.7672)"><tspan x="0" y="0" class="st1 st2 st3">Like </tspan><tspan x="88.65" y="0" class="st4 st5 st3">M</tspan><tspan x="124.9" y="0" class="st1 st2 st3">ike</tspan></text>
</g>
<g id="Apart">
</g>
<g id="Be_a_good_boy">
	<g id="Layer_12">
	</g>
</g>
<g id="Charlies_Angels">
	<g id="Faces">
	</g>
</g>
<g id="Dog_did_it">
</g>
<g id="Eek">
</g>
<g id="did_I_Fail_it">
</g>
<g id="Great_Gatsby">
</g>
<g id="hippity_hop">
	<g id="Layer_33" class="st7">
	</g>
	<g id="Layer_34" class="st24">
	</g>
	<g id="Layer_35">
	</g>
</g>
<g id="Aye_Aye">
</g>
<g id="Lets_Jump">
</g>
<g id="Kangaroo">
</g>
<g id="Ladybug">
</g>
<g id="Like_Mike">
	<path class="st1" d="M185,331c1.59-4.78,5.27-10.17,6.57-13.03c1.54-3.4,4.48-10.61,6.98-13.46c2.62-3,2.97-3.97,6.48-10.77
		c2.74-5.31,5.18-10.45,8.08-12.12c1.96-1.13,6.97-1.69,8.08-2.69c1.55-1.41,2.39-2.75,4.04-5.38c0.9-1.44,1.35-2.16,1.35-2.69
		c0-2.2-3.01-3.07-5.38-5.38c-4.34-4.25-4.08-10.99-4.04-12.12c0.25-6.41,4.03-10.64,5.38-12.12c1.47-1.6,7.24-7.88,14.81-6.73
		c5.96,0.9,10.34,6.01,12.12,8.08c0.73,0.85,2.16,2.72,4.04,2.69c0.91-0.01,1.69-0.46,2.69,0c0.23,0.1,1.03,0.51,1.35,1.35
		c0.4,1.06-0.38,1.68,0,2.69c0.26,0.69,0.74,0.7,1.35,1.35c1.5,1.59,0.99,4.01,1.35,4.04c0.45,0.04,0.24-3.93,2.69-6.73
		c1.54-1.75,4.87-4.54,4.87-4.54s0.08-3.23,1.86-8.93c1.56-5,3.71-8.59,4.04-9.42c0.12-0.31,2.52-12.22,4.04-14.81
		c2.84-4.84,4.25-8.48,5.88-16.4c2.09-10.18,2.41-8.04,3.55-17.25c0.36-2.94,0.94-8.04-1.35-13.46c-1.37-3.25-2.33-3.23-4.04-6.73
		c-0.79-1.63-3.5-7.37-2.69-14.81c0.25-2.28,1.09-9.1,6.73-14.81c1.4-1.42,6.11-6.04,13.46-6.73c8.69-0.81,17.48,4.21,21.54,12.12
		c3.22,6.27,3.36,14.18,0,20.19c-2.25,4.02-5.58,6.34-8.08,8.08c-4.08,2.84-6.67,4.64-9.42,4.04c-0.82-0.18-2.47-0.75-4.04,0
		c-0.29,0.14-1.17,0.56-1.35,1.35c-0.21,0.92,0.74,1.49,1.35,2.69c0.23,0.45,0.67,1.52,0,5.38c-0.37,2.14-0.56,3.2-1.35,5.38
		c-1.73,4.77-1.54,10.37-1.35,16.15c0.31,9.09-4.59,24.14-5.38,28.27c-1.33,6.96-4.15,7.1-4.04,12.12c0.06,2.77,0.95,4.2,0,6.73
		c-0.76,2.02-2.69,4.04-2.69,4.04s-0.15,5.86,0,9.42c0.23,5.6-3.22,6.4-5.38,13.46c-2.5,8.17-0.5,15.63,0,17.5
		c1.69,6.3,0.66,6.75,3.43,14.81c0.64,1.87,2.16,6.6,2.69,12.12c1.49,15.27,0.29,14.37,0.29,17.07h-57.5
		c-0.91-4.16-0.55-4.1-1.42-6.3c-0.8-2.04-2.68-1.57-4.04-4.04c-1.04-1.88-3.55-5.14-3.55-5.14l-3.18-0.25c0,0-0.14,2.64-1.35,4.04
		c-1.33,1.55-4.15-0.42-4.28,0.25c-0.69,3.52-5.56,6.07-7.77,11.43"/>
	<rect x="144" y="189" class="st1" width="9" height="142"/>
	<path class="st1" d="M185.4,202H109.6c-4.2,0-7.6-3.4-7.6-7.6v-40.48c0-12.11,9.81-21.92,21.92-21.92h47.16
		c12.11,0,21.92,9.81,21.92,21.92v40.48C193,198.6,189.6,202,185.4,202z"/>
	<path class="st30" d="M162.5,183h-29c-1.1,0-2-0.9-2-2v-29c0-1.1,0.9-2,2-2h29c1.1,0,2,0.9,2,2v29C164.5,182.1,163.6,183,162.5,183
		z"/>
	<g>
		<path class="st4" d="M173.67,197.49c4.47,0,8.09-3.62,8.09-8.09s-3.62-8.09-8.09-8.09h-51.63c-4.47,0-8.09,3.62-8.09,8.09
			s3.62,8.09,8.09,8.09H173.67z"/>
		<path class="st4" d="M374.56,197.17c4.47,0,8.09-3.62,8.09-8.09c0-4.47-3.62-8.09-8.09-8.09h-51.63c-4.47,0-8.09,3.62-8.09,8.09
			c0,4.47,3.62,8.09,8.09,8.09H374.56z"/>
	</g>
	<path class="st1" d="M392,125h3c3.31,0,6,2.69,6,6v200h-15V131C386,127.69,388.69,125,392,125z"/>
	<path class="st1" d="M389,70h-3c-1.66,0-3,1.34-3,3v126c0,1.66,1.34,3,3,3h3c1.66,0,3-1.34,3-3V73C392,71.34,390.66,70,389,70z"/>
</g>
<g id="Navy">
</g>
<g id="OMG">
</g>
<g id="A_poopy_smell">
</g>
<g id="God_save_the_Queen">
</g>
<g id="Rabbit">
</g>
<g id="SS_SS_SS">
</g>
<g id="Tall">
</g>
<g id="Under_where">
</g>
<g id="Beethoven_x27_s_V">
</g>
<g id="a_WHITE_WHALE">
</g>
<g id="X_marks_the_spot">
</g>
<g id="You_x27_re_a_cool_Dude">
</g>
<g id="Zinc_Zoo_keeper">
</g>
<g id="guides" class="st7">
</g>
</svg>
