<?xml version="1.0" encoding="utf-8"?>
<!-- Generator: Adobe Illustrator 25.2.3, SVG Export Plug-In . SVG Version: 6.00 Build 0)  -->
<svg version="1.1" xmlns="http://www.w3.org/2000/svg" xmlns:xlink="http://www.w3.org/1999/xlink" x="0px" y="0px"
	 viewBox="0 0 500 500" style="enable-background:new 0 0 500 500;" xml:space="preserve">
<style type="text/css">
	.st0{fill:#3FA9F5;}
	.st1{fill:#FFFFFF;}
	.st2{font-family:'AcuminPro-Bold';}
	.st3{font-size:40.9114px;}
	.st4{fill:#0071BC;}
	.st5{font-family:'AcuminPro-Semibold';}
	.st6{fill:#0071BC;stroke:#3FA9F5;stroke-width:3;stroke-miterlimit:10;}
	.st7{display:none;}
	.st8{display:inline;fill:#3FA9F5;}
	.st9{display:inline;fill:none;stroke:#3FA9F5;stroke-width:3;stroke-linecap:round;stroke-miterlimit:10;}
	.st10{fill:none;stroke:#3FA9F5;stroke-width:3;stroke-linecap:round;stroke-miterlimit:10;}
	.st11{fill:none;stroke:#3FA9F5;stroke-width:2.5;stroke-linecap:round;stroke-miterlimit:10;}
	.st12{display:inline;fill:#0071BC;}
	.st13{fill:#00FB20;}
	.st14{display:inline;fill:none;stroke:#0071BC;stroke-width:3;stroke-miterlimit:10;}
	.st15{display:inline;fill:none;stroke:#3FA9F5;stroke-width:3;stroke-miterlimit:10;}
	.st16{display:inline;fill:#3FA9F5;stroke:#0071BC;stroke-width:3;stroke-miterlimit:10;}
	.st17{fill:none;stroke:#0071BC;stroke-width:7;stroke-miterlimit:10;}
	.st18{fill:none;stroke:#0071BC;stroke-width:5;stroke-miterlimit:10;}
	.st19{display:none;fill:none;stroke:#0071BC;stroke-width:3;stroke-miterlimit:10;}
	.st20{display:none;fill:#0071BC;}
	.st21{display:inline;fill:#0071BC;stroke:#3FA9F5;stroke-width:3;stroke-miterlimit:10;}
	.st22{display:inline;}
	.st23{display:inline;fill:#0071BC;stroke:#3FA9F5;stroke-width:2;stroke-miterlimit:10;}
	.st24{opacity:0.6;}
	.st25{fill:#0071BC;stroke:#3FA9F5;stroke-miterlimit:10;}
	.st26{fill:#0071BC;stroke:#3FA9F5;stroke-linecap:round;stroke-miterlimit:10;}
	.st27{fill:none;stroke:#0071BC;stroke-width:12;stroke-linecap:round;stroke-miterlimit:10;}
	.st28{fill:#0071BC;stroke:#3FA9F5;stroke-width:4;stroke-miterlimit:10;}
	.st29{fill:#0071BC;stroke:#3FA9F5;stroke-width:6;stroke-miterlimit:10;}
	.st30{fill:none;stroke:#3FA9F5;stroke-width:3;stroke-miterlimit:10;}
	.st31{display:inline;fill:#FFFFFF;}
	.st32{fill:#0071BC;stroke:#3FA9F5;stroke-width:5;stroke-miterlimit:10;}
	.st33{fill:none;stroke:#3FA9F5;stroke-width:4;stroke-miterlimit:10;}
	.st34{fill:none;stroke:#3FA9F5;stroke-width:5;stroke-miterlimit:10;}
	.st35{fill:#0071BC;stroke:#3FA9F5;stroke-width:2;stroke-miterlimit:10;}
	.st36{display:inline;fill:#0071BC;stroke:#3FA9F5;stroke-linecap:round;stroke-miterlimit:10;}
	.st37{fill:#3FA9F5;stroke:#0071BC;stroke-width:4;stroke-miterlimit:10;}
	.st38{display:none;fill:#3FA9F5;stroke:#0071BC;stroke-width:5;stroke-miterlimit:10;}
	.st39{fill:#3FA9F5;stroke:#0071BC;stroke-width:3;stroke-miterlimit:10;}
	.st40{fill:#0071BC;stroke:#0071BC;stroke-width:3;stroke-miterlimit:10;}
	.st41{fill:none;stroke:#0071BC;stroke-width:22;stroke-miterlimit:10;}
	.st42{display:none;fill:none;stroke:#0071BC;stroke-width:22;stroke-miterlimit:10;}
	.st43{display:inline;fill:none;stroke:#3FA9F5;stroke-width:2;stroke-miterlimit:10;}
	.st44{fill:none;stroke:#3FA9F5;stroke-width:2;stroke-miterlimit:10;}
</style>
<g id="background">
	<rect class="st0" width="500" height="500"/>
</g>
<g id="Text">
	<text transform="matrix(1 0 0 1 216.8115 431.7672)"><tspan x="0" y="0" class="st1 st2 st3">T</tspan><tspan x="24.06" y="0" class="st4 st5 st3">all</tspan></text>
</g>
<g id="Apart">
</g>
<g id="Be_a_good_boy">
	<g id="Layer_12">
	</g>
</g>
<g id="Charlies_Angels">
	<g id="Faces">
	</g>
</g>
<g id="Dog_did_it">
</g>
<g id="Eek">
</g>
<g id="did_I_Fail_it">
</g>
<g id="Great_Gatsby">
</g>
<g id="hippity_hop">
	<path class="st19" d="M50.45,40C49.26,15.48,60-4.53,72.81-4.5c12.56,0.03,23.16,20.25,22.37,44.33"/>
	<g id="Layer_33" class="st7">
	</g>
	<g id="Layer_34" class="st24">
	</g>
	<g id="Layer_35">
	</g>
</g>
<g id="Aye_Aye">
</g>
<g id="Lets_Jump">
</g>
<g id="Kangaroo">
</g>
<g id="Ladybug">
</g>
<g id="Like_Mike">
</g>
<g id="Navy">
</g>
<g id="OMG">
</g>
<g id="A_poopy_smell">
</g>
<g id="God_save_the_Queen">
</g>
<g id="Rabbit">
</g>
<g id="SS_SS_SS">
</g>
<g id="Tall">
	<g class="st7">
		<circle class="st12" cx="194" cy="99" r="31"/>
		<rect x="182" y="117" class="st12" width="7" height="45"/>
		<rect x="194" y="117" class="st12" width="7" height="45"/>
		<path class="st12" d="M173.99,141.68L173.99,141.68c-1.02-0.12-1.74-1.05-1.62-2.06l4.17-34.58c0.12-1.02,1.05-1.74,2.06-1.62l0,0
			c1.02,0.12,1.74,1.05,1.62,2.06l-4.17,34.58C175.93,141.08,175.01,141.81,173.99,141.68z"/>
		<path class="st12" d="M206.19,156H183v6h28v-1.19C211,158.15,208.85,156,206.19,156z"/>
		<ellipse class="st8" cx="215" cy="93" rx="4" ry="6"/>
		<g class="st22">
			<path class="st0" d="M224.5,111.5c-1.34,0.35-2.69,0.27-4,0.1c-1.3-0.2-2.62-0.48-3.89-1.11c-1.21-0.6-2.31-1.32-3.34-2.15
				c-1.02-0.83-2.02-1.71-2.77-2.84c1.24,0.51,2.41,1.01,3.57,1.57l3.4,1.62c1.06,0.48,2.24,0.89,3.43,1.33
				C222.09,110.46,223.26,110.96,224.5,111.5z"/>
		</g>
		<circle class="st12" cx="344" cy="100" r="31"/>
		<path class="st36" d="M324.73,144.49L324.73,144.49c1.01,0.19,1.97-0.48,2.16-1.48l6.36-34.25c0.19-1.01-0.48-1.97-1.48-2.16l0,0
			c-1.01-0.19-1.97,0.48-2.16,1.48l-6.36,34.25C323.06,143.33,323.72,144.3,324.73,144.49z"/>
		
			<rect x="349" y="118" transform="matrix(-1 -2.125621e-10 2.125621e-10 -1 704.9977 449.0012)" class="st12" width="7" height="213"/>
		
			<rect x="337" y="118" transform="matrix(-1 -2.130817e-10 2.130817e-10 -1 680.9977 449.0012)" class="st12" width="7" height="213"/>
		<path class="st12" d="M364.01,142.68L364.01,142.68c1.02-0.12,1.74-1.05,1.62-2.06l-4.17-34.58c-0.12-1.02-1.05-1.74-2.06-1.62
			l0,0c-1.02,0.12-1.74,1.05-1.62,2.06l4.17,34.58C362.07,142.08,362.99,142.81,364.01,142.68z"/>
		<path class="st36" d="M227,123.45l-0.26,0.52c-0.46,0.92-1.57,1.29-2.48,0.83l-22.44-11.15c-0.92-0.46-1.29-1.57-0.83-2.48
			l0.26-0.52c0.46-0.92,1.57-1.29,2.48-0.83l22.44,11.15C227.08,121.42,227.45,122.53,227,123.45z"/>
		<path class="st12" d="M223.61,123.14L223.61,123.14c-0.12-1.02,0.6-1.94,1.62-2.06l21.9-2.64c1.02-0.12,1.94,0.6,2.06,1.62v0
			c0.12,1.02-0.6,1.94-1.62,2.06l-21.9,2.64C224.66,124.88,223.73,124.16,223.61,123.14z"/>
		<path class="st12" d="M331.81,325H355v6h-28v-1.19C327,327.15,329.15,325,331.81,325z"/>
		<ellipse class="st8" cx="323" cy="94" rx="4" ry="6"/>
		<g class="st22">
			<path class="st0" d="M313.5,112.5c1.24-0.54,2.41-1.04,3.6-1.48c1.19-0.45,2.37-0.85,3.43-1.33l3.4-1.62
				c1.15-0.55,2.33-1.06,3.57-1.57c-0.76,1.13-1.75,2.02-2.77,2.84c-1.03,0.82-2.13,1.54-3.34,2.15c-1.27,0.63-2.58,0.92-3.89,1.11
				C316.19,112.77,314.84,112.85,313.5,112.5z"/>
		</g>
	</g>
	<path class="st37" d="M150.01,110h21.72c0,0,7.42-1.65,7.42-8.8c0-4.52-3.39-9.31-6.87-9.62c-2.09-0.19-4.4,0.82-4.4,0.82
		s1.08-5.47-4.67-9.07c-4.4-2.75-10.72-0.27-10.72-0.27s-4.46-5.6-9.9-6.05c-6.6-0.55-12.65,3.57-14.3,7.42
		c-1.37,3.19-1.37,7.7-1.37,7.7s-5.22,0.55-7.15,4.67c-1.26,2.7-0.81,5.9,0.27,8.25c1.65,3.57,7.7,4.95,7.7,4.95H150.01z"/>
	<path class="st38" d="M396.32,95.5h30.77c0,0,10.51-2.37,10.51-12.65c0-6.5-4.81-13.38-9.74-13.83c-2.96-0.27-6.23,1.19-6.23,1.19
		s1.54-7.87-6.62-13.04c-6.23-3.95-15.19-0.4-15.19-0.4s-6.32-8.04-14.02-8.7c-9.35-0.79-17.92,5.14-20.25,10.67
		c-1.94,4.59-1.95,11.07-1.95,11.07s-7.4,0.79-10.13,6.72c-1.78,3.88-1.14,8.49,0.39,11.86c2.34,5.14,10.91,7.11,10.91,7.11H396.32z
		"/>
	<path class="st37" d="M317.45,96h-22.11c0,0-7.55-1.61-7.55-8.61c0-4.42,3.45-9.11,7-9.41c2.12-0.18,4.48,0.81,4.48,0.81
		s-1.1-5.36,4.76-8.88c4.48-2.69,10.91-0.27,10.91-0.27s4.54-5.47,10.07-5.92c6.72-0.54,12.87,3.5,14.55,7.26
		c1.39,3.12,1.4,7.53,1.4,7.53s5.32,0.54,7.27,4.57c1.28,2.64,0.82,5.78-0.28,8.07c-1.68,3.5-7.83,4.84-7.83,4.84H317.45z"/>
	<path class="st37" d="M199.18,68h-18.77c0,0-6.41-1.2-6.41-6.41c0-3.3,2.93-6.79,5.94-7.01c1.8-0.14,3.8,0.6,3.8,0.6
		s-0.94-3.99,4.04-6.61c3.8-2,9.26-0.2,9.26-0.2s3.85-4.08,8.55-4.41c5.7-0.4,10.93,2.61,12.35,5.41c1.18,2.33,1.19,5.61,1.19,5.61
		s4.51,0.4,6.18,3.41c1.09,1.97,0.7,4.3-0.24,6.01C223.64,67,218.42,68,218.42,68H199.18z"/>
	<rect x="242.12" y="15.5" class="st20" width="4.97" height="55.56"/>
	<rect x="240.86" y="23.5" class="st25" width="6.64" height="48.3"/>
	<rect x="229.34" y="68.82" class="st6" width="29.81" height="14.68"/>
	<rect x="225.09" y="79.77" class="st6" width="38.33" height="13.73"/>
	<rect x="220.83" y="93.5" class="st6" width="48.26" height="170.03"/>
	<rect x="213.73" y="110.5" class="st6" width="24.13" height="42.91"/>
	<rect x="252.06" y="110.5" class="st6" width="24.13" height="42.91"/>
	<rect x="206.63" y="153.41" class="st6" width="31.23" height="126.99"/>
	<rect x="252.06" y="153.41" class="st6" width="31.23" height="126.99"/>
	<rect x="283.55" y="294.29" class="st6" width="15.61" height="28.77"/>
	<rect x="225.09" y="263.53" class="st6" width="38.33" height="59.53"/>
	<rect x="190.34" y="294.29" class="st6" width="19.87" height="28.77"/>
	<rect x="200.95" y="280.4" class="st6" width="26.97" height="47.62"/>
	<rect x="260.57" y="280.4" class="st6" width="26.97" height="47.62"/>
	<line class="st30" x1="222.28" y1="162.22" x2="222.28" y2="255"/>
	<line class="st30" x1="267.64" y1="162.22" x2="267.64" y2="255"/>
	<rect x="237.86" y="303.22" class="st39" width="12.78" height="12.9"/>
	<line class="st30" x1="215.15" y1="287.17" x2="215.15" y2="308.68"/>
	<line class="st30" x1="273.35" y1="287.17" x2="273.35" y2="308.68"/>
	<line class="st30" x1="244.57" y1="269.98" x2="244.57" y2="299.75"/>
	<line class="st30" x1="226.51" y1="121" x2="226.51" y2="147.95"/>
	<line class="st30" x1="263.41" y1="121" x2="263.41" y2="147.95"/>
	<rect x="182.5" y="322.07" class="st40" width="123.5" height="8.93"/>
	<path class="st1" d="M284.91,332.43c5.57,0,10.09-4.52,10.09-10.09c0-5.57-4.52-10.09-10.09-10.09h-81.96
		c-5.57,0-10.09,4.52-10.09,10.09c0,5.57,4.52,10.09,10.09,10.09L284.91,332.43z"/>
</g>
<g id="Under_where">
</g>
<g id="Beethoven_x27_s_V">
</g>
<g id="a_WHITE_WHALE">
</g>
<g id="X_marks_the_spot">
</g>
<g id="You_x27_re_a_cool_Dude">
</g>
<g id="Zinc_Zoo_keeper">
</g>
<g id="guides" class="st7">
</g>
</svg>
