<?xml version="1.0" encoding="utf-8"?>
<!-- Generator: Adobe Illustrator 25.2.3, SVG Export Plug-In . SVG Version: 6.00 Build 0)  -->
<svg version="1.1" xmlns="http://www.w3.org/2000/svg" xmlns:xlink="http://www.w3.org/1999/xlink" x="0px" y="0px"
	 viewBox="0 0 500 500" style="enable-background:new 0 0 500 500;" xml:space="preserve">
<style type="text/css">
	.st0{fill:#3FA9F5;}
	.st1{fill:#0071BC;}
	.st2{fill:#FFFFFF;}
	.st3{fill:#0071BC;stroke:#3FA9F5;stroke-width:3;stroke-miterlimit:10;}
	.st4{display:none;}
	.st5{display:inline;fill:#3FA9F5;}
	.st6{display:inline;fill:none;stroke:#3FA9F5;stroke-width:3;stroke-linecap:round;stroke-miterlimit:10;}
	.st7{fill:none;stroke:#3FA9F5;stroke-width:3;stroke-linecap:round;stroke-miterlimit:10;}
	.st8{fill:none;stroke:#3FA9F5;stroke-width:2.5;stroke-linecap:round;stroke-miterlimit:10;}
	.st9{display:inline;fill:#0071BC;}
	.st10{fill:#00FB20;}
	.st11{display:inline;fill:none;stroke:#0071BC;stroke-width:3;stroke-miterlimit:10;}
	.st12{display:inline;fill:none;stroke:#3FA9F5;stroke-width:3;stroke-miterlimit:10;}
	.st13{display:inline;fill:#3FA9F5;stroke:#0071BC;stroke-width:3;stroke-miterlimit:10;}
	.st14{fill:none;stroke:#0071BC;stroke-width:7;stroke-miterlimit:10;}
	.st15{fill:none;stroke:#0071BC;stroke-width:5;stroke-miterlimit:10;}
	.st16{display:none;fill:none;stroke:#0071BC;stroke-width:3;stroke-miterlimit:10;}
	.st17{display:none;fill:#0071BC;}
	.st18{display:inline;fill:#0071BC;stroke:#3FA9F5;stroke-width:3;stroke-miterlimit:10;}
	.st19{display:inline;}
	.st20{display:inline;fill:#0071BC;stroke:#3FA9F5;stroke-width:2;stroke-miterlimit:10;}
	.st21{opacity:0.6;}
	.st22{fill:#0071BC;stroke:#3FA9F5;stroke-miterlimit:10;}
	.st23{fill:#0071BC;stroke:#3FA9F5;stroke-linecap:round;stroke-miterlimit:10;}
	.st24{fill:none;stroke:#0071BC;stroke-width:12;stroke-linecap:round;stroke-miterlimit:10;}
	.st25{fill:#0071BC;stroke:#3FA9F5;stroke-width:4;stroke-miterlimit:10;}
	.st26{fill:#0071BC;stroke:#3FA9F5;stroke-width:6;stroke-miterlimit:10;}
	.st27{fill:none;stroke:#3FA9F5;stroke-width:3;stroke-miterlimit:10;}
	.st28{display:inline;fill:#FFFFFF;}
	.st29{fill:#0071BC;stroke:#3FA9F5;stroke-width:5;stroke-miterlimit:10;}
	.st30{fill:none;stroke:#3FA9F5;stroke-width:4;stroke-miterlimit:10;}
	.st31{fill:none;stroke:#3FA9F5;stroke-width:5;stroke-miterlimit:10;}
	.st32{fill:#0071BC;stroke:#3FA9F5;stroke-width:2;stroke-miterlimit:10;}
	.st33{font-family:'AcuminPro-Semibold';}
	.st34{font-size:40.9114px;}
	.st35{font-family:'AcuminPro-Bold';}
	.st36{display:inline;fill:#0071BC;stroke:#3FA9F5;stroke-linecap:round;stroke-miterlimit:10;}
	.st37{fill:#3FA9F5;stroke:#0071BC;stroke-width:4;stroke-miterlimit:10;}
	.st38{display:none;fill:#3FA9F5;stroke:#0071BC;stroke-width:5;stroke-miterlimit:10;}
	.st39{fill:#3FA9F5;stroke:#0071BC;stroke-width:3;stroke-miterlimit:10;}
	.st40{fill:#0071BC;stroke:#0071BC;stroke-width:3;stroke-miterlimit:10;}
	.st41{fill:none;stroke:#0071BC;stroke-width:22;stroke-miterlimit:10;}
	.st42{display:none;fill:none;stroke:#0071BC;stroke-width:22;stroke-miterlimit:10;}
	.st43{display:inline;fill:none;stroke:#3FA9F5;stroke-width:2;stroke-miterlimit:10;}
	.st44{fill:none;stroke:#3FA9F5;stroke-width:2;stroke-miterlimit:10;}
</style>
<g id="background">
	<rect class="st0" width="500" height="500"/>
</g>
<g id="Text">
</g>
<g id="Apart">
</g>
<g id="Be_a_good_boy">
	<g id="Layer_12">
	</g>
</g>
<g id="Charlies_Angels">
	<g id="Faces">
	</g>
</g>
<g id="Dog_did_it">
</g>
<g id="Eek">
</g>
<g id="did_I_Fail_it">
</g>
<g id="Great_Gatsby">
</g>
<g id="hippity_hop">
	<g id="Layer_33" class="st4">
	</g>
	<g id="Layer_34" class="st21">
	</g>
	<g id="Layer_35">
	</g>
</g>
<g id="Aye_Aye">
</g>
<g id="Lets_Jump">
</g>
<g id="Kangaroo">
</g>
<g id="Ladybug">
</g>
<g id="Like_Mike">
</g>
<g id="Navy">
</g>
<g id="OMG">
</g>
<g id="A_poopy_smell">
</g>
<g id="God_save_the_Queen">
</g>
<g id="Rabbit">
	<path class="st1" d="M314.73,148.7c-17.57-22.6-81.08-57.04-83.71-55.03c-2.64,2.02,6.36,38.34,23.92,53.76
		c17.72,15.56,49.68,18.4,49.68,18.4"/>
	<g>
		<path class="st1" d="M276.39,321.76c-4.5,0-7.83-1.26-11.36-2.6c-3.85-1.46-7.83-2.97-14.23-3.33
			c-8.17-0.47-13.96-0.68-18.79-0.68c-4.26,0-7.38,0.16-11.33,0.36c-2.04,0.1-4.27,0.22-6.92,0.32c-0.14,0.01-0.29,0.01-0.43,0.01
			c-7.35,0-15.48-7.13-15.54-13.63c-0.04-4.51,1.64-7.13,3.18-8.58c-1.86-1.94-4.97-5.38-8.12-9.74c-2.64-3.65-3.59-8.34-3.94-11.13
			c-0.88,0.13-1.96,0.23-3.18,0.23c-0.48,0-0.98-0.02-1.5-0.05c-5.75-0.41-11.94-8.09-13.85-13.42c-1.8-5.02,0.62-11.83,3.8-16.36
			c1.4-1.99,3.54-4.36,5.75-4.36c1.24,0,2.29,0.72,2.81,1.93c1.47,3.41,3.76,6.43,5.51,8.45c1.33-3.45,3.74-9.58,5.8-14.42
			c8.5-19.98,36.57-26.48,61.33-32.22c9.41-2.18,16.36-3.1,21.44-3.78c10.02-1.33,13.04-1.73,17.07-8.44
			c1.91-3.19,1.86-11.82,1.59-16.61c-0.79,0.02-1.79,0.04-2.98,0.04c-9.23,0-32.4-1.09-48.12-11.18
			c-18.54-11.89-31.94-41.97-32.81-49.34c-0.11-0.97-0.16-2.37,0.74-3.31c0.71-0.73,1.71-0.83,2.51-0.83
			c8.97,0,65.7,16.56,86.44,35.18c4.04-1.35,17.81-5.63,30.44-5.63c6.87,0,12.35,1.29,16.29,3.84c2.58,1.67,4.64,3.28,6.63,4.83
			c3.18,2.48,6.46,5.05,12.27,8.23c6.57,3.6,17.72,7.76,25,8.48c3.1,0.3,5.37,3.13,5.08,6.3c-0.63,6.75-6.76,15.59-9.92,19.32
			c-6.85,8.11-22.86,12.07-29.42,13.39c-0.35,0.07-0.59,0.4-0.59,0.8c0.12,8.44-0.57,37.1-14.59,51.63
			c-8.43,8.73-11.84,12.03-13.17,13.25c-0.26,12.96,0.46,27.75,2.12,29.83c1.8,1.22,3.06,1.39,4.07,1.39c0.42,0,0.8-0.03,1.17-0.06
			c0.42-0.03,0.83-0.06,1.22-0.06c2.48,0,4.18,1.18,5.69,3.95c1.93,3.53,0.14,7.51-0.64,8.63c-4.11,5.88-6.84,6.87-12.98,6.87
			c-0.88,0-1.85-0.02-2.92-0.04l-0.47-0.01c-8.44-0.15-14.54-0.26-18.25-4.94c-2.61-3.29-2.29-5.69-0.94-15.79
			c1-7.51,1.38-13.7,1.53-17.31c-6.82,3.7-23.63,12.41-38.91,16.93c4.89,0.38,10.01,0.82,13.63,1.29c1.3,0.17,8.28,2.8,11.21,6.64
			c1.08,1.42,1.53,2.88,1.33,4.34c-0.78,5.58-10.32,9.88-12.3,10.38C281.13,321.43,278.7,321.76,276.39,321.76z"/>
		<path class="st0" d="M214.83,111.09c8.82,0,66.47,16.94,85.97,35.46c0,0,16.41-5.91,30.91-5.91c5.75,0,11.2,0.93,15.2,3.52
			c6.52,4.22,9.37,7.84,19.02,13.14c7.19,3.95,18.41,7.99,25.77,8.71c2.02,0.2,3.48,2.04,3.28,4.13c-0.58,6.18-6.6,14.84-9.45,18.22
			c-6.51,7.71-22.39,11.53-28.29,12.72c-1.29,0.26-2.21,1.43-2.19,2.79c0.12,8.29-0.53,36.23-14.03,50.21
			c-12.01,12.45-13.71,13.72-13.71,13.72s-0.71,29.85,2.9,32.34c2.17,1.5,3.86,1.79,5.27,1.79c0.89,0,1.67-0.12,2.39-0.12
			c1.39,0,2.58,0.43,3.94,2.91c1.58,2.89-0.32,6.22-0.53,6.52c-3.72,5.32-5.78,6.02-11.33,6.02c-1,0-2.11-0.02-3.36-0.04
			c-8.23-0.14-13.59-0.24-16.72-4.18c-2.08-2.62-1.85-4.39-0.53-14.28c1.64-12.31,1.64-21.03,1.64-21.03s-34.84,19.92-55.26,21.16
			c-2.66,0.16,18.02,1.24,27.63,2.49c1.28,0.17,11.44,4.23,10.81,8.71c-0.57,4.11-8.63,8.17-10.81,8.71
			c-2.68,0.67-4.95,0.95-6.96,0.95c-8.72,0-12.74-5.2-25.47-5.93c-8.77-0.5-14.42-0.68-18.91-0.68c-6.58,0-10.64,0.38-18.33,0.68
			c-0.12,0-0.23,0.01-0.35,0.01c-6.21,0-13.49-6.27-13.55-11.65c-0.07-6.73,4.29-8.27,4.29-8.27s-4.78-4.52-9.61-11.2
			c-3.6-4.98-3.75-12.37-3.75-12.37s-2.07,0.64-4.98,0.64c-0.44,0-0.89-0.01-1.36-0.05c-4.4-0.31-10.23-6.86-12.1-12.1
			c-2.46-6.86,4.7-18.04,7.67-18.04c0.42,0,0.76,0.23,0.97,0.72c1.67,3.87,4.32,7.25,6.12,9.29c0.36,0.41,0.83,0.6,1.3,0.6
			c0.69,0,1.37-0.41,1.66-1.16c1.35-3.48,3.81-9.78,5.91-14.7c8.11-19.04,35.1-25.3,59.95-31.06c27.55-6.39,32.93-1.75,39.77-13.14
			c3.03-5.05,1.73-19.71,1.73-19.71s-1.81,0.11-4.83,0.11c-9.7,0-31.91-1.15-47.05-10.86c-19.67-12.62-34.01-47.19-31.7-49.58
			C213.9,111.16,214.26,111.09,214.83,111.09 M214.83,107.09L214.83,107.09c-1.1,0-2.71,0.15-3.95,1.44
			c-1.67,1.73-1.38,4.14-1.29,4.93c1.09,9.36,15.34,39,33.71,50.79c15.59,10,37.52,11.5,49.21,11.5c0.37,0,0.73,0,1.07,0
			c0.17,5.18-0.12,11.43-1.39,13.54c-3.54,5.89-5.86,6.2-15.62,7.49c-5.12,0.68-12.13,1.61-21.63,3.81
			c-25.23,5.85-53.82,12.48-62.72,33.39c-1.52,3.57-3.23,7.84-4.56,11.23c-1.12-1.55-2.24-3.35-3.08-5.28
			c-0.84-1.93-2.62-3.13-4.65-3.13c-2.47,0-4.95,1.75-7.39,5.21c-3.23,4.59-6.23,12.1-4.05,18.18c2.05,5.72,8.78,14.26,15.59,14.74
			c0.54,0.04,1.09,0.06,1.64,0.06c0.52,0,1.01-0.02,1.48-0.05c0.54,2.97,1.67,6.87,4.02,10.12c2.59,3.58,5.15,6.55,7.05,8.62
			c-1.43,1.96-2.52,4.76-2.48,8.56c0.08,7.59,9.09,15.61,17.55,15.61c0.17,0,0.34,0,0.51-0.01c2.67-0.1,4.94-0.22,6.95-0.32
			c3.92-0.2,7.02-0.36,11.23-0.36c4.79,0,10.55,0.21,18.68,0.68c6.09,0.35,9.93,1.8,13.64,3.21c3.54,1.34,7.2,2.73,12.06,2.73
			c2.47,0,5.07-0.35,7.94-1.07c1.57-0.39,12.81-4.92,13.8-12.04c0.19-1.38,0.05-3.51-1.72-5.82c-3.21-4.21-10.58-7.15-12.54-7.41
			c-1.26-0.16-2.69-0.32-4.23-0.48c10.58-3.97,20.79-9.03,27.07-12.33c-0.22,3.54-0.62,8.24-1.33,13.62
			c-1.4,10.51-1.78,13.34,1.36,17.3c4.3,5.42,10.79,5.54,19.78,5.7l0.47,0.01c1.09,0.02,2.07,0.04,2.96,0.04
			c6.5,0,9.96-1.07,14.61-7.73c1.03-1.48,3.19-6.29,0.76-10.73c-1.86-3.41-4.23-4.99-7.45-4.99c-0.49,0-0.93,0.03-1.36,0.06
			c-0.36,0.03-0.71,0.05-1.03,0.05c-0.65,0-1.41-0.1-2.52-0.78c-1.26-3.1-1.86-16.13-1.68-27.56c1.76-1.66,5.35-5.21,12.62-12.74
			c14.05-14.56,15.21-42.39,15.16-52.07c8.57-1.81,22.81-5.89,29.53-13.85c3.29-3.9,9.7-13.19,10.38-20.43
			c0.4-4.26-2.68-8.07-6.87-8.48c-6.3-0.62-16.95-4.24-24.24-8.24c-5.66-3.11-8.88-5.62-12-8.06c-2.02-1.58-4.12-3.22-6.77-4.93
			c-4.27-2.76-10.11-4.16-17.37-4.16c-11.93,0-24.82,3.72-29.97,5.38c-11.52-9.88-31.46-18.39-46.55-23.89
			C238.52,112.04,220.42,107.09,214.83,107.09L214.83,107.09z"/>
	</g>
	<text transform="matrix(1 0 0 1 170.6299 431.7672)"><tspan x="0" y="0" class="st1 st33 st34">A </tspan><tspan x="37.8" y="0" class="st2 st35 st34">R</tspan><tspan x="64.88" y="0" class="st1 st33 st34">abbit</tspan></text>
	<g>
		<g>
			<path class="st1" d="M105.69,310.25c0.96-7.74,1.69-15.47,1.81-23.19c0.12-7.72-0.37-15.44-1.84-22.99
				c-0.74-3.79-1.55-7.58-2.69-11.28c-1.13-3.7-2.48-7.33-4.15-10.83c-1.67-3.5-3.66-6.85-5.95-10.02c-2.28-3.18-4.9-6.11-7.6-8.98
				c2.93,2.62,5.82,5.32,8.41,8.33c2.6,3,4.94,6.24,6.97,9.69c4.08,6.89,6.93,14.46,9.05,22.17c2.02,7.8,3.02,15.83,3.37,23.83
				c0.35,8.01,0.08,16.01-0.42,23.93L105.69,310.25z"/>
		</g>
		<g>
			<path class="st1" d="M76.68,250.27c5.44,2.34,10.59,5.43,15.24,9.2c4.66,3.77,8.78,8.25,12.22,13.23
				c3.42,4.99,6.26,10.44,8.28,16.2c2.07,5.74,3.43,11.75,4.11,17.87l-5.99,0.4c-0.15-5.68-0.93-11.38-2.41-16.92
				c-1.43-5.56-3.66-10.91-6.52-15.94c-2.87-5.02-6.46-9.66-10.68-13.71C86.72,256.54,81.9,253.06,76.68,250.27z"/>
		</g>
		<g>
			<path class="st1" d="M87.85,270.4c6.75,4.08,12.63,9.85,16.85,16.8c2.13,3.46,3.83,7.22,5.09,11.14
				c1.26,3.92,2.06,8.01,2.39,12.18l-6,0.11c0.18-3.71-0.06-7.47-0.76-11.18c-0.69-3.71-1.8-7.36-3.38-10.85
				C98.94,281.62,94.03,275.31,87.85,270.4z"/>
		</g>
		<g>
			<path class="st1" d="M110.83,218.33c6.98,29.94,9.18,61.15,6.4,92.09l-5.96-0.73C115.96,279.63,115.84,248.66,110.83,218.33z"/>
		</g>
		<g>
			<path class="st1" d="M137.15,226.83c-6.12,12.92-10.74,26.5-13.72,40.37c-3,13.87-4.34,28.03-4.1,42.09l-6-0.1
				c0.76-14.51,3.16-28.88,7.19-42.73C124.52,252.62,130.14,239.29,137.15,226.83z"/>
		</g>
		<g>
			<path class="st1" d="M140.31,257.26c-3.29,3.13-6.2,6.62-8.66,10.37c-2.47,3.74-4.43,7.77-5.95,11.93
				c-1.47,4.17-2.49,8.48-2.97,12.82c-0.49,4.34-0.5,8.72-0.03,13.01l-5.99,0.31c0.01-4.76,0.54-9.49,1.59-14.09
				c1.03-4.6,2.62-9.04,4.65-13.23c2.07-4.17,4.57-8.1,7.51-11.64C133.37,263.19,136.69,260.01,140.31,257.26z"/>
		</g>
		<g>
			<path class="st1" d="M144.22,279.73c-5.55,3.29-10.31,7.71-13.87,12.83c-3.59,5.11-5.95,10.92-7.04,16.85l-5.79-1.56
				c2.27-6.48,5.89-12.39,10.52-17.19C132.65,285.83,138.23,282.12,144.22,279.73z"/>
		</g>
	</g>
	<g>
		<g>
			<path class="st1" d="M378.61,309.47c0.96-7.74,1.69-15.47,1.81-23.19c0.12-7.72-0.37-15.44-1.84-22.99
				c-0.74-3.79-1.55-7.58-2.69-11.28c-1.13-3.7-2.48-7.33-4.15-10.83c-1.67-3.5-3.66-6.85-5.95-10.02c-2.28-3.18-4.9-6.11-7.6-8.98
				c2.93,2.62,5.82,5.32,8.41,8.33c2.6,3,4.94,6.24,6.97,9.69c4.08,6.89,6.93,14.46,9.05,22.17c2.02,7.8,3.02,15.83,3.37,23.83
				c0.35,8.01,0.08,16.01-0.42,23.93L378.61,309.47z"/>
		</g>
		<g>
			<path class="st1" d="M349.61,249.49c5.44,2.34,10.59,5.43,15.24,9.2c4.66,3.77,8.78,8.25,12.22,13.23
				c3.42,4.99,6.26,10.44,8.28,16.2c2.07,5.74,3.43,11.75,4.11,17.87l-5.99,0.4c-0.15-5.68-0.93-11.38-2.41-16.92
				c-1.43-5.56-3.66-10.91-6.52-15.94c-2.87-5.02-6.46-9.66-10.68-13.71C359.64,255.76,354.83,252.29,349.61,249.49z"/>
		</g>
		<g>
			<path class="st1" d="M360.77,269.63c6.75,4.08,12.63,9.85,16.85,16.8c2.13,3.46,3.83,7.22,5.09,11.14
				c1.26,3.92,2.06,8.01,2.39,12.18l-6,0.11c0.18-3.71-0.06-7.47-0.76-11.18c-0.69-3.71-1.8-7.36-3.38-10.85
				C371.86,280.84,366.95,274.54,360.77,269.63z"/>
		</g>
		<g>
			<path class="st1" d="M383.75,217.55c6.98,29.94,9.18,61.15,6.4,92.09l-5.96-0.73C388.88,278.85,388.76,247.88,383.75,217.55z"/>
		</g>
		<g>
			<path class="st1" d="M410.07,226.05c-6.12,12.92-10.74,26.5-13.72,40.37c-3,13.87-4.34,28.03-4.1,42.09l-6-0.1
				c0.76-14.51,3.16-28.88,7.19-42.73C397.45,251.84,403.06,238.52,410.07,226.05z"/>
		</g>
		<g>
			<path class="st1" d="M413.23,256.48c-3.29,3.13-6.2,6.62-8.66,10.37c-2.47,3.74-4.43,7.77-5.95,11.93
				c-1.47,4.17-2.49,8.48-2.97,12.82c-0.49,4.34-0.5,8.72-0.03,13.01l-5.99,0.31c0.01-4.76,0.54-9.49,1.59-14.09
				c1.03-4.6,2.62-9.04,4.65-13.23c2.07-4.17,4.57-8.1,7.51-11.64C406.3,262.41,409.62,259.23,413.23,256.48z"/>
		</g>
		<g>
			<path class="st1" d="M417.14,278.95c-5.55,3.29-10.31,7.71-13.87,12.83c-3.59,5.11-5.95,10.92-7.04,16.85l-5.79-1.56
				c2.27-6.48,5.89-12.39,10.52-17.19C405.57,285.05,411.16,281.35,417.14,278.95z"/>
		</g>
	</g>
	<path class="st2" d="M281.57,321.49c6.28,0,11.36-5.09,11.36-11.36s-5.09-11.36-11.36-11.36h-72.56c-6.28,0-11.36,5.09-11.36,11.36
		s5.09,11.36,11.36,11.36H281.57z"/>
	<circle class="st2" cx="114.97" cy="310.13" r="11.36"/>
	<circle class="st2" cx="387.06" cy="310.32" r="11.36"/>
</g>
<g id="SS_SS_SS">
</g>
<g id="Tall">
</g>
<g id="Under_where">
</g>
<g id="Beethoven_x27_s_V">
</g>
<g id="a_WHITE_WHALE">
</g>
<g id="X_marks_the_spot">
</g>
<g id="You_x27_re_a_cool_Dude">
</g>
<g id="Zinc_Zoo_keeper">
</g>
<g id="guides" class="st4">
</g>
</svg>
