<?xml version="1.0" encoding="utf-8"?>
<!-- Generator: Adobe Illustrator 25.2.3, SVG Export Plug-In . SVG Version: 6.00 Build 0)  -->
<svg version="1.1" xmlns="http://www.w3.org/2000/svg" xmlns:xlink="http://www.w3.org/1999/xlink" x="0px" y="0px"
	 viewBox="0 0 500 500" style="enable-background:new 0 0 500 500;" xml:space="preserve">
<style type="text/css">
	.st0{fill:#3FA9F5;}
	.st1{fill:#0071BC;}
	.st2{font-family:'AcuminPro-Semibold';}
	.st3{font-size:40.9114px;}
	.st4{fill:#FFFFFF;}
	.st5{font-family:'AcuminPro-Bold';}
	.st6{fill:#0071BC;stroke:#3FA9F5;stroke-width:3;stroke-miterlimit:10;}
	.st7{display:none;}
	.st8{display:inline;fill:#3FA9F5;}
	.st9{display:inline;fill:none;stroke:#3FA9F5;stroke-width:3;stroke-linecap:round;stroke-miterlimit:10;}
	.st10{fill:none;stroke:#3FA9F5;stroke-width:3;stroke-linecap:round;stroke-miterlimit:10;}
	.st11{fill:none;stroke:#3FA9F5;stroke-width:2.5;stroke-linecap:round;stroke-miterlimit:10;}
	.st12{display:inline;fill:#0071BC;}
	.st13{fill:#00FB20;}
	.st14{display:inline;fill:none;stroke:#0071BC;stroke-width:3;stroke-miterlimit:10;}
	.st15{display:inline;fill:none;stroke:#3FA9F5;stroke-width:3;stroke-miterlimit:10;}
	.st16{display:inline;fill:#3FA9F5;stroke:#0071BC;stroke-width:3;stroke-miterlimit:10;}
	.st17{fill:none;stroke:#0071BC;stroke-width:7;stroke-miterlimit:10;}
	.st18{fill:none;stroke:#0071BC;stroke-width:5;stroke-miterlimit:10;}
	.st19{display:none;fill:none;stroke:#0071BC;stroke-width:3;stroke-miterlimit:10;}
	.st20{display:none;fill:#0071BC;}
	.st21{display:inline;fill:#0071BC;stroke:#3FA9F5;stroke-width:3;stroke-miterlimit:10;}
	.st22{display:inline;}
	.st23{display:inline;fill:#0071BC;stroke:#3FA9F5;stroke-width:2;stroke-miterlimit:10;}
	.st24{opacity:0.6;}
	.st25{fill:#0071BC;stroke:#3FA9F5;stroke-miterlimit:10;}
	.st26{fill:#0071BC;stroke:#3FA9F5;stroke-linecap:round;stroke-miterlimit:10;}
	.st27{fill:none;stroke:#0071BC;stroke-width:12;stroke-linecap:round;stroke-miterlimit:10;}
	.st28{fill:#0071BC;stroke:#3FA9F5;stroke-width:4;stroke-miterlimit:10;}
	.st29{fill:#0071BC;stroke:#3FA9F5;stroke-width:6;stroke-miterlimit:10;}
	.st30{fill:none;stroke:#3FA9F5;stroke-width:3;stroke-miterlimit:10;}
	.st31{display:inline;fill:#FFFFFF;}
	.st32{fill:#0071BC;stroke:#3FA9F5;stroke-width:5;stroke-miterlimit:10;}
	.st33{fill:none;stroke:#3FA9F5;stroke-width:4;stroke-miterlimit:10;}
	.st34{fill:none;stroke:#3FA9F5;stroke-width:5;stroke-miterlimit:10;}
	.st35{fill:#0071BC;stroke:#3FA9F5;stroke-width:2;stroke-miterlimit:10;}
	.st36{display:inline;fill:#0071BC;stroke:#3FA9F5;stroke-linecap:round;stroke-miterlimit:10;}
	.st37{fill:#3FA9F5;stroke:#0071BC;stroke-width:4;stroke-miterlimit:10;}
	.st38{display:none;fill:#3FA9F5;stroke:#0071BC;stroke-width:5;stroke-miterlimit:10;}
	.st39{fill:#3FA9F5;stroke:#0071BC;stroke-width:3;stroke-miterlimit:10;}
	.st40{fill:#0071BC;stroke:#0071BC;stroke-width:3;stroke-miterlimit:10;}
	.st41{fill:none;stroke:#0071BC;stroke-width:22;stroke-miterlimit:10;}
	.st42{display:none;fill:none;stroke:#0071BC;stroke-width:22;stroke-miterlimit:10;}
	.st43{display:inline;fill:none;stroke:#3FA9F5;stroke-width:2;stroke-miterlimit:10;}
	.st44{fill:none;stroke:#3FA9F5;stroke-width:2;stroke-miterlimit:10;}
</style>
<g id="background">
	<rect class="st0" width="500" height="500"/>
</g>
<g id="Text">
	<text transform="matrix(1 0 0 1 118.8115 431.7672)"><tspan x="0" y="0" class="st1 st2 st3">A </tspan><tspan x="37.8" y="0" class="st4 st5 st3">P</tspan><tspan x="64.52" y="0" class="st1 st2 st3">oopy smell</tspan></text>
</g>
<g id="Apart">
</g>
<g id="Be_a_good_boy">
	<g id="Layer_12">
	</g>
</g>
<g id="Charlies_Angels">
	<g id="Faces">
	</g>
</g>
<g id="Dog_did_it">
</g>
<g id="Eek">
</g>
<g id="did_I_Fail_it">
</g>
<g id="Great_Gatsby">
</g>
<g id="hippity_hop">
	<g id="Layer_33" class="st7">
	</g>
	<g id="Layer_34" class="st24">
	</g>
	<g id="Layer_35">
	</g>
</g>
<g id="Aye_Aye">
</g>
<g id="Lets_Jump">
</g>
<g id="Kangaroo">
</g>
<g id="Ladybug">
</g>
<g id="Like_Mike">
</g>
<g id="Navy">
</g>
<g id="OMG">
</g>
<g id="A_poopy_smell">
	<path class="st1" d="M203.62,285.1c8.02,0,14.52-6.5,14.52-14.52s-6.5-14.52-14.52-14.52l-49.71,0c-8.02,0-14.52,6.5-14.52,14.52
		c0,8.02,6.5,14.52,14.52,14.52L203.62,285.1z"/>
	<path class="st1" d="M352.43,285.1c8.02,0,14.52-6.5,14.52-14.52s-6.5-14.52-14.52-14.52l-49.7,0c-8.02,0-14.52,6.5-14.52,14.52
		s6.5,14.52,14.52,14.52L352.43,285.1z"/>
	<path class="st1" d="M215.62,307.1c8.02,0,14.52-6.5,14.52-14.52s-6.5-14.52-14.52-14.52l-74.71,0c-8.02,0-14.52,6.5-14.52,14.52
		c0,8.02,6.5,14.52,14.52,14.52L215.62,307.1z"/>
	<path class="st1" d="M364.93,307.1c8.02,0,14.52-6.5,14.52-14.52s-6.5-14.52-14.52-14.52l-74.7,0c-8.02,0-14.52,6.5-14.52,14.52
		s6.5,14.52,14.52,14.52L364.93,307.1z"/>
	<path class="st4" d="M224.95,329.88c8.02,0,14.52-6.5,14.52-14.52s-6.5-14.52-14.52-14.52l-92.71,0c-8.02,0-14.52,6.5-14.52,14.52
		s6.5,14.52,14.52,14.52L224.95,329.88z"/>
	<path class="st4" d="M373.58,329.88c8.02,0,14.52-6.5,14.52-14.52c0-8.02-6.5-14.52-14.52-14.52l-92.71,0
		c-8.02,0-14.52,6.5-14.52,14.52c0,8.02,6.5,14.52,14.52,14.52L373.58,329.88z"/>
	<circle class="st4" cx="423.05" cy="315.44" r="14.44"/>
	<circle class="st4" cx="82.48" cy="315.44" r="14.44"/>
	<path class="st1" d="M341,219.9c-0.94-0.78-6.01-2.53-19.88,10.93c-2.21,2.15-4.89,3.82-7.88,4.6c-6.46,1.68-11.17,7.7-10.83,14.75
		c0.37,7.81,7.09,13.82,14.91,13.82l18.29,0c12.38-0.1,19.38-5.1,14.52-14.52c-2.73-5.29-11.75-6.27-14.52-14.52
		C332.72,226.32,342.6,221.24,341,219.9z"/>
	<path class="st1" d="M165.09,215.9c0.94-0.78,5.01,1.47,18.88,14.93c2.21,2.15,4.89,3.82,7.88,4.6c6.46,1.68,11.17,7.7,10.83,14.75
		c-0.37,7.81-7.09,13.82-14.91,13.82l-18.29,0c-12.38-0.1-19.38-5.1-14.52-14.52c2.73-5.29,11.75-6.27,14.52-14.52
		C172.37,226.32,163.49,217.24,165.09,215.9z"/>
	<g>
		<g>
			<path class="st1" d="M141.12,185.4c2.75-3.33,5.35-6.63,7.1-10.27c0.89-1.8,1.54-3.68,1.92-5.58c0.17-0.95,0.32-1.91,0.35-2.87
				c0.01-0.48,0.02-0.96,0.05-1.44c0.04-0.48-0.06-0.96-0.07-1.44c0.01-0.98-0.25-1.92-0.4-2.91c-0.27-0.96-0.49-1.95-0.9-2.9
				c-0.32-0.98-0.84-1.89-1.28-2.84c-0.54-0.9-1.05-1.83-1.65-2.7c-2.4-3.51-5.28-6.69-7.88-10.22c-1.31-1.76-2.49-3.64-3.5-5.64
				c-0.46-1.02-0.91-2.05-1.3-3.1c-0.39-1.06-0.69-2.14-0.98-3.23c-1.09-4.37-1.36-8.96-0.8-13.39c0.6-4.43,1.86-8.71,3.59-12.73
				c1.74-4.02,3.87-7.83,6.44-11.32c0.07-0.09,0.19-0.11,0.28-0.04c0.07,0.05,0.1,0.15,0.07,0.23c-1.35,4.11-2.74,8.11-3.82,12.17
				c-1.09,4.05-1.91,8.11-2.32,12.17c-0.38,4.06-0.45,8.12,0.25,12.12c0.73,3.98,2.07,7.86,3.95,11.62
				c1.86,3.78,4.42,7.22,7.06,10.61c1.33,1.69,2.68,3.4,3.87,5.31c0.63,0.93,1.11,1.96,1.61,3c0.22,0.53,0.39,1.09,0.58,1.64
				c0.21,0.55,0.34,1.12,0.43,1.7c0.94,4.65-0.41,9.52-2.85,13.31c-2.44,3.84-5.79,6.87-9.55,9.06c-0.1,0.06-0.22,0.02-0.28-0.07
				C141.06,185.56,141.07,185.47,141.12,185.4z"/>
		</g>
		<g>
			<path class="st1" d="M174.21,73.31c-1.3,1.75-2.6,3.43-3.76,5.15c-1.14,1.74-2.19,3.48-3.03,5.27c-0.84,1.79-1.48,3.62-1.83,5.48
				c-0.16,0.93-0.3,1.87-0.34,2.8c-0.01,0.47-0.02,0.93-0.06,1.4c-0.04,0.47,0.05,0.93,0.05,1.4c-0.03,0.95,0.2,1.88,0.32,2.85
				c0.24,0.95,0.43,1.93,0.81,2.88c0.29,0.98,0.79,1.9,1.21,2.85c0.51,0.92,1.01,1.84,1.61,2.72c2.36,3.53,5.3,6.67,7.98,10.18
				c1.35,1.75,2.59,3.62,3.64,5.63c0.48,1.02,0.95,2.06,1.35,3.12c0.41,1.07,0.72,2.16,1.02,3.26c1.14,4.42,1.45,9.07,0.87,13.55
				c-0.62,4.48-1.94,8.78-3.75,12.8c-1.82,4.02-4.05,7.8-6.77,11.21c-0.09,0.11-0.25,0.13-0.36,0.04c-0.08-0.07-0.11-0.18-0.09-0.27
				c1.2-4.18,2.49-8.21,3.49-12.27c1.01-4.05,1.78-8.09,2.16-12.1c0.36-4.01,0.47-8.01-0.18-11.96c-0.69-3.92-1.94-7.78-3.72-11.58
				c-1.77-3.81-4.28-7.29-6.95-10.66l-2.03-2.56c-0.65-0.89-1.35-1.75-1.95-2.72c-0.66-0.93-1.16-1.97-1.7-3.01
				c-0.24-0.54-0.41-1.1-0.62-1.66c-0.22-0.56-0.36-1.14-0.47-1.73c-1.02-4.75,0.41-9.74,2.92-13.56c1.25-1.94,2.75-3.66,4.43-5.13
				c1.66-1.49,3.48-2.76,5.43-3.78c0.13-0.07,0.28-0.02,0.35,0.11C174.28,73.13,174.27,73.24,174.21,73.31z"/>
		</g>
		<g>
			<path class="st1" d="M211.42,187.25c-3.76-2.19-7.1-5.22-9.55-9.06c-2.44-3.79-3.79-8.67-2.85-13.31
				c0.09-0.58,0.22-1.15,0.43-1.7c0.19-0.55,0.36-1.11,0.58-1.64c0.51-1.03,0.98-2.07,1.61-3c1.18-1.9,2.53-3.62,3.87-5.31
				c2.64-3.4,5.2-6.84,7.06-10.61c1.88-3.76,3.22-7.64,3.95-11.62c0.7-3.99,0.64-8.06,0.25-12.12c-0.41-4.06-1.23-8.13-2.32-12.17
				c-1.08-4.05-2.47-8.06-3.82-12.17c-0.04-0.11,0.02-0.22,0.13-0.26c0.08-0.03,0.18,0,0.23,0.07c2.57,3.49,4.7,7.3,6.44,11.32
				c1.73,4.02,2.99,8.3,3.59,12.73c0.55,4.43,0.29,9.02-0.8,13.39c-0.29,1.09-0.59,2.17-0.98,3.23c-0.39,1.05-0.85,2.08-1.3,3.1
				c-1.01,1.99-2.2,3.88-3.5,5.64c-2.6,3.53-5.48,6.71-7.88,10.22c-0.6,0.88-1.12,1.8-1.65,2.7c-0.44,0.95-0.96,1.86-1.28,2.84
				c-0.4,0.95-0.63,1.94-0.9,2.9c-0.15,0.98-0.4,1.93-0.4,2.91c-0.01,0.48-0.11,0.96-0.07,1.44c0.03,0.48,0.04,0.96,0.05,1.44
				c0.04,0.96,0.18,1.92,0.35,2.87c0.38,1.9,1.03,3.78,1.92,5.58c1.75,3.64,4.35,6.94,7.1,10.27c0.07,0.09,0.06,0.21-0.03,0.29
				C211.58,187.28,211.49,187.29,211.42,187.25z"/>
		</g>
	</g>
	<g>
		<g>
			<path class="st1" d="M361.98,73.69c-2.75,3.33-5.35,6.63-7.1,10.27c-0.89,1.8-1.54,3.68-1.92,5.58
				c-0.17,0.95-0.32,1.91-0.35,2.87c-0.01,0.48-0.02,0.96-0.05,1.44c-0.04,0.48,0.06,0.96,0.07,1.44c-0.01,0.98,0.25,1.92,0.4,2.91
				c0.27,0.96,0.49,1.95,0.9,2.9c0.32,0.98,0.84,1.89,1.28,2.84c0.54,0.9,1.05,1.83,1.65,2.7c2.4,3.51,5.28,6.69,7.88,10.22
				c1.3,1.76,2.49,3.64,3.5,5.64c0.46,1.02,0.91,2.05,1.3,3.1c0.39,1.06,0.69,2.14,0.98,3.23c1.09,4.37,1.36,8.96,0.8,13.39
				c-0.6,4.43-1.86,8.71-3.59,12.73c-1.74,4.02-3.87,7.83-6.44,11.32c-0.07,0.09-0.19,0.11-0.28,0.04c-0.07-0.05-0.1-0.15-0.07-0.23
				c1.35-4.11,2.74-8.11,3.82-12.17c1.09-4.05,1.91-8.11,2.32-12.17c0.38-4.06,0.45-8.12-0.25-12.12
				c-0.73-3.98-2.07-7.86-3.95-11.62c-1.86-3.78-4.42-7.22-7.06-10.61c-1.33-1.69-2.68-3.4-3.87-5.31c-0.63-0.93-1.11-1.96-1.61-3
				c-0.22-0.53-0.39-1.09-0.58-1.64c-0.21-0.55-0.34-1.12-0.43-1.7c-0.94-4.65,0.41-9.52,2.85-13.31c2.44-3.84,5.79-6.87,9.55-9.06
				c0.1-0.06,0.22-0.02,0.28,0.07C362.04,73.54,362.03,73.63,361.98,73.69z"/>
		</g>
		<g>
			<path class="st1" d="M328.89,185.78c1.3-1.75,2.6-3.43,3.76-5.15c1.14-1.74,2.19-3.48,3.03-5.27c0.84-1.79,1.48-3.62,1.83-5.48
				c0.16-0.93,0.3-1.87,0.34-2.8c0.01-0.47,0.02-0.93,0.06-1.4c0.04-0.47-0.05-0.93-0.05-1.4c0.03-0.95-0.2-1.88-0.32-2.85
				c-0.24-0.95-0.43-1.93-0.81-2.88c-0.29-0.98-0.79-1.9-1.21-2.85c-0.51-0.92-1.01-1.84-1.61-2.72c-2.36-3.53-5.3-6.67-7.98-10.18
				c-1.35-1.75-2.59-3.62-3.64-5.63c-0.48-1.02-0.95-2.06-1.35-3.12c-0.41-1.07-0.72-2.16-1.02-3.26
				c-1.14-4.42-1.45-9.07-0.87-13.55c0.62-4.48,1.94-8.78,3.75-12.8c1.82-4.02,4.05-7.8,6.77-11.21c0.09-0.11,0.25-0.13,0.36-0.04
				c0.08,0.07,0.11,0.18,0.09,0.27c-1.2,4.18-2.49,8.21-3.49,12.27c-1.01,4.05-1.78,8.09-2.16,12.1c-0.36,4.01-0.47,8.01,0.18,11.96
				c0.69,3.92,1.94,7.78,3.72,11.58c1.77,3.81,4.28,7.29,6.95,10.66l2.03,2.56c0.65,0.89,1.35,1.75,1.95,2.72
				c0.66,0.93,1.16,1.97,1.7,3.01c0.24,0.54,0.41,1.1,0.62,1.66c0.22,0.56,0.36,1.14,0.47,1.73c1.02,4.75-0.41,9.74-2.92,13.56
				c-1.25,1.94-2.75,3.66-4.43,5.13c-1.66,1.49-3.48,2.76-5.43,3.78c-0.13,0.07-0.28,0.02-0.35-0.11
				C328.82,185.96,328.83,185.86,328.89,185.78z"/>
		</g>
		<g>
			<path class="st1" d="M291.68,71.85c3.76,2.19,7.1,5.22,9.55,9.06c2.44,3.79,3.79,8.67,2.85,13.31c-0.09,0.58-0.22,1.15-0.43,1.7
				c-0.19,0.55-0.36,1.11-0.58,1.64c-0.51,1.03-0.98,2.07-1.61,3c-1.18,1.9-2.53,3.62-3.87,5.31c-2.64,3.4-5.2,6.84-7.06,10.61
				c-1.88,3.76-3.22,7.64-3.95,11.62c-0.7,3.99-0.64,8.06-0.25,12.12c0.41,4.06,1.23,8.13,2.32,12.17
				c1.08,4.05,2.47,8.06,3.82,12.17c0.04,0.11-0.02,0.22-0.13,0.26c-0.08,0.03-0.18,0-0.23-0.07c-2.57-3.49-4.7-7.3-6.44-11.32
				c-1.73-4.02-2.99-8.3-3.59-12.73c-0.55-4.43-0.29-9.02,0.8-13.39c0.29-1.09,0.59-2.17,0.98-3.23c0.39-1.05,0.85-2.08,1.3-3.1
				c1.01-1.99,2.2-3.88,3.5-5.64c2.6-3.53,5.48-6.71,7.88-10.22c0.6-0.88,1.12-1.8,1.65-2.7c0.44-0.95,0.96-1.86,1.28-2.84
				c0.4-0.95,0.63-1.94,0.9-2.9c0.15-0.98,0.4-1.93,0.4-2.91c0.01-0.48,0.11-0.96,0.07-1.44c-0.03-0.48-0.04-0.96-0.05-1.44
				c-0.04-0.96-0.18-1.92-0.35-2.87c-0.38-1.9-1.03-3.78-1.92-5.58c-1.75-3.64-4.35-6.94-7.1-10.27c-0.07-0.09-0.06-0.21,0.03-0.29
				C291.51,71.81,291.61,71.81,291.68,71.85z"/>
		</g>
	</g>
</g>
<g id="God_save_the_Queen">
</g>
<g id="Rabbit">
</g>
<g id="SS_SS_SS">
</g>
<g id="Tall">
</g>
<g id="Under_where">
</g>
<g id="Beethoven_x27_s_V">
</g>
<g id="a_WHITE_WHALE">
</g>
<g id="X_marks_the_spot">
</g>
<g id="You_x27_re_a_cool_Dude">
</g>
<g id="Zinc_Zoo_keeper">
</g>
<g id="guides" class="st7">
</g>
</svg>
