<?xml version="1.0" encoding="utf-8"?>
<!-- Generator: Adobe Illustrator 25.2.3, SVG Export Plug-In . SVG Version: 6.00 Build 0)  -->
<svg version="1.1" xmlns="http://www.w3.org/2000/svg" xmlns:xlink="http://www.w3.org/1999/xlink" x="0px" y="0px"
	 viewBox="0 0 500 500" style="enable-background:new 0 0 500 500;" xml:space="preserve">
<style type="text/css">
	.st0{fill:#3FA9F5;}
	.st1{fill:#FFFFFF;}
	.st2{font-family:'AcuminPro-Bold';}
	.st3{font-size:40.9114px;}
	.st4{fill:#0071BC;}
	.st5{font-family:'AcuminPro-Semibold';}
	.st6{fill:#0071BC;stroke:#3FA9F5;stroke-width:3;stroke-miterlimit:10;}
	.st7{display:none;}
	.st8{display:inline;fill:#3FA9F5;}
	.st9{display:inline;fill:none;stroke:#3FA9F5;stroke-width:3;stroke-linecap:round;stroke-miterlimit:10;}
	.st10{fill:none;stroke:#3FA9F5;stroke-width:3;stroke-linecap:round;stroke-miterlimit:10;}
	.st11{fill:none;stroke:#3FA9F5;stroke-width:2.5;stroke-linecap:round;stroke-miterlimit:10;}
	.st12{display:inline;fill:#0071BC;}
	.st13{fill:#00FB20;}
	.st14{display:inline;fill:none;stroke:#0071BC;stroke-width:3;stroke-miterlimit:10;}
	.st15{display:inline;fill:none;stroke:#3FA9F5;stroke-width:3;stroke-miterlimit:10;}
	.st16{display:inline;fill:#3FA9F5;stroke:#0071BC;stroke-width:3;stroke-miterlimit:10;}
	.st17{fill:none;stroke:#0071BC;stroke-width:7;stroke-miterlimit:10;}
	.st18{fill:none;stroke:#0071BC;stroke-width:5;stroke-miterlimit:10;}
	.st19{display:none;fill:none;stroke:#0071BC;stroke-width:3;stroke-miterlimit:10;}
	.st20{display:none;fill:#0071BC;}
	.st21{display:inline;fill:#0071BC;stroke:#3FA9F5;stroke-width:3;stroke-miterlimit:10;}
	.st22{display:inline;}
	.st23{display:inline;fill:#0071BC;stroke:#3FA9F5;stroke-width:2;stroke-miterlimit:10;}
	.st24{opacity:0.6;}
	.st25{fill:#0071BC;stroke:#3FA9F5;stroke-miterlimit:10;}
	.st26{fill:#0071BC;stroke:#3FA9F5;stroke-linecap:round;stroke-miterlimit:10;}
	.st27{fill:none;stroke:#0071BC;stroke-width:12;stroke-linecap:round;stroke-miterlimit:10;}
	.st28{fill:#0071BC;stroke:#3FA9F5;stroke-width:4;stroke-miterlimit:10;}
	.st29{fill:#0071BC;stroke:#3FA9F5;stroke-width:6;stroke-miterlimit:10;}
	.st30{fill:none;stroke:#3FA9F5;stroke-width:3;stroke-miterlimit:10;}
	.st31{display:inline;fill:#FFFFFF;}
	.st32{fill:#0071BC;stroke:#3FA9F5;stroke-width:5;stroke-miterlimit:10;}
	.st33{fill:none;stroke:#3FA9F5;stroke-width:4;stroke-miterlimit:10;}
	.st34{fill:none;stroke:#3FA9F5;stroke-width:5;stroke-miterlimit:10;}
	.st35{fill:#0071BC;stroke:#3FA9F5;stroke-width:2;stroke-miterlimit:10;}
	.st36{display:inline;fill:#0071BC;stroke:#3FA9F5;stroke-linecap:round;stroke-miterlimit:10;}
	.st37{fill:#3FA9F5;stroke:#0071BC;stroke-width:4;stroke-miterlimit:10;}
	.st38{display:none;fill:#3FA9F5;stroke:#0071BC;stroke-width:5;stroke-miterlimit:10;}
	.st39{fill:#3FA9F5;stroke:#0071BC;stroke-width:3;stroke-miterlimit:10;}
	.st40{fill:#0071BC;stroke:#0071BC;stroke-width:3;stroke-miterlimit:10;}
	.st41{fill:none;stroke:#0071BC;stroke-width:22;stroke-miterlimit:10;}
	.st42{display:none;fill:none;stroke:#0071BC;stroke-width:22;stroke-miterlimit:10;}
	.st43{display:inline;fill:none;stroke:#3FA9F5;stroke-width:2;stroke-miterlimit:10;}
	.st44{fill:none;stroke:#3FA9F5;stroke-width:2;stroke-miterlimit:10;}
</style>
<g id="background">
	<rect class="st0" width="500" height="500"/>
</g>
<g id="Text">
	<text transform="matrix(1 0 0 1 181.8514 431.7672)"><tspan x="0" y="0" class="st1 st2 st3">A</tspan><tspan x="28.15" y="0" class="st4 st5 st3">part</tspan></text>
</g>
<g id="Apart">
	<path class="st4" d="M346.25,341.32c0,0,0.68-3.95,0-9.4c0,0,0.19-5.1-2.35-8.81c-3.82-5.58-8.64-8.12-13.22-13.81
		c-5.5-6.82-10.71-17.26-10.28-25.56c0.05-1.05,0.29-4-0.29-7.93c-0.55-3.68-0.89-6.01-2.35-8.23c-2.57-3.92-5.64-3.04-12.34-8.23
		c-3.06-2.38-4.62-3.62-5.29-5.88c-1.45-4.91,2.71-9.73,2.94-9.99c4.56-5.14,12.92-5.62,18.81-3.53
		c8.32,2.96,10.58,10.64,12.34,9.99c0,0,0-69.93,0-82.27c0-2.33,3.53-9.99,11.75-9.99c5.88,0,11.17,4.7,11.17,9.4
		c0,4.85,0,51.13,0,51.13s2.35-5.33,10.58-4.7c7.64,0.59,9.99,8.81,9.99,8.81s1.76-4.7,11.17-4.7c9.4,0,9.99,12.93,9.99,12.93
		s2.35-5.29,11.17-4.11c4.08,0.54,9.4,3.96,9.4,15.87c0,5.88,0.59,38.79,0,47.01c-0.55,7.68-3.11,13.5-7.05,20.57
		c-3.08,5.52-5.36,6.38-6.46,11.17c-1.76,7.64-1.18,19.98-1.18,19.98L346.25,341.32z"/>
	<path class="st4" d="M180.99,342c0,0-0.68-3.95,0-9.4c0,0-0.19-5.1,2.35-8.81c3.82-5.58,8.64-8.12,13.22-13.81
		c5.5-6.82,10.71-17.26,10.28-25.56c-0.05-1.05-0.29-4,0.29-7.93c0.55-3.68,0.89-6.01,2.35-8.23c2.57-3.92,5.64-3.04,12.34-8.23
		c3.06-2.37,4.62-3.62,5.29-5.88c1.45-4.91-2.71-9.73-2.94-9.99c-4.56-5.14-12.92-5.62-18.81-3.53
		c-8.32,2.96-10.58,10.64-12.34,9.99c0,0,0-69.93,0-82.27c0-2.33-3.53-9.99-11.75-9.99c-5.88,0-11.17,4.7-11.17,9.4
		c0,4.85,0,51.13,0,51.13s-2.35-5.33-10.58-4.7c-7.64,0.59-9.99,8.81-9.99,8.81s-1.76-4.7-11.17-4.7s-9.99,12.93-9.99,12.93
		s-2.35-5.29-11.17-4.11c-4.08,0.54-9.4,3.96-9.4,15.87c0,5.88-0.59,38.79,0,47.01c0.55,7.68,3.11,13.5,7.05,20.57
		c3.08,5.52,5.36,6.38,6.46,11.17c1.76,7.64,1.18,19.98,1.18,19.98L180.99,342z"/>
	<circle class="st1" cx="181.18" cy="169.29" r="11.36"/>
	<path class="st1" d="M346.44,180.66c6.28,0,11.36-5.09,11.36-11.36s-5.09-11.36-11.36-11.36h-72.56c-6.28,0-11.36,5.09-11.36,11.36
		s5.09,11.36,11.36,11.36H346.44z"/>
</g>
<g id="Be_a_good_boy">
	<g id="Layer_12">
	</g>
</g>
<g id="Charlies_Angels">
	<g id="Faces">
	</g>
</g>
<g id="Dog_did_it">
</g>
<g id="Eek">
</g>
<g id="did_I_Fail_it">
</g>
<g id="Great_Gatsby">
</g>
<g id="hippity_hop">
	<g id="Layer_33" class="st7">
	</g>
	<g id="Layer_34" class="st24">
	</g>
	<g id="Layer_35">
	</g>
</g>
<g id="Aye_Aye">
</g>
<g id="Lets_Jump">
</g>
<g id="Kangaroo">
</g>
<g id="Ladybug">
</g>
<g id="Like_Mike">
</g>
<g id="Navy">
</g>
<g id="OMG">
</g>
<g id="A_poopy_smell">
</g>
<g id="God_save_the_Queen">
</g>
<g id="Rabbit">
</g>
<g id="SS_SS_SS">
</g>
<g id="Tall">
</g>
<g id="Under_where">
</g>
<g id="Beethoven_x27_s_V">
</g>
<g id="a_WHITE_WHALE">
</g>
<g id="X_marks_the_spot">
</g>
<g id="You_x27_re_a_cool_Dude">
</g>
<g id="Zinc_Zoo_keeper">
</g>
<g id="guides" class="st7">
</g>
</svg>
