<?xml version="1.0" encoding="utf-8"?>
<!-- Generator: Adobe Illustrator 25.2.3, SVG Export Plug-In . SVG Version: 6.00 Build 0)  -->
<svg version="1.1" xmlns="http://www.w3.org/2000/svg" xmlns:xlink="http://www.w3.org/1999/xlink" x="0px" y="0px"
	 viewBox="0 0 500 500" style="enable-background:new 0 0 500 500;" xml:space="preserve">
<style type="text/css">
	.st0{fill:#3FA9F5;}
	.st1{fill:#FFFFFF;}
	.st2{font-family:'AcuminPro-Bold';}
	.st3{font-size:40.9114px;}
	.st4{fill:#0071BC;}
	.st5{font-family:'AcuminPro-Semibold';}
	.st6{fill:#0071BC;stroke:#3FA9F5;stroke-width:3;stroke-miterlimit:10;}
	.st7{display:none;}
	.st8{display:inline;fill:#3FA9F5;}
	.st9{display:inline;fill:none;stroke:#3FA9F5;stroke-width:3;stroke-linecap:round;stroke-miterlimit:10;}
	.st10{fill:none;stroke:#3FA9F5;stroke-width:3;stroke-linecap:round;stroke-miterlimit:10;}
	.st11{fill:none;stroke:#3FA9F5;stroke-width:2.5;stroke-linecap:round;stroke-miterlimit:10;}
	.st12{display:inline;fill:#0071BC;}
	.st13{fill:#00FB20;}
	.st14{display:inline;fill:none;stroke:#0071BC;stroke-width:3;stroke-miterlimit:10;}
	.st15{display:inline;fill:none;stroke:#3FA9F5;stroke-width:3;stroke-miterlimit:10;}
	.st16{display:inline;fill:#3FA9F5;stroke:#0071BC;stroke-width:3;stroke-miterlimit:10;}
	.st17{fill:none;stroke:#0071BC;stroke-width:7;stroke-miterlimit:10;}
	.st18{fill:none;stroke:#0071BC;stroke-width:5;stroke-miterlimit:10;}
	.st19{display:none;fill:none;stroke:#0071BC;stroke-width:3;stroke-miterlimit:10;}
	.st20{display:none;fill:#0071BC;}
	.st21{display:inline;fill:#0071BC;stroke:#3FA9F5;stroke-width:3;stroke-miterlimit:10;}
	.st22{display:inline;}
	.st23{display:inline;fill:#0071BC;stroke:#3FA9F5;stroke-width:2;stroke-miterlimit:10;}
	.st24{opacity:0.6;}
	.st25{fill:#0071BC;stroke:#3FA9F5;stroke-miterlimit:10;}
	.st26{fill:#0071BC;stroke:#3FA9F5;stroke-linecap:round;stroke-miterlimit:10;}
	.st27{fill:none;stroke:#0071BC;stroke-width:12;stroke-linecap:round;stroke-miterlimit:10;}
	.st28{fill:#0071BC;stroke:#3FA9F5;stroke-width:4;stroke-miterlimit:10;}
	.st29{fill:#0071BC;stroke:#3FA9F5;stroke-width:6;stroke-miterlimit:10;}
	.st30{fill:none;stroke:#3FA9F5;stroke-width:3;stroke-miterlimit:10;}
	.st31{display:inline;fill:#FFFFFF;}
	.st32{fill:#0071BC;stroke:#3FA9F5;stroke-width:5;stroke-miterlimit:10;}
	.st33{fill:none;stroke:#3FA9F5;stroke-width:4;stroke-miterlimit:10;}
	.st34{fill:none;stroke:#3FA9F5;stroke-width:5;stroke-miterlimit:10;}
	.st35{fill:#0071BC;stroke:#3FA9F5;stroke-width:2;stroke-miterlimit:10;}
	.st36{display:inline;fill:#0071BC;stroke:#3FA9F5;stroke-linecap:round;stroke-miterlimit:10;}
	.st37{fill:#3FA9F5;stroke:#0071BC;stroke-width:4;stroke-miterlimit:10;}
	.st38{display:none;fill:#3FA9F5;stroke:#0071BC;stroke-width:5;stroke-miterlimit:10;}
	.st39{fill:#3FA9F5;stroke:#0071BC;stroke-width:3;stroke-miterlimit:10;}
	.st40{fill:#0071BC;stroke:#0071BC;stroke-width:3;stroke-miterlimit:10;}
	.st41{fill:none;stroke:#0071BC;stroke-width:22;stroke-miterlimit:10;}
	.st42{display:none;fill:none;stroke:#0071BC;stroke-width:22;stroke-miterlimit:10;}
	.st43{display:inline;fill:none;stroke:#3FA9F5;stroke-width:2;stroke-miterlimit:10;}
	.st44{fill:none;stroke:#3FA9F5;stroke-width:2;stroke-miterlimit:10;}
	.st45{font-size:14px;}
</style>
<g id="background">
	<rect class="st0" width="500" height="500"/>
</g>
<g id="Text">
	<text transform="matrix(1 0 0 1 87.8115 431.7672)"><tspan x="0" y="0" class="st1 st2 st3">Z</tspan><tspan x="25.24" y="0" class="st4 st5 st3">inc Zookeeper</tspan></text>
</g>
<g id="Apart">
</g>
<g id="Be_a_good_boy">
	<g id="Layer_12">
	</g>
</g>
<g id="Charlies_Angels">
	<g id="Faces">
	</g>
</g>
<g id="Dog_did_it">
</g>
<g id="Eek">
</g>
<g id="did_I_Fail_it">
</g>
<g id="Great_Gatsby">
</g>
<g id="hippity_hop">
	<g id="Layer_33" class="st7">
	</g>
	<g id="Layer_34" class="st24">
	</g>
	<g id="Layer_35">
	</g>
</g>
<g id="Aye_Aye">
</g>
<g id="Lets_Jump">
</g>
<g id="Kangaroo">
</g>
<g id="Ladybug">
</g>
<g id="Like_Mike">
</g>
<g id="Navy">
</g>
<g id="OMG">
</g>
<g id="A_poopy_smell">
</g>
<g id="God_save_the_Queen">
</g>
<g id="Rabbit">
</g>
<g id="SS_SS_SS">
</g>
<g id="Tall">
</g>
<g id="Under_where">
</g>
<g id="Beethoven_x27_s_V">
</g>
<g id="a_WHITE_WHALE">
</g>
<g id="X_marks_the_spot">
</g>
<g id="You_x27_re_a_cool_Dude">
</g>
<g id="Zinc_Zoo_keeper">
	<line class="st41" x1="108.82" y1="290" x2="89.68" y2="338"/>
	<path class="st42" d="M262.28,252.66l55.57,37.77c0.31,0.21,0.72,0.23,1.05,0.04l62.27-35.08"/>
	<g>
		<path class="st4" d="M136.48,123.65c0,0-0.7-13.22,2.34-23.38c1.97-6.59,3.14-10.49,6.23-14.8c4.7-6.55,9.22-7.6,38.18-18.7
			c1.4-0.54,4.5-1.73,8.57-1.56c4.23,0.17,7.31,1.72,8.57,2.34c16.9,8.27,25.72,6.09,35.06,16.36c5.58,6.13,7.67,12.67,8.57,15.58
			c1.65,5.35,0.78,21.82,0.78,21.82s-24.26-3.07-55.32-2.34C159.57,119.68,136.48,123.65,136.48,123.65z"/>
		<path class="st4" d="M107.26,145.08c-2.21-7.8,18.43-20.42,29.61-25.71c17.6-8.33,32.88-8.53,58.44-8.57
			c23.6-0.04,35.69,0.08,49.87,7.01c12.02,5.88,29.7,18.65,27.27,26.49c-2.38,7.71-22.58,5.41-78.7,5.45
			C131.56,149.81,109.41,152.68,107.26,145.08z"/>
		<g>
			<path class="st0" d="M195.55,159.79c-40.45,0.98-86.71-6.23-86.73-13.56c-0.03-7.33,46.28-14.97,86.73-14.4
				c33.65,0.47,74.53,6.77,74.56,13.56C270.14,152.18,229.36,158.98,195.55,159.79z"/>
			<path class="st4" d="M195.55,159.79c-6.95,0.18-13.91,0.13-20.86-0.11c-6.95-0.24-13.9-0.63-20.83-1.25
				c-6.93-0.62-13.86-1.37-20.74-2.48c-3.44-0.55-6.87-1.19-10.28-1.98c-3.4-0.81-6.8-1.7-10.07-3.14c-0.82-0.37-1.63-0.78-2.4-1.29
				c-0.76-0.54-1.57-1.11-2.09-2.16c-0.25-0.52-0.35-1.21-0.19-1.81c0.15-0.6,0.47-1.09,0.8-1.47c0.68-0.79,1.46-1.31,2.24-1.8
				c3.17-1.84,6.55-2.89,9.92-3.89c6.76-1.92,13.64-3.25,20.54-4.34c13.81-2.13,27.75-3.28,41.71-3.65
				c13.97-0.34,27.96,0.34,41.83,1.84c6.94,0.75,13.85,1.75,20.73,3.02c3.43,0.64,6.86,1.36,10.25,2.23
				c3.39,0.89,6.77,1.85,10.03,3.35c0.81,0.38,1.61,0.8,2.38,1.33c0.75,0.53,1.54,1.13,2.03,2.15c0.24,0.5,0.31,1.17,0.14,1.73
				c-0.16,0.56-0.48,1-0.81,1.37c-0.69,0.72-1.46,1.22-2.25,1.67c-3.18,1.7-6.57,2.64-9.94,3.54c-6.77,1.72-13.66,2.83-20.55,3.81
				c-6.89,0.97-13.82,1.68-20.75,2.25C209.45,159.26,202.5,159.64,195.55,159.79z M195.55,159.79c13.9-0.39,27.79-1.62,41.52-3.78
				c6.86-1.1,13.69-2.43,20.36-4.31c3.31-0.97,6.65-2.02,9.58-3.69c0.71-0.42,1.39-0.91,1.9-1.47c0.5-0.59,0.67-1.13,0.39-1.66
				c-0.27-0.56-0.91-1.09-1.59-1.52c-0.68-0.44-1.43-0.81-2.21-1.15c-3.11-1.33-6.47-2.2-9.82-2.98c-3.36-0.77-6.77-1.39-10.19-1.93
				c-6.84-1.09-13.73-1.85-20.63-2.48c-6.9-0.64-13.82-1.04-20.74-1.3c-6.92-0.27-13.84-0.3-20.76-0.12
				c-6.92,0.15-13.84,0.5-20.75,1.04c-6.91,0.53-13.8,1.21-20.66,2.16c-6.85,0.95-13.7,2.05-20.37,3.77
				c-3.31,0.88-6.66,1.86-9.56,3.44c-1.4,0.77-2.79,1.98-2.27,2.88c0.22,0.54,0.85,1.09,1.49,1.55c0.66,0.46,1.4,0.86,2.15,1.23
				c3.06,1.45,6.4,2.43,9.73,3.32c3.35,0.87,6.74,1.59,10.15,2.24c6.82,1.27,13.71,2.26,20.62,2.98
				C167.72,159.47,181.64,160.08,195.55,159.79z"/>
		</g>
		<g>
			<path class="st0" d="M134.53,120.14c4.26-2.39,8.54-4.65,12.95-6.73c4.41-2.07,8.96-3.91,13.64-5.46
				c9.36-3.06,19.27-4.96,29.29-5.03c10-0.15,19.93,1.4,29.39,4.15c9.48,2.75,18.41,6.77,26.92,11.51
				c-2.42-0.36-4.81-0.84-7.19-1.31l-7.09-1.45c-4.7-0.96-9.37-1.88-14.04-2.62c-9.32-1.51-18.64-2.41-27.91-2.29
				c-9.26,0.05-18.52,1.27-27.78,3.09c-4.64,0.9-9.27,1.98-13.95,3.09c-2.34,0.55-4.69,1.12-7.06,1.63
				C139.34,119.26,136.95,119.77,134.53,120.14z"/>
		</g>
		<g>
			<path class="st0" d="M183.62,69.5c0.1,3.99-0.89,8.05-2.76,11.71c-1.87,3.67-4.72,6.86-8.12,9.24c-3.42,2.36-7.38,3.9-11.41,4.51
				c-4.02,0.64-8.14,0.53-12-0.53c3.97-0.19,7.82-0.74,11.5-1.76c3.69-0.98,7.12-2.59,10.19-4.68c0.81-0.47,1.48-1.12,2.23-1.68
				c0.74-0.57,1.34-1.29,2.04-1.91c1.34-1.31,2.47-2.81,3.55-4.36C180.93,76.87,182.49,73.31,183.62,69.5z"/>
		</g>
		<g>
			<path class="st0" d="M198.15,69.83c1.13,3.82,2.69,7.37,4.78,10.53c1.08,1.55,2.21,3.06,3.55,4.36c0.7,0.62,1.3,1.34,2.04,1.91
				c0.74,0.56,1.42,1.21,2.23,1.68c3.07,2.09,6.51,3.7,10.19,4.68c3.68,1.02,7.53,1.57,11.5,1.76c-3.85,1.06-7.98,1.17-12,0.53
				c-4.03-0.61-7.98-2.15-11.41-4.51c-3.4-2.39-6.25-5.57-8.12-9.24C199.04,77.88,198.05,73.82,198.15,69.83z"/>
		</g>
	</g>
	<path class="st4" d="M368.89,287.39c1.73-4,3.95-7.77,10.11-8.39c10-1,14.52,0.47,28.82,0.77c19.38,0.4,18.03-0.78,19.7-1.69
		c6.43-3.53,8.36-8.82,13.54-8.46c3.52,0.24-3.32,17.33-13.54,19.47c-12.7,2.65-13.52,1.92-26.47,1.69
		c-3.96-0.07-12.1,6.37-17.05,8.23c-8,3-11,3-15,3C363.41,302,365.72,294.71,368.89,287.39z"/>
	<g class="st7">
		<polygon class="st43" points="144.03,259.62 171.9,259.62 162.58,267.41 149.96,267.41 		"/>
		<polygon class="st43" points="142.85,259.62 143.1,287.67 157.13,294.68 173.46,288.45 173.46,259.62 		"/>
		<line class="st43" x1="150.54" y1="267.41" x2="150.54" y2="291.65"/>
		<line class="st43" x1="161.8" y1="267.41" x2="161.8" y2="292.43"/>
	</g>
	<g class="st7">
		<path class="st8" d="M435.02,246.05c-2.11,0.93-4.1,2.11-5.9,3.53c-0.91,0.7-1.74,1.47-2.57,2.27c-0.83,0.8-1.63,1.61-2.35,2.48
			c-1.44,1.75-2.4,3.8-2.74,5.97c-0.4,2.18-0.08,4.46,0.58,6.67l-0.09,0.04c-1.21-2-1.73-4.45-1.48-6.85
			c0.24-2.43,1.55-4.63,3.12-6.36c0.79-0.88,1.64-1.68,2.51-2.44c0.86-0.77,1.76-1.53,2.71-2.2c1.91-1.34,3.99-2.41,6.16-3.22
			L435.02,246.05z"/>
	</g>
	<g>
		<path class="st4" d="M433.98,280c3.76-1.17,10.1,28.78,12.2,42c0.71,4.49,1.4,9.95,0,11c-1.96,1.47-6.85-6.47-7.18-7
			C429.25,310,430.42,281.11,433.98,280z"/>
		<path class="st4" d="M387.5,232.5c3.74-17.06,7.45-20.66,9-22c10.62-9.18,26.8-4.73,29-4C439,211,443,221,443,226
			c0,0-6.5-1.5-5.5,0.5c0,0,4.5,5.5,4.5,9.5c0,0-5-4-6-1c0,0-1.54,7.14-1.5,10.5c0.15,12.59,0.76,15.1,1.5,19.5c0.58,3.45,0,9-4,12
			c1.71,4.33-7.13,5.07-12,8c-9.48,5.7-26.81-0.64-34-12C380.52,264.33,382.85,253.72,387.5,232.5z"/>
		<g>
			<path class="st0" d="M387,250.62c-2.91,2.34-10,12.47-10,21.82c0,7.89,1.08,8.81,4,11.43c3.93,3.54,9.78,4.64,26,2.08
				c15.99-2.52,14.95-3.6,15-5.19c0.05-1.67,0.31-0.09-11-6.23c-5.2-2.83-15.62-8.48-17-17.66c-0.6-4,0.73-7.21-1-8.31
				C390.87,247.18,389.56,248.56,387,250.62z"/>
			<path class="st4" d="M387.13,250.78c-2.09,1.81-3.7,4.18-5.11,6.57c-1.4,2.42-2.51,5.01-3.28,7.67
				c-0.39,1.33-0.65,2.69-0.85,4.05c-0.15,1.37-0.2,2.7-0.12,4.09c0.06,1.39,0.16,2.77,0.37,4.1c0.21,1.33,0.55,2.56,1.26,3.51
				c0.35,0.49,0.78,0.94,1.28,1.39c0.49,0.44,1.05,0.94,1.54,1.31c1.01,0.79,2.15,1.37,3.38,1.76c2.47,0.78,5.21,0.89,7.93,0.79
				c5.48-0.22,11-1.19,16.49-2.2c2.73-0.53,5.49-1.09,8.03-1.85c0.63-0.19,1.22-0.42,1.72-0.65l0.31-0.17
				c0.1-0.06,0.12-0.1,0.19-0.14c0.03-0.02-0.01-0.01,0-0.01c0,0,0.01,0-0.03,0.04c-0.04,0.06-0.09,0.15-0.09,0.22
				c-0.01,0-0.01,0-0.01-0.01l-0.01-0.17l0-0.59c0-0.11-0.01-0.05,0-0.08c0,0.03,0.01,0.14,0.03,0.2c0.02,0.05,0.05,0.17,0.11,0.3
				c0.16,0.27,0.22,0.33,0.34,0.43c0.06,0.05,0.01,0.03,0.03,0.03l-0.8-0.33l-0.99-0.4c-2.66-1.11-5.23-2.37-7.74-3.71
				c-2.49-1.33-5.01-2.74-7.41-4.41c-2.37-1.71-4.68-3.6-6.55-5.97c-1.85-2.35-3.39-5.11-3.88-8.13c-0.28-1.5-0.3-3.01-0.17-4.45
				c0.09-1.43,0.41-2.86,0.25-4.08c-0.11-0.6-0.39-0.96-1.02-1.26c-0.55-0.3-1.16-0.37-1.77-0.14
				C389.31,248.93,388.24,249.95,387.13,250.78z M386.87,250.47l1.62-1.36c0.55-0.44,1.12-0.9,1.82-1.2c0.7-0.31,1.6-0.33,2.32-0.01
				c0.35,0.14,0.7,0.32,1.04,0.64c0.33,0.32,0.49,0.73,0.62,1.12c0.36,1.56,0.21,2.96,0.3,4.33c0.07,1.37,0.29,2.68,0.73,3.91
				c0.18,0.62,0.5,1.2,0.74,1.79c0.35,0.56,0.62,1.14,1.01,1.66c0.37,0.53,0.74,1.06,1.19,1.54c0.4,0.51,0.88,0.96,1.33,1.43
				c0.45,0.47,0.97,0.89,1.44,1.34c0.52,0.41,1.02,0.84,1.56,1.24c1.05,0.82,2.16,1.57,3.3,2.29c2.26,1.46,4.69,2.74,7.15,4.07
				c2.45,1.31,4.89,2.6,7.37,3.76l0.95,0.44c0.33,0.15,0.65,0.29,1.11,0.55c0.17,0.1,0.27,0.16,0.48,0.32
				c0.24,0.22,0.45,0.38,0.68,0.82c0.11,0.2,0.18,0.4,0.2,0.54c0.03,0.15,0.07,0.34,0.07,0.46c0,0.14,0.01,0.38,0,0.45l-0.02,0.46
				l-0.01,0.35c-0.01,0.17-0.04,0.35-0.06,0.52c-0.08,0.41-0.24,0.83-0.49,1.18c-0.12,0.2-0.24,0.31-0.37,0.44
				c-0.12,0.12-0.26,0.27-0.38,0.35c-0.22,0.15-0.48,0.34-0.69,0.45l-0.63,0.31c-0.79,0.32-1.53,0.55-2.25,0.74
				c-2.88,0.74-5.66,1.17-8.47,1.6c-5.59,0.83-11.22,1.61-16.98,1.65c-2.87-0.01-5.84-0.2-8.72-1.22c-1.43-0.51-2.81-1.28-3.98-2.26
				c-0.6-0.51-1.08-0.97-1.62-1.48c-0.52-0.51-1.06-1.09-1.5-1.76c-0.91-1.38-1.23-2.96-1.38-4.41c-0.15-1.46-0.13-2.89-0.1-4.31
				c0.02-1.42,0.2-2.9,0.47-4.3c0.32-1.41,0.7-2.79,1.21-4.12c0.99-2.67,2.27-5.21,3.75-7.61c0.73-1.21,1.53-2.37,2.37-3.51
				C384.9,252.52,385.78,251.41,386.87,250.47z"/>
		</g>
		<g>
			<path class="st0" d="M408,241c0.79,2.45-6.77,8.15-15,11c-12.69,4.4-24.43,1.18-36-2c-7.93-2.18-18.18-4.99-18-8
				c0.23-3.84,17.4-7.74,33-6c6.93,0.77,8.14,2.06,18,3C401.64,240.11,407.36,239.03,408,241z"/>
			<path class="st4" d="M408.1,240.97c0.22,0.84-0.26,1.6-0.68,2.22c-0.46,0.64-1,1.19-1.56,1.73c-1.12,1.08-2.37,1.99-3.63,2.89
				c-2.55,1.77-5.29,3.27-8.17,4.48c-2.89,1.18-5.95,2.05-9.07,2.43c-3.12,0.41-6.28,0.38-9.39,0.04
				c-6.23-0.7-12.15-2.59-18.06-4.29c-2.96-0.84-5.93-1.65-8.89-2.54c-1.48-0.45-2.95-0.92-4.41-1.45
				c-1.45-0.55-2.91-1.13-4.26-2.07c-0.33-0.25-0.67-0.51-0.96-0.86c-0.29-0.35-0.57-0.8-0.61-1.37c-0.04-0.56,0.18-1.11,0.46-1.48
				c0.27-0.4,0.6-0.69,0.93-0.97c1.34-1.04,2.82-1.65,4.31-2.19c2.98-1.05,6.04-1.71,9.12-2.18c6.17-0.91,12.44-1.14,18.66-0.46
				c3.11,0.33,6.22,1.05,9.16,1.79c2.96,0.69,5.95,1.21,8.99,1.64c3.03,0.43,6.09,0.72,9.16,0.94c1.53,0.12,3.07,0.16,4.61,0.28
				c0.77,0.06,1.54,0.11,2.31,0.24c0.38,0.07,0.77,0.16,1.13,0.32C407.61,240.28,407.94,240.57,408.1,240.97z M407.9,241.03
				c-0.28-0.67-1.12-0.87-1.84-0.99c-0.75-0.11-1.52-0.17-2.28-0.19c-1.53-0.03-3.07-0.04-4.61-0.02c-3.08,0.02-6.17-0.03-9.27-0.18
				c-3.09-0.16-6.2-0.45-9.26-1.07l-4.51-0.92c-1.48-0.28-2.97-0.48-4.48-0.63c-6.02-0.61-12.14-0.55-18.17,0.2
				c-3.01,0.4-6.01,0.93-8.88,1.82c-1.41,0.46-2.84,0.99-3.99,1.77c-0.55,0.39-1.01,0.9-0.99,1.29c-0.02,0.42,0.46,0.99,1.01,1.42
				c1.14,0.88,2.53,1.54,3.92,2.15c1.4,0.6,2.84,1.13,4.3,1.61c2.91,0.97,5.88,1.77,8.85,2.56c5.95,1.55,11.98,2.86,18.03,3.25
				c6.04,0.45,12.09-0.15,17.88-1.99c2.88-0.94,5.69-2.2,8.32-3.74c1.32-0.77,2.58-1.66,3.73-2.66c0.58-0.5,1.1-1.06,1.56-1.66
				C407.66,242.46,408.09,241.73,407.9,241.03z"/>
		</g>
		<path class="st4" d="M326.57,246.74c0,0,2.42-11.24,9.74-14.99c6.1-3.12,9.02-0.05,30.73,1.5c14.88,1.06,18.7-0.02,21.74-1.5
			c3.78-1.84,5.54-3.92,9-3.75c5.78,0.29,12.05,6.68,11.24,11.24c-1.12,6.34-16.05,10.03-27.73,9.74
			c-15.4-0.37-17.99-7.45-32.23-6.75C335.96,242.89,326.57,246.74,326.57,246.74z"/>
		<path class="st4" d="M429.92,279.06c3.89-0.66,6.18,29.86,6.51,43.25c0.11,4.55,0.07,10.05-1.46,10.9
			c-2.13,1.19-5.93-7.32-6.18-7.89C421.24,308.17,426.24,279.68,429.92,279.06z"/>
		<path class="st4" d="M429.22,277.04c3.94,0.13,0.11,30.5-2.23,43.68c-0.8,4.48-1.93,9.86-3.6,10.39
			c-2.33,0.74-4.36-8.36-4.49-8.97C414.91,303.83,425.5,276.92,429.22,277.04z"/>
		<g>
			<path class="st4" d="M431.11,264.96c2.01,2.03,16.58-4.06,22.57-7.07c2.03-1.02,4.39-2.34,3.86-3.28
				c-0.74-1.31-6.67-1.14-7.07-1.13C438.59,253.89,429.21,263.04,431.11,264.96z"/>
			<path class="st4" d="M428.17,263.42c2.26,1.94,14.44-6.14,19.35-9.99c1.67-1.31,3.57-2.97,2.88-3.91
				c-0.95-1.31-6.38-0.47-6.74-0.41C432.8,250.85,426.03,261.59,428.17,263.42z"/>
			<path class="st4" d="M427.01,263.71c2.57,1.73,10.77-9.05,13.88-14.03c1.06-1.69,2.21-3.81,1.33-4.71
				c-1.23-1.26-5.73,0.54-6.03,0.67C427.22,249.31,424.58,262.08,427.01,263.71z"/>
		</g>
		<g>
			<path class="st0" d="M424.55,249.5c-0.05,1.09-0.31,2.12-0.43,3.18c-0.15,1.05-0.23,2.11-0.28,3.16
				c-0.03,1.06-0.07,2.12,0.18,3.09c0.22,0.98,0.74,1.86,1.44,2.55c0.7,0.68,1.58,1.23,2.48,1.67c0.89,0.43,1.91,0.68,2.94,0.86
				c2.06,0.37,4.19,0.5,6.32,0.69l0,0.1c-2.13,0.17-4.28,0.27-6.44,0.02c-1.08-0.13-2.17-0.32-3.23-0.76
				c-1.03-0.45-2-1.05-2.76-1.92c-0.77-0.86-1.28-1.94-1.47-3.05c-0.21-1.12-0.1-2.22-0.01-3.28c0.1-1.07,0.28-2.14,0.5-3.18
				c0.2-1.05,0.54-2.08,0.67-3.12H424.55z"/>
		</g>
	</g>
	<g>
		<polygon class="st4" points="191.59,218.23 202.89,218.23 250.63,221.44 302,265.76 285,300 245,265 253,332 191.59,332.38 
			191.41,332.38 137,332 146,264 125.4,300.53 88,287.76 138.43,220.66 180.11,218.23 191.41,218.23 		"/>
		<g>
			<path class="st4" d="M191.07,236.54c-4.44-4.74-14.48-16.09-11.71-19.26c0.63-0.73,1.49-0.85,2.18-0.94
				c0.66-0.09,1.24-0.17,1.79-0.69c0.9-0.84,0.89-3.88,0.59-6.15c-2.61-0.32-11.17-1.62-18.31-5.48
				c-9.04-4.9-16.28-18.23-17.41-20.4c-1.63-0.87-2.96-1.31-4.25-1.75c-2.11-0.71-4.1-1.38-6.6-3.71c-1.9-1.77-7.94-8.04-5.72-14.31
				c1.11-3.12,4-5.64,7.02-6.11c0.73-0.11,1.43-0.17,2.08-0.17c0.95,0,1.72,0.12,2.33,0.29l-2.23-19.32l0.79-0.25
				c0.52-0.16,13.17-3.94,46.27-3.94c37.09,0,50.33,3.02,50.88,3.14l0.83,0.2l-1.49,19.37c0.34-0.05,0.72-0.09,1.15-0.12
				c0.08,0,0.16-0.01,0.24-0.01c1.68,0,3.59,1.01,5.25,2.78c2.26,2.42,3.55,5.64,3.36,8.42c-0.37,5.56-6.28,13.76-15.12,14.89
				c-1.3,2.85-7.59,15.94-14.98,20.19c-7.41,4.26-16.41,5.85-19.09,6.25c-0.25,2.27-0.2,5.55,0.94,6.54
				c0.96,0.83,1.35,0.87,1.89,0.93c0.46,0.05,1.02,0.1,1.8,0.49c0.39,0.2,0.66,0.55,0.76,1c0.58,2.72-8.01,13.54-11.73,18.06
				l-0.72,0.88L191.07,236.54z"/>
			<path class="st0" d="M187.91,135.34c37.4,0,50.65,3.12,50.65,3.12L237,158.58c-0.03,0.08-0.01,0.13-0.01,0.13l0.01-0.13
				c0.08-0.19,0.48-0.54,2.33-0.65c0.06,0,0.12-0.01,0.18-0.01c3.46,0,7.93,5.4,7.61,10.13c-0.36,5.4-6.23,13.25-14.8,14.03
				c0,0-6.85,15.68-14.8,20.26c-8.54,4.91-19.48,6.23-19.48,6.23s-0.99,6.29,1.17,8.18c1.96,1.71,2.34,0.78,3.9,1.56
				c2.2,1.1-11.3,17.53-11.3,17.53s-14.16-15.09-11.69-17.92c0.84-0.97,2.44-0.19,3.9-1.56c1.84-1.73,0.78-7.79,0.78-7.79
				s-10.44-0.98-18.7-5.45c-9.48-5.14-17.14-20.26-17.14-20.26c-4.64-2.54-7.04-1.85-10.91-5.45c-1.23-1.14-7.55-7.32-5.45-13.25
				c0.91-2.56,3.37-5.01,6.23-5.45c0.72-0.11,1.37-0.16,1.93-0.16c2.54,0,3.52,0.94,3.52,0.94l-2.34-20.26
				C141.93,139.23,154.58,135.34,187.91,135.34 M187.91,133.34c-33.25,0-46.03,3.82-46.56,3.98l-1.59,0.49l0.19,1.65l1.98,17.15
				c-0.36-0.04-0.76-0.06-1.18-0.06c-0.71,0-1.46,0.06-2.24,0.18c-3.37,0.53-6.59,3.31-7.81,6.76c-2.43,6.85,3.96,13.5,5.98,15.38
				c2.66,2.47,4.75,3.18,6.96,3.92c1.18,0.4,2.39,0.81,3.83,1.54c1.55,2.91,8.72,15.69,17.67,20.54c6.67,3.62,14.55,5.03,17.88,5.49
				c0.19,2.08,0.05,4.08-0.38,4.54c-0.3,0.28-0.6,0.34-1.24,0.42c-0.76,0.1-1.91,0.26-2.79,1.27c-1.87,2.14-0.46,5.78,4.85,12.57
				c3.25,4.15,6.74,7.88,6.89,8.03l1.56,1.66l1.45-1.76c12.68-15.42,12.12-18.04,11.93-18.9c-0.16-0.74-0.63-1.36-1.29-1.69
				c-0.94-0.47-1.66-0.54-2.14-0.59c-0.44-0.04-0.62-0.06-1.33-0.69c-0.61-0.54-0.82-2.78-0.67-4.92
				c3.42-0.56,11.72-2.26,18.66-6.25c7.28-4.19,13.43-16.45,15.16-20.15c9.38-1.48,15.06-10.06,15.44-15.74
				c0.2-3.05-1.19-6.56-3.63-9.17c-1.87-2-3.99-3.1-5.98-3.1c-0.1,0-0.2,0-0.3,0.01c0,0,0,0-0.01,0l1.33-17.33l0.13-1.71l-1.67-0.39
				C238.46,136.38,225.11,133.34,187.91,133.34L187.91,133.34z"/>
		</g>
		<ellipse class="st0" cx="169.66" cy="162.8" rx="5.24" ry="6.82"/>
		<g>
			<path class="st0" d="M179.48,189.06c1.66,1.86,3.28,3.09,4.96,3.93c1.7,0.8,3.38,1.21,5.05,1.22c1.66,0,3.35-0.36,5.03-1.19
				c1.67-0.85,3.29-2.09,4.93-3.96l0.29,0.08c-0.57,2.25-1.91,4.31-3.75,5.76c-1.83,1.46-4.15,2.32-6.51,2.32
				c-2.36-0.02-4.68-0.88-6.51-2.33c-1.85-1.44-3.19-3.49-3.78-5.74L179.48,189.06z"/>
		</g>
		<g>
			<path class="st0" d="M189.57,164.27c-0.49,2.06-0.99,3.76-1.37,5.41c-0.39,1.63-0.66,3.15-0.81,4.64
				c-0.09,0.75-0.12,1.49-0.13,2.26l0,0.29c0,0.1,0,0.21-0.01,0.22c-0.01,0.07-0.04,0.12-0.06,0.16c-0.03,0.08-0.09,0.17-0.01,0.35
				c0.13,0.36,0.79,0.91,1.58,1.39c0.39,0.28,0.83,0.52,1.27,0.87c0.41,0.33,0.95,0.74,1.1,1.36l-0.23,0.19
				c-0.27-0.3-0.72-0.44-1.16-0.55c-0.44-0.11-0.9-0.2-1.36-0.3c-0.91-0.21-1.86-0.46-2.67-1.07c-0.4-0.3-0.74-0.71-0.95-1.17
				c-0.22-0.47-0.27-0.98-0.33-1.44c-0.11-0.94-0.12-1.9-0.04-2.85c0.2-1.9,0.79-3.73,1.64-5.42c0.85-1.69,1.96-3.24,3.31-4.56
				L189.57,164.27z"/>
		</g>
		<g>
			<path class="st0" d="M158.82,148.35c-0.2-1.02,0.12-2.07,0.6-3.01c0.53-0.91,1.24-1.73,2.09-2.35c1.7-1.24,3.82-1.86,5.91-1.78
				c2.09,0.07,4.17,0.77,5.8,2.14c0.82,0.68,1.48,1.56,1.94,2.51c0.41,0.98,0.62,2.07,0.31,3.06l-0.29,0.08
				c-0.5-1.57-1.74-2.78-3.15-3.58c-1.43-0.8-3.07-1.18-4.7-1.22c-1.63-0.07-3.29,0.25-4.77,0.94c-1.46,0.71-2.78,1.82-3.46,3.31
				L158.82,148.35z"/>
		</g>
		<g>
			<path class="st0" d="M203.23,148.92c-0.27-0.93-0.07-1.9,0.29-2.8c0.41-0.87,0.99-1.68,1.72-2.31c1.45-1.28,3.33-1.97,5.25-2.07
				c1.93-0.08,3.91,0.47,5.45,1.66c0.77,0.58,1.4,1.36,1.86,2.19c0.42,0.87,0.68,1.82,0.5,2.76l-0.27,0.13
				c-0.68-1.3-1.85-2.29-3.15-2.92c-1.32-0.64-2.8-0.89-4.25-0.81c-1.45,0.06-2.92,0.43-4.19,1.15c-1.26,0.72-2.37,1.77-2.93,3.13
				L203.23,148.92z"/>
		</g>
		<ellipse class="st0" cx="210.72" cy="163.15" rx="5.24" ry="6.82"/>
		<line class="st34" x1="95.45" y1="274.77" x2="133.86" y2="288.46"/>
		<line class="st34" x1="291.59" y1="254.04" x2="272.09" y2="290.54"/>
		<line class="st33" x1="191.8" y1="235.85" x2="191.41" y2="332.38"/>
		<g>
			<polygon class="st4" points="169.28,225.25 175.7,213.33 187.7,229.78 180.1,233.25 175.75,243.62 			"/>
			<path class="st0" d="M175.83,215.2l10.34,14.17l-6.83,3.12l-3.51,8.34l-5.45-15.51L175.83,215.2 M175.57,211.46l-1.51,2.8
				l-5.45,10.13l-0.42,0.78l0.29,0.83l5.45,15.51l1.72,4.89l2.01-4.78l3.2-7.62l6.12-2.8l2.23-1.02l-1.44-1.98l-10.34-14.17
				L175.57,211.46L175.57,211.46z"/>
		</g>
		<g>
			<polygon class="st4" points="203.29,233.07 195.69,229.6 207.69,213.15 214.11,225.07 207.65,243.44 			"/>
			<path class="st0" d="M207.56,215.03l5.45,10.13l-5.45,15.51l-3.51-8.34l-6.83-3.12L207.56,215.03 M207.82,211.28l-1.87,2.57
				l-10.34,14.17l-1.44,1.98l2.23,1.02l6.12,2.8l3.2,7.62l2.01,4.78l1.72-4.89l5.45-15.51l0.29-0.83l-0.42-0.78l-5.45-10.13
				L207.82,211.28L207.82,211.28z"/>
		</g>
		<circle class="st44" cx="182.06" cy="256.5" r="3.12"/>
		<circle class="st44" cx="182.06" cy="281.44" r="3.12"/>
		<circle class="st44" cx="182.06" cy="304.81" r="3.12"/>
		<polyline class="st44" points="138.43,220.66 146,264 137,332 		"/>
		<polyline class="st44" points="253,332 245,265 250.63,221.44 		"/>
		<path class="st35" d="M233.87,270H204.5c-0.55,0-1-0.45-1-1v-17.5c0-0.55,0.45-1,1-1h29.37c0.55,0,1,0.45,1,1V269
			C234.87,269.55,234.42,270,233.87,270z"/>
		<text transform="matrix(1 0 0 1 211.1611 266.1934)" class="st0 st5 st45">Zn</text>
	</g>
	<path class="st4" d="M368.89,287.39L372,302l-49,6c-3,0-4.17,0.05-6.15-1l-32.1-20.42l9.75-19.1l23.98,17.84L368.89,287.39z"/>
	<rect x="59" y="333" class="st0" width="320" height="37"/>
	<g>
		<g>
			<path class="st1" d="M157.66,229.34c3.19,0,5.78-2.59,5.78-5.78s-2.59-5.78-5.78-5.78h-36.88c-3.19,0-5.78,2.59-5.78,5.78
				s2.59,5.78,5.78,5.78H157.66z"/>
			<path class="st1" d="M261.22,229.5c3.19,0,5.78-2.59,5.78-5.78c0-3.19-2.59-5.78-5.78-5.78h-36.88c-3.19,0-5.78,2.59-5.78,5.78
				c0,3.19,2.59,5.78,5.78,5.78H261.22z"/>
		</g>
		<circle class="st1" cx="406.76" cy="224" r="6"/>
		<circle class="st1" cx="339" cy="224" r="6"/>
	</g>
</g>
<g id="guides" class="st7">
</g>
</svg>
