<?xml version="1.0" encoding="utf-8"?>
<!-- Generator: Adobe Illustrator 25.2.3, SVG Export Plug-In . SVG Version: 6.00 Build 0)  -->
<svg version="1.1" xmlns="http://www.w3.org/2000/svg" xmlns:xlink="http://www.w3.org/1999/xlink" x="0px" y="0px"
	 viewBox="0 0 500 500" style="enable-background:new 0 0 500 500;" xml:space="preserve">
<style type="text/css">
	.st0{fill:#3FA9F5;}
	.st1{fill:#FFFFFF;}
	.st2{font-family:'AcuminPro-Bold';}
	.st3{font-size:40.9114px;}
	.st4{fill:#0071BC;}
	.st5{font-family:'AcuminPro-Semibold';}
	.st6{fill:#0071BC;stroke:#3FA9F5;stroke-width:3;stroke-miterlimit:10;}
	.st7{display:none;}
	.st8{display:inline;fill:#3FA9F5;}
	.st9{display:inline;fill:none;stroke:#3FA9F5;stroke-width:3;stroke-linecap:round;stroke-miterlimit:10;}
	.st10{fill:none;stroke:#3FA9F5;stroke-width:3;stroke-linecap:round;stroke-miterlimit:10;}
	.st11{fill:none;stroke:#3FA9F5;stroke-width:2.5;stroke-linecap:round;stroke-miterlimit:10;}
	.st12{display:inline;fill:#0071BC;}
	.st13{fill:#00FB20;}
	.st14{display:inline;fill:none;stroke:#0071BC;stroke-width:3;stroke-miterlimit:10;}
	.st15{display:inline;fill:none;stroke:#3FA9F5;stroke-width:3;stroke-miterlimit:10;}
	.st16{display:inline;fill:#3FA9F5;stroke:#0071BC;stroke-width:3;stroke-miterlimit:10;}
	.st17{fill:none;stroke:#0071BC;stroke-width:7;stroke-miterlimit:10;}
	.st18{fill:none;stroke:#0071BC;stroke-width:5;stroke-miterlimit:10;}
	.st19{display:none;fill:none;stroke:#0071BC;stroke-width:3;stroke-miterlimit:10;}
	.st20{display:none;fill:#0071BC;}
	.st21{display:inline;fill:#0071BC;stroke:#3FA9F5;stroke-width:3;stroke-miterlimit:10;}
	.st22{display:inline;}
	.st23{display:inline;fill:#0071BC;stroke:#3FA9F5;stroke-width:2;stroke-miterlimit:10;}
	.st24{opacity:0.6;}
	.st25{fill:#0071BC;stroke:#3FA9F5;stroke-miterlimit:10;}
	.st26{fill:#0071BC;stroke:#3FA9F5;stroke-linecap:round;stroke-miterlimit:10;}
	.st27{fill:none;stroke:#0071BC;stroke-width:12;stroke-linecap:round;stroke-miterlimit:10;}
	.st28{fill:#0071BC;stroke:#3FA9F5;stroke-width:4;stroke-miterlimit:10;}
	.st29{fill:#0071BC;stroke:#3FA9F5;stroke-width:6;stroke-miterlimit:10;}
	.st30{fill:none;stroke:#3FA9F5;stroke-width:3;stroke-miterlimit:10;}
	.st31{display:inline;fill:#FFFFFF;}
	.st32{fill:#0071BC;stroke:#3FA9F5;stroke-width:5;stroke-miterlimit:10;}
	.st33{fill:none;stroke:#3FA9F5;stroke-width:4;stroke-miterlimit:10;}
	.st34{fill:none;stroke:#3FA9F5;stroke-width:5;stroke-miterlimit:10;}
	.st35{fill:#0071BC;stroke:#3FA9F5;stroke-width:2;stroke-miterlimit:10;}
	.st36{display:inline;fill:#0071BC;stroke:#3FA9F5;stroke-linecap:round;stroke-miterlimit:10;}
	.st37{fill:#3FA9F5;stroke:#0071BC;stroke-width:4;stroke-miterlimit:10;}
	.st38{display:none;fill:#3FA9F5;stroke:#0071BC;stroke-width:5;stroke-miterlimit:10;}
	.st39{fill:#3FA9F5;stroke:#0071BC;stroke-width:3;stroke-miterlimit:10;}
	.st40{fill:#0071BC;stroke:#0071BC;stroke-width:3;stroke-miterlimit:10;}
	.st41{fill:none;stroke:#0071BC;stroke-width:22;stroke-miterlimit:10;}
	.st42{display:none;fill:none;stroke:#0071BC;stroke-width:22;stroke-miterlimit:10;}
	.st43{display:inline;fill:none;stroke:#3FA9F5;stroke-width:2;stroke-miterlimit:10;}
	.st44{fill:none;stroke:#3FA9F5;stroke-width:2;stroke-miterlimit:10;}
</style>
<g id="background">
	<rect class="st0" width="500" height="500"/>
</g>
<g id="Text">
	<text transform="matrix(1 0 0 1 118.8514 431.7672)"><tspan x="0" y="0" class="st1 st2 st3">B</tspan><tspan x="27.61" y="0" class="st4 st5 st3">e a good boy</tspan></text>
</g>
<g id="Apart">
</g>
<g id="Be_a_good_boy">
	<g id="Layer_12">
		<path class="st4" d="M42,332c-4.97,0,7-19,40-27c5.49-1.33,19.36-3,35-3c13,0,46,7,53,13c7.19,6.17,6.78-26.65,14-38
			c7-11,17.37-15.39,30-19c14-4,51.63-5.54,73,10c11,8,47,29,56,29c2.1,0,2.69-8.42,4-13c4-14,8-17,18-24
			c10.49-7.34,48.19,2.29,52,18c3.54,14.58,1.79,13.09,6,17c7.79,7.23,28.11,10.89,31,21c6,21-23.54,17-28,17C368,333,59,332,42,332
			z"/>
		<g>
			<path class="st0" d="M232.4,333.39c0.42-0.29,0.78-0.29,1.16-0.38c0.37-0.06,0.75-0.11,1.12-0.16l2.23-0.25
				c1.48-0.15,2.95-0.3,4.4-0.52c1.45-0.22,2.88-0.48,4.22-0.87c1.3-0.39,2.64-0.99,3.18-1.74c0.26-0.39,0.31-0.59,0.29-1.11
				c-0.03-0.74-0.06-1.47-0.11-2.19c-0.1-1.44-0.26-2.83-0.56-4.16c-0.58-2.66-1.68-5.04-3.52-6.75c-0.42-0.46-0.96-0.82-1.45-1.22
				c-0.54-0.34-1.07-0.7-1.65-1c-1.17-0.61-2.36-1.09-3.71-1.53c-2.71-0.88-5.34-1.52-7.74-1.25c-2.41,0.23-4.99,1.23-7.65,2.4
				l-8.1,3.69c-2.78,1.18-5.54,2.34-8.59,3.3c-0.78,0.23-1.54,0.46-2.52,0.62c-0.24,0.04-0.52,0.07-0.82,0.09
				c-0.34,0.01-0.66,0.04-1.3-0.1c-0.18-0.05-0.3-0.07-0.52-0.16c-0.25-0.11-0.49-0.24-0.71-0.4c-0.27-0.2-0.57-0.53-0.76-0.84
				c-0.19-0.32-0.32-0.69-0.38-1.07c-0.11-1.11,0.13-1.51,0.22-1.84c0.25-0.66,0.47-1.03,0.7-1.42c0.23-0.39,0.45-0.72,0.67-1.06
				c0.44-0.67,0.89-1.28,1.34-1.89c1.79-2.43,3.55-4.75,5.14-7.14c1.58-2.42,2.96-4.77,3.8-7.33c0.85-2.54,1.09-5.23,0.58-7.76
				c-0.25-1.26-0.72-2.51-1.36-3.62c-0.67-1.12-1.56-2.14-2.56-3.07c-4.04-3.69-10.12-5.54-15.85-4.01l-0.11-0.28
				c5.68-2.13,12.3-0.68,16.96,3.06c1.16,0.95,2.22,2.04,3.06,3.29c0.83,1.27,1.44,2.66,1.82,4.12c0.76,2.93,0.56,6.04-0.27,8.92
				c-0.82,2.9-2.27,5.56-3.85,8.08c-1.59,2.53-3.34,4.94-5.05,7.37c-0.82,1.21-1.75,2.44-2.3,3.72c-0.06,0.16-0.09,0.32-0.08,0.41
				c0,0.04,0.03,0.08,0.19,0.11c0.28,0.06,0.65,0.02,1-0.04c0.71-0.12,1.42-0.33,2.12-0.55c2.81-0.91,5.54-2.08,8.26-3.26l8.15-3.63
				c2.73-1.16,5.56-2.31,8.6-2.54c3.05-0.24,6.01,0.61,8.81,1.58c2.8,0.99,5.6,2.36,7.66,4.6c1.06,1.08,1.9,2.36,2.52,3.73
				c0.63,1.37,1.05,2.83,1.29,4.31c0.24,1.48,0.34,2.98,0.37,4.47c0.01,0.75,0.01,1.49,0,2.23c0.01,0.77-0.26,1.59-0.81,2.16
				c-1.1,1.15-2.63,1.59-4.06,1.95c-1.47,0.33-2.95,0.5-4.44,0.61c-1.49,0.11-2.98,0.16-4.46,0.19l-2.23,0.06
				c-0.37,0.01-0.74,0.03-1.11,0.06c-0.34,0.03-0.77,0.08-0.99,0.2L232.4,333.39z"/>
		</g>
		<g>
			<path class="st0" d="M297.47,332.65c-2.66,0.17-5.43,0.53-8.16,0.65c-2.75,0.15-5.49,0.28-8.37-0.05
				c-0.73-0.1-1.45-0.2-2.33-0.56c-0.23-0.11-0.46-0.22-0.73-0.44c-0.26-0.21-0.59-0.58-0.71-1.13c-0.15-0.53,0.08-1.17,0.1-1.21
				l0.16-0.53c0.43-1.41,1.08-2.8,1.97-4.06c1.75-2.56,4.42-4.43,7.08-5.59c2.68-1.2,5.33-1.99,7.95-2.85
				c2.63-0.84,5.42-1.53,8.12-2.09c2.71-0.57,5.37-1.11,8.05-1.6c1.37-0.26,2.6-0.49,3.85-0.81c1.25-0.31,2.49-0.68,3.72-1.1
				c2.46-0.85,4.91-1.82,7.39-2.89c2.5-1.05,4.96-2.26,7.96-3.12c1.49-0.4,3.27-0.72,5.3-0.26l0.36,0.09l0.26,0.08l0.52,0.16
				l1.04,0.35c0.69,0.25,1.38,0.52,2.06,0.82c2.71,1.19,5.29,2.77,7.46,4.81c1.1,1,2.11,2.1,3.01,3.28
				c0.48,0.61,0.84,1.12,1.25,1.68c0.41,0.55,0.82,1.12,1.21,1.71c0.8,1.18,1.57,2.41,2.21,3.77c0.62,1.36,1.19,2.87,1.15,4.62
				c-0.02,0.86-0.25,1.77-0.68,2.55c-0.43,0.76-1,1.41-1.65,1.91c-1.32,0.98-2.78,1.44-4.19,1.69c-2.84,0.51-5.61,0.36-8.34,0.12
				v-0.3c2.72-0.03,5.46-0.14,8.09-0.8c1.3-0.33,2.58-0.85,3.6-1.7c1-0.86,1.66-2.12,1.6-3.45c-0.03-1.32-0.54-2.61-1.17-3.79
				c-0.64-1.19-1.42-2.3-2.24-3.38c-1.69-2.13-3.3-4.36-5.4-6.07c-2.05-1.77-4.42-3.14-6.92-4.18c-1.25-0.51-2.55-0.95-3.84-1.27
				c-1.27-0.28-2.63-0.05-3.91,0.32c-2.58,0.76-5.05,1.97-7.55,3.06c-2.5,1.11-5.03,2.17-7.64,3.02c-2.6,0.87-5.3,1.49-7.99,1.93
				l-8.06,1.44c-2.68,0.49-5.33,1.09-7.96,1.83c-2.62,0.74-5.27,1.44-7.78,2.46c-2.51,1-4.86,2.49-6.49,4.65
				c-0.83,1.06-1.45,2.27-1.92,3.53c-0.1,0.31-0.31,0.67-0.26,0.87c0.04,0.23,0.32,0.43,0.6,0.57c0.59,0.28,1.25,0.42,1.92,0.54
				c2.67,0.43,5.42,0.47,8.14,0.5c2.74,0.04,5.42-0.1,8.22-0.06L297.47,332.65z"/>
		</g>
		<g>
			<path class="st0" d="M350.64,281.56c-0.95,3.75-1.29,7.56-0.76,11.18c0.24,1.81,0.7,3.56,1.36,5.21c0.7,1.76,1.37,3.41,2.32,4.85
				c0.93,1.44,2.03,2.67,3.28,3.54c1.24,0.89,2.68,1.34,4.13,1.45c2.95,0.21,6.32-1.15,9.63-2.81c1.68-0.8,3.4-1.69,5.11-2.56
				c1.71-0.86,3.35-1.76,4.9-2.67c1.53-0.91,2.96-1.89,3.99-3.06c0.53-0.57,0.97-1.19,1.32-1.86c0.2-0.32,0.33-0.68,0.49-1.04
				c0.1-0.37,0.26-0.73,0.34-1.12c0.71-3.09-0.06-6.71-1.67-9.97c-1.56-3.33-3.98-6.3-6.67-9.09l0.18-0.24
				c3.07,2.36,5.85,5.17,7.85,8.52c1.98,3.31,3.28,7.26,2.63,11.18c-0.32,1.94-1.18,3.81-2.46,5.3c-1.26,1.52-2.86,2.69-4.49,3.75
				c-1.64,1.04-3.35,1.96-5.06,2.87c-1.71,0.9-3.41,1.81-5.15,2.67c-1.74,0.84-3.53,1.63-5.4,2.21c-1.86,0.59-3.84,0.89-5.82,0.72
				c-1.96-0.22-3.88-0.95-5.44-2.16c-1.58-1.19-2.81-2.78-3.76-4.48c-0.96-1.7-1.62-3.55-2.19-5.4c-0.58-1.86-0.92-3.8-1.01-5.74
				c-0.18-3.89,0.57-7.8,2.07-11.38L350.64,281.56z"/>
		</g>
		<circle class="st0" cx="408" cy="288" r="5"/>
		<g>
			<path class="st0" d="M424.49,330.65c-3.28,0.87-6.69,0.94-10.02,0.48c-1.68-0.18-3.32-0.6-4.95-1.04c-1.62-0.5-3.2-1.11-4.74-1.8
				c-1.52-0.75-3-1.58-4.42-2.5c-1.38-0.98-2.76-1.96-3.97-3.14c-2.48-2.28-4.6-4.96-6-8.05l0.22-0.2c2.21,2.32,4.61,4.45,7.19,6.33
				c2.58,1.89,5.35,3.5,8.25,4.84c2.88,1.38,5.9,2.45,9,3.24c3.1,0.78,6.27,1.29,9.46,1.54L424.49,330.65z"/>
		</g>
	</g>
	<circle class="st1" cx="337.55" cy="320.68" r="11.36"/>
	<path class="st1" d="M149.47,332.04c6.28,0,11.36-5.09,11.36-11.36c0-6.28-5.09-11.36-11.36-11.36H76.9
		c-6.28,0-11.36,5.09-11.36,11.36c0,6.28,5.09,11.36,11.36,11.36H149.47z"/>
	<circle class="st1" cx="232.84" cy="320.68" r="11.36"/>
	<circle class="st1" cx="442.26" cy="320.19" r="11.36"/>
</g>
<g id="Charlies_Angels">
	<g id="Faces">
	</g>
</g>
<g id="Dog_did_it">
</g>
<g id="Eek">
</g>
<g id="did_I_Fail_it">
</g>
<g id="Great_Gatsby">
</g>
<g id="hippity_hop">
	<g id="Layer_33" class="st7">
	</g>
	<g id="Layer_34" class="st24">
	</g>
	<g id="Layer_35">
	</g>
</g>
<g id="Aye_Aye">
</g>
<g id="Lets_Jump">
</g>
<g id="Kangaroo">
</g>
<g id="Ladybug">
</g>
<g id="Like_Mike">
</g>
<g id="Navy">
</g>
<g id="OMG">
</g>
<g id="A_poopy_smell">
</g>
<g id="God_save_the_Queen">
</g>
<g id="Rabbit">
</g>
<g id="SS_SS_SS">
</g>
<g id="Tall">
</g>
<g id="Under_where">
</g>
<g id="Beethoven_x27_s_V">
</g>
<g id="a_WHITE_WHALE">
</g>
<g id="X_marks_the_spot">
</g>
<g id="You_x27_re_a_cool_Dude">
</g>
<g id="Zinc_Zoo_keeper">
</g>
<g id="guides" class="st7">
</g>
</svg>
