<?xml version="1.0" encoding="utf-8"?>
<!-- Generator: Adobe Illustrator 25.2.3, SVG Export Plug-In . SVG Version: 6.00 Build 0)  -->
<svg version="1.1" xmlns="http://www.w3.org/2000/svg" xmlns:xlink="http://www.w3.org/1999/xlink" x="0px" y="0px"
	 viewBox="0 0 500 500" style="enable-background:new 0 0 500 500;" xml:space="preserve">
<style type="text/css">
	.st0{fill:#3FA9F5;}
	.st1{fill:#FFFFFF;}
	.st2{font-family:'AcuminPro-Bold';}
	.st3{font-size:40.9114px;}
	.st4{fill:#0071BC;}
	.st5{font-family:'AcuminPro-Semibold';}
	.st6{fill:#0071BC;stroke:#3FA9F5;stroke-width:3;stroke-miterlimit:10;}
	.st7{display:none;}
	.st8{display:inline;fill:#3FA9F5;}
	.st9{display:inline;fill:none;stroke:#3FA9F5;stroke-width:3;stroke-linecap:round;stroke-miterlimit:10;}
	.st10{fill:none;stroke:#3FA9F5;stroke-width:3;stroke-linecap:round;stroke-miterlimit:10;}
	.st11{fill:none;stroke:#3FA9F5;stroke-width:2.5;stroke-linecap:round;stroke-miterlimit:10;}
	.st12{display:inline;fill:#0071BC;}
	.st13{fill:#00FB20;}
	.st14{display:inline;fill:none;stroke:#0071BC;stroke-width:3;stroke-miterlimit:10;}
	.st15{display:inline;fill:none;stroke:#3FA9F5;stroke-width:3;stroke-miterlimit:10;}
	.st16{display:inline;fill:#3FA9F5;stroke:#0071BC;stroke-width:3;stroke-miterlimit:10;}
	.st17{fill:none;stroke:#0071BC;stroke-width:7;stroke-miterlimit:10;}
	.st18{fill:none;stroke:#0071BC;stroke-width:5;stroke-miterlimit:10;}
	.st19{display:none;fill:none;stroke:#0071BC;stroke-width:3;stroke-miterlimit:10;}
	.st20{display:none;fill:#0071BC;}
	.st21{display:inline;fill:#0071BC;stroke:#3FA9F5;stroke-width:3;stroke-miterlimit:10;}
	.st22{display:inline;}
	.st23{display:inline;fill:#0071BC;stroke:#3FA9F5;stroke-width:2;stroke-miterlimit:10;}
	.st24{opacity:0.6;}
	.st25{fill:#0071BC;stroke:#3FA9F5;stroke-miterlimit:10;}
	.st26{fill:#0071BC;stroke:#3FA9F5;stroke-linecap:round;stroke-miterlimit:10;}
	.st27{fill:none;stroke:#0071BC;stroke-width:12;stroke-linecap:round;stroke-miterlimit:10;}
	.st28{fill:#0071BC;stroke:#3FA9F5;stroke-width:4;stroke-miterlimit:10;}
	.st29{fill:#0071BC;stroke:#3FA9F5;stroke-width:6;stroke-miterlimit:10;}
	.st30{fill:none;stroke:#3FA9F5;stroke-width:3;stroke-miterlimit:10;}
	.st31{display:inline;fill:#FFFFFF;}
	.st32{fill:#0071BC;stroke:#3FA9F5;stroke-width:5;stroke-miterlimit:10;}
	.st33{fill:none;stroke:#3FA9F5;stroke-width:4;stroke-miterlimit:10;}
	.st34{fill:none;stroke:#3FA9F5;stroke-width:5;stroke-miterlimit:10;}
	.st35{fill:#0071BC;stroke:#3FA9F5;stroke-width:2;stroke-miterlimit:10;}
	.st36{display:inline;fill:#0071BC;stroke:#3FA9F5;stroke-linecap:round;stroke-miterlimit:10;}
	.st37{fill:#3FA9F5;stroke:#0071BC;stroke-width:4;stroke-miterlimit:10;}
	.st38{display:none;fill:#3FA9F5;stroke:#0071BC;stroke-width:5;stroke-miterlimit:10;}
	.st39{fill:#3FA9F5;stroke:#0071BC;stroke-width:3;stroke-miterlimit:10;}
	.st40{fill:#0071BC;stroke:#0071BC;stroke-width:3;stroke-miterlimit:10;}
	.st41{fill:none;stroke:#0071BC;stroke-width:22;stroke-miterlimit:10;}
	.st42{display:none;fill:none;stroke:#0071BC;stroke-width:22;stroke-miterlimit:10;}
	.st43{display:inline;fill:none;stroke:#3FA9F5;stroke-width:2;stroke-miterlimit:10;}
	.st44{fill:none;stroke:#3FA9F5;stroke-width:2;stroke-miterlimit:10;}
</style>
<g id="background">
	<rect class="st0" width="500" height="500"/>
</g>
<g id="Text">
	<text transform="matrix(1 0 0 1 160.8115 431.7672)"><tspan x="0" y="0" class="st1 st2 st3">S</tspan><tspan x="25.98" y="0" class="st4 st5 st3">s Ss Ss</tspan></text>
</g>
<g id="Apart">
</g>
<g id="Be_a_good_boy">
	<g id="Layer_12">
	</g>
</g>
<g id="Charlies_Angels">
	<g id="Faces">
	</g>
</g>
<g id="Dog_did_it">
</g>
<g id="Eek">
</g>
<g id="did_I_Fail_it">
</g>
<g id="Great_Gatsby">
</g>
<g id="hippity_hop">
	<g id="Layer_33" class="st7">
	</g>
	<g id="Layer_34" class="st24">
	</g>
	<g id="Layer_35">
	</g>
</g>
<g id="Aye_Aye">
</g>
<g id="Lets_Jump">
</g>
<g id="Kangaroo">
</g>
<g id="Ladybug">
</g>
<g id="Like_Mike">
	<path class="st20" d="M160.08,250.73c4.44-1.16,8.3-8.26,15.08-13.3c9.24-6.87,22.17-12.42,22.17-12.42
		c0.19-0.44,0.62-1.63,1.77-2.66c2.22-1.98,4.65-1.14,7.1-1.77c0,0,3.56-8.6,10.64-13.3c3.27-2.17,8.04-8.1,8.87-8.87
		c0.91-0.84,1.99-0.42,3.55-0.89c1.63-0.49,2.91-1.68,3.55-2.66c1.55-2.39-0.35-4.11,0.89-8.87c0.5-1.92,1.13-2.88,1.77-3.55
		c0.75-0.78,1.09-0.7,2.66-1.77c2.02-1.39,3.25-2.22,3.55-3.55c0.23-1-0.35-1.09-0.89-3.55c-0.6-2.74-0.06-3.44-0.89-4.43
		c-0.96-1.15-2.07-0.68-2.66-1.77c-0.66-1.22,0.57-2.1,0-3.55c-0.53-1.34-1.76-1.04-2.66-2.66c-0.68-1.24-0.17-1.79-0.89-2.66
		c-0.88-1.08-2.72-1.54-3.55-0.89c-0.77,0.61-0.09,1.74-0.89,2.66c-0.88,1.02-2.28,0.31-3.55,0.89c-2.15,0.98-1.2,4.45-2.66,7.98
		c-1.12,2.71-2.27,2.12-9.76,8.87c-4.05,3.65-5.29,5.25-6.21,7.1c-1.02,2.04-2,4.02-1.77,6.21c0.07,0.69,0.28,1.51,0,2.66
		c-0.36,1.5-1.19,2.08-0.89,2.66c0.23,0.45,0.82,0.3,2.66,0.89c1.52,0.48,1.71,0.77,1.77,0.89c0.42,0.75-0.03,2.09-0.89,2.66
		c-1.23,0.82-3.26,0.05-4.43-0.89c-1.48-1.17-1.56-2.56-2.66-2.66c-0.78-0.07-1.44,0.57-1.77,0.89c-1.27,1.22-0.73,2.41-1.77,3.55
		c-1.1,1.2-3.15,1.43-3.55,0.89c-0.46-0.62,0.89-2.66,0.89-2.66l0,0c0,0,0.37-1.54,0-1.77c-0.35-0.22-1.08,0.91-2.66,1.77
		c-0.17,0.09-1.26,0.68-2.66,0.89c-1.98,0.3-4.35-0.19-4.43-0.89c-0.08-0.63,1.69-1.44,2.66-1.77c1.52-0.52,2.4-0.32,2.66-0.89
		c0.25-0.55-0.21-1.53-0.89-1.77c-0.94-0.35-1.56,0.99-3.55,1.77c-2.41,0.94-4.65,0.22-5.32,0c-1.09-0.35-2.76-1.15-2.66-1.77
		c0.08-0.48,1.2-0.64,2.66-0.89c3.74-0.63,6.05-1.02,7.98-1.77c2.78-1.08,4.6-2.84,5.32-3.55c0.66-0.65,1.63-1.92,3.55-4.43
		c1.54-2.02,2.3-3.02,2.66-3.55c2.17-3.2,1.88-4.53,3.55-7.98c2.22-4.6,5.62-8.19,7.1-9.76c1.69-1.79,2.69-2.55,3.55-4.43
		c1.02-2.24,3.68-6.99,5.32-8.87c1.73-1.98,1.23-2.62,3.55-7.1c1.81-3.5,3.41-6.88,5.32-7.98c1.29-0.74,4.59-1.11,5.32-1.77
		c1.02-0.93,1.58-1.81,2.66-3.55c0.59-0.95,0.89-1.43,0.89-1.77c0-1.45-1.99-2.02-3.55-3.55c-2.86-2.8-2.69-7.24-2.66-7.98
		c0.16-4.22,2.65-7.01,3.55-7.98c0.97-1.05,4.77-5.19,9.76-4.43c3.93,0.59,6.81,3.96,7.98,5.32c0.48,0.56,1.42,1.79,2.66,1.77
		c0.6-0.01,1.11-0.3,1.77,0c0.15,0.07,0.68,0.34,0.89,0.89c0.27,0.7-0.25,1.11,0,1.77c0.17,0.45,0.49,0.46,0.89,0.89
		c0.99,1.04,0.65,2.64,0.89,2.66c0.3,0.03,0.16-2.59,1.77-4.43c1.01-1.16,1.65-0.79,2.66-1.77c1.7-1.65,0.6-3.35,1.77-7.1
		c1.03-3.3,2.29-3.32,2.66-6.21c0.27-2.08-0.34-2.46,0-4.43c0.42-2.46,1.66-3.61,2.66-5.32c1.87-3.19,0.7-4.54,1.77-9.76
		c1.37-6.7,3.68-6.35,4.43-12.42c0.24-1.93,0.62-5.3-0.89-8.87c-0.9-2.14-1.54-2.13-2.66-4.43c-0.52-1.07-2.3-4.85-1.77-9.76
		c0.16-1.5,0.72-5.99,4.43-9.76c0.92-0.93,4.03-3.98,8.87-4.43c5.73-0.54,11.52,2.78,14.19,7.98c2.12,4.13,2.22,9.34,0,13.3
		c-1.48,2.65-3.68,4.18-5.32,5.32c-2.69,1.87-4.4,3.06-6.21,2.66c-0.54-0.12-1.63-0.5-2.66,0c-0.19,0.09-0.77,0.37-0.89,0.89
		c-0.14,0.61,0.49,0.98,0.89,1.77c0.15,0.3,0.44,1,0,3.55c-0.24,1.41-0.37,2.11-0.89,3.55c-1.14,3.14-1.02,6.83-0.89,10.64
		c0.2,5.99,1.41,7.42,0,9.76c-0.88,1.45-1.77,1.61-2.66,3.55c-0.89,1.94-0.37,2.6-0.89,5.32c-0.88,4.59-2.73,4.68-2.66,7.98
		c0.04,1.83,0.63,2.77,0,4.43c-0.5,1.33-1.17,1.5-1.77,2.66c-1.1,2.11-0.1,3.86,0,6.21c0.15,3.69-2.12,4.22-3.55,8.87
		c-1.65,5.38-0.33,10.3,0,11.53c1.11,4.15,2.61,4.45,4.43,9.76c0.42,1.23,1.42,4.35,1.77,7.98c0.98,10.06-1.77,23.06-1.77,24.83
		c0,0.32,0.5,1.25,0.89,2.66c0.64,2.32,0.38,2.65,0.89,3.55c0.66,1.17,1.72,1.72,3.55,2.66c2.37,1.22,3.15,0.99,3.55,1.77
		c0.8,1.58-2,3.28-1.77,5.32c0.31,2.83,6.03,2.34,12.42,6.21c6.8,4.12,7.3,8.91,15.08,11.53c1.53,0.52,2.43,0.64,3.55,0.89
		c9.65,2.14,14.21,8.72,24.83,16.85c8.6,6.58,21.56,14.48,20.4,16.85c-0.2,0.41-0.97,0.94-0.89,1.77c0.08,0.81,0.94,1.53,1.77,1.77
		c0.8,0.23,0.97-0.16,1.77,0c1.4,0.28,1.45,1.57,2.66,1.77c0.49,0.08,1.22-0.24,2.66-0.89c0.56-0.25,1.11-0.5,1.77-0.89
		c2.18-1.28,2.16-2.08,3.55-2.66c1.66-0.69,3.51-0.29,3.55,0c0.03,0.19-0.77,0.3-1.77,0.89c-0.72,0.42-1.41,0.99-2.66,2.66
		c-1.91,2.54-2.86,3.81-2.66,4.43c0.68,2.15,8.86,3.57,14.19,0c2.82-1.89,3.46-4.25,6.21-4.43c1.42-0.1,3.6,0.37,5.32,1.77
		c0.52,0.43,0.79,0.64,0.89,0.89c1.27,3.12-10.99,10.94-13.3,12.42c-6.64,4.24-7.37,3.53-9.76,6.21c-2.14,2.4-3.87,5.57-6.21,5.32
		c-0.74-0.08-1.24-0.47-1.77-0.89c-2.6-2.03-1.35-4.62-3.55-7.1c-1.63-1.83-3.14-1.34-4.43-3.55c-0.66-1.13-0.34-1.37-0.89-2.66
		c-1.69-3.96-6.45-5.66-7.98-6.21c-2.1-0.75-1.85-0.24-3.55-0.89c-5.09-1.96-5.62-5.93-10.64-7.98c-1.5-0.61-1.52-0.28-3.55-0.89
		c-6.75-2.01-8.36-6.2-16.85-12.42c-2.98-2.19-5.3-3.86-8.87-5.32c-4.48-1.83-6.54-1.53-11.53-2.66c-6.75-1.53-5.74-2.7-15.97-6.21
		c-7.34-2.52-9.53-2.48-15.97-5.32c-4.8-2.12-5.01-3.55-7.1-3.55c-2.66,0-27.83,13.47-39.91,19.51c-5.32,2.66-13.3,8.87-25.72,15.97
		c-2.42,1.38-8.87,7.1-15.08,11.53c-0.61,0.44-1.57-1.16-2.66-0.89c-1.81,0.46-2.09,3.51-3.55,3.55c-0.75,0.02-0.87-0.78-1.77-0.89
		c-0.49-0.06-1.11,0.1-3.55,2.66c-2.1,2.21-3.15,3.32-3.55,4.43c-0.24,0.69-0.32,1.26-0.89,1.77c-0.83,0.76-1.62,0.43-2.66,0.89
		c-1.23,0.54-1.22,1.49-2.66,3.55c-1.3,1.86-2.16,3.09-3.55,3.55c-1.85,0.62-2.55-0.82-5.32-0.89c-2.67-0.06-2.9,1.26-6.21,1.77
		c-1.36,0.21-4.24,0.66-7.1-0.89c-0.53-0.29-3.35-1.88-4.43-5.32c-0.38-1.2-1.14-3.59,0-5.32c1.02-1.55,2.9-1.58,11.53-2.66
		c4.31-0.54,7.5-0.99,7.98-2.66c0.29-1.01-0.57-1.92,0-2.66c0.78-1.02,2.92,0.03,3.55-0.89c0.43-0.62-0.34-1.39-0.89-3.55
		c-0.08-0.33-0.98-3.91,0-4.43c0.48-0.26,1.42,0.21,1.77,0.89c0.45,0.85-0.32,1.5,0,2.66c0.27,0.97,1.18,1.91,1.77,1.77
		c0.88-0.2,0.3-2.62,1.77-3.55c0.74-0.46,1.96-0.52,2.66,0c0.46,0.34,0.44,0.74,0.89,0.89c0.61,0.2,1.55-0.24,1.77-0.89
		c0.32-0.93-1.06-1.66-0.89-2.66C157.63,251.34,159.76,250.81,160.08,250.73z"/>
	<g class="st7">
		<path class="st31" d="M178.57,89.49c6.28,0,11.36-5.09,11.36-11.36c0-6.28-5.09-11.36-11.36-11.36h-72.56
			c-6.28,0-11.36,5.09-11.36,11.36c0,6.28,5.09,11.36,11.36,11.36H178.57z"/>
		<path class="st31" d="M403.28,89.04c6.28,0,11.36-5.09,11.36-11.36c0-6.28-5.09-11.36-11.36-11.36h-72.56
			c-6.28,0-11.36,5.09-11.36,11.36c0,6.28,5.09,11.36,11.36,11.36H403.28z"/>
	</g>
</g>
<g id="Navy">
</g>
<g id="OMG">
</g>
<g id="A_poopy_smell">
</g>
<g id="God_save_the_Queen">
</g>
<g id="Rabbit">
</g>
<g id="SS_SS_SS">
	<path class="st4" d="M248.09,170.23c18.29,0,42.74-1.21,59.24-14.81c6.28-5.18,21.92-18.07,22.65-37.46
		c1-26.56-26.78-44.21-33.97-48.78c-25.74-16.36-52.84-13.57-66.21-12.2c-14.62,1.5-55.61,5.72-74.05,34.85
		c-4.27,6.74-6.47,13.46-6.1,74.05c0.32,53.38-2.86,65.78-7.61,87.98C137,277.37,119.15,319.18,113,330l87.98,0.87
		c7.11-24.81,26.12-70.29,29.68-87.46c7.64-36.89,5.23-74.05,5.23-74.05S245.19,170.23,248.09,170.23z"/>
	<circle class="st1" cx="234.35" cy="103.42" r="9.53"/>
	<circle class="st1" cx="299.39" cy="103.28" r="9.53"/>
	<circle class="st1" cx="402.43" cy="103.35" r="9.53"/>
	<g>
		<path class="st0" d="M245.46,172.64c-6.11-0.86-12.19-1.87-18.19-3.44c-6-1.55-11.84-3.89-17.32-7.02
			c-1.36-0.8-2.69-1.69-3.94-2.7l-3.57-2.9c-2.4-1.91-4.83-3.8-7.19-5.81c-4.72-4.03-8.81-8.84-11.87-14.19l0.25-0.16
			c1.74,2.52,3.64,4.93,5.74,7.14c2.1,2.21,4.39,4.21,6.82,6.05c2.41,1.86,4.92,3.62,7.42,5.42l3.73,2.73
			c1.18,0.87,2.46,1.63,3.78,2.32c2.66,1.37,5.47,2.48,8.34,3.42c2.87,0.96,5.76,1.87,8.66,2.81l8.74,2.82
			c2.92,0.97,5.85,1.94,8.7,3.22L245.46,172.64z"/>
	</g>
	<g>
		<path class="st4" d="M308.13,139.97c8.82,0.4,17.33,0.68,25.76,0.3c4.21-0.26,8.39-0.46,12.54-1.04c2.14-0.27,4.24-0.48,6.3-0.78
			c2.07-0.26,4.11-0.58,6.13-0.98c8.07-1.48,15.87-4.02,23.41-7.55c7.52-3.56,14.68-8.07,21.79-13.28l0.37,0.34
			c-2.9,3.24-6.05,6.27-9.43,9.02c-3.38,2.75-7.01,5.2-10.78,7.37c-7.58,4.3-15.86,7.42-24.45,9.01c-4.29,0.81-8.64,1.22-12.96,1.56
			c-4.34,0.34-8.7,0.46-13.05,0.3c-8.7-0.26-17.36-1.57-25.77-3.8L308.13,139.97z"/>
	</g>
	<g>
		<path class="st4" d="M373.34,136.38c0.29-0.9,0.91-1.62,1.5-2.27c0.6-0.66,1.26-1.19,1.88-1.76c1.29-1.05,2.55-2.04,3.73-2.96
			c1.19-0.91,2.27-1.84,3.12-2.71c0.41-0.45,0.77-0.87,1.02-1.26c0.25-0.42,0.41-0.72,0.51-1.09c0.72-2.38,1.08-5.2,1.45-8.2
			c0.08-0.75,0.19-1.52,0.28-2.29c0.12-0.78,0.23-1.57,0.32-2.37c0.3-1.6,0.49-3.27,1.14-4.95l0.4-0.03
			c0.16,1.57,0.44,3.14,0.66,4.71c0.2,1.58,0.37,3.17,0.45,4.77c0.15,3.19,0.07,6.46-0.92,9.58c-0.52,1.62-1.65,2.93-2.89,3.97
			c-1.25,1.05-2.64,1.88-4.06,2.63c-1.42,0.75-2.87,1.42-4.3,2.09c-0.72,0.33-1.44,0.67-2.13,1.04c-0.68,0.38-1.37,0.78-1.86,1.34
			L373.34,136.38z"/>
	</g>
	<g>
		<path class="st0" d="M320.5,141.5c-4.37-0.59-8.76-0.89-13.14-1.19c-4.39-0.27-8.77-0.48-13.15-0.59
			c-4.38-0.12-8.74-0.03-13.09,0.21c-4.36,0.28-8.73,0.63-13.12,1.01c-4.37,0.38-8.74,0.73-13.1,1.22l-6.58,0.65
			c-2.21,0.2-4.46,0.38-6.74,0.28c-4.57-0.17-8.97-1.15-13.2-2.61c-4.21-1.49-8.23-3.48-11.86-5.99c3.99,1.9,8.09,3.48,12.31,4.53
			c2.1,0.55,4.23,0.96,6.37,1.24c2.14,0.3,4.28,0.47,6.41,0.42c4.24-0.09,8.59-0.86,12.98-1.38c4.39-0.51,8.79-1,13.19-1.31
			c4.39-0.32,8.8-0.68,13.24-0.78c2.22-0.05,4.45-0.07,6.67-0.01c2.22,0.08,4.44,0.2,6.65,0.36c4.42,0.33,8.81,0.82,13.18,1.44
			C311.86,139.65,316.23,140.35,320.5,141.5z"/>
	</g>
	<g>
		<path class="st0" d="M147.5,193.5c6.2,4.62,12.66,8.7,19.47,12.02c3.42,1.62,6.86,3.16,10.43,4.37c3.55,1.26,7.17,2.33,10.84,3.16
			c3.66,0.9,7.38,1.56,11.12,2.03c3.74,0.52,7.51,0.76,11.3,0.91c7.58,0.21,15.19-0.36,22.85-1.49c-7.24,2.74-15,4.23-22.81,4.61
			c-3.91,0.22-7.84,0.05-11.75-0.27c-3.91-0.37-7.79-1.03-11.62-1.9c-3.81-0.94-7.58-2.07-11.25-3.51
			c-3.65-1.47-7.21-3.16-10.58-5.17C158.74,204.3,152.58,199.34,147.5,193.5z"/>
	</g>
	<g>
		<path class="st0" d="M143.5,243.5c6.11,4.12,12.43,7.72,19.06,10.51c3.33,1.36,6.69,2.62,10.14,3.57
			c3.44,0.99,6.92,1.8,10.46,2.32c7.06,1.17,14.24,1.31,21.52,1.15c7.28-0.08,14.5-0.65,21.83-1.55
			c-6.93,2.52-14.28,3.99-21.64,4.66c-3.67,0.41-7.39,0.57-11.13,0.59c-3.74-0.05-7.49-0.36-11.2-0.91
			c-3.71-0.62-7.37-1.49-10.94-2.66c-3.55-1.21-7.04-2.61-10.35-4.36C154.6,253.38,148.54,248.89,143.5,243.5z"/>
	</g>
	<g>
		<path class="st0" d="M132.5,283.5c5.37,4.66,11.23,8.47,17.51,11.34c3.15,1.4,6.34,2.69,9.65,3.62c1.65,0.49,3.29,0.91,4.98,1.28
			c1.7,0.39,3.4,0.74,5.1,1.05c6.81,1.29,13.72,2,20.7,2.26c7,0.29,13.96,0.11,21.05-0.55c-6.73,2.3-13.92,3.38-21.04,3.67
			c-7.14,0.33-14.39-0.09-21.45-1.45c-1.76-0.34-3.52-0.71-5.26-1.14c-1.74-0.44-3.52-0.91-5.23-1.52
			c-3.43-1.19-6.78-2.64-9.92-4.45C142.28,294.08,136.64,289.29,132.5,283.5z"/>
	</g>
</g>
<g id="Tall">
</g>
<g id="Under_where">
</g>
<g id="Beethoven_x27_s_V">
</g>
<g id="a_WHITE_WHALE">
</g>
<g id="X_marks_the_spot">
</g>
<g id="You_x27_re_a_cool_Dude">
</g>
<g id="Zinc_Zoo_keeper">
</g>
<g id="guides" class="st7">
</g>
</svg>
