<?xml version="1.0" encoding="utf-8"?>
<!-- Generator: Adobe Illustrator 25.2.3, SVG Export Plug-In . SVG Version: 6.00 Build 0)  -->
<svg version="1.1" xmlns="http://www.w3.org/2000/svg" xmlns:xlink="http://www.w3.org/1999/xlink" x="0px" y="0px"
	 viewBox="0 0 500 500" style="enable-background:new 0 0 500 500;" xml:space="preserve">
<style type="text/css">
	.st0{fill:#3FA9F5;}
	.st1{fill:#FFFFFF;}
	.st2{font-family:'AcuminPro-Bold';}
	.st3{font-size:40.9114px;}
	.st4{fill:#0071BC;}
	.st5{font-family:'AcuminPro-Semibold';}
	.st6{fill:#0071BC;stroke:#3FA9F5;stroke-width:3;stroke-miterlimit:10;}
	.st7{display:none;}
	.st8{display:inline;fill:#3FA9F5;}
	.st9{display:inline;fill:none;stroke:#3FA9F5;stroke-width:3;stroke-linecap:round;stroke-miterlimit:10;}
	.st10{fill:none;stroke:#3FA9F5;stroke-width:3;stroke-linecap:round;stroke-miterlimit:10;}
	.st11{fill:none;stroke:#3FA9F5;stroke-width:2.5;stroke-linecap:round;stroke-miterlimit:10;}
	.st12{display:inline;fill:#0071BC;}
	.st13{fill:#00FB20;}
	.st14{display:inline;fill:none;stroke:#0071BC;stroke-width:3;stroke-miterlimit:10;}
	.st15{display:inline;fill:none;stroke:#3FA9F5;stroke-width:3;stroke-miterlimit:10;}
	.st16{display:inline;fill:#3FA9F5;stroke:#0071BC;stroke-width:3;stroke-miterlimit:10;}
	.st17{fill:none;stroke:#0071BC;stroke-width:7;stroke-miterlimit:10;}
	.st18{fill:none;stroke:#0071BC;stroke-width:5;stroke-miterlimit:10;}
	.st19{display:none;fill:none;stroke:#0071BC;stroke-width:3;stroke-miterlimit:10;}
	.st20{display:none;fill:#0071BC;}
	.st21{display:inline;fill:#0071BC;stroke:#3FA9F5;stroke-width:3;stroke-miterlimit:10;}
	.st22{display:inline;}
	.st23{display:inline;fill:#0071BC;stroke:#3FA9F5;stroke-width:2;stroke-miterlimit:10;}
	.st24{opacity:0.6;}
	.st25{fill:#0071BC;stroke:#3FA9F5;stroke-miterlimit:10;}
	.st26{fill:#0071BC;stroke:#3FA9F5;stroke-linecap:round;stroke-miterlimit:10;}
	.st27{fill:none;stroke:#0071BC;stroke-width:12;stroke-linecap:round;stroke-miterlimit:10;}
	.st28{fill:#0071BC;stroke:#3FA9F5;stroke-width:4;stroke-miterlimit:10;}
	.st29{fill:#0071BC;stroke:#3FA9F5;stroke-width:6;stroke-miterlimit:10;}
	.st30{fill:none;stroke:#3FA9F5;stroke-width:3;stroke-miterlimit:10;}
	.st31{display:inline;fill:#FFFFFF;}
	.st32{fill:#0071BC;stroke:#3FA9F5;stroke-width:5;stroke-miterlimit:10;}
	.st33{fill:none;stroke:#3FA9F5;stroke-width:4;stroke-miterlimit:10;}
	.st34{fill:none;stroke:#3FA9F5;stroke-width:5;stroke-miterlimit:10;}
	.st35{fill:#0071BC;stroke:#3FA9F5;stroke-width:2;stroke-miterlimit:10;}
	.st36{display:inline;fill:#0071BC;stroke:#3FA9F5;stroke-linecap:round;stroke-miterlimit:10;}
	.st37{fill:#3FA9F5;stroke:#0071BC;stroke-width:4;stroke-miterlimit:10;}
	.st38{display:none;fill:#3FA9F5;stroke:#0071BC;stroke-width:5;stroke-miterlimit:10;}
	.st39{fill:#3FA9F5;stroke:#0071BC;stroke-width:3;stroke-miterlimit:10;}
	.st40{fill:#0071BC;stroke:#0071BC;stroke-width:3;stroke-miterlimit:10;}
	.st41{fill:none;stroke:#0071BC;stroke-width:22;stroke-miterlimit:10;}
	.st42{display:none;fill:none;stroke:#0071BC;stroke-width:22;stroke-miterlimit:10;}
	.st43{display:inline;fill:none;stroke:#3FA9F5;stroke-width:2;stroke-miterlimit:10;}
	.st44{fill:none;stroke:#3FA9F5;stroke-width:2;stroke-miterlimit:10;}
</style>
<g id="background">
	<rect class="st0" width="500" height="500"/>
</g>
<g id="Text">
	<text transform="matrix(1 0 0 1 145.8115 431.7672)"><tspan x="0" y="0" class="st1 st2 st3">O</tspan><tspan x="31.3" y="0" class="st4 st5 st3">h my God</tspan></text>
</g>
<g id="Apart">
</g>
<g id="Be_a_good_boy">
	<g id="Layer_12">
	</g>
</g>
<g id="Charlies_Angels">
	<g id="Faces">
	</g>
</g>
<g id="Dog_did_it">
</g>
<g id="Eek">
</g>
<g id="did_I_Fail_it">
</g>
<g id="Great_Gatsby">
</g>
<g id="hippity_hop">
	<g id="Layer_33" class="st7">
	</g>
	<g id="Layer_34" class="st24">
	</g>
	<g id="Layer_35">
	</g>
</g>
<g id="Aye_Aye">
</g>
<g id="Lets_Jump">
</g>
<g id="Kangaroo">
</g>
<g id="Ladybug">
</g>
<g id="Like_Mike">
</g>
<g id="Navy">
</g>
<g id="OMG">
	<path class="st4" d="M81.96,297.96c-7.75-7.04-11.62-18.25-11.62-33.63v-63.6c0-10.63,1.63-19.15,4.9-25.56
		c3.27-6.4,8.52-11.11,15.76-14.12c7.24-3.01,16.81-4.52,28.73-4.52c17.93,0,30.84,3.46,38.72,10.38s11.82,18.19,11.82,33.82v63.6
		c0,15.25-4.04,26.42-12.1,33.53c-8.07,7.11-20.88,10.67-38.43,10.67C102.3,308.53,89.71,305.01,81.96,297.96z M138.55,279.71
		c3.46-3.58,5.19-9.16,5.19-16.72v-60.91c0-5-0.61-9.06-1.83-12.2c-1.22-3.14-3.59-5.57-7.11-7.3c-3.52-1.73-8.55-2.59-15.08-2.59
		c-8.97,0-15.02,1.83-18.16,5.48c-3.14,3.65-4.71,9.19-4.71,16.62v60.91c0,5.12,0.61,9.26,1.83,12.39c1.22,3.14,3.49,5.54,6.82,7.21
		c3.33,1.67,8.07,2.5,14.22,2.5C128.81,285.09,135.09,283.3,138.55,279.71z"/>
	<path class="st4" d="M220.17,229.39l1.95,26.85c0.01,0.07,0.01,0.14,0.01,0.22v49.16c0,1.66-1.34,3-3,3h-20.52c-1.66,0-3-1.34-3-3
		V163.46c0-1.66,1.34-3,3-3h20.63c1.17,0,2.24,0.68,2.73,1.75l26.65,58.05c1.07,2.33,4.38,2.33,5.45,0.01l26.82-58.06
		c0.49-1.06,1.55-1.74,2.72-1.74h20.64c1.66,0,3,1.34,3,3v142.15c0,1.66-1.34,3-3,3h-20.52c-1.66,0-3-1.34-3-3v-49.16
		c0-0.07,0-0.15,0.01-0.22l1.95-26.85c0.24-3.29-4.22-4.5-5.68-1.55l-21.78,44.12c-0.51,1.02-1.55,1.67-2.69,1.67h-2.23
		c-1.14,0-2.18-0.65-2.69-1.67l-21.78-44.12C224.4,224.89,219.93,226.1,220.17,229.39z"/>
	<path class="st4" d="M428.38,222.45c1.66,0,3,1.34,3,3v36.58c0,16.27-4.04,28.09-12.11,35.45c-8.07,7.37-20.88,11.05-38.43,11.05
		c-17.42,0-30.01-3.65-37.76-10.95c-7.75-7.3-11.62-18.96-11.62-34.97v-61.87c0-15.37,3.84-26.58,11.53-33.63
		c7.69-7.04,20.3-10.57,37.85-10.57c12.04,0,21.74,1.47,29.11,4.42c7.36,2.95,12.78,7.66,16.24,14.12
		c3.12,5.83,4.83,13.35,5.14,22.55c0.06,1.69-1.31,3.1-3,3.1h-20.55c-1.61,0-2.9-1.27-2.99-2.87c-0.2-3.67-0.78-6.68-1.75-9.04
		c-1.22-2.95-3.55-5.16-7.01-6.63c-3.46-1.47-8.52-2.21-15.18-2.21c-8.97,0-15.02,1.83-18.16,5.48c-3.14,3.65-4.71,9.19-4.71,16.62
		v60.53c0,5.12,0.61,9.26,1.83,12.39c1.22,3.14,3.49,5.54,6.82,7.21c3.33,1.67,8.07,2.5,14.22,2.5c9.35,0,16.01-1.89,19.98-5.67
		c3.97-3.78,5.96-9.45,5.96-17v-12.56c0-1.66-1.34-3-3-3h-19.17c-1.66,0-3-1.34-3-3v-18.02c0-1.66,1.34-3,3-3H428.38z"/>
	<path class="st1" d="M164.65,330.88c6.04,0,10.94-4.9,10.94-10.94c0-6.04-4.9-10.94-10.94-10.94l-88.85,0
		c-6.04,0-10.94,4.9-10.94,10.94c0,6.04,4.9,10.94,10.94,10.94L164.65,330.88z"/>
	<path class="st1" d="M298.93,331.17c6.04,0,10.94-4.9,10.94-10.94c0-6.04-4.9-10.94-10.94-10.94l-94.85,0
		c-6.04,0-10.94,4.9-10.94,10.94c0,6.04,4.9,10.94,10.94,10.94L298.93,331.17z"/>
	<path class="st1" d="M427.2,331.17c6.04,0,10.94-4.9,10.94-10.94c0-6.04-4.9-10.94-10.94-10.94l-88.85,0
		c-6.04,0-10.94,4.9-10.94,10.94c0,6.04,4.9,10.94,10.94,10.94L427.2,331.17z"/>
</g>
<g id="A_poopy_smell">
</g>
<g id="God_save_the_Queen">
</g>
<g id="Rabbit">
</g>
<g id="SS_SS_SS">
</g>
<g id="Tall">
</g>
<g id="Under_where">
</g>
<g id="Beethoven_x27_s_V">
</g>
<g id="a_WHITE_WHALE">
</g>
<g id="X_marks_the_spot">
</g>
<g id="You_x27_re_a_cool_Dude">
</g>
<g id="Zinc_Zoo_keeper">
</g>
<g id="guides" class="st7">
</g>
</svg>
