<?xml version="1.0" encoding="utf-8"?>
<!-- Generator: Adobe Illustrator 25.2.3, SVG Export Plug-In . SVG Version: 6.00 Build 0)  -->
<svg version="1.1" xmlns="http://www.w3.org/2000/svg" xmlns:xlink="http://www.w3.org/1999/xlink" x="0px" y="0px"
	 viewBox="0 0 500 500" style="enable-background:new 0 0 500 500;" xml:space="preserve">
<style type="text/css">
	.st0{fill:#3FA9F5;}
	.st1{fill:#0071BC;}
	.st2{font-family:'AcuminPro-Semibold';}
	.st3{font-size:40.9114px;}
	.st4{fill:#FFFFFF;}
	.st5{font-family:'AcuminPro-Bold';}
	.st6{fill:#0071BC;stroke:#3FA9F5;stroke-width:3;stroke-miterlimit:10;}
	.st7{display:none;}
	.st8{display:inline;fill:#3FA9F5;}
	.st9{display:inline;fill:none;stroke:#3FA9F5;stroke-width:3;stroke-linecap:round;stroke-miterlimit:10;}
	.st10{fill:none;stroke:#3FA9F5;stroke-width:3;stroke-linecap:round;stroke-miterlimit:10;}
	.st11{fill:none;stroke:#3FA9F5;stroke-width:2.5;stroke-linecap:round;stroke-miterlimit:10;}
	.st12{display:inline;fill:#0071BC;}
	.st13{fill:#00FB20;}
	.st14{display:inline;fill:none;stroke:#0071BC;stroke-width:3;stroke-miterlimit:10;}
	.st15{display:inline;fill:none;stroke:#3FA9F5;stroke-width:3;stroke-miterlimit:10;}
	.st16{display:inline;fill:#3FA9F5;stroke:#0071BC;stroke-width:3;stroke-miterlimit:10;}
	.st17{fill:none;stroke:#0071BC;stroke-width:7;stroke-miterlimit:10;}
	.st18{fill:none;stroke:#0071BC;stroke-width:5;stroke-miterlimit:10;}
	.st19{display:none;fill:none;stroke:#0071BC;stroke-width:3;stroke-miterlimit:10;}
	.st20{display:none;fill:#0071BC;}
	.st21{display:inline;fill:#0071BC;stroke:#3FA9F5;stroke-width:3;stroke-miterlimit:10;}
	.st22{display:inline;}
	.st23{display:inline;fill:#0071BC;stroke:#3FA9F5;stroke-width:2;stroke-miterlimit:10;}
	.st24{opacity:0.6;}
	.st25{fill:#0071BC;stroke:#3FA9F5;stroke-miterlimit:10;}
	.st26{fill:#0071BC;stroke:#3FA9F5;stroke-linecap:round;stroke-miterlimit:10;}
	.st27{fill:none;stroke:#0071BC;stroke-width:12;stroke-linecap:round;stroke-miterlimit:10;}
	.st28{fill:#0071BC;stroke:#3FA9F5;stroke-width:4;stroke-miterlimit:10;}
	.st29{fill:#0071BC;stroke:#3FA9F5;stroke-width:6;stroke-miterlimit:10;}
	.st30{fill:none;stroke:#3FA9F5;stroke-width:3;stroke-miterlimit:10;}
	.st31{display:inline;fill:#FFFFFF;}
	.st32{fill:#0071BC;stroke:#3FA9F5;stroke-width:5;stroke-miterlimit:10;}
	.st33{fill:none;stroke:#3FA9F5;stroke-width:4;stroke-miterlimit:10;}
	.st34{fill:none;stroke:#3FA9F5;stroke-width:5;stroke-miterlimit:10;}
	.st35{fill:#0071BC;stroke:#3FA9F5;stroke-width:2;stroke-miterlimit:10;}
	.st36{display:inline;fill:#0071BC;stroke:#3FA9F5;stroke-linecap:round;stroke-miterlimit:10;}
	.st37{fill:#3FA9F5;stroke:#0071BC;stroke-width:4;stroke-miterlimit:10;}
	.st38{display:none;fill:#3FA9F5;stroke:#0071BC;stroke-width:5;stroke-miterlimit:10;}
	.st39{fill:#3FA9F5;stroke:#0071BC;stroke-width:3;stroke-miterlimit:10;}
	.st40{fill:#0071BC;stroke:#0071BC;stroke-width:3;stroke-miterlimit:10;}
	.st41{fill:none;stroke:#0071BC;stroke-width:22;stroke-miterlimit:10;}
	.st42{display:none;fill:none;stroke:#0071BC;stroke-width:22;stroke-miterlimit:10;}
	.st43{display:inline;fill:none;stroke:#3FA9F5;stroke-width:2;stroke-miterlimit:10;}
	.st44{fill:none;stroke:#3FA9F5;stroke-width:2;stroke-miterlimit:10;}
</style>
<g id="background">
	<rect class="st0" width="500" height="500"/>
</g>
<g id="Text">
	<text transform="matrix(1 0 0 1 113.8115 431.7672)"><tspan x="0" y="0" class="st1 st2 st3">A </tspan><tspan x="37.8" y="0" class="st4 st5 st3">W</tspan><tspan x="76.71" y="0" class="st1 st2 st3">hite Whale</tspan></text>
</g>
<g id="Apart">
</g>
<g id="Be_a_good_boy">
	<g id="Layer_12">
	</g>
</g>
<g id="Charlies_Angels">
	<g id="Faces">
	</g>
</g>
<g id="Dog_did_it">
</g>
<g id="Eek">
</g>
<g id="did_I_Fail_it">
</g>
<g id="Great_Gatsby">
</g>
<g id="hippity_hop">
	<g id="Layer_33" class="st7">
	</g>
	<g id="Layer_34" class="st24">
	</g>
	<g id="Layer_35">
	</g>
</g>
<g id="Aye_Aye">
</g>
<g id="Lets_Jump">
</g>
<g id="Kangaroo">
</g>
<g id="Ladybug">
</g>
<g id="Like_Mike">
</g>
<g id="Navy">
</g>
<g id="OMG">
</g>
<g id="A_poopy_smell">
</g>
<g id="God_save_the_Queen">
</g>
<g id="Rabbit">
</g>
<g id="SS_SS_SS">
</g>
<g id="Tall">
</g>
<g id="Under_where">
</g>
<g id="Beethoven_x27_s_V">
</g>
<g id="a_WHITE_WHALE">
	<g>
		<g>
			<path class="st1" d="M475.85,190.89c0.59-1.26-0.66-2.6-1.64-1.74c-10.02,8.75-32.26,5.88-58.72,9.71
				c-24.51,3.55-45.57,12.17-48.26,17.48c-3.39,6.71,18.03,41.36,43.77,41.69C441.39,258.43,467.83,207.88,475.85,190.89z"/>
			<path class="st1" d="M237.97,181.78c-0.75-1.74,0.83-3.59,2.06-2.41c12.6,12.08,36.15,4.22,69.43,9.51
				c30.82,4.9,57.32,16.65,60.69,23.99c4.26,9.27-19.66,51.32-52.03,51.77C279.89,265.19,248.05,205.24,237.97,181.78z"/>
			<path class="st1" d="M364.5,222.75c-12.83,9.31-9.61,17.36-23.99,47.99c-7.06,15.03-32.52,33.87-45.16,43.75
				c-9.13,7.14-14.58,7.28-14.11,9.88c0.95,5.29,41.52,10.45,63.51-2.82c12-7.24,19.29-29.29,33.87-73.39
				c4.82-14.57,8.68-20.96,4.23-25.41C380.02,219.93,373.14,216.49,364.5,222.75z"/>
		</g>
		<path class="st1" d="M215,320c0,0-10.74-11.25-26-19c-17.2-8.74-35.6-18.09-58-13c-18.73,4.25-30.58,16.41-34,20
			c-6.4,6.73-9,13-9,13L215,320z"/>
	</g>
	<g>
		<path class="st1" d="M32,315.26c17.23-1.86,22.3,5.78,41,5.67c27.74-0.16,34.2-17.08,59-16.37c19.38,0.56,19.54,11,41,13.22
			c28.17,2.91,30.37-14.01,59-11.96c24.8,1.77,25.75,15.08,49,16.37c29.33,1.62,36.37-15.09,68-16.15c34-1.13,46.05,18.13,78,14.26
			c19.95-2.42,22.36-5.81,37-6.3c18-0.59,36,17,36,17H0C0,331,16.08,316.98,32,315.26z"/>
		<path class="st0" d="M31.98,315.11c5.08-0.56,10.27-0.34,15.25,0.87c4.98,1.17,9.79,2.91,14.81,3.76
			c2.49,0.49,5.03,0.69,7.56,0.85c1.27,0.02,2.54,0.07,3.81,0.04l3.8-0.18c5.06-0.4,10.06-1.44,14.81-3.22
			c4.76-1.74,9.24-4.16,13.79-6.49c1.13-0.59,2.29-1.14,3.44-1.71c1.16-0.54,2.34-1.05,3.52-1.57c1.21-0.44,2.4-0.93,3.63-1.34
			c1.24-0.35,2.47-0.78,3.73-1.05c5.04-1.21,10.26-1.48,15.42-1.05c2.57,0.32,5.17,0.68,7.65,1.54c2.49,0.8,4.87,1.92,7.13,3.16
			c4.48,2.52,8.81,5.02,13.65,6.29c4.79,1.35,9.84,1.82,14.82,1.93c5,0.08,9.95-0.68,14.63-2.36c4.7-1.64,9.15-4.09,13.92-6.13
			c4.75-2.08,9.92-3.44,15.13-3.92l3.91-0.2c1.3-0.05,2.6,0.05,3.9,0.08c0.65,0.03,1.3,0.04,1.95,0.08l1.94,0.21
			c1.29,0.14,2.59,0.26,3.87,0.53c5.15,0.85,10.2,2.6,14.8,5.05c4.59,2.46,8.75,5.39,13.31,7.31c4.53,1.98,9.42,3.03,14.41,3.32
			c5,0.28,10.03,0.17,14.95-0.7c4.93-0.84,9.7-2.48,14.37-4.41c4.68-1.92,9.33-4.09,14.18-5.83c4.84-1.76,9.87-3.05,14.96-3.82
			l3.83-0.49c1.28-0.13,2.57-0.17,3.85-0.25l1.93-0.11c0.64-0.04,1.29,0,1.93,0l3.86,0.04c5.13,0.28,10.27,0.82,15.26,2.08
			c4.99,1.19,9.89,2.76,14.67,4.55c4.79,1.77,9.53,3.63,14.38,5.12c1.22,0.35,2.42,0.76,3.65,1.05l3.69,0.88
			c2.49,0.42,4.98,0.91,7.51,1.05c2.52,0.32,5.05,0.17,7.58,0.23l3.79-0.29l1.89-0.15l1.89-0.25c5.04-0.66,10.05-1.57,14.99-2.77
			c2.47-0.59,4.94-1.25,7.44-1.8c2.5-0.55,5.05-0.97,7.6-1.22c2.56-0.23,5.1-0.42,7.72-0.28c0.32,0.01,0.65,0.01,0.97,0.03
			l0.96,0.13l1.93,0.27c1.28,0.22,2.52,0.57,3.78,0.86c4.97,1.45,9.63,3.72,14.02,6.39c2.2,1.33,4.32,2.79,6.37,4.34
			c2.06,1.55,4.03,3.17,5.94,4.95l1.26,1.18l-1.75,0.01l-125,0.65l-62.5,0.15l-62.5,0.08c-41.67-0.05-83.33,0-125-0.32
			c-41.67-0.28-83.33-0.84-125-0.98l-0.75,0l0.57-0.48c2.32-1.95,4.76-3.72,7.27-5.4c2.51-1.67,5.11-3.22,7.78-4.63
			c2.68-1.39,5.45-2.6,8.3-3.61C26.03,316.19,28.98,315.48,31.98,315.11z M32.02,315.41c-2.97,0.39-5.89,1.11-8.73,2.08
			c-2.82,1.03-5.56,2.25-8.22,3.65c-2.65,1.42-5.22,2.97-7.7,4.65c-2.48,1.69-4.91,3.48-7.18,5.41L0,330.73
			c41.67-0.13,83.33-0.7,125-0.98c41.67-0.32,83.33-0.27,125-0.32l62.5,0.08l62.5,0.15l125,0.65l-0.48,1.19
			c-1.8-1.72-3.76-3.36-5.76-4.9c-2-1.55-4.07-3.01-6.22-4.34c-4.28-2.68-8.84-4.96-13.68-6.37c-1.22-0.28-2.44-0.63-3.67-0.85
			l-1.86-0.26l-0.93-0.13c-0.31-0.03-0.62-0.02-0.94-0.04c-2.49-0.15-5.04,0.03-7.56,0.24c-2.52,0.24-5.02,0.64-7.49,1.18
			c-2.48,0.53-4.94,1.18-7.43,1.76c-4.97,1.19-10.02,2.09-15.09,2.73l-1.9,0.24l-1.92,0.16l-3.84,0.32
			c-2.57-0.04-5.14,0.12-7.7-0.19c-2.57-0.13-5.1-0.61-7.63-1.03l-3.75-0.87c-1.25-0.29-2.47-0.7-3.7-1.04
			c-4.91-1.49-9.68-3.32-14.46-5.06c-4.78-1.75-9.61-3.31-14.56-4.41c-4.93-1.18-9.99-1.63-15.03-1.84l-3.79,0.02
			c-0.63,0.01-1.26-0.02-1.89,0.03l-1.89,0.14c-1.26,0.1-2.52,0.16-3.78,0.3l-3.75,0.53c-4.97,0.83-9.85,2.15-14.57,3.93
			c-4.73,1.77-9.31,3.97-14.03,5.99c-4.72,2.01-9.63,3.78-14.76,4.73c-5.12,0.97-10.34,1.16-15.52,0.93
			c-5.19-0.28-10.43-1.36-15.25-3.46c-4.87-2.04-9.12-5.01-13.52-7.34c-4.41-2.32-9.12-3.93-14.03-4.72
			c-1.22-0.25-2.46-0.36-3.7-0.49l-1.86-0.19c-0.62-0.04-1.25-0.04-1.87-0.07c-1.25-0.02-2.5-0.13-3.74-0.09l-3.73,0.16
			c-4.95,0.42-9.78,1.64-14.38,3.61c-4.62,1.93-9.16,4.39-14.12,6.08c-4.94,1.73-10.24,2.49-15.43,2.37
			c-5.19-0.14-10.37-0.76-15.38-2.25c-5.05-1.42-9.61-4.15-13.94-6.7c-8.57-5.3-19.27-6.03-29.05-3.99
			c-9.93,2.04-18.41,8.3-28.13,11.63c-4.84,1.7-9.91,2.73-15.01,3.1l-3.84,0.16c-1.28,0.02-2.56-0.04-3.84-0.06
			c-2.55-0.18-5.11-0.4-7.62-0.91c-5.05-0.89-9.87-2.67-14.81-3.86C42.21,315.14,37.07,314.89,32.02,315.41z"/>
	</g>
	<g>
		<path class="st1" d="M99.36,227.63c0.4-1.9,1.09-3.76,2.04-5.53c0.98-1.74,2.3-3.36,3.98-4.61c1.66-1.28,3.73-2.06,5.82-2.35
			c0.52-0.08,1.05-0.13,1.58-0.13l0.79-0.02l0.78,0.05c1.02,0.02,2.18,0.26,3.23,0.64c2.15,0.79,3.88,2.4,5.1,4.13
			c1.2,1.76,2,3.66,2.66,5.56c0.63,1.91,1.09,3.83,1.46,5.76c0.39,1.92,0.69,3.85,0.93,5.78c0.99,7.71,1.32,15.42,1.52,23.12
			c0.13,7.7,0.07,15.4-0.06,23.09l-0.3,0c-0.28-7.69-0.61-15.37-1.14-23.03c-0.5-7.66-1.12-15.32-2.39-22.83
			c-0.66-3.74-1.48-7.47-2.81-10.9c-1.28-3.41-3.14-6.67-6.06-7.9c-0.74-0.31-1.48-0.53-2.38-0.61l-0.65-0.08l-0.65-0.02
			c-0.44-0.03-0.87,0-1.3,0.02c-1.73,0.08-3.42,0.59-4.93,1.48c-3.06,1.78-5.32,4.99-6.9,8.47L99.36,227.63z"/>
	</g>
	<g>
		<path class="st1" d="M162.86,230.3c-1.57-3.45-3.81-6.64-6.84-8.43c-1.51-0.89-3.17-1.42-4.89-1.51c-1.69-0.1-3.55,0.05-4.98,0.63
			c-2.95,1.14-4.85,4.31-6.15,7.68c-1.35,3.39-2.18,7.09-2.84,10.8c-1.27,7.45-1.89,15.06-2.39,22.67
			c-0.53,7.61-0.86,15.24-1.14,22.87l-0.3,0c-0.12-7.64-0.19-15.28-0.06-22.93c0.2-7.65,0.51-15.31,1.51-22.97
			c0.25-1.92,0.55-3.83,0.94-5.74c0.38-1.91,0.84-3.83,1.48-5.72c0.67-1.88,1.48-3.77,2.73-5.5c0.65-0.85,1.37-1.67,2.25-2.36
			c0.88-0.67,1.87-1.25,2.93-1.61c1.05-0.34,2.18-0.54,3.2-0.57c0.52-0.05,1.04-0.03,1.56-0.02c0.52-0.01,1.05,0.07,1.57,0.14
			c2.08,0.31,4.11,1.11,5.76,2.39c1.67,1.24,2.97,2.86,3.94,4.59c0.93,1.76,1.61,3.6,2.01,5.49L162.86,230.3z"/>
	</g>
	<g>
		<path class="st1" d="M108.41,207.75c0.18-1.83,0.73-3.67,1.78-5.33c0.5-0.84,1.19-1.59,1.94-2.28c0.78-0.67,1.69-1.2,2.65-1.61
			c0.98-0.38,2.01-0.58,3.04-0.65c0.51,0,1.03-0.01,1.52,0.05l0.75,0.1c0.26,0.05,0.56,0.12,0.83,0.19c1.11,0.33,2.12,1.01,2.85,1.8
			c0.75,0.79,1.27,1.69,1.68,2.59c0.82,1.8,1.21,3.63,1.5,5.44c0.29,1.81,0.43,3.62,0.53,5.41c0.17,3.6,0.1,7.16,0.41,10.7
			l-0.3,0.05c-0.41-1.75-0.65-3.54-0.89-5.31c-0.23-1.77-0.46-3.54-0.72-5.3c-0.25-1.75-0.54-3.5-0.95-5.18
			c-0.41-1.68-0.93-3.34-1.73-4.73c-0.79-1.41-1.89-2.43-3.13-2.6c-0.16-0.02-0.3-0.05-0.48-0.06l-0.58-0.03
			c-0.39-0.04-0.77,0.01-1.15,0c-0.75,0.06-1.49,0.15-2.2,0.36c-1.43,0.39-2.75,1.23-3.92,2.37c-1.17,1.15-2.17,2.58-3.15,4.12
			L108.41,207.75z"/>
	</g>
	<g>
		<path class="st1" d="M153.84,210.98c-0.98-1.53-1.97-2.97-3.15-4.12c-1.18-1.14-2.49-1.97-3.92-2.37c-0.71-0.21-1.45-0.3-2.2-0.36
			c-0.38,0.01-0.76-0.04-1.15,0l-0.58,0.03c-0.18,0.02-0.32,0.05-0.48,0.06c-1.24,0.17-2.34,1.19-3.13,2.6
			c-0.79,1.4-1.31,3.05-1.73,4.73c-0.42,1.69-0.7,3.43-0.95,5.18c-0.27,1.75-0.49,3.52-0.72,5.3c-0.23,1.77-0.47,3.56-0.89,5.31
			l-0.3-0.05c0.32-3.54,0.24-7.11,0.41-10.7c0.11-1.8,0.25-3.6,0.53-5.41c0.29-1.81,0.68-3.64,1.5-5.44
			c0.41-0.9,0.93-1.79,1.68-2.59c0.73-0.8,1.74-1.47,2.85-1.8c0.27-0.07,0.57-0.15,0.83-0.19l0.75-0.1c0.5-0.07,1.02-0.05,1.52-0.05
			c1.03,0.06,2.06,0.27,3.04,0.65c0.96,0.42,1.87,0.94,2.65,1.61c0.75,0.69,1.43,1.43,1.94,2.28c1.04,1.66,1.6,3.5,1.78,5.33
			L153.84,210.98z"/>
	</g>
	<path class="st4" d="M445.08,230c4.34,0,7.86-3.52,7.86-7.86c0-4.34-3.52-7.86-7.86-7.86l-63.81,0c-4.34,0-7.86,3.52-7.86,7.86
		s3.52,7.86,7.86,7.86L445.08,230z"/>
	<path class="st4" d="M343.07,231.7c4.34,0,7.86-3.52,7.86-7.86s-3.52-7.86-7.86-7.86l-63.81,0c-4.34,0-7.86,3.52-7.86,7.86
		c0,4.34,3.52,7.86,7.86,7.86L343.07,231.7z"/>
	<circle class="st4" cx="131.55" cy="223.94" r="7.94"/>
</g>
<g id="X_marks_the_spot">
</g>
<g id="You_x27_re_a_cool_Dude">
</g>
<g id="Zinc_Zoo_keeper">
</g>
<g id="guides" class="st7">
</g>
</svg>
