<?xml version="1.0" encoding="utf-8"?>
<!-- Generator: Adobe Illustrator 25.2.3, SVG Export Plug-In . SVG Version: 6.00 Build 0)  -->
<svg version="1.1" xmlns="http://www.w3.org/2000/svg" xmlns:xlink="http://www.w3.org/1999/xlink" x="0px" y="0px"
	 viewBox="0 0 500 500" style="enable-background:new 0 0 500 500;" xml:space="preserve">
<style type="text/css">
	.st0{fill:#3FA9F5;}
	.st1{fill:#0071BC;}
	.st2{font-family:'AcuminPro-Semibold';}
	.st3{font-size:40.9114px;}
	.st4{fill:#FFFFFF;}
	.st5{font-family:'AcuminPro-Bold';}
	.st6{fill:#0071BC;stroke:#3FA9F5;stroke-width:3;stroke-miterlimit:10;}
	.st7{display:none;}
	.st8{display:inline;fill:#3FA9F5;}
	.st9{display:inline;fill:none;stroke:#3FA9F5;stroke-width:3;stroke-linecap:round;stroke-miterlimit:10;}
	.st10{fill:none;stroke:#3FA9F5;stroke-width:3;stroke-linecap:round;stroke-miterlimit:10;}
	.st11{fill:none;stroke:#3FA9F5;stroke-width:2.5;stroke-linecap:round;stroke-miterlimit:10;}
	.st12{display:inline;fill:#0071BC;}
	.st13{fill:#00FB20;}
	.st14{display:inline;fill:none;stroke:#0071BC;stroke-width:3;stroke-miterlimit:10;}
	.st15{display:inline;fill:none;stroke:#3FA9F5;stroke-width:3;stroke-miterlimit:10;}
	.st16{display:inline;fill:#3FA9F5;stroke:#0071BC;stroke-width:3;stroke-miterlimit:10;}
	.st17{fill:none;stroke:#0071BC;stroke-width:7;stroke-miterlimit:10;}
	.st18{fill:none;stroke:#0071BC;stroke-width:5;stroke-miterlimit:10;}
	.st19{display:none;fill:none;stroke:#0071BC;stroke-width:3;stroke-miterlimit:10;}
	.st20{display:none;fill:#0071BC;}
	.st21{display:inline;fill:#0071BC;stroke:#3FA9F5;stroke-width:3;stroke-miterlimit:10;}
	.st22{display:inline;}
	.st23{display:inline;fill:#0071BC;stroke:#3FA9F5;stroke-width:2;stroke-miterlimit:10;}
	.st24{opacity:0.6;}
	.st25{fill:#0071BC;stroke:#3FA9F5;stroke-miterlimit:10;}
	.st26{fill:#0071BC;stroke:#3FA9F5;stroke-linecap:round;stroke-miterlimit:10;}
	.st27{fill:none;stroke:#0071BC;stroke-width:12;stroke-linecap:round;stroke-miterlimit:10;}
	.st28{fill:#0071BC;stroke:#3FA9F5;stroke-width:4;stroke-miterlimit:10;}
	.st29{fill:#0071BC;stroke:#3FA9F5;stroke-width:6;stroke-miterlimit:10;}
	.st30{fill:none;stroke:#3FA9F5;stroke-width:3;stroke-miterlimit:10;}
	.st31{display:inline;fill:#FFFFFF;}
	.st32{fill:#0071BC;stroke:#3FA9F5;stroke-width:5;stroke-miterlimit:10;}
	.st33{fill:none;stroke:#3FA9F5;stroke-width:4;stroke-miterlimit:10;}
	.st34{fill:none;stroke:#3FA9F5;stroke-width:5;stroke-miterlimit:10;}
	.st35{fill:#0071BC;stroke:#3FA9F5;stroke-width:2;stroke-miterlimit:10;}
	.st36{display:inline;fill:#0071BC;stroke:#3FA9F5;stroke-linecap:round;stroke-miterlimit:10;}
	.st37{fill:#3FA9F5;stroke:#0071BC;stroke-width:4;stroke-miterlimit:10;}
	.st38{display:none;fill:#3FA9F5;stroke:#0071BC;stroke-width:5;stroke-miterlimit:10;}
	.st39{fill:#3FA9F5;stroke:#0071BC;stroke-width:3;stroke-miterlimit:10;}
	.st40{fill:#0071BC;stroke:#0071BC;stroke-width:3;stroke-miterlimit:10;}
	.st41{fill:none;stroke:#0071BC;stroke-width:22;stroke-miterlimit:10;}
	.st42{display:none;fill:none;stroke:#0071BC;stroke-width:22;stroke-miterlimit:10;}
	.st43{display:inline;fill:none;stroke:#3FA9F5;stroke-width:2;stroke-miterlimit:10;}
	.st44{fill:none;stroke:#3FA9F5;stroke-width:2;stroke-miterlimit:10;}
</style>
<g id="background">
	<rect class="st0" width="500" height="500"/>
</g>
<g id="Text">
	<text transform="matrix(1 0 0 1 68.8115 431.7672)"><tspan x="0" y="0" class="st1 st2 st3">God save the </tspan><tspan x="254.51" y="0" class="st4 st5 st3">Q</tspan><tspan x="285.84" y="0" class="st1 st2 st3">ueen</tspan></text>
</g>
<g id="Apart">
</g>
<g id="Be_a_good_boy">
	<g id="Layer_12">
	</g>
</g>
<g id="Charlies_Angels">
	<g id="Faces">
	</g>
</g>
<g id="Dog_did_it">
</g>
<g id="Eek">
</g>
<g id="did_I_Fail_it">
</g>
<g id="Great_Gatsby">
</g>
<g id="hippity_hop">
	<g id="Layer_33" class="st7">
	</g>
	<g id="Layer_34" class="st24">
	</g>
	<g id="Layer_35">
	</g>
</g>
<g id="Aye_Aye">
</g>
<g id="Lets_Jump">
</g>
<g id="Kangaroo">
</g>
<g id="Ladybug">
</g>
<g id="Like_Mike">
</g>
<g id="Navy">
</g>
<g id="OMG">
</g>
<g id="A_poopy_smell">
</g>
<g id="God_save_the_Queen">
	<g>
		<g>
			<rect x="53.5" y="75.57" class="st1" width="385.13" height="260.86"/>
			<rect x="52.62" y="170.94" class="st0" width="386.89" height="48.47"/>
			
				<rect x="114.31" y="181.98" transform="matrix(1.669032e-03 -1 1 1.669032e-03 38.778 451.2779)" class="st0" width="262.19" height="48.47"/>
			
				<rect x="230.64" y="-26.58" transform="matrix(0.5608 -0.8279 0.8279 0.5608 -62.4842 294.2022)" class="st0" width="30.85" height="465.16"/>
			
				<rect x="7.89" y="192.22" transform="matrix(0.8277 -0.5612 0.5612 0.8277 -74.4047 172.9676)" class="st0" width="473.11" height="30.85"/>
			<rect x="52.62" y="181.96" class="st1" width="386.89" height="26.44"/>
			
				<rect x="114.31" y="193" transform="matrix(1.692706e-03 -1 1 1.692706e-03 38.7722 451.273)" class="st1" width="262.19" height="26.44"/>
			
				<rect x="239.46" y="-26.58" transform="matrix(0.5608 -0.8279 0.8279 0.5608 -62.4843 294.202)" class="st1" width="13.22" height="465.16"/>
			
				<rect x="7.89" y="201.03" transform="matrix(0.8277 -0.5612 0.5612 0.8277 -74.4031 172.9527)" class="st1" width="473.11" height="13.22"/>
			<path class="st0" d="M445.24,345.68H43.37V65.43h401.87V345.68z M53.94,335.11h380.72V76.01H53.94V335.11z"/>
		</g>
		<g>
			<ellipse class="st32" cx="237.25" cy="205.69" rx="89.42" ry="121.94"/>
			<path class="st0" d="M200.93,220.19c-1.15,13.82,1.83,18.23,0,28.11c-0.69,3.71-1.44,7.8-4.53,11.79
				c-3,3.87-5.87,4.64-12.69,9.07c-7.74,5.02-11.61,7.53-12.69,9.97c-4.39,9.9,14.17,30.76,34.45,40.8c0,0,18.05,8.93,42.61,5.44
				c1.63-0.23,9.07-2.72,9.07-2.72s-7.25-4.44-9.97-9.97c-0.54-1.1-1.75-4.07,2.72-19.04c2.74-9.17,3.86-10.3,5.44-17.23
				c1.76-7.71,2.68-12.01,0.91-16.32c-1.93-4.71-5.63-5.91-11.79-9.97c-15.19-10.03-27.86-25.96-31.73-30.83
				c-3.5-4.4-6.67-8.92-9.07-8.16C202.61,211.46,201.54,212.84,200.93,220.19z"/>
			<path class="st33" d="M246.71,293.25c2.81-0.32,10.02,0.33,14.05,2.79c2.27,1.39,3.32,2.79,6.35,5.58
				c2.24,2.07,9.65,7.68,14.05,10.6"/>
			<g id="crown_rings">
				<path class="st33" d="M188.51,157.81c-0.91-3.27-5.02-7.15-6.34-8.34c-3.2-2.87-8.09-6.1-10.89-5.72c-3,0.41-1.28,4.65-1.2,4.83
					c1.15,2.73,3.86,6.06,7.14,8.65c4.34,3.42,7.45,3.77,8.34,3.81C186.14,161.06,189.46,161.21,188.51,157.81z"/>
				<path class="st33" d="M192.13,146.1c-0.62-3.59-4.7-7.49-6.04-8.68c-3.21-2.86-8.25-5.93-11.4-5.16
					c-3.38,0.82-1.98,5.42-1.92,5.62c0.95,2.95,3.55,6.4,6.88,8.93c4.41,3.35,7.82,3.37,8.8,3.31
					C189.1,150.08,192.78,149.84,192.13,146.1z"/>
				<path class="st33" d="M197.85,139.16c2.37-4,0.51-9.34-0.16-11c-1.63-3.98-5.46-8.7-10.24-8.79c-5.12-0.1-7.36,5.21-7.45,5.44
					c-1.38,3.42-1.04,7.84,1.04,11.5c2.76,4.84,7.18,5.85,8.5,6.06C190.4,142.52,195.38,143.33,197.85,139.16z"/>
				<path class="st33" d="M286.57,138.43c2.23-2.88,2.35-8.53,2.33-10.31c-0.05-4.3-1.19-10.09-3.89-11.9
					c-2.89-1.94-5.33,2.19-5.44,2.38c-1.54,2.69-2.32,6.94-1.94,11.1c0.5,5.52,2.79,8.05,3.5,8.72
					C281.59,138.88,284.24,141.43,286.57,138.43z"/>
				<path class="st33" d="M279.63,128.46c3.88-2.88,4.09-8.53,4.05-10.31c-0.09-4.3-2.07-10.09-6.75-11.9
					c-5.02-1.94-9.27,2.19-9.45,2.38c-2.67,2.69-4.04,6.94-3.38,11.1c0.88,5.52,4.85,8.05,6.08,8.72
					C270.98,128.9,275.59,131.46,279.63,128.46z"/>
				<path class="st33" d="M267.08,122.2c5.03-2.88,3.49-8.53,3.44-10.31c-0.11-4.3-1.77-10.09-7.86-11.9
					c-6.52-1.94-11.12,2.19-11.36,2.38c-3.46,2.69-5.24,6.94-4.38,11.1c1.14,5.52,6.3,8.05,7.89,8.72
					C255.85,122.64,261.83,125.2,267.08,122.2z"/>
				<path class="st33" d="M209.24,133.61c4.86-3.29,5.12-9.75,5.07-11.79c-0.11-4.91-2.59-11.53-8.45-13.6
					c-6.29-2.22-11.6,2.51-11.83,2.72c-3.34,3.08-5.05,7.93-4.23,12.69c1.1,6.3,6.08,9.2,7.61,9.97
					C198.41,134.12,204.18,137.04,209.24,133.61z"/>
				<path class="st33" d="M227.67,126.36c5.21-3.29,5.49-9.75,5.44-11.79c-0.12-4.91-2.77-11.53-9.07-13.6
					c-6.75-2.22-12.45,2.51-12.69,2.72c-3.58,3.08-5.42,7.93-4.53,12.69c1.18,6.3,6.52,9.2,8.16,9.97
					C216.05,126.86,222.24,129.79,227.67,126.36z"/>
				<path class="st34" d="M246.95,122.73c5.21-3.29,5.49-9.75,5.44-11.79c-0.12-4.91-2.77-11.53-9.07-13.6
					c-6.75-2.22-12.45,2.51-12.69,2.72c-3.58,3.08-5.42,7.93-4.53,12.69c1.18,6.3,6.52,9.2,8.16,9.97
					C235.33,123.24,241.52,126.16,246.95,122.73z"/>
				
					<ellipse transform="matrix(0.911 -0.4125 0.4125 0.911 -23.2367 98.3736)" class="st30" cx="216.24" cy="103.01" rx="4.53" ry="2.97"/>
				<ellipse class="st30" cx="226.18" cy="100.09" rx="4.53" ry="2.97"/>
				<ellipse class="st30" cx="238.49" cy="99.19" rx="4.92" ry="2.97"/>
				<ellipse class="st30" cx="259.73" cy="101.91" rx="4.92" ry="2.97"/>
				
					<ellipse transform="matrix(0.4023 -0.9155 0.9155 0.4023 65.0504 317.9623)" class="st30" cx="276.05" cy="109.16" rx="2.97" ry="4.92"/>
				
					<ellipse transform="matrix(0.911 -0.4125 0.4125 0.911 -25.8974 94.3964)" class="st30" cx="205.69" cy="107.18" rx="4.13" ry="2.97"/>
				
					<ellipse transform="matrix(0.7902 -0.6128 0.6128 0.7902 -27.1051 143.6404)" class="st30" cx="196.26" cy="111.41" rx="4.92" ry="2.97"/>
				<path class="st30" d="M185.08,122.49c0.94,0.94,0.39,3.01-1.22,4.62s-3.68,2.16-4.62,1.22c-0.94-0.94-0.39-3.01,1.22-4.62
					C182.07,122.1,184.14,121.55,185.08,122.49z"/>
				<path class="st0" d="M219.06,107.77c-0.58,0.06-1.89,2.64-1.36,3.17c0.91,0.91,1.81,0.91,2.27,1.36
					c0.08,0.08,0.14,0.32,0.21,0.55c0.52,1.58-0.01,3-0.21,3.98c-0.33,1.59-0.23,3.9,0.91,5.44c1.06,1.44,3.26,2.53,4.53,1.81
					c1.65-0.92,1.06-4.48,0.91-5.44c-0.32-1.92-2.27-3.17-5.89-6.8C220.42,111.85,223.14,107.32,219.06,107.77z"/>
				<path class="st0" d="M239.36,103.58c-0.56-0.13-2.66,1.86-2.34,2.54c0.55,1.16,1.41,1.46,1.68,2.04
					c0.05,0.11,0.02,0.35,0.02,0.59c-0.04,1.66-1.01,2.82-1.53,3.68c-0.84,1.39-1.52,3.6-0.96,5.43c0.52,1.71,2.21,3.32,3.67,3.22
					c2.28-0.16,3.92-1.02,4.09-1.97c0.34-1.92-2.5-6.6-4.71-11.23C239.28,107.88,243.36,104.51,239.36,103.58z"/>
				<path class="st0" d="M259.36,106.03c-0.58-0.04-2.33,2.26-1.9,2.88c0.73,1.05,1.62,1.21,1.99,1.74c0.07,0.1,0.08,0.34,0.11,0.58
					c0.23,1.64-0.54,2.95-0.92,3.88c-0.61,1.5-0.92,3.8-0.08,5.51c0.79,1.61,2.76,3.07,4.14,2.59c1.79-0.61,1.84-4.22,1.86-5.19
					c0.03-1.95-1.67-3.53-4.59-7.74C259.97,110.28,263.46,106.31,259.36,106.03z"/>
				<path class="st0" d="M198.91,114.59c-0.58,0.06-1.89,2.64-1.36,3.17c0.91,0.91,1.81,0.91,2.27,1.36
					c0.08,0.08,0.14,0.32,0.21,0.55c0.52,1.58-0.01,3-0.21,3.98c-0.33,1.59-0.23,3.9,0.91,5.44c1.06,1.44,3.26,2.53,4.53,1.81
					c1.65-0.92,1.06-4.48,0.91-5.44c-0.32-1.92-2.27-3.17-5.89-6.8C200.27,118.67,202.99,114.13,198.91,114.59z"/>
				<path class="st0" d="M184.9,127.25c-0.58,0.06-1.89,2.64-1.36,3.17c0.91,0.91,1.81,0.91,2.27,1.36
					c0.08,0.08,0.14,0.32,0.21,0.55c0.52,1.58-0.01,3-0.21,3.98c-0.33,1.59-0.23,3.9,0.91,5.44c1.06,1.44,3.26,2.53,4.53,1.81
					c1.65-0.92,1.06-4.48,0.91-5.44c-0.32-1.92-2.27-3.17-5.89-6.8C186.26,131.33,188.98,126.8,184.9,127.25z"/>
				<path class="st0" d="M175.84,139.04c-0.58,0.06-1.89,2.64-1.36,3.17c0.91,0.91,1.81,0.91,2.27,1.36
					c0.08,0.08,0.14,0.32,0.21,0.55c0.52,1.58-0.01,3-0.21,3.98c-0.33,1.59-0.23,3.9,0.91,5.44c1.06,1.44,3.26,2.53,4.53,1.81
					c1.65-0.92,1.06-4.48,0.91-5.44c-0.32-1.92-2.27-3.17-5.89-6.8C177.2,143.12,179.92,138.58,175.84,139.04z"/>
				<path class="st0" d="M275.52,114.05c-0.55-0.17-2.79,1.66-2.52,2.36c0.47,1.19,1.3,1.56,1.53,2.16c0.04,0.11,0,0.35-0.02,0.59
					c-0.16,1.65-1.21,2.74-1.8,3.56c-0.94,1.32-1.78,3.48-1.36,5.34c0.39,1.75,1.97,3.62,3.42,3.48c1.88-0.18,2.78-3.68,3.02-4.62
					c0.48-1.89-0.8-3.82-2.66-8.6C275.12,118.33,279.43,115.28,275.52,114.05z"/>
			</g>
			<circle class="st0" cx="309.26" cy="229.1" r="10.91"/>
			<circle class="st0" cx="298.26" cy="264.1" r="10.91"/>
			<circle class="st0" cx="279.26" cy="292.1" r="10.91"/>
			<circle class="st0" cx="166.26" cy="195.6" r="10.91"/>
			<circle class="st0" cx="166.26" cy="229.6" r="10.91"/>
			<circle class="st0" cx="177.26" cy="263.6" r="10.91"/>
			<circle class="st0" cx="302.06" cy="155.29" r="10.91"/>
			<circle class="st0" cx="172.06" cy="161.29" r="10.91"/>
			<path class="st35" d="M168.74,200.7c-8.16-31.73-0.69-44.75,2.72-48.05c0,0,8.93,8.06,9.97,3.63c0.76-3.22-0.55-4.78,0.91-7.25
				c1.12-1.9,2.5-1.99,4.53-3.63c3.49-2.81,2.73-5.21,5.44-9.07c2.24-3.19,6.02-5.15,13.6-9.07c3.95-2.04,5.92-3.06,8.16-3.63
				c5.95-1.5,7.49,0.44,13.6-0.91c5.61-1.24,5.16-3.07,9.97-3.63c5.11-0.59,5.98,1.42,11.79,0.91c5.3-0.47,5.37-2.23,9.07-1.81
				c4.52,0.51,5.15,3.22,9.97,3.63c3.53,0.3,3.75-1.11,7.25-0.91c3.94,0.22,8.16,2.26,10.88,5.44c3.37,3.94,1.44,6.11,5.44,10.88
				c1.49,1.77,1.99,1.75,5.44,5.44c2.63,2.81,4.07,4.17,4.53,5.44c3.63,9.97-3.03,17.84-5.44,20.85
				c-7.25,9.07-6.03,24.24-4.53,31.73c1.81,9.07,4.53,18.13,0.91,22.67c-11.68,14.59-38.84,22.72-43.52,23.57
				c-9.97,1.81-34.49,1.39-50.77-4.53C188.69,238.78,173.35,218.61,168.74,200.7z"/>
			<g>
				<path class="st0" d="M208.18,169.42c-7.25,16.32-9.09,30.75-8.16,40.8c0.62,6.71,0.27,20.6,9.97,34.45
					c1.58,2.25,10.24,14.3,25.39,20.85c6.78,2.93,10.84,3.03,13.6,2.72c1.67-0.19,6.88-0.97,14.51-7.25
					c2-1.65,9.58-8.13,16.32-21.76c5.35-10.82,11.62-23.5,7.25-35.36c-1.66-4.51-3.39-4.92-4.53-9.97
					c-1.94-8.62,1.91-12.74,1.81-20.85c-0.09-8.22-4.17-15.64-8.16-19.95c-11.76-12.72-32.45-8.87-36.27-8.16
					C219.48,148.74,209.74,165.91,208.18,169.42z"/>
				<path class="st1" d="M208.41,169.52c-2.8,6.51-5.05,13.27-6.47,20.2c-1.35,6.94-1.8,14.05-0.98,21.03
					c0.36,3.58,0.69,7.07,1.34,10.5c0.63,3.43,1.53,6.79,2.76,10.01c1.23,3.22,2.79,6.28,4.65,9.14c0.43,0.74,0.97,1.4,1.45,2.1
					c0.49,0.7,1,1.38,1.53,2.04c1.07,1.32,2.21,2.6,3.4,3.83c4.76,4.92,10.28,9.07,16.28,12.06c2.99,1.48,6.15,2.75,9.22,3.48
					c3.08,0.72,5.98,0.84,8.58,0.1c2.7-0.77,5.48-2.36,8.05-4.27c2.6-1.97,4.92-4.11,7.12-6.59c2.18-2.47,4.18-5.14,5.97-7.96
					c0.9-1.41,1.76-2.85,2.56-4.33c0.41-0.74,0.81-1.47,1.18-2.23l1.17-2.29c3.17-6.28,6.14-12.45,7.42-18.67
					c0.63-3.08,0.89-6.14,0.43-9.05c-0.22-1.45-0.6-2.9-1.13-4.23c-0.26-0.67-0.55-1.27-0.94-1.95c-0.37-0.67-0.88-1.48-1.39-2.47
					c-0.51-0.98-0.95-2.07-1.24-3.11c-0.29-1.05-0.51-2.05-0.66-3.07c-0.32-2.03-0.41-4.16-0.2-6.22c0.2-2.07,0.68-4.02,1.16-5.77
					c0.48-1.76,0.95-3.36,1.26-4.93c1.26-6.14-0.28-12.85-3.67-18.53c-1.69-2.85-3.83-5.35-6.48-7.3c-2.64-1.97-5.71-3.43-8.98-4.38
					c-3.27-0.96-6.71-1.46-10.18-1.62c-3.47-0.15-6.99,0-10.46,0.54c-6.92,0.97-13.62,3.65-19.24,7.91
					c-2.81,2.13-5.37,4.58-7.65,7.27C212.01,163.44,209.94,166.36,208.41,169.52z M207.95,169.32c1.54-3.25,3.59-6.2,5.86-8.95
					c2.28-2.75,4.86-5.25,7.69-7.44c5.64-4.39,12.4-7.36,19.47-8.5c7.02-1.2,14.32-1.37,21.3,0.36c3.48,0.86,6.84,2.29,9.82,4.32
					c2.99,2.02,5.5,4.72,7.45,7.72c1.96,3.01,3.47,6.33,4.34,9.82c0.88,3.49,1.11,7.16,0.55,10.73c-0.54,3.57-1.77,6.94-1.97,10.43
					c-0.12,1.74,0.01,3.48,0.34,5.2c0.32,1.72,0.81,3.4,1.64,4.91c0.83,1.5,1.91,3,2.6,4.69c0.72,1.67,1.23,3.41,1.55,5.19
					c0.66,3.57,0.45,7.24-0.22,10.76c-1.4,7.08-4.53,13.6-7.66,19.96c-3.12,6.41-6.96,12.53-11.77,17.85
					c-2.38,2.67-5.09,5.07-8.02,7.15c-2.93,2.05-6.13,3.84-9.66,4.74c-3.56,0.91-7.3,0.54-10.75-0.45
					c-3.47-0.98-6.74-2.47-9.88-4.19c-6.27-3.45-11.88-8.04-16.64-13.37c-4.8-5.29-8.56-11.57-10.84-18.35
					c-1.14-3.39-1.93-6.89-2.43-10.43c-0.53-3.53-0.7-7.11-0.96-10.63c-0.67-7.12,0.02-14.31,1.5-21.27
					C202.75,182.6,205.07,175.83,207.95,169.32z"/>
			</g>
			<path class="st1" d="M239.24,214.46c0.63,0.27-0.26,2.44,0.8,3.2c0.59,0.43,1.5,0.21,2.4,0c1.5-0.35,1.67-0.11,2.4,0
				c1,0.15,0.88,0.41,2.4,1.6c0,0,1.14,0.27,4,1.6c0,0-3.7,1.84-6.4,1.6c-0.53-0.05-1.96-0.83-4.8-2.4c-2.56-1.42-2.26-1.74-2.4-2.4
				C237.31,216.09,238.58,214.18,239.24,214.46z"/>
			<path class="st1" d="M257.59,218.83c0-0.91,2.72-1.81,2.72-1.81c0.38,0.12,0,0.48,0,0.91c0,0.91-0.78,0.65-1.81,1.81
				c-0.54,0.6-0.91,0-0.91,0S257.59,219.67,257.59,218.83z"/>
			<path class="st1" d="M246.2,206.14c0.14,0.04,0.13,0.42,0,2.42c-0.14,2.03-0.21,2.99-0.81,4.03c-0.14,0.24-0.5,0.86-0.81,0.81
				c-0.36-0.07-0.19-0.96-0.81-1.61c-0.64-0.68-1.49-0.41-1.61-0.81c-0.15-0.5,1.18-0.94,2.42-2.42
				C245.69,207.25,245.94,206.07,246.2,206.14z"/>
		</g>
		<g>
			<g>
				<path class="st1" d="M244.19,244.76c-3.92,0-7.98-0.15-12.06-0.45c-6.07-0.45-11.13-3.65-11.35-3.78l-0.52-0.33l1.05-9.48
					l0.69-0.16c0.1-0.02,10.38-2.38,29.03-6.35c1.41-0.3,2.74-0.61,4.01-0.9c4.35-1.01,8.1-1.88,12.64-1.88
					c0.57,0,1.15,0.01,1.74,0.04l0.83,0.05c0.75,0.04,1.61,0.1,2.58,0.1c0.92,0,1.84-0.05,2.79-0.14c1.31-0.13,2.33-0.44,3.41-0.76
					c1.65-0.5,3.51-1.06,6.66-1.06h6.82l0.3,0.37c0.16,0.2,1.61,2.13,2.04,7.81c0.4,5.41,0.01,9.09,0,9.25l-0.07,0.67l-0.65,0.18
					c-0.32,0.09-7.89,2.2-17.44,2.76c-4.74,0.28-6.67,0.77-9.12,1.4c-2.49,0.64-5.58,1.43-12.59,2.22
					C254.82,244.32,250.89,244.76,244.19,244.76z"/>
				<path class="st0" d="M292.04,220.65c0,0,1.4,1.72,1.81,7.25c0.4,5.38,0,9.07,0,9.07s-7.67,2.16-17.23,2.72
					c-9.72,0.57-7.95,2.06-21.76,3.63c0,0-3.96,0.45-10.68,0.45c-3.36,0-7.4-0.11-11.99-0.45c-5.89-0.43-10.88-3.63-10.88-3.63
					l0.91-8.16c0,0,10.15-2.33,29.01-6.35c6.17-1.31,10.69-2.76,16.44-2.76c0.55,0,1.12,0.01,1.69,0.04
					c0.99,0.05,2.09,0.14,3.46,0.14c0.85,0,1.8-0.04,2.89-0.14c3.47-0.34,4.93-1.81,9.97-1.81
					C288.42,220.65,292.04,220.65,292.04,220.65 M292.99,218.65h-0.95h-6.35c-3.29,0-5.23,0.58-6.95,1.1
					c-1.08,0.32-2.01,0.6-3.22,0.72c-0.92,0.09-1.8,0.13-2.69,0.13c-0.94,0-1.74-0.05-2.52-0.09c-0.29-0.02-0.57-0.03-0.84-0.05
					c-0.6-0.03-1.2-0.04-1.79-0.04c-4.66,0-8.46,0.88-12.87,1.91c-1.27,0.3-2.59,0.6-3.99,0.9c-18.66,3.97-28.94,6.33-29.04,6.35
					l-1.38,0.32l-0.16,1.41l-0.91,8.16l-0.14,1.24l1.05,0.67c0.22,0.14,5.49,3.47,11.81,3.94c4.1,0.3,8.19,0.46,12.13,0.46
					c3.52,0,6.28-0.12,7.98-0.23c0.94-0.06,1.66-0.12,2.15-0.16c0.2-0.02,0.48-0.04,0.77-0.1l0,0.03
					c7.08-0.81,10.21-1.61,12.72-2.25c2.4-0.61,4.29-1.1,8.93-1.37c9.66-0.57,17.33-2.7,17.65-2.79l1.3-0.37l0.15-1.34
					c0.02-0.16,0.42-3.93,0.01-9.43c-0.44-5.86-1.96-8-2.26-8.37L292.99,218.65L292.99,218.65z"/>
			</g>
			<path class="st35" d="M194.94,208.23c1.94,0.27,4.79,0.47,8.16,0c4.1-0.57,7.16-1.89,9.07-2.72c5.4-2.36,5.67-3.81,9.07-4.53
				c3.19-0.68,5.11,0.14,9.07,0.91c5.07,0.98,8.71,0.95,15.41,0.91c8.64-0.06,8.13-1.52,22.67-2.72c5.49-0.45,11.79-0.91,11.79-0.91
				c6.69-0.48,7.73-0.51,9.97-0.91c2.28-0.41,11.79-2.72,15.41-2.72c6.24,0,4.24-0.32,9.97-1.81c1.59-0.41,8.16-3.63,8.16-3.63
				l-4.53-20.85c0,0-14-0.55-32.64,3.63c-12,2.69-21.61,3.4-25.39,3.63c-10.35,0.61-20.07,0.09-21.76,0
				c-6.34-0.35-23.57-0.91-23.57-0.91l-13.6,6.35C202.19,181.94,195.71,202.44,194.94,208.23z"/>
		</g>
	</g>
	<g>
		<path class="st4" d="M268.57,205.26c6.03,0,10.91-4.88,10.91-10.91c0-6.03-4.88-10.91-10.91-10.91h-69.66
			c-6.03,0-10.91,4.88-10.91,10.91c0,6.03,4.88,10.91,10.91,10.91H268.57z"/>
		<circle class="st4" cx="310.72" cy="194.35" r="10.91"/>
		<path class="st4" d="M132.24,205.73c6.03,0,10.91-4.88,10.91-10.91s-4.88-10.91-10.91-10.91H62.58c-6.03,0-10.91,4.88-10.91,10.91
			s4.88,10.91,10.91,10.91H132.24z"/>
		<path class="st4" d="M421.78,205.73c6.03,0,10.91-4.88,10.91-10.91s-4.88-10.91-10.91-10.91h-69.66
			c-6.03,0-10.91,4.88-10.91,10.91s4.88,10.91,10.91,10.91H421.78z"/>
	</g>
</g>
<g id="Rabbit">
</g>
<g id="SS_SS_SS">
</g>
<g id="Tall">
</g>
<g id="Under_where">
</g>
<g id="Beethoven_x27_s_V">
</g>
<g id="a_WHITE_WHALE">
</g>
<g id="X_marks_the_spot">
</g>
<g id="You_x27_re_a_cool_Dude">
</g>
<g id="Zinc_Zoo_keeper">
</g>
<g id="guides" class="st7">
</g>
</svg>
